<svg id="Capa_1" enable-background="new 0 0 512 512" height="512" viewBox="0 0 512 512" width="512" xmlns="http://www.w3.org/2000/svg"><g><path d="m256 7.502-186.374 62.124v176.292c0 117.321 75.073 221.479 186.373 258.579 111.3-37.1 186.373-141.258 186.373-258.579v-176.292z" fill="#f5fcff"/><path d="m206.6 445.54c21.61 20.11 46.65 36.85 74.4 49.24-8.11 3.62-16.45 6.87-25 9.72-111.3-37.1-186.37-141.26-186.37-258.58v-176.29l186.37-62.13 25 8.33-161.37 53.8v176.29c0 77.44 32.71 149.16 86.97 199.62z" fill="#d8ecfe"/><path d="m256 471.266c-93.185-35.588-155.074-124.853-155.074-225.348v-153.732l155.074-51.691 155.074 51.691v153.733c0 100.495-61.889 189.759-155.074 225.347z" fill="#ade194"/><path d="m206.6 445.54c-65.02-44.1-105.67-118.17-105.67-199.62v-153.73l18.7-6.23v159.96c0 77.44 32.71 149.16 86.97 199.62z" fill="#7dce6f"/><path d="m334.187 349.187h-156.374c-8.284 0-15-6.716-15-15v-125.312c0-8.284 6.716-15 15-15h156.374c8.284 0 15 6.716 15 15v125.311c0 8.285-6.716 15.001-15 15.001z" fill="#ffde5c"/><path d="m207.81 349.19h-30c-8.28 0-15-6.72-15-15v-125.31c0-8.29 6.72-15 15-15h30c-8.28 0-15 6.71-15 15v125.31c0 8.28 6.72 15 15 15z" fill="#ffc736"/><path d="m279.297 248.234c0-12.866-10.43-23.297-23.297-23.297s-23.297 10.43-23.297 23.297c0 6.898 3.001 13.094 7.765 17.359v37c0 8.578 6.953 15.531 15.531 15.531s15.531-6.953 15.531-15.531v-36.998c4.765-4.266 7.767-10.462 7.767-17.361z" fill="#548eb5"/><path d="m193.875 193.875v-46.593c0-34.31 27.814-62.124 62.124-62.124 34.31 0 62.124 27.814 62.124 62.124v46.593h-31.062v-46.593c0-17.155-13.907-31.062-31.062-31.062-17.155 0-31.062 13.907-31.062 31.062v46.593z" fill="#f5fcff"/><g><path d="m444.742 62.514-186.37-62.13c-1.54-.513-3.204-.513-4.744 0l-186.37 62.13c-3.063 1.021-5.128 3.887-5.128 7.115v84.03c0 4.142 3.358 7.5 7.5 7.5s7.5-3.358 7.5-7.5v-78.624l178.87-59.629 178.87 59.629v170.885c0 55.979-17.302 109.572-50.035 154.985-32.238 44.738-76.744 77.778-128.835 95.677-107.093-36.812-178.87-137.226-178.87-250.662v-59.57c0-4.142-3.358-7.5-7.5-7.5s-7.5 3.358-7.5 7.5v59.57c0 120.74 76.958 227.515 191.499 265.695 1.581.513 3.162.513 4.743 0 56.116-18.706 104.055-53.956 138.633-101.94 34.585-47.983 52.866-104.608 52.866-163.755v-176.29c-.001-3.228-2.066-6.095-5.129-7.116z"/><path d="m329.182 56.985-70.81-23.6c-1.54-.513-3.204-.513-4.743 0l-155.07 51.69c-3.063 1.021-5.128 3.887-5.128 7.115v153.73c0 50.757 15.186 99.607 43.915 141.271 28.655 41.556 68.76 73.053 115.979 91.086 1.784.658 3.568.658 5.352 0 47.219-18.033 87.325-49.53 115.979-91.086 28.729-41.663 43.915-90.514 43.915-141.271v-153.73c0-3.228-2.066-6.094-5.128-7.115l-53.25-17.75c-3.929-1.31-8.177.814-9.487 4.744s.814 8.177 4.744 9.487l48.122 16.041v148.323c0 96.821-57.827 181.803-147.57 217.304-89.743-35.5-147.57-120.483-147.57-217.304v-148.325l147.568-49.189 68.438 22.81c3.932 1.309 8.177-.814 9.487-4.744s-.814-8.178-4.743-9.487z"/><path d="m272.34 356.69h61.85c12.407 0 22.5-10.093 22.5-22.5v-125.31c0-12.407-10.093-22.5-22.5-22.5h-8.565v-39.098c0-38.391-31.233-69.625-69.625-69.625s-69.625 31.233-69.625 69.625v39.098h-8.565c-12.407 0-22.5 10.093-22.5 22.5v125.31c0 12.407 10.093 22.5 22.5 22.5h61.85c4.142 0 7.5-3.358 7.5-7.5s-3.358-7.5-7.5-7.5h-61.85c-4.136 0-7.5-3.364-7.5-7.5v-125.31c0-4.136 3.364-7.5 7.5-7.5h156.38c4.136 0 7.5 3.364 7.5 7.5v125.31c0 4.136-3.364 7.5-7.5 7.5h-61.85c-4.142 0-7.5 3.358-7.5 7.5s3.358 7.5 7.5 7.5zm-70.965-209.408c0-30.12 24.504-54.625 54.625-54.625s54.625 24.504 54.625 54.625v39.093h-16.063v-39.093c0-21.263-17.299-38.563-38.562-38.563s-38.562 17.299-38.562 38.563v39.093h-16.063zm31.063 0c0-12.992 10.57-23.563 23.562-23.563s23.562 10.57 23.562 23.563v39.098h-47.124z"/><path d="m255.999 325.624c12.7 0 23.031-10.332 23.031-23.031v-33.92c4.971-5.605 7.767-12.88 7.767-20.439 0-16.981-13.815-30.797-30.797-30.797s-30.797 13.815-30.797 30.797c0 7.558 2.795 14.833 7.765 20.438v33.921c0 12.7 10.332 23.031 23.031 23.031zm.001-93.187c8.71 0 15.797 7.086 15.797 15.797 0 4.484-1.92 8.775-5.269 11.772-1.589 1.422-2.498 3.455-2.498 5.588v36.999c0 4.428-3.603 8.031-8.031 8.031s-8.031-3.603-8.031-8.031v-37c0-2.133-.908-4.165-2.497-5.587-3.348-2.998-5.268-7.289-5.268-11.772 0-8.71 7.086-15.797 15.797-15.797z"/></g></g></svg>