<svg id="Capa_1" enable-background="new 0 0 511.996 511.996" height="512" viewBox="0 0 511.996 511.996" width="512" xmlns="http://www.w3.org/2000/svg"><g><path d="m255.998 442.548c-85.776 0-155.311-69.535-155.311-155.31v-62.123c0-85.776 69.535-155.31 155.31-155.31 85.776 0 155.31 69.535 155.31 155.31v62.123c.002 85.775-69.533 155.31-155.309 155.31z" fill="#ffcebf"/><g><g fill="#548eb5"><path d="m100.687 7.5h-93.187v93.187h31.062v-62.125h62.125z"/><path d="m411.309 7.5h93.187v93.187h-31.062v-62.125h-62.125z"/><path d="m100.687 504.496h-93.187v-93.187h31.062v62.125h62.125z"/><path d="m411.309 504.496h93.187v-93.187h-31.062v62.125h-62.125z"/></g></g><path d="m38.562 240.467h434.872v31.062h-434.872z" fill="#98bce5"/><g><path d="m7.5 108.187h31.063c4.142 0 7.5-3.358 7.5-7.5v-54.625h54.625c4.142 0 7.5-3.358 7.5-7.5v-31.062c0-4.142-3.358-7.5-7.5-7.5h-93.188c-4.142 0-7.5 3.358-7.5 7.5v93.187c0 4.142 3.358 7.5 7.5 7.5zm7.5-93.187h78.187v16.062h-54.624c-4.142 0-7.5 3.358-7.5 7.5v54.625h-16.063z"/><path d="m504.496 0h-93.187c-4.142 0-7.5 3.358-7.5 7.5v31.062c0 4.142 3.358 7.5 7.5 7.5h54.625v54.625c0 4.142 3.358 7.5 7.5 7.5h31.063c4.142 0 7.5-3.358 7.5-7.5v-93.187c-.001-4.142-3.359-7.5-7.501-7.5zm-7.5 93.187h-16.063v-54.625c0-4.142-3.358-7.5-7.5-7.5h-54.625v-16.062h78.187v78.187z"/><path d="m100.687 465.934h-54.624v-54.625c0-4.142-3.358-7.5-7.5-7.5h-31.063c-4.142 0-7.5 3.358-7.5 7.5v93.187c0 4.142 3.358 7.5 7.5 7.5h93.187c4.142 0 7.5-3.358 7.5-7.5v-31.063c0-4.141-3.358-7.499-7.5-7.499zm-7.5 31.062h-78.187v-78.187h16.063v54.625c0 4.142 3.358 7.5 7.5 7.5h54.625v16.062z"/><path d="m504.496 403.809h-31.063c-4.142 0-7.5 3.358-7.5 7.5v54.625h-54.625c-4.142 0-7.5 3.358-7.5 7.5v31.063c0 4.142 3.358 7.5 7.5 7.5h93.187c4.142 0 7.5-3.358 7.5-7.5v-93.187c.001-4.143-3.357-7.501-7.499-7.501zm-7.5 93.187h-78.187v-16.063h54.625c4.142 0 7.5-3.358 7.5-7.5v-54.625h16.063v78.188z"/><path d="m336.048 411.328c-23.837 15.4-51.519 23.54-80.05 23.54s-56.213-8.14-80.05-23.54c-3.479-2.248-8.122-1.25-10.37 2.23-2.248 3.479-1.25 8.122 2.23 10.37 26.269 16.97 56.764 25.94 88.19 25.94s61.921-8.97 88.19-25.94c3.479-2.248 4.478-6.891 2.23-10.37-2.249-3.479-6.891-4.476-10.37-2.23z"/><path d="m418.808 279.028h54.63c4.142 0 7.5-3.358 7.5-7.5v-31.06c0-4.142-3.358-7.5-7.5-7.5h-54.63v-8.03c0-43.498-16.936-84.383-47.686-115.122-26.313-26.324-61.118-42.943-98.005-46.797-4.118-.432-7.808 2.561-8.239 6.68-.43 4.12 2.561 7.808 6.68 8.239 33.475 3.497 65.067 18.584 88.957 42.485 27.917 27.908 43.292 65.025 43.292 104.516v8.03h-16.06v-8.03c0-29.229-9.377-56.914-27.117-80.062-2.52-3.288-7.227-3.91-10.515-1.391-3.288 2.52-3.911 7.228-1.391 10.515 15.716 20.507 24.023 45.037 24.023 70.938v8.03h-16.06v-8.03c0-26.89-10.471-52.176-29.489-71.205-14.697-14.686-33.216-24.348-53.557-27.94-4.082-.72-7.97 2.002-8.69 6.081s2.002 7.97 6.081 8.69c17.297 3.055 33.053 11.278 45.56 23.776 16.183 16.192 25.095 37.713 25.095 60.598v8.03h-16.07v-8.03c0-7.702-1.252-15.276-3.723-22.513-1.338-3.92-5.599-6.014-9.521-4.675-3.92 1.338-6.013 5.601-4.675 9.521 1.936 5.673 2.918 11.617 2.918 17.667v8.03h-16.06v-8.03c0-12.59-7.519-26.176-18.293-32.8-3.528-2.169-8.146-1.066-10.317 2.462-2.169 3.529-1.066 8.147 2.462 10.317 6.849 4.308 10.564 10.982 11.147 20.021v8.03h-47.12v-8.03c0-8.217 4.174-15.706 11.167-20.032 3.522-2.18 4.611-6.802 2.432-10.324-2.18-3.522-6.803-4.611-10.324-2.432-11.442 7.081-18.274 19.338-18.274 32.788v8.03h-16.06v-8.03c0-8.364 1.835-16.382 5.456-23.832 1.811-3.726.258-8.213-3.467-10.024-3.727-1.81-8.213-.258-10.024 3.467-4.621 9.51-6.964 19.733-6.964 30.388v8.03h-16.07v-8.03c0-41.654 29.715-77.139 70.655-84.374 4.079-.721 6.801-4.612 6.081-8.691-.721-4.079-4.61-6.797-8.691-6.081-48.12 8.504-83.045 50.201-83.045 99.146v8.03h-16.06v-8.03c0-25.927 8.316-50.469 24.05-70.975 2.521-3.286 1.902-7.994-1.384-10.516s-7.995-1.902-10.516 1.385c-17.762 23.147-27.15 50.848-27.15 80.105v8.03h-16.06v-8.03c0-75.927 56.855-139.123 132.25-147 4.12-.431 7.11-4.119 6.68-8.239s-4.12-7.105-8.239-6.68c-39.793 4.158-76.568 22.844-103.551 52.616-27.174 29.984-42.14 68.802-42.14 109.304v8.03h-54.63c-4.142 0-7.5 3.358-7.5 7.5v31.06c0 4.142 3.358 7.5 7.5 7.5h54.63v8.03c0 43.552 16.977 84.479 47.802 115.239 3.537 2.925 7.073 2.921 10.607-.011 2.926-2.932 2.92-7.681-.011-10.607-27.986-27.926-43.398-65.082-43.398-104.621v-8.03h16.06v8.03c0 65.894 49.196 122.046 114.433 130.616.332.043.661.065.986.065 3.708 0 6.931-2.749 7.427-6.524.54-4.107-2.353-7.874-6.459-8.413-57.8-7.593-101.387-57.352-101.387-115.744v-8.03h16.06v8.03c0 20.754 6.264 40.678 18.114 57.619 3.228 3.523 6.709 4.139 10.444 1.847 3.395-2.374 4.221-7.05 1.847-10.444-10.078-14.407-15.405-31.358-15.405-49.021v-8.03h16.07v8.03c0 11.326 2.78 22.57 8.041 32.519 9.008 17.018 24.781 29.654 43.276 34.67 3.797.98 8.386-1.165 9.202-5.276.806-4.063-1.278-8.117-5.276-9.202-14.5-3.932-26.873-13.85-33.943-27.208-4.18-7.904-6.3-16.485-6.3-25.503v-8.03h16.06v8.03c0 21.262 17.298 38.56 38.56 38.56s38.56-17.298 38.56-38.56v-8.03h16.06v8.03c0 9.018-2.12 17.599-6.299 25.501-7.071 13.36-19.444 23.278-33.944 27.21-3.998 1.084-6.499 5.244-5.276 9.202 1.399 4.527 5.405 6.256 9.202 5.276 18.495-5.016 34.269-17.652 43.277-34.672 5.26-9.946 8.04-21.19 8.04-32.516v-8.03h16.07v8.03c0 17.663-5.327 34.614-15.405 49.021-2.375 3.394-1.548 8.07 1.847 10.444 3.735 2.292 7.217 1.676 10.444-1.847 11.851-16.94 18.114-36.865 18.114-57.619v-8.03h16.06v8.03c0 58.392-43.587 108.151-101.387 115.744-4.106.54-6.999 4.306-6.459 8.413.496 3.775 3.719 6.524 7.427 6.524.325 0 .655-.021.986-.065 65.237-8.57 114.433-64.723 114.433-130.616v-8.03h16.06v8.03c0 39.54-15.412 76.695-43.398 104.621-2.932 2.926-2.937 7.675-.011 10.607 3.534 2.932 7.07 2.936 10.607.011 30.826-30.761 47.802-71.687 47.802-115.239v-8.031zm-139.25 8.03c0 12.991-10.569 23.56-23.56 23.56s-23.56-10.569-23.56-23.56v-8.03h8.81c4.142 0 7.5-3.358 7.5-7.5s-3.358-7.5-7.5-7.5h-195.19v-16.06h419.88v16.06h-192c-4.142 0-7.5 3.358-7.5 7.5s3.358 7.5 7.5 7.5h5.62z"/><path d="m337.527 130.886c2.306-3.441 1.904-7.994-1.381-10.517-23.157-17.782-50.872-27.181-80.148-27.181-29.258 0-56.958 9.388-80.105 27.15-3.287 2.521-3.906 7.229-1.385 10.516 2.522 3.287 7.229 3.907 10.516 1.385 20.505-15.734 45.047-24.05 70.974-24.05 25.943 0 50.505 8.318 71.012 24.079 3.988 3.063 8.571 1.521 10.517-1.382z"/><path d="m315.465 359.202c-2.373-3.395-7.049-4.224-10.444-1.851-14.413 10.073-31.365 15.397-49.023 15.397s-34.61-5.324-49.023-15.397c-3.395-2.372-8.071-1.545-10.444 1.851-2.373 3.395-1.544 8.071 1.851 10.444 16.945 11.843 36.869 18.103 57.616 18.103s40.671-6.26 57.616-18.103c3.395-2.374 4.224-7.049 1.851-10.444z"/><path d="m215.415 177.324c2.295 3.448 6.951 4.383 10.399 2.087 8.947-5.955 19.384-9.103 30.184-9.103 12.866 0 25.358 4.561 35.173 12.842 3.646 2.625 7.169 2.326 10.569-.896 2.671-3.166 2.27-7.897-.896-10.569-12.518-10.561-28.444-16.377-44.846-16.377-13.767 0-27.079 4.017-38.496 11.617-3.448 2.295-4.382 6.95-2.087 10.399z"/></g></g></svg>