<svg id="Capa_1" enable-background="new 0 0 512 512" height="512" viewBox="0 0 512 512" width="512" xmlns="http://www.w3.org/2000/svg"><g><path d="m162.814 224.938v-139.78c0-42.888 34.768-77.656 77.656-77.656 42.888 0 77.656 34.768 77.656 77.656v108.718h-31.062v-108.718c0-25.733-20.861-46.593-46.593-46.593-25.733 0-46.593 20.861-46.593 46.593v139.78z" fill="#98bce5"/><path d="m146.751 504.498h187.436c8.284 0 15-6.716 15-15v-249.56c0-8.284-6.716-15-15-15h-187.436c-8.284 0-15 6.716-15 15v249.56c0 8.284 6.716 15 15 15z" fill="#ffde5c"/><path d="m176.75 504.5h-30c-8.28 0-15-6.72-15-15v-249.56c0-8.29 6.72-15 15-15h30c-8.28 0-15 6.71-15 15v249.56c0 8.28 6.72 15 15 15z" fill="#ffc736"/><path d="m209.938 473.436h-78.187v-217.436h78.187c8.284 0 15 6.716 15 15v187.436c0 8.284-6.715 15-15 15z" fill="#548eb5"/><path d="m131.75 256h30v217.44h-30z" fill="#497090"/><circle cx="178.345" cy="364.718" fill="#fff" r="15.531"/><circle cx="178.345" cy="302.593" fill="#fff" r="15.531"/><circle cx="178.345" cy="426.842" fill="#fff" r="15.531"/><g fill="#548eb5"><path d="m287.063 411.311h93.187v31.062h-93.187z"/><path d="m287.063 349.187h93.187v31.062h-93.187z"/><path d="m287.063 287.062h93.187v31.062h-93.187z"/></g><g><path d="m178.345 325.625c12.7 0 23.031-10.332 23.031-23.031s-10.332-23.031-23.031-23.031-23.031 10.332-23.031 23.031 10.332 23.031 23.031 23.031zm0-31.063c4.428 0 8.031 3.603 8.031 8.031s-3.603 8.031-8.031 8.031-8.031-3.603-8.031-8.031 3.603-8.031 8.031-8.031z"/><path d="m178.345 387.749c12.7 0 23.031-10.332 23.031-23.031s-10.332-23.031-23.031-23.031-23.031 10.332-23.031 23.031 10.332 23.031 23.031 23.031zm0-31.062c4.428 0 8.031 3.603 8.031 8.031s-3.603 8.031-8.031 8.031-8.031-3.603-8.031-8.031 3.603-8.031 8.031-8.031z"/><path d="m178.345 449.874c12.7 0 23.031-10.332 23.031-23.031s-10.332-23.031-23.031-23.031-23.031 10.332-23.031 23.031 10.332 23.031 23.031 23.031zm0-31.063c4.428 0 8.031 3.603 8.031 8.031s-3.603 8.031-8.031 8.031-8.031-3.603-8.031-8.031 3.603-8.031 8.031-8.031z"/><path d="m380.25 279.562h-23.559v-39.622c0-12.407-10.094-22.5-22.5-22.5h-15.16c-4.143 0-7.5 3.358-7.5 7.5s3.357 7.5 7.5 7.5h15.16c4.136 0 7.5 3.364 7.5 7.5v39.622h-54.628c-4.143 0-7.5 3.358-7.5 7.5v31.063c0 4.142 3.357 7.5 7.5 7.5h54.628v16.062h-54.628c-4.143 0-7.5 3.358-7.5 7.5v31.063c0 4.142 3.357 7.5 7.5 7.5h54.628v16.062h-54.628c-4.143 0-7.5 3.358-7.5 7.5v31.063c0 4.142 3.357 7.5 7.5 7.5h54.628v39.625c0 4.136-3.364 7.5-7.5 7.5h-187.441c-4.136 0-7.5-3.364-7.5-7.5v-8.56h70.69c12.407 0 22.5-10.093 22.5-22.5v-187.44c0-12.407-10.093-22.5-22.5-22.5h-70.69v-8.56c0-4.136 3.364-7.5 7.5-7.5h139.59c4.143 0 7.5-3.358 7.5-7.5s-3.357-7.5-7.5-7.5h-84.96v-132.28c0-21.324 17.763-39.1 39.09-39.1 21.554 0 39.089 17.54 39.089 39.1v108.72c0 4.142 3.357 7.5 7.5 7.5h31.061c4.143 0 7.5-3.358 7.5-7.5v-108.72c0-21.729-8.183-42.414-23.041-58.243-2.836-3.02-7.581-3.172-10.602-.335-3.021 2.835-3.17 7.581-.336 10.601 12.238 13.038 18.979 30.077 18.979 47.978v101.22h-16.06v-101.221c0-29.831-24.265-54.1-54.089-54.1-29.511 0-54.09 24.593-54.09 54.1v132.28h-16.07v-132.28c0-38.687 31.474-70.16 70.16-70.16 9.329 0 18.375 1.798 26.886 5.343 3.82 1.591 8.215-.215 9.807-4.04 1.593-3.823-.215-8.214-4.039-9.807-10.349-4.31-21.335-6.496-32.654-6.496-46.958 0-85.16 38.203-85.16 85.16v132.28h-8.56c-12.407 0-22.5 10.093-22.5 22.5v108.43c0 4.142 3.358 7.5 7.5 7.5s7.5-3.358 7.5-7.5v-84.87h70.69c4.136 0 7.5 3.364 7.5 7.5v187.44c0 4.136-3.364 7.5-7.5 7.5h-70.69v-84.88c0-4.142-3.358-7.5-7.5-7.5s-7.5 3.358-7.5 7.5v108.44c0 12.407 10.093 22.5 22.5 22.5h187.44c12.406 0 22.5-10.093 22.5-22.5v-39.626h23.559c4.143 0 7.5-3.358 7.5-7.5v-31.063c0-4.142-3.357-7.5-7.5-7.5h-23.559v-16.062h23.559c4.143 0 7.5-3.358 7.5-7.5v-31.063c0-4.142-3.357-7.5-7.5-7.5h-23.559v-16.062h23.559c4.143 0 7.5-3.358 7.5-7.5v-31.063c0-4.141-3.358-7.499-7.5-7.499zm-7.5 155.312h-78.187v-16.063h78.187zm0-62.125h-78.187v-16.063h78.187zm0-62.124h-78.187v-16.063h78.187z"/><path d="m341.687 193.875c0 4.142 3.357 7.5 7.5 7.5h31.063c4.143 0 7.5-3.358 7.5-7.5s-3.357-7.5-7.5-7.5h-31.063c-4.143 0-7.5 3.358-7.5 7.5z"/><path d="m349.187 170.313c1.919 0 3.839-.732 5.304-2.197l21.965-21.964c2.929-2.929 2.929-7.678 0-10.606-2.929-2.929-7.677-2.929-10.607 0l-21.965 21.964c-2.929 2.929-2.929 7.678 0 10.606 1.464 1.466 3.383 2.197 5.303 2.197z"/><path d="m256 186.375h-31.062c-4.142 0-7.5 3.358-7.5 7.5s3.358 7.5 7.5 7.5h31.062c4.143 0 7.5-3.358 7.5-7.5s-3.357-7.5-7.5-7.5z"/><path d="m261.304 157.51-21.965-21.964c-2.929-2.929-7.678-2.929-10.606 0-2.929 2.929-2.929 7.678 0 10.606l21.964 21.964c3.536 2.929 7.071 2.929 10.607 0 2.929-2.928 2.929-7.677 0-10.606z"/></g></g></svg>