<svg id="Capa_1" enable-background="new 0 0 512 512" height="512" viewBox="0 0 512 512" width="512" xmlns="http://www.w3.org/2000/svg"><g><path d="m7.502 38.97h496.996v355.685h-496.996z" fill="#548eb5"/><path d="m7.5 38.97h50v355.68h-50z" fill="#497090"/><path d="m38.564 70.032h434.872v262.498h-434.872z" fill="#f5fcff"/><path d="m38.56 70.03h18.94v262.5h-18.94z" fill="#d8ecfe"/><path d="m162.813 441.968h186.374v31.062h-186.374z" fill="#548eb5"/><path d="m162.81 441.97h50v31.06h-50z" fill="#497090"/><path d="m224.938 394.654h62.125v47.315h-62.125z" fill="#f5fcff"/><path d="m287.06 394.65v20h-17.12c-8.284 0-15 6.716-15 15v12.318l-30 .002v-47.32z" fill="#d8ecfe"/><path d="m69.626 163.928h372.747v93.187h-372.747z" fill="#98bce5"/><g><path d="m504.5 31.47h-107.91c-4.143 0-7.5 3.358-7.5 7.5s3.357 7.5 7.5 7.5h100.41v340.68h-482v-340.68h348.91c4.143 0 7.5-3.358 7.5-7.5s-3.357-7.5-7.5-7.5h-356.41c-4.143 0-7.5 3.358-7.5 7.5v355.68c0 4.142 3.357 7.5 7.5 7.5h209.938v32.318h-54.624c-4.143 0-7.5 3.358-7.5 7.5v31.063c0 4.142 3.357 7.5 7.5 7.5h186.373c4.143 0 7.5-3.358 7.5-7.5v-31.063c0-4.142-3.357-7.5-7.5-7.5h-54.624v-32.318h209.937c4.143 0 7.5-3.358 7.5-7.5v-355.68c0-4.142-3.357-7.5-7.5-7.5zm-162.813 434.06h-171.374v-16.063h171.373v16.063zm-109.249-31.062v-32.313h47.125v32.313z"/><path d="m480.94 332.53v-262.5c0-4.142-3.357-7.5-7.5-7.5h-434.88c-4.143 0-7.5 3.358-7.5 7.5v29.85c0 4.142 3.357 7.5 7.5 7.5s7.5-3.358 7.5-7.5v-22.35h419.88v247.5h-419.88v-192.47c0-4.142-3.357-7.5-7.5-7.5s-7.5 3.358-7.5 7.5v199.97c0 4.142 3.357 7.5 7.5 7.5h434.88c4.143 0 7.5-3.358 7.5-7.5z"/><path d="m240.469 356.092c-4.143 0-7.5 3.358-7.5 7.5s3.357 7.5 7.5 7.5h31.063c4.143 0 7.5-3.358 7.5-7.5s-3.357-7.5-7.5-7.5z"/><path d="m272.34 264.62h170.03c4.143 0 7.5-3.358 7.5-7.5v-93.19c0-4.142-3.357-7.5-7.5-7.5h-372.74c-4.143 0-7.5 3.358-7.5 7.5v93.19c0 4.142 3.357 7.5 7.5 7.5h170.03c4.143 0 7.5-3.358 7.5-7.5s-3.357-7.5-7.5-7.5h-162.53v-78.19h357.74v78.19h-162.53c-4.143 0-7.5 3.358-7.5 7.5s3.357 7.5 7.5 7.5z"/><g><path d="m256 233.553c5.475 0 7.785-5.528 7.5-10.041 3.711 2.834 9.983 2.933 12.445-1.475 2.721-4.871-.636-9.719-4.946-11.516 4.31-1.797 7.75-6.814 4.946-11.516-3.057-5.124-8.735-4.309-12.445-1.475.285-4.513-2.025-10.041-7.5-10.041s-7.785 5.528-7.5 10.041c-3.711-2.834-9.667-3.573-12.445 1.475-2.877 5.227.636 9.719 4.946 11.516-4.31 1.797-8.187 6.505-4.946 11.516 3.237 5.004 8.735 4.309 12.445 1.475-.285 4.513 2.025 10.041 7.5 10.041z"/><g><path d="m380.343 233.553c5.475 0 7.785-5.528 7.5-10.041 3.711 2.834 9.983 2.933 12.445-1.475 2.721-4.871-.636-9.719-4.946-11.516 4.31-1.797 7.75-6.814 4.946-11.516-3.057-5.124-8.735-4.309-12.445-1.475.285-4.513-2.025-10.041-7.5-10.041s-7.785 5.528-7.5 10.041c-3.711-2.834-9.667-3.573-12.445 1.475-2.877 5.227.636 9.719 4.946 11.516-4.31 1.797-8.187 6.505-4.946 11.516 3.237 5.004 8.735 4.309 12.445 1.475-.285 4.513 2.025 10.041 7.5 10.041z"/><path d="m318.125 233.553c5.475 0 7.785-5.528 7.5-10.041 3.711 2.834 9.983 2.933 12.445-1.475 2.721-4.871-.636-9.719-4.946-11.516 4.31-1.797 7.75-6.814 4.946-11.516-3.057-5.124-8.735-4.309-12.445-1.475.285-4.513-2.025-10.041-7.5-10.041s-7.785 5.528-7.5 10.041c-3.711-2.834-9.667-3.573-12.445 1.475-2.877 5.227.636 9.719 4.946 11.516-4.31 1.797-8.187 6.505-4.946 11.516 3.237 5.004 8.735 4.309 12.445 1.475-.285 4.513 2.025 10.041 7.5 10.041z"/><path d="m131.844 233.553c5.475 0 7.785-5.528 7.5-10.041 3.711 2.834 9.983 2.933 12.445-1.475 2.721-4.871-.636-9.719-4.946-11.516 4.31-1.797 7.75-6.814 4.946-11.516-3.057-5.124-8.735-4.309-12.445-1.475.285-4.513-2.025-10.041-7.5-10.041s-7.785 5.528-7.5 10.041c-3.711-2.834-9.667-3.573-12.445 1.475-2.877 5.227.636 9.719 4.946 11.516-4.31 1.797-8.187 6.505-4.946 11.516 3.237 5.004 8.735 4.309 12.445 1.475-.285 4.513 2.025 10.041 7.5 10.041z"/><path d="m193.87 233.553c5.475 0 7.785-5.528 7.5-10.041 3.711 2.834 9.983 2.933 12.445-1.475 2.721-4.871-.636-9.719-4.946-11.516 4.31-1.797 7.75-6.814 4.946-11.516-3.057-5.124-8.735-4.309-12.445-1.475.285-4.513-2.025-10.041-7.5-10.041s-7.785 5.528-7.5 10.041c-3.711-2.834-9.667-3.573-12.445 1.475-2.877 5.227.636 9.719 4.946 11.516-4.31 1.797-8.187 6.505-4.946 11.516 3.237 5.004 8.735 4.309 12.445 1.475-.285 4.513 2.026 10.041 7.5 10.041z"/></g></g></g></g></svg>