<svg id="Capa_1" enable-background="new 0 0 512 512" height="512" viewBox="0 0 512 512" width="512" xmlns="http://www.w3.org/2000/svg"><g><path d="m396.311 504.498h-280.622c-8.284 0-15-6.716-15-15v-466.996c0-8.284 6.716-15 15-15h280.623c8.284 0 15 6.716 15 15v466.996c-.001 8.284-6.716 15-15.001 15z" fill="#548eb5"/><path d="m131.751 69.626h248.498v372.732h-248.498z" fill="#f5fcff"/><path d="m256 287.062c-42.887 0-77.653-34.766-77.653-77.653v-31.068c0-42.886 34.766-77.653 77.653-77.653 42.886 0 77.653 34.766 77.653 77.653v31.068c0 42.886-34.766 77.653-77.653 77.653z" fill="#ffcebf"/><path d="m165.69 504.5h-50c-8.29 0-15-6.72-15-15v-467c0-8.28 6.71-15 15-15h50c-8.29 0-15 6.72-15 15v467c0 8.28 6.71 15 15 15z" fill="#497090"/><path d="m131.75 69.63h18.94v372.73h-18.94z" fill="#d8ecfe"/><circle cx="256" cy="364.718" fill="#ade194" r="46.593"/><path d="m256 38.564c8.578 0 15.531-6.954 15.531-15.531v-15.531h-31.062v15.531c0 8.578 6.953 15.531 15.531 15.531z" fill="#98bce5"/><g><path d="m396.31 0h-280.62c-12.407 0-22.5 10.093-22.5 22.5v246.82c0 4.142 3.358 7.5 7.5 7.5s7.5-3.358 7.5-7.5v-246.82c0-4.136 3.364-7.5 7.5-7.5h117.279v8.033c0 12.7 10.332 23.031 23.031 23.031s23.031-10.332 23.031-23.031v-8.033h117.279c4.136 0 7.5 3.364 7.5 7.5v329.79c0 4.142 3.358 7.5 7.5 7.5s7.5-3.358 7.5-7.5v-329.79c0-12.407-10.093-22.5-22.5-22.5zm-132.279 23.033c0 4.428-3.603 8.031-8.031 8.031s-8.031-3.603-8.031-8.031v-8.031h16.063v8.031z"/><path d="m411.31 377.47c-4.142 0-7.5 3.358-7.5 7.5v104.53c0 4.136-3.365 7.5-7.5 7.5h-280.62c-4.135 0-7.5-3.364-7.5-7.5v-187.5c0-4.142-3.358-7.5-7.5-7.5s-7.5 3.358-7.5 7.5v187.5c0 12.407 10.093 22.5 22.5 22.5h280.62c12.407 0 22.5-10.093 22.5-22.5v-104.53c0-4.142-3.358-7.5-7.5-7.5z"/><path d="m317.31 62.13h-185.56c-4.142 0-7.5 3.358-7.5 7.5v372.73c0 4.142 3.358 7.5 7.5 7.5h248.5c4.142 0 7.5-3.358 7.5-7.5v-372.73c0-4.142-3.358-7.5-7.5-7.5h-30.26c-4.142 0-7.5 3.358-7.5 7.5s3.358 7.5 7.5 7.5h22.76v357.73h-233.5v-357.73h178.06c4.142 0 7.5-3.358 7.5-7.5s-3.358-7.5-7.5-7.5z"/><path d="m224.938 465.936c-4.142 0-7.5 3.358-7.5 7.5s3.358 7.5 7.5 7.5h62.124c4.142 0 7.5-3.358 7.5-7.5s-3.358-7.5-7.5-7.5z"/><path d="m256 217.44c-4.278 0-7.801-3.34-8.02-7.604-.212-4.137-3.739-7.322-7.875-7.106-4.136.212-7.318 3.738-7.106 7.875.628 12.244 10.73 21.835 23 21.835 12.699 0 23.03-10.331 23.03-23.03v-31.07c0-6.15-2.396-11.933-6.747-16.283s-10.132-6.747-16.282-6.747c-12.27 0-22.372 9.591-23 21.835-.212 4.137 2.97 7.662 7.106 7.875 4.151.225 7.662-2.969 7.875-7.106.219-4.264 3.741-7.604 8.02-7.604 2.143 0 4.159.835 5.677 2.353s2.353 3.534 2.353 5.677v31.07c-.001 4.428-3.603 8.03-8.031 8.03z"/><path d="m294.246 140.1c-10.209-10.221-23.792-15.85-38.246-15.85-6.416 0-12.687 1.111-18.64 3.301-3.888 1.43-5.879 5.741-4.449 9.628s5.74 5.88 9.628 4.449c4.289-1.578 8.818-2.378 13.46-2.378 10.445 0 20.258 4.066 27.637 11.453 7.209 7.21 11.274 16.782 11.444 26.952.069 4.099 3.413 7.375 7.497 7.375.042 0 .085 0 .128-.001 4.142-.069 7.443-3.483 7.374-7.625-.236-14.082-5.86-27.331-15.833-37.304z"/><path d="m237.514 260.248c5.927 2.158 12.146 3.252 18.486 3.252 29.322 0 53.582-23.844 54.079-53.152.07-4.142-3.23-7.556-7.372-7.626-.044 0-.087-.001-.13-.001-4.083 0-7.427 3.275-7.497 7.373-.358 21.177-17.89 38.406-39.08 38.406-4.583 0-9.077-.79-13.354-2.347-3.893-1.417-8.196.589-9.613 4.481s.589 8.197 4.481 9.614z"/><path d="m221.694 159.6c1.994-3.631.666-8.19-2.965-10.184-3.63-1.995-8.191-.666-10.184 2.965-4.341 7.906-6.636 16.883-6.636 25.959v31.07c0 9.127 2.319 18.148 6.706 26.087 2.993 3.853 6.39 4.832 10.192 2.937 3.625-2.003 4.94-6.566 2.937-10.192-3.163-5.724-4.834-12.236-4.834-18.833v-31.07c0-6.558 1.654-13.039 4.784-18.739z"/><path d="m296.896 103.634c-12.46-6.833-26.602-10.444-40.896-10.444-22.592 0-43.874 8.754-59.924 24.65-16.039 15.885-24.998 37.056-25.226 59.614-.042 4.142 3.282 7.533 7.424 7.575h.077c4.106 0 7.457-3.308 7.498-7.424.387-38.276 31.856-69.416 70.15-69.416 11.78 0 23.428 2.973 33.684 8.596 3.633 1.992 8.191.661 10.182-2.97 1.993-3.631.663-8.19-2.969-10.181z"/><path d="m196.076 269.91c16.05 15.896 37.332 24.65 59.924 24.65 13.125 0 25.711-2.905 37.409-8.635 3.72-1.822 5.259-6.314 3.437-10.034-1.821-3.72-6.315-5.257-10.034-3.437-9.626 4.715-19.993 7.105-30.811 7.105-38.294 0-69.763-31.14-70.15-69.416-.042-4.116-3.391-7.424-7.498-7.424-.025 0-.051 0-.077 0-4.142.042-7.466 3.434-7.424 7.575.227 22.56 9.185 43.731 25.224 59.616z"/><path d="m311.158 264.576c3.658 2.585 7.178 2.247 10.558-1.013 12.532-15.193 19.434-34.424 19.434-54.152v-31.07c0-18.636-5.913-36.338-17.099-51.191-2.491-3.308-7.194-3.971-10.503-1.479s-3.971 7.194-1.479 10.503c9.212 12.232 14.081 26.814 14.081 42.168v31.07c0 16.253-5.684 32.095-16.005 44.607-2.636 3.194-2.183 7.921 1.013 10.557z"/><path d="m243.089 385.617c2.938 2.933 7.703 2.924 10.627-.028l23.143-23.358c2.916-2.943 2.894-7.691-.049-10.606-2.942-2.916-7.691-2.894-10.606.049l-17.843 18.01-4.778-4.771c-2.931-2.926-7.68-2.923-10.607.007-2.927 2.931-2.923 7.68.007 10.607z"/><path d="m256 418.811c29.827 0 54.093-24.266 54.093-54.093s-24.266-54.093-54.093-54.093-54.093 24.266-54.093 54.093 24.266 54.093 54.093 54.093zm0-93.186c21.556 0 39.093 17.537 39.093 39.093s-17.537 39.093-39.093 39.093-39.093-17.537-39.093-39.093 17.537-39.093 39.093-39.093z"/></g></g></svg>