<svg id="Capa_1" enable-background="new 0 0 511.996 511.996" height="512" viewBox="0 0 511.996 511.996" width="512" xmlns="http://www.w3.org/2000/svg"><g><path d="m420.018 207.18-45.81 26.45-87.69 50.62-55.73 32.17c-7.17 4.15-16.34 1.69-20.49-5.49l-13.56-23.49-41.03-71.07 215.2-124.25 41.03 71.07 13.57 23.5c4.14 7.17 1.68 16.34-5.49 20.49z" fill="#98bce5"/><path d="m374.208 233.63-87.69 50.62c-2.53-6.05-3.93-12.68-3.93-19.63 0-28.15 22.91-51.06 51.07-51.06 16.51 0 31.21 7.88 40.55 20.07z" fill="#7bacdf"/><path d="m159.576 148.749h248.494v82.063h-248.494z" fill="#7bacdf" transform="matrix(.866 -.5 .5 .866 -56.865 167.342)"/><path d="m148.47 328.087-19.134 28.98-46.187-79.997 34.259-2.785z" fill="#548eb5"/><path d="m128.777 254.593h62.125v62.125h-62.125z" fill="#98bce5" transform="matrix(.866 -.5 .5 .866 -121.413 118.19)"/><path d="m349.185 326.811v-62.187h-31.062v62.249c0 34.242 27.758 62 62 62h62.249v-31.062h-62.187c-17.121 0-31-13.879-31-31z" fill="#548eb5"/><path d="m442.372 326.749h31.062v93.187h-31.062z" fill="#98bce5"/><path d="m473.434 295.686h31.062v155.311h-31.062z" fill="#548eb5"/><circle cx="333.654" cy="264.624" fill="#f5fcff" r="31.062"/><path d="m343.658 294.05c-3.14 1.06-6.5 1.64-10 1.64-17.16 0-31.07-13.91-31.07-31.07 0-17.15 13.91-31.06 31.07-31.06 3.5 0 6.86.58 10 1.64-12.25 4.16-21.07 15.76-21.07 29.42s8.82 25.27 21.07 29.43z" fill="#d8ecfe"/><path d="m355.407 65.141-269.061 155.343 73.494 65.171 269.007-155.311-31.093-53.855c-8.561-14.828-27.52-19.908-42.347-11.348z" fill="#f5fcff"/><path d="m168.522 249.016 21.596 19.154-30.28 17.48-73.49-65.17 269.06-155.34c13.05-7.53 29.29-4.5 38.84 6.44l-220.656 127.397c-18.323 10.579-20.899 36-5.07 50.039z" fill="#d8ecfe"/><g><path d="m504.496 288.187h-31.063c-4.142 0-7.5 3.358-7.5 7.5v23.562h-23.562c-4.142 0-7.5 3.358-7.5 7.5v23.562h-54.684c-12.958 0-23.5-10.542-23.5-23.5v-31.278c9.419-7.038 15.528-18.273 15.528-30.908 0-6.685-1.712-12.976-4.717-18.463l56.276-32.49c10.734-6.213 14.425-19.999 8.228-30.731l-19.817-34.32 20.412-11.784c1.723-.995 2.979-2.633 3.495-4.554.515-1.921.245-3.968-.75-5.691l-31.092-53.853c-10.621-18.38-34.215-24.702-52.593-14.093l-79.64 45.98c-3.587 2.071-4.816 6.658-2.745 10.245 2.071 3.588 6.658 4.816 10.245 2.745l79.64-45.979c11.22-6.477 25.622-2.614 32.105 8.604l27.34 47.355-257.832 148.856-61.66-54.679 152.099-87.817c3.587-2.071 4.816-6.658 2.745-10.245-2.072-3.587-6.66-4.816-10.245-2.745l-161.11 93.02c-2.088 1.206-3.469 3.341-3.712 5.739-.243 2.399.682 4.768 2.486 6.367l41.208 36.543-7.462 4.307-32.579 2.653c-6.082 1.581-8.044 5.323-5.886 11.226l14.69 25.44c2.072 3.586 6.659 4.814 10.246 2.745 3.587-2.071 4.816-6.659 2.745-10.246l-8.764-15.176 17.716-1.443 26.37 45.686-9.892 14.985-9.091-15.742c-2.071-3.586-6.658-4.815-10.246-2.744-3.587 2.071-4.815 6.659-2.744 10.246l15.16 26.25c2.805 4.856 9.701 5.006 12.754.381l18.155-27.502 45.771-26.433 4.282 7.417c6.301 10.901 20.34 14.248 30.733 8.232l66.205-38.216c2.577 4.208 5.935 7.888 9.875 10.832v31.339c0 38.793 33.184 70.415 71.67 69.5 4.142 0 7.5-3.358 7.5-7.5s-3.358-7.5-7.5-7.5c-30.145-.203-56.67-23.11-56.67-54.5v-24.532c5.357 1.131 10.713 1.131 16.07 0v24.471c0 21.229 17.271 38.5 38.5 38.5h54.68v16.06h-19.9c-4.142 0-7.5 3.358-7.5 7.5s3.358 7.5 7.5 7.5h19.903v23.565c0 4.142 3.358 7.5 7.5 7.5h23.562v23.562c0 4.142 3.358 7.5 7.5 7.5h31.063c4.142 0 7.5-3.358 7.5-7.5v-155.311c-.001-4.142-3.359-7.5-7.501-7.5zm-353.282 29.657-23.561-40.818 6.757-3.901 20.451 18.136c2.814 2.178 5.722 2.472 8.726.884l20.405-11.781 8.031 13.911zm75.817-7.915c-4.171 1.914-7.583.998-10.238-2.749l-19.81-34.315 202.213-116.745 19.817 34.321c2.066 3.577.831 8.174-2.745 10.244l-58.576 33.818c-26.718-21.366-67.268 2.028-62.167 35.888zm83.06-45.305c0-12.992 10.57-23.562 23.563-23.562s23.562 10.57 23.562 23.562-10.57 23.563-23.562 23.563-23.563-10.571-23.563-23.563zm139.781 147.812v-78.187h16.062v78.187zm47.124 31.062h-16.063v-140.311h16.063z"/><path d="m117.52 69.813c4.142 0 7.5-3.358 7.5-7.5s-3.358-7.5-7.5-7.5c-64.801 0-117.52 52.719-117.52 117.52 0 4.142 3.358 7.5 7.5 7.5s7.5-3.358 7.5-7.5c0-56.53 45.99-102.52 102.52-102.52z"/><path d="m116.218 100.875c4.142 0 7.5-3.358 7.5-7.5s-3.358-7.5-7.5-7.5c-46.955 0-85.155 38.201-85.155 85.156 0 4.142 3.358 7.5 7.5 7.5s7.5-3.358 7.5-7.5c0-38.684 31.471-70.156 70.155-70.156z"/><path d="m116.263 131.846c4.142 0 7.5-3.358 7.5-7.5s-3.358-7.5-7.5-7.5c-29.852 0-54.139 24.287-54.139 54.139 0 4.142 3.358 7.5 7.5 7.5s7.5-3.358 7.5-7.5c.001-21.581 17.558-39.139 39.139-39.139z"/></g></g></svg>