<svg id="Capa_1" enable-background="new 0 0 512 512" height="512" viewBox="0 0 512 512" width="512" xmlns="http://www.w3.org/2000/svg"><g><path d="m473.44 89.63v290.62h-434.88v-290.62c0-11.05 8.96-20 20-20h394.88c11.04 0 20 8.95 20 20z" fill="#f5fcff"/><path d="m38.56 349.19h434.88v31.06h-434.88z" fill="#d8ecfe"/><path d="m484.498 442.374h-456.998c-11.046 0-20-8.954-20-20v-42.125h496.998v42.125c0 11.045-8.954 20-20 20z" fill="#548eb5"/><path d="m77.5 442.37h-50c-11.05 0-20-8.95-20-20v-42.12h50v42.12c0 11.05 8.95 20 20 20z" fill="#497090"/><path d="m318.125 380.249h-124.25v16.062c0 8.284 6.716 15 15 15h94.249c8.284 0 15-6.716 15-15v-16.062z" fill="#98bce5"/><path d="m108.56 69.63c-11.04 0-20 8.95-20 20v290.62h-50v-290.62c0-11.05 8.96-20 20-20z" fill="#d8ecfe"/><path d="m69.626 100.689h372.747v248.498h-372.747z" fill="#98bce5"/><path d="m69.63 100.69h18.93v248.5h-18.93z" fill="#7bacdf"/><path d="m256 316.114c-40.317-15.397-67.093-54.018-67.093-97.497v-66.513l67.093-22.364 67.093 22.364v66.513c0 43.479-26.776 82.099-67.093 97.497z" fill="#f5fcff"/><path d="m224.938 209.407h62.125v46.593h-62.125z" fill="#ffde5c"/><path d="m224.94 209.41h20v46.59h-20z" fill="#ffc736"/><g><path d="m504.5 372.75h-23.56v-283.12c0-15.164-12.337-27.5-27.5-27.5h-59.7c-4.143 0-7.5 3.358-7.5 7.5s3.357 7.5 7.5 7.5h59.7c6.893 0 12.5 5.607 12.5 12.5v283.12h-419.88v-283.12c0-6.893 5.607-12.5 12.5-12.5h302.49c4.143 0 7.5-3.358 7.5-7.5s-3.357-7.5-7.5-7.5h-302.49c-15.164 0-27.5 12.336-27.5 27.5v283.12h-23.56c-4.142 0-7.5 3.358-7.5 7.5v42.12c0 15.164 12.336 27.5 27.5 27.5h218.76c4.142 0 7.5-3.358 7.5-7.5s-3.358-7.5-7.5-7.5h-218.76c-6.893 0-12.5-5.607-12.5-12.5v-34.62h171.375v8.561c0 12.407 10.093 22.5 22.5 22.5h94.249c12.406 0 22.5-10.093 22.5-22.5v-8.561h171.376v34.62c0 6.893-5.607 12.5-12.5 12.5h-205.55c-4.143 0-7.5 3.358-7.5 7.5s3.357 7.5 7.5 7.5h205.55c15.164 0 27.5-12.336 27.5-27.5v-42.12c0-4.142-3.357-7.5-7.5-7.5zm-193.876 23.561c0 4.136-3.364 7.5-7.5 7.5h-94.249c-4.136 0-7.5-3.364-7.5-7.5v-8.561h109.249z"/><path d="m69.63 264.72c-4.142 0-7.5 3.358-7.5 7.5v76.97c0 4.142 3.358 7.5 7.5 7.5h372.74c4.143 0 7.5-3.358 7.5-7.5v-248.5c0-4.142-3.357-7.5-7.5-7.5h-372.74c-4.142 0-7.5 3.358-7.5 7.5v138.85c0 4.142 3.358 7.5 7.5 7.5s7.5-3.358 7.5-7.5v-131.35h357.74v233.5h-357.74v-69.47c0-4.142-3.358-7.5-7.5-7.5z"/><path d="m253.324 323.12c1.784.658 3.568.658 5.352 0 42.792-16.343 71.917-58.533 71.917-104.503v-66.513c0-3.228-2.065-6.094-5.128-7.115l-67.093-22.364c-1.541-.513-3.205-.513-4.744 0l-67.093 22.364c-3.063 1.021-5.128 3.887-5.128 7.115v66.513c0 45.97 29.125 88.16 71.917 104.503zm-56.917-104.503v-61.107l59.593-19.864 59.593 19.864v61.107c0 39.56-23.295 74.351-59.593 89.424-36.298-15.073-59.593-49.864-59.593-89.424z"/><path d="m287.062 263.5c4.143 0 7.5-3.358 7.5-7.5v-46.593c0-4.142-3.357-7.5-7.5-7.5h-8.031v-8.031c0-12.7-10.332-23.031-23.031-23.031-12.7 0-23.031 10.332-23.031 23.031v8.031h-8.031c-4.142 0-7.5 3.358-7.5 7.5v46.593c0 4.142 3.358 7.5 7.5 7.5zm-39.093-69.625c0-4.428 3.603-8.031 8.031-8.031 4.429 0 8.031 3.603 8.031 8.031v8.031h-16.063v-8.031zm-15.531 23.032h47.124v31.593h-47.124z"/></g></g></svg>