<svg id="Capa_1" enable-background="new 0 0 511.87 511.87" height="512" viewBox="0 0 511.87 511.87" width="512" xmlns="http://www.w3.org/2000/svg"><g><path d="m504.374 426.779h-496.872v-341.685h155.311l31.062 31.062h310.499z" fill="#ffde5c"/><path d="m7.5 85.095h31.2v341.68h-31.2z" fill="#ffc736"/><path d="m38.564 147.218h434.873v248.498h-434.873z" fill="#f5fcff"/><g fill="#ade194"><circle cx="100.614" cy="271.447" r="15.531"/><circle cx="100.614" cy="209.322" r="15.531"/><circle cx="100.614" cy="333.571" r="15.531"/></g><g fill="#ade194"><circle cx="411.386" cy="271.447" r="15.531"/><circle cx="411.386" cy="209.322" r="15.531"/><circle cx="411.386" cy="333.571" r="15.531"/></g><path d="m256.074 364.654c-40.317-15.397-67.093-54.018-67.093-97.497v-66.513l67.093-22.364 67.093 22.364v66.513c0 43.48-26.776 82.1-67.093 97.497z" fill="#98bce5"/><path d="m225.012 257.947h62.125v46.593h-62.125z" fill="#f5fcff"/><path d="m225.01 257.945h20v46.6h-20z" fill="#d8ecfe"/><g><g><path d="m504.37 108.655h-76.64c-4.143 0-7.5 3.358-7.5 7.5s3.357 7.5 7.5 7.5h69.14v295.62h-481.87v-326.68h144.704l28.873 28.864c1.406 1.406 3.314 2.196 5.303 2.196h201.16c4.143 0 7.5-3.358 7.5-7.5s-3.357-7.5-7.5-7.5h-198.055l-28.873-28.864c-1.407-1.406-3.314-2.196-5.303-2.196h-155.309c-4.143 0-7.5 3.358-7.5 7.5v341.68c0 4.142 3.357 7.5 7.5 7.5h496.87c4.143 0 7.5-3.358 7.5-7.5v-310.62c0-4.142-3.357-7.5-7.5-7.5z"/><path d="m287.137 312.041c4.143 0 7.5-3.358 7.5-7.5v-46.594c0-4.142-3.357-7.5-7.5-7.5h-8.031v-8.031c0-12.699-10.332-23.031-23.031-23.031s-23.031 10.332-23.031 23.031v8.031h-8.031c-4.143 0-7.5 3.358-7.5 7.5v46.594c0 4.142 3.357 7.5 7.5 7.5zm-39.094-69.625c0-4.428 3.603-8.031 8.031-8.031s8.031 3.603 8.031 8.031v8.031h-16.063v-8.031zm-15.531 23.031h47.125v31.594h-47.125z"/><path d="m147.208 295.009c-4.143 0-7.5 3.358-7.5 7.5v23.562h-17.323c-3.119-9.027-11.697-15.531-21.771-15.531-12.699 0-23.031 10.332-23.031 23.031 0 12.7 10.332 23.031 23.031 23.031 10.074 0 18.652-6.504 21.771-15.531h24.823c4.143 0 7.5-3.358 7.5-7.5v-23.562h35.281c11.611 28.003 35.113 50.845 63.409 61.651 1.784.658 3.568.658 5.352 0 28.311-10.812 51.786-33.622 63.409-61.651h35.133v23.562c0 4.142 3.357 7.5 7.5 7.5h24.823c3.119 9.027 11.697 15.531 21.771 15.531 12.699 0 23.031-10.332 23.031-23.031s-10.332-23.031-23.031-23.031c-10.074 0-18.652 6.504-21.771 15.531h-17.323v-23.562c0-4.142-3.357-7.5-7.5-7.5h-37.631c1.345-5.258 2.311-10.622 2.88-16.063h59.575c3.119 9.027 11.697 15.531 21.771 15.531 12.699 0 23.031-10.332 23.031-23.031s-10.332-23.031-23.031-23.031c-10.074 0-18.652 6.504-21.771 15.531h-58.948v-16.062h34.125c4.143 0 7.5-3.358 7.5-7.5v-23.563h17.323c3.119 9.027 11.697 15.531 21.771 15.531 12.699 0 23.031-10.332 23.031-23.031s-10.332-23.031-23.031-23.031c-10.074 0-18.652 6.504-21.771 15.531h-24.823c-4.143 0-7.5 3.358-7.5 7.5v23.563h-26.625v-32.24c0-3.228-2.065-6.094-5.128-7.115l-67.093-22.364c-1.541-.513-3.203-.513-4.744 0l-67.093 22.364c-3.063 1.021-5.128 3.887-5.128 7.115v32.24h-26.773v-23.563c0-4.142-3.357-7.5-7.5-7.5h-24.823c-3.119-9.027-11.697-15.531-21.771-15.531-12.699 0-23.031 10.332-23.031 23.031 0 12.7 10.332 23.031 23.031 23.031 10.074 0 18.652-6.504 21.771-15.531h17.323v23.563c0 4.142 3.357 7.5 7.5 7.5h34.273v16.062h-59.097c-3.119-9.027-11.697-15.531-21.771-15.531-12.699 0-23.031 10.332-23.031 23.031 0 12.7 10.332 23.031 23.031 23.031 10.074 0 18.652-6.504 21.771-15.531h59.723c.569 5.441 1.535 10.804 2.88 16.063zm-46.594 46.593c-4.429 0-8.031-3.603-8.031-8.031s3.603-8.031 8.031-8.031 8.031 3.603 8.031 8.031-3.602 8.031-8.031 8.031zm310.772-16.062c4.429 0 8.031 3.603 8.031 8.031s-3.603 8.031-8.031 8.031-8.031-3.603-8.031-8.031 3.602-8.031 8.031-8.031zm0-124.249c4.429 0 8.031 3.603 8.031 8.031s-3.603 8.031-8.031 8.031-8.031-3.603-8.031-8.031 3.602-8.031 8.031-8.031zm-310.772 16.062c-4.429 0-8.031-3.603-8.031-8.031s3.603-8.031 8.031-8.031 8.031 3.603 8.031 8.031-3.602 8.031-8.031 8.031zm310.772 46.063c4.429 0 8.031 3.603 8.031 8.031s-3.603 8.031-8.031 8.031-8.031-3.603-8.031-8.031 3.602-8.031 8.031-8.031zm-214.905-57.365 59.593-19.864 59.593 19.864v61.107c0 38.635-23.707 74.522-59.593 89.424-36.298-15.073-59.593-49.864-59.593-89.424zm-95.867 73.427c-4.429 0-8.031-3.603-8.031-8.031s3.603-8.031 8.031-8.031 8.031 3.603 8.031 8.031-3.602 8.031-8.031 8.031z"/><path d="m272.42 403.215h201.02c4.143 0 7.5-3.358 7.5-7.5v-248.5c0-4.142-3.357-7.5-7.5-7.5h-434.88c-4.143 0-7.5 3.358-7.5 7.5v107.89c0 4.142 3.357 7.5 7.5 7.5s7.5-3.358 7.5-7.5v-100.39h419.88v233.5h-193.52c-4.143 0-7.5 3.358-7.5 7.5s3.357 7.5 7.5 7.5z"/></g><g><path d="m239.73 403.215h-201.17c-4.143 0-7.5-3.358-7.5-7.5v-107.93c0-4.142 3.357-7.5 7.5-7.5s7.5 3.358 7.5 7.5v100.43h193.67c4.143 0 7.5 3.358 7.5 7.5s-3.357 7.5-7.5 7.5z"/></g></g></g></svg>