<svg id="Capa_1" enable-background="new 0 0 512 512" height="512" viewBox="0 0 512 512" width="512" xmlns="http://www.w3.org/2000/svg"><g><path d="m411.92 69.63v176.29c0 9.86-.53 19.63-1.57 29.27-5.13 47.72-22.69 92.38-49.88 130.1-23.15 32.12-53.27 59.2-88.65 78.86-14.57 8.1-30.04 14.94-46.27 20.35-111.3-37.1-186.38-141.26-186.38-258.58v-176.29l186.38-62.13z" fill="#f5fcff"/><path d="m410.35 275.19c-5.13 47.72-22.69 92.38-49.88 130.1-23.15 32.12-53.27 59.2-88.65 78.86-7.24-7.65-13.55-16.18-18.74-25.43-10.48-18.62-16.47-40.1-16.47-62.94 0-70.98 57.74-128.72 128.72-128.72 4.84 0 9.61.27 14.3.8 10.69 1.18 20.98 3.68 30.72 7.33z" fill="#d8ecfe"/><path d="m176.15 445.54c21.62 20.12 46.65 36.85 74.4 49.24-8.11 3.62-16.45 6.87-25 9.72-111.3-37.1-186.38-141.26-186.38-258.58v-176.29l186.38-62.13 25 8.33-161.38 53.8v176.29c0 77.45 32.72 149.16 86.98 199.62z" fill="#d8ecfe"/><path d="m225.548 471.266c-93.185-35.588-155.074-124.852-155.074-225.347v-153.733l155.074-51.691 155.074 51.691v153.733c-.001 100.495-61.889 189.759-155.074 225.347z" fill="#ade194"/><path d="m379.63 267.86c-7.36 81.31-55.26 152.86-126.55 190.86-10.48-18.62-16.47-40.1-16.47-62.94 0-16.42 3.09-32.14 8.73-46.59 13.07-33.56 39.83-60.33 73.39-73.4 14.46-5.64 30.17-8.73 46.6-8.73 4.84 0 9.61.27 14.3.8z" fill="#7dce6f"/><path d="m176.15 445.54c-65.02-44.1-105.68-118.17-105.68-199.62v-153.73l18.7-6.23v159.96c0 77.45 32.72 149.16 86.98 199.62z" fill="#7dce6f"/><path d="m303.734 349.187h-156.373c-8.284 0-15-6.716-15-15v-125.312c0-8.284 6.716-15 15-15h156.374c8.284 0 15 6.716 15 15v125.311c-.001 8.285-6.716 15.001-15.001 15.001z" fill="#ffde5c"/><path d="m318.73 275.79v58.4c0 8.28-6.71 15-15 15h-58.39c13.07-33.56 39.83-60.33 73.39-73.4z" fill="#ffc736"/><path d="m177.36 349.19h-30c-8.28 0-15-6.72-15-15v-125.31c0-8.29 6.72-15 15-15h30c-8.28 0-15 6.71-15 15v125.31c0 8.28 6.72 15 15 15z" fill="#ffc736"/><path d="m248.844 248.234c0-12.866-10.43-23.297-23.297-23.297s-23.297 10.43-23.297 23.297c0 6.898 3.001 13.094 7.765 17.359v37c0 8.578 6.953 15.531 15.531 15.531s15.531-6.953 15.531-15.531v-36.998c4.766-4.266 7.767-10.462 7.767-17.361z" fill="#497090"/><path d="m163.423 193.875v-46.593c0-34.31 27.814-62.124 62.124-62.124 34.31 0 62.124 27.814 62.124 62.124v46.593h-31.061v-46.593c0-17.155-13.907-31.062-31.062-31.062-17.155 0-31.062 13.907-31.062 31.062v46.593z" fill="#f5fcff"/><circle cx="365.328" cy="395.78" fill="#f5fcff" r="108.718"/><path d="m442.98 395.78c0 25.41-12.2 47.96-31.06 62.13-12.97 9.75-29.11 15.53-46.59 15.53s-33.62-5.78-46.6-15.54c-18.86-14.16-31.06-36.72-31.06-62.12 0-42.89 34.77-77.66 77.66-77.66s77.65 34.77 77.65 77.66z" fill="#98bce5"/><path d="m411.92 431.31v26.6c-12.97 9.75-29.11 15.53-46.59 15.53s-33.62-5.78-46.6-15.54v-26.59c0-11.04 8.96-20 20-20h53.19c11.05 0 20 8.96 20 20z" fill="#f07281"/><path d="m375.33 472.8c-3.27.42-6.61.64-10 .64-17.48 0-33.62-5.78-46.6-15.54v-26.59c0-11.04 8.96-20 20-20h20c-11.04 0-20 8.96-20 20v26.59c10.46 7.87 22.98 13.15 36.6 14.9z" fill="#eb5569"/><circle cx="365.328" cy="380.249" fill="#ffeee6" r="31.062"/><path d="m375.33 409.67c-3.14 1.06-6.5 1.64-10 1.64-17.16 0-31.06-13.91-31.06-31.06 0-17.16 13.9-31.06 31.06-31.06 3.5 0 6.86.58 10 1.64-12.25 4.17-21.06 15.76-21.06 29.42 0 13.65 8.81 25.25 21.06 29.42z" fill="#ffdfcf"/><g><path d="m202.516 302.593c0 12.7 10.332 23.031 23.031 23.031s23.03-10.332 23.03-23.031v-33.919c4.971-5.605 7.767-12.88 7.767-20.439 0-16.981-13.815-30.797-30.797-30.797s-30.797 13.815-30.797 30.797c0 7.558 2.795 14.833 7.766 20.438zm23.031-70.156c8.71 0 15.797 7.086 15.797 15.797 0 4.484-1.92 8.775-5.269 11.772-1.59 1.423-2.498 3.455-2.498 5.588v36.999c0 4.428-3.603 8.031-8.03 8.031-4.429 0-8.031-3.603-8.031-8.031v-37c0-2.133-.908-4.165-2.497-5.588-3.349-2.998-5.269-7.288-5.269-11.771.001-8.71 7.087-15.797 15.797-15.797z"/><path d="m473.947 404.704c-4.093-.619-7.916 2.203-8.533 6.298-7.389 49.027-50.415 85.998-100.084 85.998-55.813 0-101.22-45.407-101.22-101.22s45.407-101.22 101.22-101.22c49.669 0 92.695 36.971 100.084 85.998.617 4.097 4.449 6.91 8.533 6.299 4.097-.618 6.916-4.438 6.299-8.534-4.103-27.224-17.871-52.206-38.771-70.345-7.839-6.804-16.497-12.47-25.716-16.909 2.427-14.873 3.661-30.031 3.661-45.148v-176.291c0-3.228-2.065-6.094-5.128-7.115l-73-24.34c-3.932-1.313-8.178.813-9.487 4.743-1.31 3.929.813 8.177 4.743 9.487l67.872 22.63v170.885c0 13.183-1.004 26.395-2.956 39.4-5.182-1.694-10.486-3.024-15.876-3.978 1.672-11.679 2.532-23.559 2.532-35.422v-153.73c0-3.228-2.065-6.094-5.128-7.115l-155.069-51.69c-1.541-.513-3.203-.513-4.744 0l-155.08 51.69c-3.063 1.021-5.128 3.887-5.128 7.115v153.73c0 50.756 15.188 99.607 43.919 141.271 28.658 41.555 68.765 73.052 115.985 91.086 1.783.658 3.566.658 5.35.001 13.737-5.242 27.026-11.729 39.615-19.303 2.983 4.586 6.278 8.951 9.859 13.061-16.398 10.029-33.891 18.267-52.148 24.546-107.1-36.814-178.88-137.227-178.88-250.662v-170.884l178.881-59.63 79.987 26.669c3.93 1.31 8.177-.813 9.487-4.743 1.31-3.929-.813-8.177-4.743-9.487l-82.359-27.46c-1.539-.514-3.203-.513-4.744 0l-186.383 62.13c-3.063 1.021-5.128 3.887-5.128 7.115v176.29c0 120.738 76.962 227.513 191.509 265.695 1.582.513 3.163.513 4.745 0 21.323-7.111 41.69-16.748 60.629-28.666 20.491 18.069 47.374 29.051 76.778 29.051 27.989 0 55.031-10.092 76.145-28.417 20.9-18.139 34.669-43.122 38.771-70.345.617-4.097-2.203-7.917-6.299-8.534zm-248.397 58.52c-89.749-35.503-147.58-120.485-147.58-217.304v-148.324l147.58-49.19 147.569 49.19v148.324c0 11.312-.83 22.638-2.445 33.764-14.715-.677-30.668 1.714-44.444 6.65v-77.454c0-12.407-10.094-22.5-22.5-22.5h-8.558v-39.098c0-38.391-31.233-69.625-69.625-69.625-38.391 0-69.624 31.233-69.624 69.625v39.098h-8.563c-12.406 0-22.5 10.093-22.5 22.5v39.41c0 4.142 3.357 7.5 7.5 7.5s7.5-3.358 7.5-7.5v-39.41c0-4.136 3.364-7.5 7.5-7.5h156.37c4.136 0 7.5 3.364 7.5 7.5v84.066c-20.741 10.956-37.785 28.001-48.739 48.744h-115.131c-4.136 0-7.5-3.364-7.5-7.5v-53.21c0-4.142-3.357-7.5-7.5-7.5s-7.5 3.358-7.5 7.5v53.21c0 12.407 10.094 22.5 22.5 22.5h108.521c-10.273 28.677-8.581 61.738 4.602 89.206-11.124 6.722-22.834 12.539-34.933 17.328zm54.622-276.849h-16.062v-39.093c0-21.263-17.299-38.563-38.563-38.563-21.263 0-38.562 17.299-38.562 38.563v39.093h-16.063v-39.093c0-30.12 24.504-54.625 54.624-54.625s54.625 24.504 54.625 54.625v39.093zm-78.186-39.093c0-12.992 10.569-23.563 23.562-23.563s23.563 10.57 23.563 23.563v39.098h-47.124v-39.098z"/><path d="m365.328 310.624c-46.955 0-85.155 38.201-85.155 85.156 0 46.503 38.833 85.155 85.155 85.155 46.321 0 85.155-38.655 85.155-85.155 0-46.955-38.2-85.156-85.155-85.156zm-39.098 143.378v-22.692c0-6.893 5.607-12.5 12.5-12.5h53.189c6.893 0 12.5 5.607 12.5 12.5v22.695c-11.178 7.529-24.63 11.93-39.092 11.93-14.463 0-27.918-4.402-39.097-11.933zm15.535-73.753c0-12.992 10.57-23.563 23.563-23.563s23.563 10.57 23.563 23.563c0 12.979-10.55 23.54-23.524 23.561h-.077c-12.975-.021-23.525-10.582-23.525-23.561zm77.654 60.158v-9.097c0-13.907-10.38-25.429-23.798-27.244 5.171-6.563 8.268-14.833 8.268-23.817 0-21.264-17.299-38.563-38.563-38.563s-38.563 17.299-38.563 38.563c0 8.984 3.097 17.254 8.268 23.817-13.42 1.813-23.803 13.335-23.803 27.244v9.09c-10.026-12.135-16.058-27.686-16.058-44.62 0-38.684 31.472-70.156 70.155-70.156s70.155 31.472 70.155 70.156c.003 16.937-6.031 32.491-16.061 44.627z"/></g></g></svg>