<svg id="Capa_1" enable-background="new 0 0 511.96 511.96" height="512" viewBox="0 0 511.96 511.96" width="512" xmlns="http://www.w3.org/2000/svg"><g><path d="m365.229 380.229h-218.498c-8.284 0-15-6.716-15-15v-187.436c0-8.284 6.716-15 15-15h218.498c8.284 0 15 6.716 15 15v187.436c0 8.284-6.716 15-15 15z" fill="#ffde5c"/><path d="m69.606 411.271h372.747v93.187h-372.747z" fill="#98bce5"/><g fill="#ade194"><circle cx="54.075" cy="271.511" r="15.531"/><circle cx="54.075" cy="209.387" r="15.531"/><circle cx="54.075" cy="333.636" r="15.531"/></g><g fill="#ade194"><circle cx="457.885" cy="271.511" r="15.531"/><circle cx="457.885" cy="209.387" r="15.531"/><circle cx="457.885" cy="333.636" r="15.531"/></g><path d="m196.73 380.23h-50c-8.28 0-15-6.72-15-15v-187.44c0-8.28 6.72-15 15-15h50c-8.28 0-15 6.72-15 15v187.44c0 8.28 6.72 15 15 15z" fill="#ffc736"/><path d="m342.167 349.167h-172.374c-3.866 0-7-3.134-7-7v-141.312c0-3.866 3.134-7 7-7h172.374c3.866 0 7 3.134 7 7v141.311c0 3.867-3.134 7.001-7 7.001z" fill="#fee97e"/><path d="m181.73 193.86v155.31h-11.94c-3.86 0-7-3.14-7-7v-141.31c0-3.87 3.14-7 7-7z" fill="#f9da58"/><path d="m193.855 162.793v-93.166c0-34.31 27.814-62.124 62.124-62.124 34.31 0 62.124 27.814 62.124 62.124v93.166h-31.062v-93.166c0-17.155-13.907-31.062-31.062-31.062-17.155 0-31.062 13.907-31.062 31.062v93.166z" fill="#98bce5"/><path d="m279.277 248.275c0-12.866-10.43-23.297-23.297-23.297s-23.297 10.43-23.297 23.297c0 6.898 3.001 13.094 7.765 17.359v37c0 8.578 6.953 15.531 15.531 15.531s15.531-6.953 15.531-15.531v-36.998c4.766-4.266 7.767-10.462 7.767-17.361z" fill="#f5fcff"/><g><g><path d="m255.979 325.666c12.7 0 23.031-10.332 23.031-23.031v-33.92c4.971-5.605 7.767-12.88 7.767-20.439 0-16.981-13.815-30.797-30.797-30.797s-30.797 13.815-30.797 30.797c0 7.558 2.794 14.832 7.765 20.438v33.921c0 12.699 10.332 23.031 23.031 23.031zm.001-93.187c8.71 0 15.797 7.086 15.797 15.797 0 4.484-1.92 8.775-5.269 11.772-1.589 1.422-2.498 3.455-2.498 5.588v36.999c0 4.428-3.603 8.031-8.031 8.031s-8.031-3.603-8.031-8.031v-37c0-2.133-.908-4.165-2.497-5.587-3.348-2.998-5.269-7.289-5.269-11.772.001-8.711 7.088-15.797 15.798-15.797z"/><path d="m442.35 403.77h-169.49c-4.142 0-7.5 3.358-7.5 7.5s3.358 7.5 7.5 7.5h161.99v78.19h-357.74v-78.19h163.06c4.142 0 7.5-3.358 7.5-7.5s-3.358-7.5-7.5-7.5h-170.56c-4.142 0-7.5 3.358-7.5 7.5v93.19c0 4.142 3.358 7.5 7.5 7.5h372.74c4.142 0 7.5-3.358 7.5-7.5v-93.19c0-4.142-3.358-7.5-7.5-7.5z"/><path d="m436.114 279.011c3.119 9.027 11.697 15.531 21.771 15.531 12.699 0 23.031-10.332 23.031-23.031 0-12.7-10.332-23.031-23.031-23.031-10.074 0-18.652 6.504-21.771 15.531h-48.385v-16.063h23.562c4.142 0 7.5-3.358 7.5-7.5v-23.562h17.323c3.119 9.027 11.697 15.531 21.771 15.531 12.699 0 23.031-10.332 23.031-23.031s-10.332-23.031-23.031-23.031c-10.074 0-18.652 6.504-21.771 15.531h-24.823c-4.142 0-7.5 3.358-7.5 7.5v23.562h-16.062v-55.155c0-12.407-10.093-22.5-22.5-22.5h-39.629v-38.683c0-4.142-3.358-7.5-7.5-7.5s-7.5 3.358-7.5 7.5v38.68h-16.06v-85.66c0-21.268-17.298-38.57-38.56-38.57-21.04 0-38.56 17.533-38.56 38.57v85.66h-16.06v-85.66c0-30.123 24.502-54.63 54.62-54.63 29.807 0 54.62 24.829 54.62 54.63v14.29c0 4.142 3.358 7.5 7.5 7.5s7.5-3.358 7.5-7.5v-14.29c0-37.634-31.895-69.63-69.62-69.63-38.389 0-69.62 31.236-69.62 69.63v85.664h-39.629c-12.407 0-22.5 10.093-22.5 22.5v55.155h-16.062v-23.562c0-4.142-3.358-7.5-7.5-7.5h-24.823c-3.119-9.027-11.697-15.531-21.771-15.531-12.699 0-23.031 10.332-23.031 23.031s10.332 23.031 23.031 23.031c10.074 0 18.652-6.504 21.771-15.531h17.323v23.562c0 4.142 3.358 7.5 7.5 7.5h23.562v16.063h-48.385c-3.119-9.027-11.697-15.531-21.771-15.531-12.699 0-23.031 10.332-23.031 23.031s10.332 23.031 23.031 23.031c10.074 0 18.652-6.504 21.771-15.531h48.385v16.062h-23.562c-4.142 0-7.5 3.358-7.5 7.5v23.563h-17.323c-3.119-9.027-11.697-15.531-21.771-15.531-12.699 0-23.031 10.332-23.031 23.031s10.332 23.031 23.031 23.031c10.074 0 18.652-6.504 21.771-15.531h24.823c4.142 0 7.5-3.358 7.5-7.5v-23.563h16.062v55.156c0 12.407 10.093 22.5 22.5 22.5h218.498c12.407 0 22.5-10.093 22.5-22.5v-55.156h16.062v23.563c0 4.142 3.358 7.5 7.5 7.5h24.823c3.119 9.027 11.697 15.531 21.771 15.531 12.699 0 23.031-10.332 23.031-23.031 0-12.7-10.332-23.031-23.031-23.031-10.074 0-18.652 6.504-21.771 15.531h-17.323v-23.563c0-4.142-3.358-7.5-7.5-7.5h-23.562v-16.062h48.385zm21.771-15.531c4.428 0 8.031 3.603 8.031 8.031s-3.603 8.031-8.031 8.031-8.031-3.603-8.031-8.031 3.603-8.031 8.031-8.031zm0-62.125c4.428 0 8.031 3.603 8.031 8.031s-3.603 8.031-8.031 8.031-8.031-3.603-8.031-8.031 3.603-8.031 8.031-8.031zm-403.81 16.063c-4.428 0-8.031-3.603-8.031-8.031s3.603-8.031 8.031-8.031 8.031 3.603 8.031 8.031-3.603 8.031-8.031 8.031zm0 62.124c-4.428 0-8.031-3.603-8.031-8.031s3.603-8.031 8.031-8.031 8.031 3.603 8.031 8.031-3.603 8.031-8.031 8.031zm0 62.125c-4.428 0-8.031-3.603-8.031-8.031s3.603-8.031 8.031-8.031 8.031 3.603 8.031 8.031-3.603 8.031-8.031 8.031zm403.81-16.063c4.428 0 8.031 3.603 8.031 8.031s-3.603 8.031-8.031 8.031-8.031-3.603-8.031-8.031 3.603-8.031 8.031-8.031zm-225.465-255.974c1.347-14.361 9.201-22.218 23.56-23.57 12.991 0 23.56 10.573 23.56 23.57v85.664h-47.12zm140.309 295.599c0 4.136-3.364 7.5-7.5 7.5h-218.498c-4.136 0-7.5-3.364-7.5-7.5v-187.436c0-4.136 3.364-7.5 7.5-7.5h218.498c4.136 0 7.5 3.364 7.5 7.5z"/><path d="m342.17 186.36h-172.38c-7.995 0-14.5 6.505-14.5 14.5v52.91c0 4.142 3.358 7.5 7.5 7.5s7.5-3.358 7.5-7.5v-52.41h171.38v140.31h-171.38v-55.22c0-4.142-3.358-7.5-7.5-7.5s-7.5 3.358-7.5 7.5v55.72c0 7.995 6.505 14.5 14.5 14.5h172.38c7.995 0 14.5-6.505 14.5-14.5v-141.31c0-7.995-6.505-14.5-14.5-14.5z"/></g><g><path d="m255.979 480.921c5.475 0 7.785-5.528 7.5-10.041 3.711 2.834 9.983 2.933 12.445-1.475 2.721-4.871-.636-9.719-4.946-11.516 4.31-1.797 7.75-6.814 4.946-11.516-3.057-5.124-8.735-4.309-12.445-1.475.285-4.513-2.025-10.041-7.5-10.041s-7.785 5.528-7.5 10.041c-3.711-2.834-9.667-3.573-12.445 1.475-2.877 5.227.636 9.719 4.946 11.516-4.31 1.797-8.187 6.505-4.946 11.516 3.237 5.004 8.735 4.309 12.445 1.475-.285 4.513 2.026 10.041 7.5 10.041z"/><g><path d="m380.322 480.921c5.475 0 7.785-5.528 7.5-10.041 3.711 2.834 9.983 2.933 12.445-1.475 2.721-4.871-.636-9.719-4.946-11.516 4.31-1.797 7.75-6.814 4.946-11.516-3.057-5.124-8.735-4.309-12.445-1.475.285-4.513-2.025-10.041-7.5-10.041s-7.785 5.528-7.5 10.041c-3.711-2.834-9.667-3.573-12.445 1.475-2.877 5.227.636 9.719 4.946 11.516-4.31 1.797-8.187 6.505-4.946 11.516 3.237 5.004 8.735 4.309 12.445 1.475-.285 4.513 2.026 10.041 7.5 10.041z"/><path d="m318.104 480.921c5.475 0 7.785-5.528 7.5-10.041 3.711 2.834 9.983 2.933 12.445-1.475 2.721-4.871-.636-9.719-4.946-11.516 4.31-1.797 7.75-6.814 4.946-11.516-3.057-5.124-8.735-4.309-12.445-1.475.285-4.513-2.025-10.041-7.5-10.041s-7.785 5.528-7.5 10.041c-3.711-2.834-9.667-3.573-12.445 1.475-2.877 5.227.636 9.719 4.946 11.516-4.31 1.797-8.187 6.505-4.946 11.516 3.237 5.004 8.735 4.309 12.445 1.475-.285 4.513 2.026 10.041 7.5 10.041z"/><path d="m131.823 480.921c5.475 0 7.785-5.528 7.5-10.041 3.711 2.834 9.983 2.933 12.445-1.475 2.721-4.871-.636-9.719-4.946-11.516 4.31-1.797 7.75-6.814 4.946-11.516-3.057-5.124-8.735-4.309-12.445-1.475.285-4.513-2.025-10.041-7.5-10.041s-7.785 5.528-7.5 10.041c-3.711-2.834-9.667-3.573-12.445 1.475-2.877 5.227.636 9.719 4.946 11.516-4.31 1.797-8.187 6.505-4.946 11.516 3.237 5.004 8.735 4.309 12.445 1.475-.285 4.513 2.026 10.041 7.5 10.041z"/><path d="m193.85 480.921c5.475 0 7.785-5.528 7.5-10.041 3.711 2.834 9.983 2.933 12.445-1.475 2.721-4.871-.636-9.719-4.946-11.516 4.31-1.797 7.75-6.814 4.946-11.516-3.057-5.124-8.735-4.309-12.445-1.475.285-4.513-2.025-10.041-7.5-10.041s-7.785 5.528-7.5 10.041c-3.711-2.834-9.667-3.573-12.445 1.475-2.877 5.227.636 9.719 4.946 11.516-4.31 1.797-8.187 6.505-4.946 11.516 3.237 5.004 8.735 4.309 12.445 1.475-.285 4.513 2.025 10.041 7.5 10.041z"/></g></g></g></g></svg>