<svg id="Capa_1" enable-background="new 0 0 512 512" height="512" viewBox="0 0 512 512" width="512" xmlns="http://www.w3.org/2000/svg"><g><g><g fill="#548eb5"><path d="m122.503 442.372h-73.187l-10-31.062h93.187z"/><path d="m462.684 442.372h-73.187l-10-31.062h93.187z"/></g></g><path d="m7.502 69.627h496.998v341.68h-496.998z" fill="#548eb5"/><path d="m7.5 69.628h31.06v341.68h-31.06z" fill="#497090"/><path d="m38.564 100.687h434.872v279.56h-434.872z" fill="#ffde5c"/><path d="m69.626 131.749h372.747v217.436h-372.747z" fill="#548eb5"/><path d="m131.751 162.813h109.249v62.125h-109.249z" fill="#98bce5"/><circle cx="349.187" cy="240.467" fill="#497090" r="82.125"/><circle cx="349.187" cy="240.467" fill="#ffde5c" r="62.125"/><circle cx="349.187" cy="240.467" fill="#548eb5" r="31.062"/><path d="m359.19 269.888c-3.14 1.06-6.5 1.64-10 1.64-17.16 0-31.07-13.91-31.07-31.06 0-17.16 13.91-31.06 31.07-31.06 3.5 0 6.86.58 10 1.64-12.25 4.16-21.07 15.76-21.07 29.42s8.82 25.26 21.07 29.42z" fill="#497090"/><path d="m38.564 162.811h46.593v62.127h-46.593z" fill="#ffc736"/><path d="m38.564 255.996h46.593v62.127h-46.593z" fill="#ffc736"/><g><path d="m241.26 403.808h-226.26v-326.68h317.85c4.142 0 7.5-3.358 7.5-7.5s-3.358-7.5-7.5-7.5h-325.35c-4.142 0-7.5 3.358-7.5 7.5v341.68c0 4.142 3.358 7.5 7.5 7.5h26.351l8.326 25.862c.998 3.1 3.882 5.202 7.139 5.202h73.187c3.257 0 6.141-2.102 7.139-5.202l8.326-25.862h103.292c4.142 0 7.5-3.358 7.5-7.5s-3.358-7.5-7.5-7.5zm-124.221 31.064h-62.259l-5.171-16.063h72.6z"/><path d="m504.5 62.128h-138.97c-4.142 0-7.5 3.358-7.5 7.5s3.358 7.5 7.5 7.5h131.47v326.68h-223.06c-4.142 0-7.5 3.358-7.5 7.5s3.358 7.5 7.5 7.5h100.092l8.326 25.862c.998 3.1 3.882 5.202 7.139 5.202h73.187c3.257 0 6.141-2.102 7.139-5.202l8.326-25.862h26.351c4.142 0 7.5-3.358 7.5-7.5v-341.68c0-4.142-3.358-7.5-7.5-7.5zm-47.28 372.744h-62.258l-5.171-16.063h72.6z"/><path d="m124.251 162.813v62.125c0 4.142 3.358 7.5 7.5 7.5h109.249c4.142 0 7.5-3.358 7.5-7.5v-62.125c0-4.142-3.358-7.5-7.5-7.5h-109.249c-4.142 0-7.5 3.358-7.5 7.5zm15 7.5h94.249v47.125h-94.249z"/><path d="m172.208 186.375h-9.499c-4.142 0-7.5 3.358-7.5 7.5s3.358 7.5 7.5 7.5h9.499c4.142 0 7.5-3.358 7.5-7.5s-3.357-7.5-7.5-7.5z"/><path d="m210.042 186.375h-9.499c-4.142 0-7.5 3.358-7.5 7.5s3.358 7.5 7.5 7.5h9.499c4.142 0 7.5-3.358 7.5-7.5s-3.358-7.5-7.5-7.5z"/><path d="m153.292 248.499h-9.499c-4.142 0-7.5 3.358-7.5 7.5s3.358 7.5 7.5 7.5h9.499c4.142 0 7.5-3.358 7.5-7.5s-3.358-7.5-7.5-7.5z"/><path d="m191.125 248.499h-9.499c-4.142 0-7.5 3.358-7.5 7.5s3.358 7.5 7.5 7.5h9.499c4.142 0 7.5-3.358 7.5-7.5s-3.358-7.5-7.5-7.5z"/><path d="m228.958 248.499h-9.499c-4.142 0-7.5 3.358-7.5 7.5s3.358 7.5 7.5 7.5h9.499c4.142 0 7.5-3.358 7.5-7.5s-3.357-7.5-7.5-7.5z"/><path d="m153.292 279.56h-9.499c-4.142 0-7.5 3.358-7.5 7.5s3.358 7.5 7.5 7.5h9.499c4.142 0 7.5-3.358 7.5-7.5s-3.358-7.5-7.5-7.5z"/><path d="m191.125 279.56h-9.499c-4.142 0-7.5 3.358-7.5 7.5s3.358 7.5 7.5 7.5h9.499c4.142 0 7.5-3.358 7.5-7.5s-3.358-7.5-7.5-7.5z"/><path d="m228.958 279.56h-9.499c-4.142 0-7.5 3.358-7.5 7.5s3.358 7.5 7.5 7.5h9.499c4.142 0 7.5-3.358 7.5-7.5s-3.357-7.5-7.5-7.5z"/><path d="m153.292 310.622h-9.499c-4.142 0-7.5 3.358-7.5 7.5s3.358 7.5 7.5 7.5h9.499c4.142 0 7.5-3.358 7.5-7.5s-3.358-7.5-7.5-7.5z"/><path d="m191.125 310.622h-9.499c-4.142 0-7.5 3.358-7.5 7.5s3.358 7.5 7.5 7.5h9.499c4.142 0 7.5-3.358 7.5-7.5s-3.358-7.5-7.5-7.5z"/><path d="m228.958 310.622h-9.499c-4.142 0-7.5 3.358-7.5 7.5s3.358 7.5 7.5 7.5h9.499c4.142 0 7.5-3.358 7.5-7.5s-3.357-7.5-7.5-7.5z"/><path d="m349.187 310.092c38.391 0 69.625-31.233 69.625-69.625s-31.233-69.625-69.625-69.625-69.625 31.233-69.625 69.625 31.233 69.625 69.625 69.625zm0-93.187c12.992 0 23.563 10.57 23.563 23.562s-10.57 23.563-23.563 23.563-23.562-10.57-23.562-23.563 10.569-23.562 23.562-23.562zm54.624 23.562c0 27.575-20.542 50.429-47.125 54.097v-16.272c17.685-3.501 31.063-19.127 31.063-37.825 0-18.697-13.377-34.323-31.063-37.824v-16.273c26.583 3.668 47.125 26.522 47.125 54.097zm-62.124-54.097v16.273c-17.685 3.501-31.062 19.127-31.062 37.824s13.377 34.324 31.062 37.825v16.272c-26.582-3.668-47.125-26.522-47.125-54.097s20.542-50.429 47.125-54.097z"/><path d="m31.064 100.687v279.56c0 4.142 3.358 7.5 7.5 7.5h434.871c4.142 0 7.5-3.358 7.5-7.5v-279.56c0-4.142-3.358-7.5-7.5-7.5h-434.871c-4.142 0-7.5 3.358-7.5 7.5zm46.594 69.623v47.127h-31.594v-47.127zm-31.594 140.313v-47.126h31.593v47.126zm0-62.127v-16.059h16.066v16.059zm419.872-140.309v264.56h-419.872v-47.125h16.066v23.565c0 4.142 3.358 7.5 7.5 7.5h372.74c4.142 0 7.5-3.358 7.5-7.5v-217.44c0-4.142-3.358-7.5-7.5-7.5h-240.32c-4.142 0-7.5 3.358-7.5 7.5s3.358 7.5 7.5 7.5h232.82v202.44h-357.74v-16.065h8.028c4.142 0 7.5-3.358 7.5-7.5v-62.126c0-4.142-3.358-7.5-7.5-7.5h-8.028v-16.059h8.028c4.142 0 7.5-3.358 7.5-7.5v-62.127c0-4.142-3.358-7.5-7.5-7.5h-8.028v-16.062h92.23c4.142 0 7.5-3.358 7.5-7.5s-3.358-7.5-7.5-7.5h-99.73c-4.142 0-7.5 3.358-7.5 7.5v23.562h-16.066v-47.123z"/></g></g></svg>