<svg id="Capa_1" enable-background="new 0 0 512 512" height="512" viewBox="0 0 512 512" width="512" xmlns="http://www.w3.org/2000/svg"><g><path d="m225.668 504.498c-102.932 0-186.374-83.442-186.374-186.373v-124.25c0-102.931 83.442-186.373 186.373-186.373 102.931 0 186.373 83.442 186.373 186.373v124.249c.001 102.932-83.441 186.374-186.372 186.374z" fill="#ffcebf"/><path d="m250.666 502.83c-8.18 1.1-16.52 1.67-25 1.67-102.93 0-186.37-83.44-186.37-186.38v-124.24c0-102.94 83.44-186.38 186.37-186.38 8.48 0 16.82.57 25 1.67-91.11 12.21-161.37 90.25-161.37 184.71v124.24c0 94.46 70.26 172.5 161.37 184.71z" fill="#ffb09e"/><circle cx="365.324" cy="395.78" fill="#f07281" r="108.718"/><path d="m442.976 395.78c0 25.41-12.2 47.96-31.06 62.13-12.97 9.75-29.11 15.53-46.59 15.53s-33.62-5.78-46.6-15.54c-18.86-14.16-31.06-36.72-31.06-62.12 0-42.89 34.77-77.66 77.66-77.66s77.65 34.77 77.65 77.66z" fill="#f5fcff"/><path d="m411.916 431.31v26.6c-12.97 9.75-29.11 15.53-46.59 15.53s-33.62-5.78-46.6-15.54v-26.59c0-11.04 8.96-20 20-20h53.19c11.05 0 20 8.96 20 20z" fill="#98bce5"/><path d="m375.326 472.8c-3.27.42-6.61.64-10 .64-17.48 0-33.62-5.78-46.6-15.54v-26.59c0-11.04 8.96-20 20-20h20c-11.04 0-20 8.96-20 20v26.59c10.46 7.87 22.98 13.15 36.6 14.9z" fill="#7bacdf"/><circle cx="365.324" cy="380.249" fill="#ffeee6" r="31.062"/><path d="m375.326 409.67c-3.14 1.06-6.5 1.64-10 1.64-17.16 0-31.06-13.91-31.06-31.06 0-17.16 13.9-31.06 31.06-31.06 3.5 0 6.86.58 10 1.64-12.25 4.17-21.06 15.76-21.06 29.42 0 13.65 8.81 25.25 21.06 29.42z" fill="#ffdfcf"/><g><path d="m118.979 50.208c30.974-23.033 67.824-35.208 106.565-35.208 47.784 0 92.701 18.606 126.476 52.393 33.787 33.787 52.394 78.708 52.394 126.487v45.78c0 4.142 3.357 7.5 7.5 7.5s7.5-3.358 7.5-7.5v-45.78c0-51.786-20.167-100.474-56.786-137.092-36.609-36.621-85.293-56.788-137.084-56.788-41.99 0-81.935 13.2-115.516 38.172-3.324 2.472-4.015 7.17-1.542 10.494 2.471 3.324 7.169 4.015 10.493 1.542z"/><path d="m46.674 318.12v-124.24c0-45.854 17.332-89.462 48.803-122.791 2.844-3.012 2.708-7.759-.304-10.603-3.013-2.844-7.759-2.708-10.603.304-34.11 36.125-52.896 83.39-52.896 133.09v124.24c0 49.7 18.786 96.965 52.897 133.089 3.493 3.029 7.027 3.131 10.603.304 3.011-2.844 3.147-7.591.304-10.603-31.472-33.327-48.804-76.935-48.804-122.79z"/><path d="m327.923 67.271c-28.843-23.351-65.201-36.211-102.379-36.211-89.774 0-162.81 73.041-162.81 162.82v45.78c0 4.142 3.358 7.5 7.5 7.5s7.5-3.358 7.5-7.5v-45.78c0-81.508 66.307-147.82 147.81-147.82 33.753 0 66.76 11.673 92.94 32.869 3.223 2.608 7.942 2.109 10.549-1.11s2.109-7.942-1.11-10.548z"/><path d="m349.793 247.16c4.143 0 7.5-3.358 7.5-7.5v-45.78c0-35.194-13.703-68.28-38.588-93.165-24.894-24.882-57.979-38.585-93.162-38.585-29.252 0-56.952 9.384-80.104 27.139-3.287 2.521-3.908 7.229-1.388 10.516 2.521 3.288 7.229 3.908 10.516 1.388 20.51-15.729 45.053-24.042 70.976-24.042 31.177 0 60.497 12.144 82.556 34.193 22.05 22.05 34.193 51.369 34.193 82.557v45.78c.001 4.141 3.359 7.499 7.501 7.499z"/><path d="m132.835 122.904c1.004-1.31 1.548-2.914 1.548-4.564v-.01c0-4.142-3.358-7.495-7.5-7.495-2.481 0-4.682 1.207-6.047 3.065-17.693 23.127-27.043 50.779-27.043 79.979v124.24c0 29.265 9.388 56.969 27.149 80.116 3.315 3.378 6.821 3.84 10.516 1.384 3.286-2.521 3.906-7.23 1.384-10.516-15.733-20.504-24.05-45.05-24.05-70.984v-124.239c.002-25.923 8.315-50.466 24.043-70.976z"/><path d="m283.161 111.294c-16.934-11.844-36.858-18.104-57.617-18.104-55.521 0-100.69 45.169-100.69 100.69v45.78c0 4.142 3.358 7.5 7.5 7.5s7.5-3.358 7.5-7.5v-45.78c0-47.25 38.44-85.69 85.69-85.69 17.668 0 34.62 5.324 49.021 15.396 3.397 2.375 8.07 1.546 10.445-1.848 2.373-3.394 1.546-8.07-1.849-10.444z"/><path d="m287.663 247.16c4.143 0 7.5-3.358 7.5-7.5v-45.78c0-18.602-7.24-36.086-20.386-49.233-13.153-13.153-30.638-20.397-49.234-20.397-13.561 0-26.706 3.904-38.012 11.291-3.468 2.266-4.442 6.913-2.177 10.381s6.913 4.441 10.381 2.177c8.861-5.789 19.168-8.849 29.808-8.849 14.589 0 28.307 5.684 38.626 16.003 10.313 10.313 15.993 24.031 15.993 38.626v45.78c.001 4.143 3.359 7.501 7.501 7.501z"/><path d="m176.59 169.618c1.843-3.709.331-8.211-3.378-10.054-3.71-1.844-8.211-.331-10.054 3.378-4.8 9.658-7.233 20.067-7.233 30.938v124.24c0 10.871 2.434 21.28 7.233 30.938 2.886 3.981 6.237 5.107 10.054 3.378 3.709-1.843 5.222-6.345 3.378-10.054-3.76-7.565-5.666-15.728-5.666-24.262v-124.24c0-8.534 1.906-16.697 5.666-24.262z"/><path d="m248.481 323.499c-2.441 10.171 12.37 12.725 14.586 3.502.688-2.866 1.036-5.854 1.036-8.881v-124.24c0-3.027-.349-6.015-1.036-8.881-.967-4.028-5.015-6.507-9.044-5.542-4.028.967-6.509 5.016-5.542 9.044.413 1.72.623 3.53.623 5.379v124.24c-.001 1.849-.21 3.659-.623 5.379z"/><path d="m234.426 156.348c-23.392-5.621-47.442 13.474-47.442 37.532v45.78c0 4.142 3.358 7.5 7.5 7.5s7.5-3.358 7.5-7.5v-45.78c0-13.834 15.637-26.144 28.938-22.947 4.026.967 8.077-1.512 9.045-5.54.967-4.028-1.514-8.078-5.541-9.045z"/><path d="m194.484 264.84c-4.142 0-7.5 3.358-7.5 7.5v45.78c0 24.041 24.145 43.13 47.442 37.532 4.027-.968 6.508-5.018 5.54-9.045s-5.019-6.507-9.045-5.54c-13.3 3.197-28.938-9.113-28.938-22.947v-45.78c.001-4.142-3.357-7.5-7.499-7.5z"/><path d="m473.943 404.704c-4.093-.617-7.916 2.203-8.533 6.298-7.389 49.027-50.416 85.998-100.084 85.998-55.813 0-101.22-45.407-101.22-101.22s45.407-101.22 101.22-101.22c49.669 0 92.695 36.971 100.084 85.998.617 4.096 4.45 6.913 8.533 6.299 4.097-.618 6.916-4.438 6.299-8.534-5.413-35.922-28.716-68.525-60.826-85.408v-20.575c0-4.142-3.357-7.5-7.5-7.5s-7.5 3.358-7.5 7.5v13.994c-5.231-1.868-10.597-3.365-16.06-4.468v-87.986c0-37.167-12.855-73.529-36.199-102.387-2.605-3.221-7.328-3.72-10.548-1.114-3.221 2.605-3.72 7.328-1.114 10.548 21.191 26.197 32.861 59.208 32.861 92.953v85.96c-5.353-.373-10.706-.372-16.06.003v-7.503c0-4.142-3.357-7.5-7.5-7.5s-7.5 3.358-7.5 7.5v9.516c-5.504 1.111-10.866 2.615-16.061 4.475v-92.451c0-20.759-6.26-40.684-18.104-57.618-2.373-3.394-7.049-4.222-10.445-1.848-3.394 2.374-4.221 7.05-1.848 10.444 10.072 14.402 15.396 31.353 15.396 49.021v99.061c-5.647 2.982-11.02 6.414-16.07 10.25v-30.85c0-4.142-3.357-7.5-7.5-7.5s-7.5 3.358-7.5 7.5v44.444c-12.582 13.554-21.974 30.103-26.977 48.448-8.351 4.922-17.847 7.519-27.642 7.519-10.64 0-20.947-3.06-29.808-8.849-3.468-2.266-8.116-1.292-10.381 2.177-2.266 3.468-1.291 8.115 2.177 10.381 11.307 7.387 24.451 11.291 38.012 11.291 8.348 0 16.527-1.485 24.219-4.341-.613 5.683-.799 11.372-.556 17.069-7.649 2.201-15.581 3.333-23.663 3.333-47.25 0-85.69-38.44-85.69-85.69v-45.78c0-4.142-3.358-7.5-7.5-7.5s-7.5 3.358-7.5 7.5v45.78c0 55.521 45.169 100.69 100.69 100.69 8.596 0 17.055-1.084 25.258-3.209.92 5.331 2.205 10.538 3.827 15.596-9.45 2.426-19.198 3.673-29.085 3.673-25.923 0-50.466-8.313-70.976-24.042-3.286-2.521-7.995-1.899-10.516 1.388s-1.899 7.995 1.388 10.516c23.152 17.754 50.852 27.139 80.104 27.139 11.782 0 23.396-1.568 34.628-4.625 2.367 5.012 5.083 9.828 8.115 14.418-13.793 4.167-28.128 6.276-42.743 6.276-81.503 0-147.81-66.312-147.81-147.82v-45.78c0-4.142-3.358-7.5-7.5-7.5s-7.5 3.358-7.5 7.5v45.78c0 89.779 73.036 162.82 162.81 162.82 17.976 0 35.571-2.908 52.39-8.632 3.919 4.469 8.174 8.635 12.726 12.46-20.68 8.11-42.525 12.23-65.115 12.23-38.741 0-75.59-12.175-106.564-35.208-3.325-2.472-8.022-1.78-10.494 1.543-2.472 3.324-1.781 8.022 1.543 10.494 33.581 24.971 73.525 38.171 115.515 38.171 27.706 0 54.388-5.713 79.382-16.961 17.612 10.756 38.293 16.961 60.398 16.961 27.989 0 55.031-10.092 76.145-28.417 20.9-18.139 34.669-43.122 38.771-70.345.617-4.096-2.203-7.917-6.299-8.534z"/><path d="m352.798 326.731c4.076-.735 6.784-4.636 6.049-8.713s-4.645-6.782-8.713-6.049c-40.042 7.226-69.969 43.122-69.969 83.811 0 46.507 38.834 85.16 85.16 85.16 46.323 0 85.15-38.66 85.15-85.16 0-38.065-27.521-73.437-64.51-82.638-4.021-1-8.09 1.448-9.089 5.468-1 4.02 1.448 8.089 5.468 9.089 30.49 7.584 53.131 36.721 53.131 68.082 0 16.937-6.032 32.491-16.061 44.627v-9.097c0-13.907-10.38-25.429-23.798-27.244 5.171-6.563 8.268-14.833 8.268-23.817 0-21.264-17.299-38.563-38.563-38.563s-38.563 17.299-38.563 38.563c0 8.984 3.097 17.254 8.268 23.817-13.42 1.812-23.803 13.335-23.803 27.244v9.095c-10.028-12.136-16.171-27.689-16.061-44.625.318-48.349 43.49-66.497 57.636-69.05zm12.526 29.956c12.992 0 23.563 10.57 23.563 23.563 0 12.979-10.55 23.54-23.524 23.561h-.077c-12.974-.021-23.524-10.582-23.524-23.561-.001-12.993 10.569-23.563 23.562-23.563zm-26.598 62.123h53.189c6.893 0 12.5 5.607 12.5 12.5v22.698c-11.178 7.53-24.629 11.931-39.09 11.931-14.465 0-27.92-4.402-39.1-11.934v-22.695c.001-6.893 5.608-12.5 12.501-12.5z"/></g></g></svg>