<svg id="Capa_1" enable-background="new 0 0 511.62 511.62" height="512" viewBox="0 0 511.62 511.62" width="512" xmlns="http://www.w3.org/2000/svg"><g><path d="m333.937 84.967h-311.437c-8.284 0-15 6.716-15 15v125.311c0 8.284 6.716 15 15 15h46.728l31.062 31.057 31.062-31.057h202.584c8.284 0 15-6.716 15-15v-125.311c.001-8.285-6.715-15-14.999-15z" fill="#98bce5"/><path d="m27.5 99.97v125.31c0 8.28 6.72 15 15 15h-20c-8.28 0-15-6.72-15-15v-125.31c0-8.29 6.72-15 15-15h20c-8.28 0-15 6.71-15 15z" fill="#7bacdf"/><path d="m177.687 426.65h311.437c8.284 0 15-6.716 15-15v-124.907c0-8.284-6.716-15-15-15h-47l-31.062-31.057-31.062 31.057h-202.313c-8.284 0-15 6.716-15 15v124.907c0 8.284 6.716 15 15 15z" fill="#ade194"/><path d="m182.69 286.74v124.91c0 8.28 6.71 15 15 15h-20c-8.29 0-15-6.72-15-15v-124.91c0-8.28 6.71-15 15-15h20c-8.29 0-15 6.72-15 15z" fill="#7dce6f"/><path d="m69.376 162.216h62.125v46.99h-62.125z" fill="#f5fcff"/><path d="m69.38 162.22h20v46.99h-20z" fill="#d8ecfe"/><path d="m224.688 349.404h62.125v46.185h-62.125z" fill="#f5fcff"/><path d="m224.69 349.4h20v46.19h-20z" fill="#d8ecfe"/><g><g><path d="m442.123 403.497h-93.187c-4.143 0-7.5-3.358-7.5-7.5s3.357-7.5 7.5-7.5h93.187c4.143 0 7.5 3.358 7.5 7.5s-3.357 7.5-7.5 7.5z"/></g><g><g><path d="m348.94 169.31c-4.143 0-7.5-3.358-7.5-7.5v-61.84c0-4.136-3.364-7.5-7.5-7.5h-217.16c-4.143 0-7.5-3.358-7.5-7.5s3.357-7.5 7.5-7.5h217.16c12.406 0 22.5 10.093 22.5 22.5v61.84c0 4.142-3.357 7.5-7.5 7.5z"/></g><g><path d="m356.44 225.28v-30.78c0-4.142-3.357-7.5-7.5-7.5s-7.5 3.358-7.5 7.5v30.78c0 4.136-3.364 7.5-7.5 7.5h-202.59c-1.989 0-3.896.79-5.304 2.197l-25.756 25.757-25.756-25.757c-1.407-1.407-3.314-2.197-5.304-2.197h-46.73c-4.136 0-7.5-3.364-7.5-7.5v-125.31c0-4.136 3.364-7.5 7.5-7.5h61.6c4.143 0 7.5-3.358 7.5-7.5s-3.357-7.5-7.5-7.5h-61.6c-12.406 0-22.5 10.093-22.5 22.5v125.31c0 12.407 10.094 22.5 22.5 22.5h43.624l28.862 28.863c3.536 2.929 7.072 2.929 10.607 0l28.862-28.863h199.485c12.407 0 22.5-10.093 22.5-22.5z"/><path d="m489.12 264.24h-43.895l-28.863-28.854c-2.93-2.928-7.676-2.928-10.605 0l-28.862 28.854h-199.205c-12.406 0-22.5 10.093-22.5 22.5v45.38c0 4.142 3.357 7.5 7.5 7.5s7.5-3.358 7.5-7.5v-45.38c0-4.136 3.364-7.5 7.5-7.5h202.31c1.988 0 3.896-.79 5.303-2.196l25.757-25.749 25.758 25.749c1.407 1.406 3.314 2.196 5.303 2.196h47c4.136 0 7.5 3.364 7.5 7.5v124.91c0 4.136-3.364 7.5-7.5 7.5h-311.431c-4.136 0-7.5-3.364-7.5-7.5v-46.85c0-4.142-3.357-7.5-7.5-7.5s-7.5 3.358-7.5 7.5v46.85c0 12.407 10.094 22.5 22.5 22.5h311.43c12.406 0 22.5-10.093 22.5-22.5v-124.91c0-12.407-10.094-22.5-22.5-22.5z"/><path d="m77.259 131.156v23.56h-7.882c-4.143 0-7.5 3.358-7.5 7.5v46.99c0 4.142 3.357 7.5 7.5 7.5h62.124c4.143 0 7.5-3.358 7.5-7.5v-46.99c0-4.142-3.357-7.5-7.5-7.5h-8.18v-23.56c0-12.699-10.332-23.031-23.031-23.031s-23.031 10.331-23.031 23.031zm46.742 70.549h-47.124v-31.99h47.124zm-23.711-78.58c4.429 0 8.031 3.603 8.031 8.031v23.56h-16.062v-23.56c0-4.429 3.602-8.031 8.031-8.031z"/><path d="m193.626 216.716h93.187c4.143 0 7.5-3.358 7.5-7.5s-3.357-7.5-7.5-7.5h-93.187c-4.143 0-7.5 3.358-7.5 7.5s3.357 7.5 7.5 7.5z"/><path d="m193.626 185.654h93.187c4.143 0 7.5-3.358 7.5-7.5s-3.357-7.5-7.5-7.5h-93.187c-4.143 0-7.5 3.358-7.5 7.5s3.357 7.5 7.5 7.5z"/><path d="m193.626 154.591h93.187c4.143 0 7.5-3.358 7.5-7.5s-3.357-7.5-7.5-7.5h-93.187c-4.143 0-7.5 3.358-7.5 7.5s3.357 7.5 7.5 7.5z"/><path d="m193.626 123.53h93.187c4.143 0 7.5-3.358 7.5-7.5s-3.357-7.5-7.5-7.5h-93.187c-4.143 0-7.5 3.358-7.5 7.5s3.357 7.5 7.5 7.5z"/><path d="m255.602 295.312c-12.699 0-23.031 10.332-23.031 23.031v23.561h-7.883c-4.143 0-7.5 3.358-7.5 7.5v46.185c0 4.142 3.357 7.5 7.5 7.5h62.125c4.143 0 7.5-3.358 7.5-7.5v-46.185c0-4.142-3.357-7.5-7.5-7.5h-8.18v-23.561c0-12.7-10.332-23.031-23.031-23.031zm-8.032 23.031c0-4.428 3.603-8.031 8.031-8.031s8.031 3.603 8.031 8.031v23.561h-16.062zm31.743 69.746h-47.125v-31.185h47.125z"/><path d="m348.937 372.434h93.187c4.143 0 7.5-3.358 7.5-7.5s-3.357-7.5-7.5-7.5h-93.187c-4.143 0-7.5 3.358-7.5 7.5s3.357 7.5 7.5 7.5z"/><path d="m348.937 341.372h93.187c4.143 0 7.5-3.358 7.5-7.5s-3.357-7.5-7.5-7.5h-93.187c-4.143 0-7.5 3.358-7.5 7.5s3.357 7.5 7.5 7.5z"/><path d="m348.937 310.311h93.187c4.143 0 7.5-3.358 7.5-7.5s-3.357-7.5-7.5-7.5h-93.187c-4.143 0-7.5 3.358-7.5 7.5s3.357 7.5 7.5 7.5z"/></g></g></g></g></svg>