<svg id="Capa_1" enable-background="new 0 0 512 512" height="512" viewBox="0 0 512 512" width="512" xmlns="http://www.w3.org/2000/svg"><g><path d="m380.25 115.925v78.3h-341.69v-78.3c0-8.29 6.72-15 15-15h311.69c8.28 0 15 6.71 15 15z" fill="#ffde5c"/><path d="m349.19 209.175v187.43c0 8.29-6.19 14.47-14.47 14.47h-312.22c-8.28 0-15-6.18-15-14.47v-187.43c0-8.29 6.72-15 15-15h311.69c8.28 0 15 6.71 15 15z" fill="#98bce5"/><path d="m334.19 194.175h-3.63c-.9 4.86-1.37 9.87-1.37 14.99v26.82c-3.97.45-7.73 1.56-11.18 3.23-11.75 5.64-19.88 17.66-19.88 31.54v125.31c0 5.58 1.18 10.33 3.52 15.01h33.07c8.28 0 14.47-6.18 14.47-14.47v-187.43c0-8.29-6.72-15-15-15z" fill="#7bacdf"/><path d="m343.35 163.105c-6.27 9.21-10.7 19.76-12.8 31.12h49.7v-61.07c-15.05 6.16-27.87 16.67-36.9 29.95z" fill="#ffc736"/><path d="m83.56 100.925c-8.28 0-15 6.71-15 15v78.3h-30v-78.3c0-8.29 6.72-15 15-15z" fill="#ffc736"/><path d="m38.565 163.108h341.685v31.12h-341.685z" fill="#548eb5"/><g fill="#447d99"><path d="m380.25 163.105v31.12h-49.7c2.1-11.36 6.53-21.91 12.8-31.12z"/><path d="m38.56 163.105h30v31.12h-30z"/><path d="m365.83 194.225h-327.27v-20.05h295.63c13.95 0 26.03 8.21 31.64 20.05z"/></g><path d="m53.56 411.07h-31.06c-8.28 0-15-6.175-15-14.465v-187.43c0-8.29 6.72-15 15-15h31.06c-8.28 0-15 6.71-15 15v187.43c0 8.29 6.72 14.465 15 14.465z" fill="#7bacdf"/><path d="m224.938 233.085h46.534v46.534h-46.534z" fill="#548eb5"/><path d="m271.472 233.085h46.534v46.534h-46.534z" fill="#ffb952"/><path d="m318.01 239.215v40.4h-19.88v-8.86c0-13.88 8.13-25.9 19.88-31.54z" fill="#f4a94a"/><path d="m38.564 334.008h279.56v46.534h-279.56z" fill="#eaf6ff"/><path d="m298.13 334.005h19.99v46.54h-19.99z" fill="#d8ecfe"/><path d="m489.5 411.07h-156.374c-8.284 0-15-6.716-15-15v-125.311c0-8.284 6.716-15 15-15h156.374c8.284 0 15 6.716 15 15v125.311c0 8.284-6.716 15-15 15z" fill="#ffde5c"/><path d="m363.13 411.075h-30c-8.29 0-15-6.72-15-15v-125.32c0-8.28 6.71-15 15-15h30c-8.29 0-15 6.72-15 15v125.32c0 8.28 6.71 15 15 15z" fill="#ffc736"/><path d="m434.61 310.118c0-12.866-10.43-23.297-23.297-23.297s-23.297 10.43-23.297 23.297c0 6.898 3.001 13.094 7.765 17.359v37c0 8.578 6.953 15.531 15.531 15.531s15.531-6.953 15.531-15.531v-36.998c4.766-4.266 7.767-10.462 7.767-17.361z" fill="#497090"/><path d="m349.189 255.759v-46.593c0-34.31 27.814-62.124 62.124-62.124 34.31 0 62.124 27.814 62.124 62.124v46.593h-31.062v-46.593c0-17.155-13.907-31.062-31.062-31.062-17.155 0-31.062 13.907-31.062 31.062v46.593z" fill="#eaf6ff"/><g><path d="m38.564 248.322h31.063c4.143 0 7.5-3.358 7.5-7.5s-3.357-7.5-7.5-7.5h-31.063c-4.143 0-7.5 3.358-7.5 7.5s3.358 7.5 7.5 7.5z"/><path d="m193.876 264.324h-155.312c-4.143 0-7.5 3.358-7.5 7.5s3.357 7.5 7.5 7.5h155.312c4.143 0 7.5-3.358 7.5-7.5s-3.357-7.5-7.5-7.5z"/><path d="m193.876 233.262h-93.188c-4.143 0-7.5 3.358-7.5 7.5s3.357 7.5 7.5 7.5h93.188c4.143 0 7.5-3.358 7.5-7.5s-3.357-7.5-7.5-7.5z"/><path d="m489.5 248.255h-8.563v-39.09c0-38.391-31.233-69.625-69.624-69.625-8.268 0-16.2 1.456-23.563 4.113v-27.728c0-12.407-10.094-22.5-22.5-22.5h-77.38c-4.143 0-7.5 3.358-7.5 7.5s3.357 7.5 7.5 7.5h77.38c4.136 0 7.5 3.364 7.5 7.5v35.306c-2.033 1.358-3.992 2.816-5.867 4.374h-320.823v-39.68c0-4.136 3.364-7.5 7.5-7.5h201.63c4.143 0 7.5-3.358 7.5-7.5s-3.357-7.5-7.5-7.5h-201.63c-12.406 0-22.5 10.093-22.5 22.5v70.75h-8.56c-12.406 0-22.5 10.093-22.5 22.5v187.43c0 12.317 9.883 21.965 22.5 21.965l372.47.005c4.143 0 7.5-3.358 7.5-7.5s-3.357-7.5-7.5-7.5l-61.936-.005c-4.091-.052-7.404-3.392-7.404-7.495v-125.32c0-4.136 3.364-7.5 7.5-7.5h156.37c4.136 0 7.5 3.364 7.5 7.5v125.32c0 4.136-3.364 7.5-7.5 7.5h-61.85c-4.143 0-7.5 3.358-7.5 7.5s3.357 7.5 7.5 7.5h61.85c12.406 0 22.5-10.093 22.5-22.5v-125.32c0-12.407-10.094-22.5-22.5-22.5zm-23.562-39.09v39.09h-16.062v-39.09c0-21.263-17.299-38.562-38.563-38.562s-38.563 17.299-38.563 38.562v39.09h-16.063v-39.09c0-30.12 24.505-54.625 54.625-54.625s54.626 24.505 54.626 54.625zm-31.062 39.09h-47.125v-39.09c0-12.992 10.57-23.562 23.563-23.562s23.563 10.57 23.563 23.562v39.09zm-109.37 1.332v-16.502c0-4.142-3.357-7.5-7.5-7.5h-93.068c-4.143 0-7.5 3.358-7.5 7.5v46.535c0 4.142 3.357 7.5 7.5 7.5h85.692v39.388h-272.066c-4.143 0-7.5 3.358-7.5 7.5v46.534c0 4.142 3.357 7.5 7.5 7.5h272.066c-.285 4.736-.254 11.176 1.289 15.528h-289.419c-4.275 0-7.5-2.994-7.5-6.965v-187.43c0-4.136 3.364-7.5 7.5-7.5l108.44.05c4.143 0 7.5-3.358 7.5-7.5 0-.008-.001-.017-.001-.025s.001-.017.001-.025c0-4.142-3.357-7.5-7.5-7.5h-84.88v-16.07h307.317c-3.313 4.962-5.995 10.375-7.957 16.12h-181.79c-4.143 0-7.5 3.358-7.5 7.5s3.357 7.5 7.5 7.5h178.461c-.261 2.446-.402 4.926-.402 7.44v39.09c-4.903-.303-11.677-.296-16.183 1.332zm-46.534-9.002h31.534v31.535h-31.534zm-46.534 31.535v-31.535h31.534v31.535zm78.186 69.388v31.534h-264.56v-31.534z"/><path d="m411.313 387.508c12.699 0 23.031-10.332 23.031-23.031v-33.92c4.972-5.605 7.767-12.88 7.767-20.439 0-16.981-13.815-30.797-30.797-30.797s-30.797 13.815-30.797 30.797c0 7.558 2.795 14.832 7.765 20.438v33.921c-.001 12.7 10.331 23.031 23.031 23.031zm0-93.187c8.71 0 15.797 7.086 15.797 15.797 0 4.484-1.921 8.774-5.27 11.772-1.589 1.423-2.497 3.455-2.497 5.588v36.999c0 4.428-3.603 8.031-8.031 8.031s-8.031-3.603-8.031-8.031v-37c0-2.133-.908-4.165-2.496-5.587-3.349-2.999-5.269-7.289-5.269-11.772.001-8.711 7.088-15.797 15.797-15.797z"/></g></g></svg>