<svg id="Capa_1" enable-background="new 0 0 511.998 511.998" height="512" viewBox="0 0 511.998 511.998" width="512" xmlns="http://www.w3.org/2000/svg"><g><path d="m69.625 442.372h372.747v62.125h-372.747z" fill="#98bce5"/><path d="m69.629 442.368h50v62.13h-50z" fill="#7bacdf"/><path d="m100.688 411.37h310.623v31.062h-310.623z" fill="#548eb5"/><path d="m100.689 411.368h50v31.06h-50z" fill="#497090"/><path d="m380.248 411.309h-248.498v-217.436c0-68.621 55.628-124.249 124.249-124.249 68.621 0 124.249 55.628 124.249 124.249z" fill="#f07281"/><path d="m280.999 72.138c-26.58 5.42-50.06 19.34-67.5 38.78-19.75 22-31.75 51.08-31.75 82.96v217.43h-50v-217.43c0-68.63 55.63-124.25 124.25-124.25 8.56 0 16.92.87 25 2.51z" fill="#eb5569"/><path d="m349.186 411.309h-186.374v-217.436c0-51.466 41.721-93.187 93.187-93.187 51.466 0 93.187 41.721 93.187 93.187z" fill="#f5fcff"/><path d="m213.499 110.918c-19.75 22-31.75 51.08-31.75 82.96v217.43h-18.94v-217.43c0-36.16 20.59-67.51 50.69-82.96z" fill="#d8ecfe"/><path d="m318.124 411.37h-124.249v-186.434c0-34.31 27.814-62.124 62.124-62.124 34.31 0 62.124 27.814 62.124 62.124v186.434z" fill="#f07281"/><g><g><g><path d="m100.759 201.303h-31.063c-4.142 0-7.5-3.358-7.5-7.5s3.358-7.5 7.5-7.5h31.063c4.142 0 7.5 3.358 7.5 7.5s-3.358 7.5-7.5 7.5z"/></g><g><path d="m442.302 201.303h-31.063c-4.142 0-7.5-3.358-7.5-7.5s3.358-7.5 7.5-7.5h31.063c4.142 0 7.5 3.358 7.5 7.5s-3.358 7.5-7.5 7.5z"/></g></g><g><path d="m442.369 434.868h-23.56v-23.5c0-4.142-3.358-7.5-7.5-7.5h-23.56v-209.99c0-71.583-60.149-131.75-131.75-131.75-72.647 0-131.75 59.103-131.75 131.75v76.87c0 4.142 3.358 7.5 7.5 7.5s7.5-3.358 7.5-7.5v-76.87c0-64.376 52.374-116.75 116.75-116.75 63.434 0 116.75 53.302 116.75 116.75v209.93h-16.06v-209.93c0-48.096-35.595-90.764-83.045-99.146-4.08-.721-7.97 2.002-8.69 6.081s2.002 7.97 6.081 8.69c40.375 7.131 70.655 43.457 70.655 84.374v209.93h-16.065v-178.871c0-38.391-31.233-69.624-69.625-69.624s-69.625 31.233-69.625 69.624v178.873h-16.065v-209.93c0-41.654 29.715-77.139 70.655-84.374 4.079-.721 6.801-4.612 6.081-8.691-.721-4.079-4.613-6.798-8.691-6.081-48.12 8.504-83.045 50.201-83.045 99.146v209.93h-16.06v-100.37c0-4.142-3.358-7.5-7.5-7.5s-7.5 3.358-7.5 7.5v100.43h-23.56c-4.142 0-7.5 3.358-7.5 7.5v23.5h-23.56c-4.142 0-7.5 3.358-7.5 7.5v62.13c0 4.142 3.358 7.5 7.5 7.5h372.74c4.142 0 7.5-3.358 7.5-7.5v-62.13c-.001-4.143-3.359-7.501-7.501-7.501zm-240.994-209.932c0-30.12 24.504-54.624 54.625-54.624s54.625 24.504 54.625 54.624v178.873h-109.25zm233.494 272.062h-357.74v-47.13l255.72.06c4.142 0 7.5-3.358 7.5-7.5 0-.01-.001-.02-.002-.03 0-.01.002-.02.002-.03 0-4.142-3.358-7.5-7.5-7.5h-224.66v-16h295.62v16h-38.28c-4.142 0-7.5 3.358-7.5 7.5 0 .01.001.02.002.03 0 .01-.002.02-.002.03 0 4.142 3.358 7.5 7.5 7.5l69.34-.06z"/><path d="m162.813 458.172c-4.142 0-7.5 3.358-7.5 7.5v15.531c0 4.142 3.358 7.5 7.5 7.5s7.5-3.358 7.5-7.5v-15.531c0-4.142-3.358-7.5-7.5-7.5z"/><path d="m193.875 458.172c-4.142 0-7.5 3.358-7.5 7.5v15.531c0 4.142 3.358 7.5 7.5 7.5s7.5-3.358 7.5-7.5v-15.531c0-4.142-3.358-7.5-7.5-7.5z"/><path d="m224.937 458.172c-4.142 0-7.5 3.358-7.5 7.5v15.531c0 4.142 3.358 7.5 7.5 7.5s7.5-3.358 7.5-7.5v-15.531c0-4.142-3.358-7.5-7.5-7.5z"/><path d="m255.999 458.172c-4.142 0-7.5 3.358-7.5 7.5v15.531c0 4.142 3.358 7.5 7.5 7.5s7.5-3.358 7.5-7.5v-15.531c0-4.142-3.358-7.5-7.5-7.5z"/><path d="m287.061 458.172c-4.142 0-7.5 3.358-7.5 7.5v15.531c0 4.142 3.358 7.5 7.5 7.5s7.5-3.358 7.5-7.5v-15.531c0-4.142-3.358-7.5-7.5-7.5z"/><path d="m318.124 458.172c-4.142 0-7.5 3.358-7.5 7.5v15.531c0 4.142 3.358 7.5 7.5 7.5s7.5-3.358 7.5-7.5v-15.531c0-4.142-3.358-7.5-7.5-7.5z"/><path d="m349.186 458.172c-4.142 0-7.5 3.358-7.5 7.5v15.531c0 4.142 3.358 7.5 7.5 7.5s7.5-3.358 7.5-7.5v-15.531c0-4.142-3.358-7.5-7.5-7.5z"/><path d="m255.999 46.063c4.142 0 7.5-3.358 7.5-7.5v-31.063c0-4.142-3.358-7.5-7.5-7.5s-7.5 3.358-7.5 7.5v31.063c0 4.142 3.358 7.5 7.5 7.5z"/><path d="m371.074 89.334 21.964-21.964c2.929-2.929 2.929-7.678 0-10.606-2.929-2.929-7.678-2.929-10.606 0l-21.964 21.964c-2.929 2.929-3.054 7.808 0 10.606 2.906 2.664 8.656 2.289 10.606 0z"/><path d="m140.924 89.334c3.535 2.929 7.071 2.929 10.606 0 2.929-2.929 2.929-7.678 0-10.606l-21.964-21.964c-2.929-2.929-7.678-2.929-10.606 0-2.929 2.929-2.929 7.678 0 10.606z"/></g></g></g></svg>