<svg id="Capa_1" enable-background="new 0 0 512 512" height="512" viewBox="0 0 512 512" width="512" xmlns="http://www.w3.org/2000/svg"><g><path d="m7.502 118.122h496.996v31.062h-496.996z" fill="#98bce5"/><path d="m7.502 240.423h496.996v31.062h-496.996z" fill="#548eb5"/><path d="m7.502 364.672h496.996v31.062h-496.996z" fill="#98bce5"/><path d="m327.971 110.357-31.062 53.801c-4.289 7.428-13.787 9.974-21.216 5.685-7.428-4.289-9.974-13.787-5.685-21.216l31.062-53.801c4.289-7.428 13.787-9.974 21.216-5.685 7.428 4.289 9.974 13.787 5.685 21.216z" fill="#f5fcff"/><path d="m324.51 90.714c-1.34 1.13-2.51 2.51-3.44 4.11l-31.06 53.8c-1.41 2.45-2.09 5.12-2.09 7.76 0 4.5 1.96 8.9 5.54 11.89-4.86 4.09-11.95 4.93-17.77 1.57-4.98-2.88-7.77-8.1-7.77-13.46 0-2.64.68-5.31 2.09-7.76l31.06-53.8c4.29-7.43 13.79-9.97 21.22-5.68.8.46 1.54.98 2.22 1.57z" fill="#d8ecfe"/><path d="m327.971 110.357-15.531 26.901c-4.289 7.428-1.744 16.927 5.685 21.216 7.428 4.289 16.927 1.744 21.216-5.685l15.531-26.901c4.289-7.428 1.744-16.927-5.685-21.216-7.429-4.289-16.927-1.744-21.216 5.685z" fill="#f5fcff"/><path d="m351.41 106.244c-1.34 1.13-18.97 31.01-18.97 31.01-3.83 6.63-2.21 14.9 3.45 19.65-2.82 2.37-6.38 3.65-10.02 3.65-2.64 0-5.3-.67-7.75-2.08-7.42-4.29-9.97-13.79-5.68-21.22l15.53-26.9c2.88-4.98 8.1-7.77 13.46-7.77 2.64 0 5.31.68 7.76 2.09.8.46 1.54.98 2.22 1.57z" fill="#d8ecfe"/><path d="m370.403 98.987-31.062 53.801c-4.289 7.428-1.744 16.927 5.685 21.216 7.428 4.289 16.927 1.744 21.216-5.685l31.062-53.801c4.289-7.428 1.744-16.927-5.685-21.216-7.429-4.288-16.928-1.743-21.216 5.685z" fill="#f5fcff"/><path d="m393.84 94.874c-1.34 1.13-2.51 2.51-3.44 4.11l-31.06 53.8c-3.83 6.63-2.21 14.9 3.46 19.65-2.82 2.37-6.39 3.65-10.03 3.65-2.63 0-5.3-.67-7.74-2.08-7.43-4.29-9.98-13.79-5.69-21.22l31.06-53.8c2.88-4.98 8.1-7.77 13.46-7.77 2.64 0 5.31.68 7.76 2.09.8.46 1.54.98 2.22 1.57z" fill="#d8ecfe"/><path d="m293.305 108.276-15.531 26.901-67.252-38.828c-7.428-4.289-9.974-13.787-5.685-21.216 4.289-7.428 13.787-9.974 21.216-5.685z" fill="#f5fcff"/><path d="m282.77 126.514-5 8.66-67.25-38.83c-7.43-4.28-9.97-13.78-5.68-21.21 2.88-4.98 8.1-7.77 13.46-7.77 2.64 0 5.3.67 7.75 2.08l2.44 1.41c-1.43 1.16-2.67 2.59-3.65 4.28-4.29 7.43-1.75 16.93 5.68 21.21z" fill="#d8ecfe"/><path d="m462.474 188.012c-4.289 7.428-13.788 9.974-21.216 5.685l-67.252-38.828 15.531-26.901 67.252 38.828c7.429 4.289 9.974 13.788 5.685 21.216z" fill="#f5fcff"/><path d="m458.83 192.294c-4.85 3.95-11.83 4.72-17.57 1.4l-67.25-38.83 15.53-26.9 15 8.66-3.031 5.251c-4.142 7.174-1.684 16.347 5.49 20.489z" fill="#d8ecfe"/><path d="m250.116 234.739-31.062 53.801c-4.289 7.428-13.787 9.974-21.216 5.685-7.428-4.289-9.974-13.787-5.685-21.216l31.062-53.801c4.289-7.428 13.787-9.974 21.216-5.685 7.429 4.288 9.974 13.787 5.685 21.216z" fill="#f5fcff"/><path d="m246.65 215.094c-1.34 1.13-2.51 2.51-3.43 4.11l-31.07 53.8c-1.41 2.45-2.08 5.11-2.08 7.75 0 4.51 1.96 8.91 5.54 11.9-4.86 4.09-11.95 4.93-17.77 1.57-4.98-2.88-7.77-8.1-7.77-13.47 0-2.64.67-5.3 2.08-7.75l31.07-53.8c4.28-7.43 13.78-9.97 21.21-5.68.8.46 1.54.98 2.22 1.57z" fill="#d8ecfe"/><path d="m250.116 234.739-15.531 26.901c-4.289 7.428-1.744 16.927 5.685 21.216 7.428 4.289 16.927 1.744 21.216-5.685l15.531-26.901c4.289-7.428 1.744-16.927-5.685-21.216-7.428-4.289-16.927-1.744-21.216 5.685z" fill="#f5fcff"/><path d="m273.56 230.624c-1.34 1.13-2.51 2.51-3.44 4.11l-15.53 26.9c-3.83 6.63-2.22 14.91 3.45 19.65-2.82 2.38-6.38 3.65-10.02 3.65-2.63 0-5.3-.67-7.75-2.08-7.43-4.29-9.97-13.79-5.68-21.22l15.53-26.9c2.88-4.98 8.1-7.76 13.46-7.76 2.63 0 5.3.67 7.75 2.08.8.46 1.54.99 2.23 1.57z" fill="#d8ecfe"/><path d="m292.548 223.369-31.062 53.801c-4.289 7.428-1.744 16.927 5.685 21.216 7.428 4.289 16.927 1.744 21.216-5.685l31.062-53.801c4.289-7.428 1.744-16.927-5.685-21.216-7.428-4.289-16.927-1.743-21.216 5.685z" fill="#f5fcff"/><path d="m315.99 219.254c-1.34 1.13-2.51 2.51-3.44 4.11l-31.06 53.81c-3.83 6.62-2.22 14.91 3.46 19.64-2.82 2.38-6.39 3.66-10.02 3.66-2.64 0-5.31-.68-7.76-2.09-7.43-4.29-9.97-13.79-5.68-21.21l31.06-53.81c2.88-4.98 8.1-7.76 13.47-7.76 2.63 0 5.3.67 7.74 2.08.8.46 1.54.99 2.23 1.57z" fill="#d8ecfe"/><path d="m215.45 232.658-15.531 26.901-67.252-38.828c-7.428-4.289-9.974-13.787-5.685-21.216 4.289-7.428 13.787-9.974 21.216-5.685z" fill="#f5fcff"/><path d="m204.92 250.894-5 8.66-67.25-38.82c-7.43-4.29-9.98-13.79-5.69-21.22 2.88-4.98 8.1-7.77 13.46-7.77 2.64 0 5.31.68 7.76 2.09l2.43 1.4c-1.43 1.16-2.67 2.59-3.65 4.28-4.29 7.43-1.74 16.93 5.69 21.22z" fill="#d8ecfe"/><path d="m384.62 312.394c-4.289 7.428-13.787 9.974-21.216 5.685l-67.252-38.828 15.531-26.901 67.252 38.828c7.428 4.289 9.974 13.788 5.685 21.216z" fill="#f5fcff"/><path d="m380.97 316.674c-4.85 3.95-11.83 4.72-17.57 1.4l-67.25-38.82 15.53-26.9 15 8.66-3.03 5.249c-4.142 7.175-1.683 16.348 5.491 20.49z" fill="#d8ecfe"/><path d="m172.669 358.978-31.062 53.801c-4.289 7.428-13.787 9.974-21.216 5.685-7.428-4.289-9.974-13.787-5.685-21.216l31.062-53.801c4.289-7.428 13.787-9.974 21.216-5.685 7.429 4.289 9.974 13.788 5.685 21.216z" fill="#f5fcff"/><path d="m169.21 339.334c-1.34 1.13-2.51 2.51-3.44 4.11l-31.06 53.8c-1.41 2.45-2.09 5.12-2.09 7.76 0 4.5 1.96 8.9 5.54 11.89-4.86 4.09-11.95 4.93-17.77 1.57-4.98-2.88-7.77-8.1-7.77-13.46 0-2.64.68-5.31 2.09-7.76l31.06-53.8c4.29-7.43 13.79-9.97 21.21-5.68.8.46 1.54.99 2.23 1.57z" fill="#d8ecfe"/><path d="m172.669 358.978-15.531 26.901c-4.289 7.428-1.744 16.927 5.685 21.216 7.428 4.289 16.927 1.744 21.216-5.685l15.531-26.901c4.289-7.428 1.744-16.927-5.685-21.216-7.429-4.288-16.927-1.743-21.216 5.685z" fill="#f5fcff"/><path d="m196.11 354.864c-1.34 1.13-2.51 2.51-3.44 4.11l-15.53 26.9c-3.83 6.63-2.22 14.91 3.45 19.65-2.82 2.38-6.38 3.65-10.02 3.65-2.63 0-5.3-.67-7.75-2.08-7.43-4.29-9.97-13.79-5.68-21.22l15.53-26.9c2.88-4.98 8.1-7.76 13.47-7.76 2.63 0 5.3.67 7.74 2.08.8.46 1.54.99 2.23 1.57z" fill="#d8ecfe"/><path d="m215.101 347.609-31.062 53.801c-4.289 7.428-1.744 16.927 5.685 21.216 7.428 4.289 16.927 1.744 21.216-5.685l31.062-53.801c4.289-7.428 1.744-16.927-5.685-21.216-7.429-4.289-16.928-1.744-21.216 5.685z" fill="#f5fcff"/><path d="m238.55 343.494c-1.35 1.12-2.52 2.5-3.45 4.11l-31.06 53.81c-3.83 6.62-2.22 14.91 3.46 19.64-2.82 2.38-6.39 3.66-10.02 3.66-2.64 0-5.31-.68-7.76-2.09-7.43-4.29-9.97-13.79-5.68-21.21l31.06-53.81c2.88-4.98 8.1-7.76 13.47-7.76 2.63 0 5.3.67 7.75 2.08.8.46 1.54.99 2.23 1.57z" fill="#d8ecfe"/><path d="m138.003 356.897-15.531 26.901-67.252-38.828c-7.428-4.289-9.974-13.787-5.685-21.216 4.289-7.428 13.787-9.974 21.216-5.685z" fill="#f5fcff"/><path d="m127.47 375.134-5 8.66-67.25-38.82c-7.43-4.29-9.97-13.79-5.69-21.22 2.88-4.98 8.1-7.77 13.46-7.77 2.64 0 5.31.68 7.76 2.09l2.43 1.4c-1.43 1.16-2.67 2.59-3.65 4.28-4.28 7.43-1.74 16.93 5.69 21.22z" fill="#d8ecfe"/><path d="m307.172 436.634c-4.289 7.428-13.788 9.974-21.216 5.685l-67.252-38.828 15.531-26.901 67.252 38.828c7.429 4.289 9.974 13.787 5.685 21.216z" fill="#f5fcff"/><path d="m303.52 440.904c-4.85 3.96-11.82 4.73-17.56 1.41l-67.26-38.82 15.54-26.9 15 8.66-3.031 5.245c-4.146 7.176-1.688 16.354 5.49 20.496z" fill="#d8ecfe"/><g><path d="m504.5 110.624h-97.958c1.438-9.822-2.287-17.761-11.173-23.817-12.815-5.878-23.302-3.068-31.461 8.43l-4.739 8.209c-5.711-6.69-13.283-9.289-22.717-7.799-1.736-5.501-5.388-10.099-10.416-13.001-12.815-5.878-23.302-3.068-31.461 8.43l-4.016 6.956-60.757-35.078c-12.815-5.878-23.302-3.068-31.461 8.43-6.35 10.998-2.568 25.111 8.43 31.461l13.476 7.78h-90.527c-4.142 0-7.5 3.358-7.5 7.5s3.358 7.5 7.5 7.5h116.508l21.3 12.297-2.172 3.763h-250.356v-16.06h82.04c4.142 0 7.5-3.358 7.5-7.5s-3.358-7.5-7.5-7.5h-89.54c-4.142 0-7.5 3.358-7.5 7.5v31.06c0 4.142 3.358 7.5 7.5 7.5h252.938c.113 7.849 4.227 15.452 11.505 19.654 10.476 6.048 25.408 2.054 31.461-8.43l4.739-8.209c4.987 6.043 15.012 9.509 22.703 7.805 1.675 5.296 5.252 10.007 10.429 12.996 10.476 6.048 25.408 2.054 31.461-8.43l4.016-6.955 60.756 35.078c11.23 5.512 23.992 5.262 31.461-8.43 6.082-11.148 2.567-25.111-8.43-31.46l-6.265-3.617h50.226c4.142 0 7.5-3.358 7.5-7.5v-31.06c0-4.145-3.358-7.503-7.5-7.503zm-229.472 14.307-60.757-35.078c-3.835-2.214-5.153-7.136-2.939-10.971 2.249-3.894 7.261-5.081 10.971-2.939l60.757 35.078zm15.386 35.477c-2.215 3.835-7.136 5.155-10.971 2.94-3.835-2.214-5.154-7.136-2.94-10.971l31.063-53.802c2.249-3.895 7.261-5.081 10.971-2.939 4.202 2.426 4.797 6.922 2.939 10.971zm31.461-8.43c-3.835-2.214-5.154-7.136-2.939-10.971l15.531-26.901c2.214-3.835 7.138-5.153 10.971-2.939 3.835 2.214 5.153 7.136 2.939 10.971l-15.531 26.901c-2.846 4.009-6.503 4.989-10.971 2.939zm26.9 15.532c-3.835-2.214-5.154-7.136-2.94-10.971l31.063-53.801c2.249-3.895 7.261-5.081 10.971-2.939 4.009 2.845 4.989 6.502 2.939 10.971l-31.062 53.801c-2.214 3.834-7.136 5.153-10.971 2.939zm107.205 16.753c-2.606 3.228-6.851 5.319-10.971 2.939l-60.756-35.078 8.031-13.911 60.757 35.078c3.833 2.215 5.152 7.136 2.939 10.972zm41.02-42.579h-68.706l-27.817-16.06h96.523z"/><path d="m504.5 232.925h-51.44c-4.142 0-7.5 3.358-7.5 7.5s3.358 7.5 7.5 7.5h43.94v16.06h-150.166l-24.905-14.379.97-1.681h97.471c4.142 0 7.5-3.358 7.5-7.5s-3.358-7.5-7.5-7.5h-91.413c.654-8.563-3.522-17.163-11.443-21.736-10.999-6.35-25.111-2.567-31.461 8.43l-4.739 8.209c-5.711-6.69-13.283-9.289-22.716-7.799-1.736-5.501-5.388-10.099-10.415-13.001-10.999-6.349-25.111-2.568-31.461 8.43l-4.015 6.955-60.757-35.078c-10.998-6.35-25.112-2.568-31.461 8.43-6.35 10.998-2.568 25.111 8.43 31.461l9.871 5.699h-131.29c-4.142 0-7.5 3.358-7.5 7.5v31.06c0 4.142 3.358 7.5 7.5 7.5h175.145c-.654 8.563 3.522 17.163 11.443 21.736 10.476 6.049 25.408 2.054 31.461-8.43l4.739-8.209c4.992 6.049 15.018 9.495 22.714 7.79 1.735 5.505 5.388 10.106 10.418 13.01 10.476 6.048 25.408 2.055 31.461-8.43l4.015-6.955 60.757 35.078c10.476 6.048 25.408 2.055 31.461-8.43 6.35-10.998 2.568-25.111-8.43-31.461l-9.871-5.699h131.687c4.142 0 7.5-3.358 7.5-7.5v-31.06c0-4.142-3.358-7.5-7.5-7.5zm-371.022-29.661c3.254-4.06 6.911-5.04 10.971-2.939l60.757 35.078-8.031 13.911-60.756-35.078c-3.837-2.215-5.156-7.137-2.941-10.972zm-118.478 44.661h149.768l24.905 14.379-.97 1.681h-173.703zm197.559 36.865c-2.214 3.835-7.137 5.154-10.971 2.94-3.835-2.214-5.154-7.136-2.94-10.971l31.062-53.801c3.254-4.06 6.861-4.94 10.971-2.94 3.979 1.937 4.989 6.502 2.939 10.971zm31.461-8.43c-3.833-2.213-5.152-7.131-2.943-10.965l15.534-26.906c2.214-3.834 7.133-5.154 10.971-2.94 3.833 2.213 5.152 7.131 2.943 10.965l-15.534 26.906c-2.215 3.834-7.136 5.154-10.971 2.94zm26.9 15.531c-4.009-2.845-4.989-6.502-2.939-10.971l31.062-53.801c2.215-3.834 7.138-5.153 10.971-2.94 3.835 2.214 5.154 7.136 2.94 10.971l-31.062 53.801c-2.215 3.835-7.138 5.153-10.972 2.94zm107.205 16.753c-2.215 3.835-7.137 5.153-10.971 2.939l-60.757-35.078 8.031-13.911 60.756 35.078c3.836 2.216 5.155 7.137 2.941 10.972z"/><path d="m504.5 357.175h-252.992c.658-8.566-3.518-17.171-11.442-21.746-10.998-6.349-25.111-2.567-31.461 8.43l-4.739 8.209c-5.709-6.691-13.28-9.286-22.713-7.786-1.735-5.507-5.388-10.11-10.419-13.014-10.999-6.35-25.111-2.568-31.461 8.43l-4.016 6.955-60.756-35.078c-5.328-3.077-11.534-3.894-17.477-2.301-5.942 1.592-10.909 5.403-13.984 10.73-6.35 10.998-2.568 25.111 8.43 31.461l9.888 5.709h-53.858c-4.142 0-7.5 3.358-7.5 7.5v31.06c0 4.142 3.358 7.5 7.5 7.5h97.697c-.65 8.559 3.527 17.154 11.444 21.726 10.476 6.048 25.408 2.055 31.46-8.43l4.739-8.209c4.992 6.05 15.018 9.496 22.714 7.79 1.735 5.505 5.388 10.106 10.418 13.01 10.638 6.143 25.014 2.738 31.461-8.43l4.016-6.955 60.757 35.078c11.673 6.739 25.418 2.391 31.461-8.43 6.191-11.087 2.568-25.111-8.43-31.461l-9.853-5.688h56.875c4.142 0 7.5-3.358 7.5-7.5s-3.358-7.5-7.5-7.5h-82.856l-24.923-14.389.964-1.67h251.556v16.06h-112.06c-4.142 0-7.5 3.358-7.5 7.5s3.358 7.5 7.5 7.5h119.56c4.142 0 7.5-3.358 7.5-7.5v-31.06c0-4.143-3.358-7.501-7.5-7.501zm-203.823 75.709c-2.214 3.836-7.136 5.153-10.971 2.94l-60.757-35.078 8.031-13.911 60.756 35.078c3.837 2.214 5.155 7.136 2.941 10.971zm-244.647-105.38c1.073-1.858 2.804-3.187 4.876-3.742.692-.186 1.394-.277 2.091-.277 1.392 0 2.766.365 4.003 1.08l60.756 35.078-8.031 13.911-60.755-35.079c-3.835-2.214-5.154-7.136-2.94-10.971zm-41.03 44.671h72.339l24.887 14.369-.976 1.691h-96.25zm120.111 36.855c-2.845 4.009-6.502 4.989-10.971 2.939-4.009-2.845-4.989-6.502-2.939-10.971l31.062-53.801c2.25-3.895 7.261-5.081 10.971-2.939 4.009 2.845 4.989 6.502 2.939 10.971zm31.462-8.43c-3.834-2.214-5.153-7.134-2.941-10.969l15.532-26.903c2.735-3.667 6.901-5.29 10.97-2.94 3.835 2.214 5.154 7.136 2.94 10.971l-15.531 26.901c-2.214 3.834-7.135 5.154-10.97 2.94zm26.9 15.531c-4.348-2.295-4.989-6.502-2.939-10.971l31.062-53.801c2.215-3.835 7.137-5.153 10.971-2.94 3.835 2.214 5.154 7.136 2.94 10.971l-31.063 53.801c-1.694 3.723-6.569 5.263-10.971 2.94z"/></g></g></svg>