<svg id="Capa_1" enable-background="new 0 0 512 512" height="512" viewBox="0 0 512 512" width="512" xmlns="http://www.w3.org/2000/svg"><g><path d="m395.55 192.97c-1.41 25.77-9.28 51.1-23.44 72.66l-34.46 52.49h-163.3l-34.46-52.49c-14.02-21.34-21.87-46.37-23.39-71.87-.46-7.69-.35-15.44.35-23.13 1.69-18.77 6.84-37.27 15.5-54.22l21.37-41.83c21.22-41.54 60.17-67.08 102.28-67.08 21.06 0 41.32 6.38 58.97 17.96 17.66 11.58 32.7 28.35 43.31 49.12l21.37 41.83c8.55 16.73 13.67 34.97 15.43 53.48.73 7.67.89 15.4.47 23.08z" fill="#548eb5"/><path d="m204.35 318.12h-30l-34.46-52.49c-18.25-27.78-26.04-61.81-23.04-95 10.55-5.92 21.34-10.94 32.3-16-1.05 5.29-1.81 10.63-2.3 16-3 33.19 4.79 67.22 23.04 95z" fill="#497090"/><path d="m331.248 144.546h15.061c11.541 0 20.897 9.356 20.897 20.897v15.659c0 11.541-9.356 20.897-20.897 20.897h-15.061z" fill="#fff"/><path d="m180.752 144.546h-15.061c-11.541 0-20.897 9.356-20.897 20.897v15.659c0 11.541 9.356 20.897 20.897 20.897h15.061z" fill="#fff"/><path d="m180.752 125.919v91.311c0 38.386 31.118 69.504 69.504 69.504h11.488c38.386 0 69.504-31.118 69.504-69.504v-91.311c0-11.755-9.53-21.285-21.285-21.285h-107.926c-11.756 0-21.285 9.53-21.285 21.285z" fill="#ffeee6"/><path d="m271 286.11c-3.03.41-6.12.62-9.26.62h-11.48c-38.39 0-69.51-31.11-69.51-69.5v-91.31c0-11.76 9.53-21.29 21.29-21.29h30c-11.76 0-21.29 9.53-21.29 21.29v91.31c0 35.25 26.24 64.36 60.25 68.88z" fill="#ffdfcf"/><path d="m331.25 125.92v37.89c-25.14-8.11-50.21-12.19-74.97-12.19-25.02 0-50.34 4.17-75.53 12.42v-38.12c0-11.76 9.53-21.29 21.29-21.29h107.92c11.76 0 21.29 9.53 21.29 21.29z" fill="#ffdfcf"/><path d="m233.469 193.875h-45.717c-3.866 0-7-3.134-7-7v-17.062c0-3.866 3.134-7 7-7h45.717c3.866 0 7 3.134 7 7v17.062c0 3.866-3.134 7-7 7z" fill="#606060"/><path d="m210.75 162.81v31.07h-23c-3.86 0-7-3.14-7-7v-17.07c0-3.86 3.14-7 7-7z" fill="#333"/><path d="m324.248 193.875h-45.717c-3.866 0-7-3.134-7-7v-17.062c0-3.866 3.134-7 7-7h45.717c3.866 0 7 3.134 7 7v17.062c0 3.866-3.134 7-7 7z" fill="#606060"/><path d="m54.099 473.436h403.806v31.062h-403.806z" fill="#548eb5"/><path d="m54.1 473.44h30v31.06h-30z" fill="#497090"/><path d="m331.248 144.546h15.061c11.541 0 20.897 9.356 20.897 20.897v15.659c0 11.541-9.356 20.897-20.897 20.897h-15.061z" fill="#ffcebf"/><path d="m367.21 165.44v12.66c-11.99-5.68-23.98-10.45-35.96-14.29v-19.26h15.06c11.54 0 20.9 9.35 20.9 20.89z" fill="#ffb09e"/><path d="m180.752 144.546h-15.061c-11.541 0-20.897 9.356-20.897 20.897v15.659c0 11.541 9.356 20.897 20.897 20.897h15.061z" fill="#ffcebf"/><path d="m180.75 144.55v19.49c-7.76 2.53-15.5 5.46-23.22 8.76-4.29 1.84-8.54 3.78-12.74 5.81v-13.17c0-11.54 9.36-20.89 20.9-20.89z" fill="#ffb09e"/><path d="m395.08 169.89c-82.16-45.19-164.14-50.46-245.93-15.26-10.958 5.057-21.749 10.082-32.3 16 1.69-18.77 6.84-37.27 15.5-54.22l21.37-41.83c21.22-41.54 60.17-67.08 102.28-67.08 5.05 0 10.05.37 14.98 1.09 15.64 2.27 30.57 8.07 43.99 16.87 17.66 11.58 32.7 28.35 43.31 49.12l21.37 41.83c8.55 16.73 13.67 34.97 15.43 53.48z" fill="#98bce5"/><path d="m270.98 8.59c-36.2 5.27-68.59 29.44-87.26 65.99l-21.37 41.83c-6.18 12.1-10.58 25-13.2 38.22-10.958 5.057-21.749 10.082-32.3 16 1.69-18.77 6.84-37.27 15.5-54.22l21.37-41.83c21.22-41.54 60.17-67.08 102.28-67.08 5.05 0 10.05.37 14.98 1.09z" fill="#7bacdf"/><path d="m69.63 394.79v78.65h372.74v-217.44h-372.74v106.11z" fill="#f5fcff"/><path d="m69.63 256h30v217.44h-30z" fill="#d8ecfe"/><path d="m263.828 427.007h-15.656c-17.121 0-31-13.879-31-31v-31.187c0-17.121 13.879-31 31-31h15.656c17.121 0 31 13.879 31 31v31.187c0 17.121-13.88 31-31 31z" fill="#f07281"/><g><path d="m457.9 465.94h-8.03v-209.94c0-4.142-3.357-7.5-7.5-7.5h-52.464c10.751-24.369 15.229-52.064 12.645-79.268-3.347-35.98-21.525-66.615-37.592-98.065-20.864-40.843-61.892-71.167-108.959-71.167-44.784 0-86.535 27.27-108.958 71.168-16.119 31.551-34.851 62.68-37.668 98.886-2.416 26.939 2.084 54.341 12.714 78.446h-52.458c-4.142 0-7.5 3.358-7.5 7.5v106.11c0 4.142 3.358 7.5 7.5 7.5s7.5-3.358 7.5-7.5v-98.61h357.74v202.44h-97.59c-4.143 0-7.5 3.358-7.5 7.5s3.357 7.5 7.5 7.5h113.12v16.06h-388.8v-16.06h243c4.143 0 7.5-3.358 7.5-7.5s-3.357-7.5-7.5-7.5h-227.47v-71.15c0-4.142-3.358-7.5-7.5-7.5s-7.5 3.358-7.5 7.5v71.15h-8.03c-4.142 0-7.5 3.358-7.5 7.5v31.06c0 4.142 3.358 7.5 7.5 7.5h403.8c4.143 0 7.5-3.358 7.5-7.5v-31.06c0-4.142-3.357-7.5-7.5-7.5zm-125.773-217.44c5.409-12.154 7.39-25.769 6.623-39h7.56c15.66 0 28.4-12.74 28.4-28.4v-13.272c4.405 2.122 8.808 4.355 13.206 6.709 1.744 25.706-3.373 51.66-14.587 73.963zm-67.505 0c10.283-3.578 17.686-13.363 17.686-24.85 0-4.142-3.357-7.5-7.5-7.5s-7.5 3.358-7.5 7.5c0 6.235-5.073 11.309-11.309 11.309s-11.309-5.073-11.309-11.309c0-4.142-3.358-7.5-7.5-7.5s-7.5 3.358-7.5 7.5c0 11.487 7.403 21.272 17.686 24.85h-50.669c-8.066-13.766-10.034-31.386-8.459-47.125h45.219c8.993 0 13.762-7.844 14.5-15.531h16.063c.738 7.687 5.507 15.531 14.5 15.531h45.219c1.575 15.738-.392 33.359-8.458 47.125zm-112.332-83.06c0-1.488.259-2.916.723-4.283 6.74-2.869 13.488-5.464 20.237-7.776v41.119h-7.56c-7.389 0-13.4-6.011-13.4-13.4zm80.679 20.935h-44.717v-16.062h44.717zm46.062-16.062h44.717v16.062h-44.717zm79.801-9.627c.573 1.5.878 3.11.878 4.754v15.66c0 7.389-6.012 13.4-13.4 13.4h-7.56v-41.395c6.693 2.255 13.388 4.785 20.082 7.581zm-198.433-82.694c19.848-38.855 56.48-62.992 95.601-62.992 41.114 0 77.355 27.275 95.602 62.992 12.844 25.141 28.498 50.422 33.962 78.45-35.158-17.529-73.397-29.265-112.734-31.787-4.133-.261-7.699 2.872-7.964 7.005-.266 4.134 2.871 7.7 7.005 7.965 17.186 1.102 34.51 4.072 51.88 8.877v6.811h-45.219c-8.993 0-13.762 7.844-14.5 15.531h-16.063c-.738-7.687-5.507-15.531-14.5-15.531h-45.219v-6.61c17.346-4.876 34.679-7.9 51.905-9.04 4.133-.273 7.262-3.846 6.989-7.979s-3.832-7.248-7.979-6.989c-39.44 2.608-77.736 14.536-112.855 32.382 5.381-28.284 21.144-53.747 34.089-79.085zm-36.361 97.233c4.411-2.409 8.829-4.693 13.252-6.864v12.739c0 15.66 12.74 28.4 28.4 28.4h7.56c-.767 13.231 1.214 26.846 6.624 39h-41.214c-11.098-22.078-16.227-47.788-14.622-73.275z"/><path d="m209.672 372.913h-23.562c-4.142 0-7.5 3.358-7.5 7.5s3.358 7.5 7.5 7.5h23.563c-.187 5.12-.206 11.137.834 16.063h-4.532c-12.7 0-23.031 10.332-23.031 23.031 0 4.142 3.358 7.5 7.5 7.5s7.5-3.358 7.5-7.5c0-4.428 3.603-8.031 8.031-8.031h11.319c7.025 9.42 18.251 15.531 30.878 15.531h15.656c12.627 0 23.853-6.112 30.878-15.531h11.319c4.429 0 8.031 3.603 8.031 8.031 0 4.142 3.357 7.5 7.5 7.5s7.5-3.358 7.5-7.5c0-12.7-10.332-23.031-23.031-23.031h-4.532c1.041-4.925 1.022-10.943.834-16.063h23.562c4.143 0 7.5-3.358 7.5-7.5s-3.357-7.5-7.5-7.5h-23.562c.193-5.171.2-11.262-.872-16.227h4.57c12.699 0 23.031-10.332 23.031-23.031 0-4.142-3.357-7.5-7.5-7.5s-7.5 3.358-7.5 7.5c0 4.428-3.603 8.031-8.031 8.031h-11.445c-3.304-4.381-7.52-8.038-12.365-10.683 7.587-7.047 12.346-17.099 12.346-28.245v-.329c0-4.142-3.357-7.5-7.5-7.5s-7.5 3.358-7.5 7.5v.329c0 12.992-10.57 23.562-23.562 23.562s-23.562-10.57-23.562-23.562v-.329c0-4.142-3.358-7.5-7.5-7.5s-7.5 3.358-7.5 7.5v.329c0 11.147 4.759 21.199 12.346 28.245-4.845 2.645-9.061 6.302-12.365 10.683h-11.445c-4.428 0-8.031-3.603-8.031-8.031 0-4.142-3.358-7.5-7.5-7.5s-7.5 3.358-7.5 7.5c0 12.699 10.332 23.031 23.031 23.031h4.57c-1.071 4.965-1.064 11.056-.871 16.227zm15 23.094v-23.687h23.828v47.187c-16 0-23.828-13.757-23.828-23.5zm39.156 23.5h-.328l.001-47.187h23.827v23.687c0 12.748-10.601 23.5-23.5 23.5zm0-78.187c10.03 0 19.121 6.69 22.266 16h-60.187c3.145-9.31 12.236-16 22.266-16z"/></g></g></svg>