<svg id="Capa_1" enable-background="new 0 0 512 512" height="512" viewBox="0 0 512 512" width="512" xmlns="http://www.w3.org/2000/svg"><g><path d="m396.311 504.498h-280.622c-8.284 0-15-6.716-15-15v-466.996c0-8.284 6.716-15 15-15h280.623c8.284 0 15 6.716 15 15v466.996c-.001 8.284-6.716 15-15.001 15z" fill="#548eb5"/><path d="m165.69 504.5h-50c-8.29 0-15-6.72-15-15v-467c0-8.28 6.71-15 15-15h50c-8.29 0-15 6.72-15 15v467c0 8.28 6.71 15 15 15z" fill="#497090"/><path d="m131.751 69.626h248.498v372.732h-248.498z" fill="#f5fcff"/><path d="m131.75 69.63h18.94v372.73h-18.94z" fill="#d8ecfe"/><path d="m208.78 254.25-15.25-.003c-7.395 0-13.391 5.995-13.391 13.391v5.732c0 7.395 5.995 13.391 13.391 13.391h15.247z" fill="#ffcebf"/><path d="m318.47 254.247c7.395 0 13.391 5.995 13.391 13.391v5.732c0 7.395-5.995 13.391-13.391 13.391h-15.288v-32.51z" fill="#ffcebf"/><path d="m303.18 254.25v35.36c0 21.01-17.03 38.04-38.05 38.04h-18.31c-21.01 0-38.04-17.03-38.04-38.04v-35.36h13.02c11.49 0 22.03-6.35 27.4-16.5l6.78-12.81 6.81 12.84c5.38 10.13 15.91 16.47 27.39 16.47z" fill="#ffeee6"/><path d="m265.84 327.64c-.23.01-.47.01-.71.01h-18.31c-21.01 0-38.04-17.03-38.04-38.04v-35.36h20v35.36c0 20.68 16.5 37.51 37.06 38.03z" fill="#ffdfcf"/><path d="m256 38.564c8.578 0 15.531-6.954 15.531-15.531v-15.531h-31.062v15.531c0 8.578 6.953 15.531 15.531 15.531z" fill="#98bce5"/><path d="m303.18 254.25v20h-13c-12.87 0-24.98-4.81-34.19-13.14-9.22 8.33-21.32 13.14-34.19 13.14h-13.02v-20h13.02c11.49 0 22.03-6.35 27.4-16.5l6.78-12.81 6.81 12.84c5.38 10.13 15.91 16.47 27.39 16.47z" fill="#ffdfcf"/><path d="m201.825 254.247h19.976c11.484 0 22.028-6.349 27.4-16.5l6.779-12.809 6.813 12.839c5.377 10.134 15.912 16.47 27.384 16.47h18.383v-33.306c0-20.21-16.384-36.594-36.594-36.594h-33.545c-20.21 0-36.594 16.384-36.594 36.594v33.306z" fill="#548eb5"/><path d="m238.42 184.35h20c-20.21 0-36.59 16.38-36.59 36.59v33.31h-20v-33.31c0-20.21 16.38-36.59 36.59-36.59z" fill="#497090"/><g><path d="m271.965 176.846h-33.546c-24.313 0-44.094 19.781-44.094 44.094v25.806c-11.325.003-21.686 8.207-21.686 20.891v5.732c0 11.519 9.371 20.891 20.89 20.891h7.983c2.339 22.937 21.768 40.894 45.312 40.894h18.31c23.544 0 42.973-17.957 45.312-40.894h8.025c11.519 0 20.89-9.372 20.89-20.891v-5.732c0-13.327-10.61-20.887-23.302-20.891v-25.806c0-24.313-19.781-44.094-44.094-44.094zm-62.64 44.094c0-16.042 13.052-29.094 29.094-29.094h33.546c16.042 0 29.094 13.052 29.094 29.094v25.806c-20.559 2.087-30.92-5.306-38.454-25.324-2.354-6.256-10.856-6.256-13.254.007-7.267 18.987-16.434 27.82-40.025 25.317v-25.806zm-21.685 52.429v-5.732c0-3.248 2.642-5.891 5.89-5.891h7.747v17.513h-7.747c-3.249.001-5.89-2.642-5.89-5.89zm108.042 16.236c0 16.844-13.704 30.548-30.548 30.548h-18.31c-16.844 0-30.548-13.704-30.548-30.548v-27.859c16.644.881 31.185-6.293 39.712-20.791 7.945 14.289 23.587 21.901 39.693 20.791v27.859zm28.678-21.968v5.732c0 3.248-2.643 5.891-5.89 5.891h-7.789v-17.513h7.789c3.248 0 5.89 2.642 5.89 5.89z"/><path d="m270.789 277.861c-4.143 0-7.5 3.358-7.5 7.5 0 2.546-2.071 4.618-4.618 4.618h-5c-2.546 0-4.617-2.071-4.617-4.618 0-4.142-3.357-7.5-7.5-7.5s-7.5 3.358-7.5 7.5c0 10.817 8.8 19.618 19.617 19.618h5c10.817 0 19.618-8.8 19.618-19.618 0-4.142-3.357-7.5-7.5-7.5z"/><path d="m396.31 0h-280.62c-12.406 0-22.5 10.093-22.5 22.5v231.66c0 4.142 3.357 7.5 7.5 7.5s7.5-3.358 7.5-7.5v-231.66c0-4.136 3.364-7.5 7.5-7.5h117.278v8.033c0 12.7 10.332 23.031 23.031 23.031s23.031-10.332 23.031-23.031v-8.033h117.28c4.136 0 7.5 3.364 7.5 7.5v341.57c0 4.142 3.357 7.5 7.5 7.5s7.5-3.358 7.5-7.5v-341.57c0-12.407-10.094-22.5-22.5-22.5zm-132.279 23.033c0 4.428-3.603 8.031-8.031 8.031s-8.031-3.603-8.031-8.031v-8.031h16.063v8.031z"/><path d="m411.31 389.26c-4.143 0-7.5 3.358-7.5 7.5v92.74c0 4.136-3.364 7.5-7.5 7.5h-280.62c-4.136 0-7.5-3.364-7.5-7.5v-202.65c0-4.142-3.357-7.5-7.5-7.5s-7.5 3.358-7.5 7.5v202.65c0 12.407 10.094 22.5 22.5 22.5h280.62c12.406 0 22.5-10.093 22.5-22.5v-92.74c0-4.142-3.358-7.5-7.5-7.5z"/><path d="m238.85 62.13h-107.1c-4.143 0-7.5 3.358-7.5 7.5v372.73c0 4.142 3.357 7.5 7.5 7.5h248.5c4.143 0 7.5-3.358 7.5-7.5v-372.73c0-4.142-3.357-7.5-7.5-7.5h-108.72c-4.143 0-7.5 3.358-7.5 7.5s3.357 7.5 7.5 7.5h101.22v357.73h-233.5v-357.73h99.6c4.143 0 7.5-3.358 7.5-7.5s-3.358-7.5-7.5-7.5z"/><path d="m224.938 465.936c-4.143 0-7.5 3.358-7.5 7.5s3.357 7.5 7.5 7.5h62.125c4.143 0 7.5-3.358 7.5-7.5s-3.357-7.5-7.5-7.5z"/><path d="m162.813 170.313c4.143 0 7.5-3.358 7.5-7.5v-23.563h24.145c4.143 0 7.5-3.358 7.5-7.5s-3.357-7.5-7.5-7.5h-31.645c-4.143 0-7.5 3.358-7.5 7.5v31.063c0 4.143 3.358 7.5 7.5 7.5z"/><path d="m356.687 131.751c0-4.142-3.357-7.5-7.5-7.5h-31.063c-4.143 0-7.5 3.358-7.5 7.5s3.357 7.5 7.5 7.5h23.563v23.563c0 4.142 3.357 7.5 7.5 7.5s7.5-3.358 7.5-7.5z"/><path d="m155.313 380.249c0 4.142 3.357 7.5 7.5 7.5h31.063c4.143 0 7.5-3.358 7.5-7.5s-3.357-7.5-7.5-7.5h-23.563v-23.563c0-4.142-3.357-7.5-7.5-7.5s-7.5 3.358-7.5 7.5z"/><path d="m349.187 341.687c-4.143 0-7.5 3.358-7.5 7.5v23.563h-23.563c-4.143 0-7.5 3.358-7.5 7.5s3.357 7.5 7.5 7.5h31.063c4.143 0 7.5-3.358 7.5-7.5v-31.063c0-4.143-3.358-7.5-7.5-7.5z"/></g></g></svg>