<svg id="Capa_1" enable-background="new 0 0 512 512" height="512" viewBox="0 0 512 512" width="512" xmlns="http://www.w3.org/2000/svg"><g><path d="m411.311 162.813v-155.311h-62.125v61.144c0 34.852-28.253 63.105-63.105 63.105h-60.164c-34.852 0-63.105-28.253-63.105-63.105v-61.144h-62.125v155.311c0 17.155-13.907 31.062-31.062 31.062v310.623h372.747v-310.623c-17.154 0-31.061-13.907-31.061-31.062z" fill="#548eb5"/><path d="m100.69 7.5h31.06v155.31c0 17.16-13.9 31.07-31.06 31.07v310.62h-31.06v-310.62c17.15 0 31.06-13.91 31.06-31.07z" fill="#497090"/><path d="m380.25 7.5v61.15c0 34.85-28.25 63.1-63.1 63.1h-31.07c34.85 0 63.11-28.25 63.11-63.1v-61.15z" fill="#497090"/><g fill="#ffb952"><path d="m100.689 287.062h77.656v62.125h-77.656z"/><path d="m100.689 380.249h77.656v62.125h-77.656z"/><path d="m333.656 287.062h77.656v62.125h-77.656z"/><path d="m333.656 380.249h77.656v62.125h-77.656z"/></g><path d="m178.344 395.78h155.311v31.062h-155.311z" fill="#98bce5"/><path d="m69.626 395.78h31.062v31.062h-31.062z" fill="#7bacdf"/><path d="m411.311 395.78h31.062v31.062h-31.062z" fill="#98bce5"/><path d="m178.344 302.593h155.311v31.062h-155.311z" fill="#98bce5"/><path d="m69.626 302.593h31.062v31.062h-31.062z" fill="#7bacdf"/><path d="m411.311 302.593h31.062v31.062h-31.062z" fill="#98bce5"/><path d="m224.938 457.905h62.125v46.593h-62.125z" fill="#98bce5"/><path d="m162.813 224.938h186.374v31.062h-186.374z" fill="#98bce5"/><path d="m162.813 162.793h186.374v31.062h-186.374z" fill="#98bce5"/><g><path d="m349.187 217.438h-186.374c-4.142 0-7.5 3.358-7.5 7.5v31.062c0 4.142 3.358 7.5 7.5 7.5h186.373c4.142 0 7.5-3.358 7.5-7.5v-31.062c.001-4.142-3.357-7.5-7.499-7.5zm-7.5 31.062h-171.374v-16.062h171.373v16.062z"/><path d="m356.687 162.793c0-4.142-3.358-7.5-7.5-7.5h-186.374c-4.142 0-7.5 3.358-7.5 7.5v31.062c0 4.142 3.358 7.5 7.5 7.5h186.373c4.142 0 7.5-3.358 7.5-7.5v-31.062zm-15 23.562h-171.374v-16.062h171.373v16.062z"/><path d="m449.87 193.88c0-4.142-3.358-7.5-7.5-7.5-14.359-1.352-22.213-9.209-23.56-23.57v-155.31c0-4.142-3.358-7.5-7.5-7.5h-62.12c-4.142 0-7.5 3.358-7.5 7.5v61.15c0 34.165-31.027 58.693-63.83 55.6-4.142 0-7.5 3.358-7.5 7.5s3.358 7.5 7.5 7.5c38.109 2.533 73.614-23.145 78.303-62.124h47.647v85.684c0 17.618 13.46 34.392 31.06 37.845v94.438h-16.059v-8.031c0-4.142-3.358-7.5-7.5-7.5h-77.655c-4.142 0-7.5 3.358-7.5 7.5v8.031h-140.316v-8.033c0-4.142-3.358-7.5-7.5-7.5h-22.48c-4.142 0-7.5 3.358-7.5 7.5s3.358 7.5 7.5 7.5h14.98v47.13h-62.65v-47.13h14.98c4.142 0 7.5-3.358 7.5-7.5s-3.358-7.5-7.5-7.5h-22.48c-4.142 0-7.5 3.358-7.5 7.5v8.033h-16.06v-94.446c17.685-3.501 31.06-19.136 31.06-37.837v-85.684h47.647c4.204 34.945 34.019 62.124 70.083 62.124h19.25c4.142 0 7.5-3.358 7.5-7.5s-3.358-7.5-7.5-7.5h-19.25c-30.664 0-55.61-24.942-55.61-55.6v-61.15c0-4.142-3.358-7.5-7.5-7.5h-62.12c-4.142 0-7.5 3.358-7.5 7.5v155.31c0 12.997-10.569 23.57-23.56 23.57-4.142 0-7.5 3.358-7.5 7.5v310.62c0 4.142 3.358 7.5 7.5 7.5h372.74c4.142 0 7.5-3.358 7.5-7.5zm-46.06-131.754h-47.12v-47.126h47.12zm-295.62-47.126h47.12v47.126h-47.12zm232.966 279.562h62.655v47.125h-62.655zm-155.312 15.531h140.312v16.063h-140.312zm-92.655 0v16.063h-16.059v-16.063zm-16.059 93.187h16.059v16.062h-16.059zm202.432 93.718h-47.124v-31.593h47.124zm155.308.002h-140.308v-39.095c0-4.142-3.358-7.5-7.5-7.5h-62.124c-4.142 0-7.5 3.358-7.5 7.5v39.095h-140.308v-62.658h16.059v8.031c0 4.142 3.358 7.5 7.5 7.5h77.655c4.142 0 7.5-3.358 7.5-7.5v-8.031h140.316v8.028c0 4.142 3.358 7.5 7.5 7.5h22.48c4.142 0 7.5-3.358 7.5-7.5s-3.358-7.5-7.5-7.5h-14.98v-47.12h62.65v47.12h-14.98c-4.142 0-7.5 3.358-7.5 7.5s3.358 7.5 7.5 7.5h22.48c4.142 0 7.5-3.358 7.5-7.5v-8.028h16.06zm-326.681-62.126v-47.125h62.655v47.125zm77.655-15.532v-16.062h140.312v16.062zm249.026 0h-16.059v-16.062h16.059zm0-31.062h-16.06v-8.03c0-4.142-3.358-7.5-7.5-7.5h-77.65c-4.142 0-7.5 3.358-7.5 7.5v8.03h-140.316v-8.031c0-4.142-3.358-7.5-7.5-7.5h-77.655c-4.142 0-7.5 3.358-7.5 7.5v8.031h-16.059v-47.125h16.06v8.034c0 4.142 3.358 7.5 7.5 7.5h77.65c4.142 0 7.5-3.358 7.5-7.5v-8.034h140.316v8.031c0 4.142 3.358 7.5 7.5 7.5h77.655c4.142 0 7.5-3.358 7.5-7.5v-8.031h16.059zm0-62.124h-16.059v-16.063h16.059z"/></g></g></svg>