<svg id="Capa_1" enable-background="new 0 0 511.998 511.998" height="512" viewBox="0 0 511.998 511.998" width="512" xmlns="http://www.w3.org/2000/svg"><g><path d="m364.716 473.436h62.125v31.062h-62.125z" fill="#548eb5"/><path d="m85.156 473.436h62.125v31.062h-62.125z" fill="#548eb5"/><path d="m85.158 473.44h30v31.06h-30z" fill="#497090"/><path d="m364.718 473.44h30v31.06h-30z" fill="#497090"/><path d="m279.295 69.892h-46.593v23.297c0 12.866 10.43 23.297 23.297 23.297 12.866 0 23.297-10.43 23.297-23.297v-23.297z" fill="#f07281"/><path d="m265.998 114.24c-3.03 1.44-6.42 2.25-10 2.25-12.87 0-23.3-10.43-23.3-23.3v-23.3h20v23.3c0 9.29 5.44 17.31 13.3 21.05z" fill="#eb5569"/><path d="m131.749 7.768h248.498v62.125h-248.498z" fill="#548eb5"/><path d="m131.748 7.77h30v62.12h-30z" fill="#497090"/><path d="m380.247 7.502h31.062v465.934h-31.062z" fill="#98bce5"/><path d="m380.248 7.5h20v465.94h-20z" fill="#7bacdf"/><path d="m100.687 7.502h31.062v465.934h-31.062z" fill="#98bce5"/><path d="m100.688 7.5h20v465.94h-20z" fill="#7bacdf"/><g><path d="m482.513 246.928c-2.929-2.931-7.678-2.93-10.606-.003-2.93 2.928-2.932 7.677-.003 10.606 16.183 16.192 25.095 37.709 25.095 60.588 0 22.885-8.912 44.406-25.095 60.598-2.929 2.93-2.927 7.679.003 10.606 3.536 2.928 7.071 2.927 10.606-.003 19.014-19.025 29.485-44.312 29.485-71.202 0-26.882-10.472-52.165-29.485-71.19z"/><path d="m460.544 268.889c-2.928-2.93-7.677-2.933-10.606-.005-2.931 2.928-2.933 7.676-.005 10.606 10.321 10.331 16.006 24.049 16.006 38.629 0 14.589-5.684 28.307-16.003 38.626-2.93 2.929-2.93 7.677-.001 10.606 3.536 2.929 7.071 2.929 10.606 0 13.153-13.152 20.397-30.637 20.397-49.233 0-18.582-7.243-36.066-20.394-49.229z"/><path d="m15 318.12c0-22.878 8.912-44.396 25.095-60.588 2.928-2.93 2.927-7.679-.003-10.606-2.93-2.929-7.679-2.928-10.606.003-19.015 19.025-29.486 44.308-29.486 71.191 0 26.89 10.471 52.176 29.485 71.202 3.535 2.93 7.071 2.931 10.606.003 2.93-2.928 2.931-7.677.003-10.606-16.182-16.193-25.094-37.714-25.094-60.599z"/><path d="m46.06 318.12c0-14.58 5.684-28.299 16.005-38.629 2.928-2.93 2.925-7.679-.005-10.606-2.93-2.928-7.679-2.925-10.606.005-13.151 13.162-20.394 30.646-20.394 49.23 0 18.596 7.244 36.08 20.396 49.233 3.535 2.929 7.071 2.929 10.606 0 2.929-2.929 2.929-7.678 0-10.606-10.319-10.32-16.002-24.038-16.002-38.627z"/><path d="m426.841 465.936h-8.033v-132.386c0-4.142-3.357-7.5-7.5-7.5s-7.5 3.358-7.5 7.5v132.386h-16.06v-450.936h16.06v285.86c0 4.142 3.357 7.5 7.5 7.5s7.5-3.358 7.5-7.5v-293.36c0-4.142-3.357-7.5-7.5-7.5l-138.97.27c-4.143 0-7.5 3.358-7.5 7.5s3.357 7.5 7.5 7.5h100.41v47.12h-233.5v-47.12h100.41c4.142 0 7.5-3.358 7.5-7.5s-3.358-7.5-7.5-7.5l-138.97-.27c-4.142 0-7.5 3.358-7.5 7.5v293.36c0 4.142 3.358 7.5 7.5 7.5s7.5-3.358 7.5-7.5v-285.86h16.06v450.936h-16.06v-132.386c0-4.142-3.358-7.5-7.5-7.5s-7.5 3.358-7.5 7.5v132.386h-8.032c-4.142 0-7.5 3.358-7.5 7.5v31.063c0 4.142 3.358 7.5 7.5 7.5h62.125c4.142 0 7.5-3.358 7.5-7.5v-31.063c0-4.142-3.358-7.5-7.5-7.5h-8.032v-388.546h85.953v15.799c0 16.981 13.815 30.796 30.797 30.796s30.797-13.815 30.797-30.796v-15.799h85.953v388.545h-8.032c-4.143 0-7.5 3.358-7.5 7.5v31.063c0 4.142 3.357 7.5 7.5 7.5h62.125c4.143 0 7.5-3.358 7.5-7.5v-31.063c-.001-4.142-3.359-7.499-7.501-7.499zm-287.061 31.062h-47.124v-16.063h47.125v16.063zm132.015-403.809c0 8.71-7.087 15.796-15.797 15.796s-15.797-7.086-15.797-15.796v-15.797h31.594zm147.546 403.809h-47.125v-16.063h47.125z"/><path d="m256 147.548c-4.142 0-7.5 3.358-7.5 7.5v15.531c0 4.142 3.358 7.5 7.5 7.5 4.143 0 7.5-3.358 7.5-7.5v-15.531c0-4.142-3.357-7.5-7.5-7.5z"/><path d="m286.872 136.488c-2.928-2.93-7.677-2.929-10.606 0s-2.929 7.678.001 10.606l10.982 10.982c3.535 2.929 7.071 2.929 10.606 0 2.929-2.929 2.929-7.678-.001-10.606z"/><path d="m225.124 136.488-10.982 10.982c-2.929 2.929-2.929 7.678 0 10.606 3.535 2.929 7.071 2.929 10.606 0l10.982-10.982c2.929-2.929 2.929-7.678 0-10.606-2.929-2.929-7.678-2.929-10.606 0z"/></g></g></svg>