<svg id="Capa_1" enable-background="new 0 0 512 512" height="512" viewBox="0 0 512 512" width="512" xmlns="http://www.w3.org/2000/svg"><g><path d="m473.44 356.086v62.13h-434.88v-62.13c0-59.24 23.69-112.94 62.13-152.16 17.82-18.2 38.83-33.28 62.12-44.34.73-.35 1.46-.69 2.19-1.02 27.69-12.78 58.51-19.91 91-19.91s63.31 7.13 91 19.91c.73.33 1.46.67 2.19 1.02 22.61 10.74 43.07 25.26 60.56 42.75.53.53 1.05 1.06 1.56 1.59 38.44 39.22 62.13 92.92 62.13 152.16z" fill="#ffb952"/><path d="m347 158.566c-10.48 26.82-32.51 47.92-59.94 57.14-9.76 3.29-20.2 5.07-31.06 5.07s-21.3-1.78-31.06-5.07c-27.43-9.22-49.46-30.32-59.94-57.14 18.7-8.63 38.83-14.68 59.94-17.7 10.14-1.46 20.52-2.21 31.06-2.21s20.92.75 31.06 2.21c21.11 3.02 41.24 9.07 59.94 17.7z" fill="#f4a94a"/><path d="m481.201 464.806h-450.402c-12.866 0-23.297-10.43-23.297-23.297 0-12.866 10.43-23.297 23.297-23.297h450.403c12.866 0 23.297 10.43 23.297 23.297-.001 12.867-10.431 23.297-23.298 23.297z" fill="#fee97e"/><path d="m90.8 464.806h-60c-12.87 0-23.3-10.43-23.3-23.3 0-6.43 2.61-12.25 6.82-16.47 4.22-4.21 10.04-6.82 16.48-6.82h60c-6.44 0-12.26 2.61-16.48 6.82-4.21 4.22-6.82 10.04-6.82 16.47 0 12.87 10.43 23.3 23.3 23.3z" fill="#f9da58"/><path d="m473.44 398.216v20h-434.88v-62.13c0-59.24 23.69-112.94 62.13-152.16 17.82-18.2 38.83-33.28 62.12-44.34 28.25-13.42 59.84-20.93 93.19-20.93 8.46 0 16.8.48 25 1.42-24.15 2.77-47.1 9.49-68.19 19.51-18.2 8.64-35.01 19.74-50 32.87-4.18 3.67-8.23 7.5-12.12 11.47-22.12 22.57-39.35 49.93-50 80.38-7.86 22.48-12.13 46.63-12.13 71.78v11.13c0 7.59 2.73 14.54 7.26 19.93 5.68 6.77 14.21 11.07 23.74 11.07z" fill="#f4a94a"/><path d="m38.564 356.088h434.872v31.062h-434.872z" fill="#f5fcff"/><path d="m95.82 387.146h-57.26v-31.06h50v11.13c0 7.59 2.73 14.54 7.26 19.93z" fill="#d8ecfe"/><path d="m224.938 107.59h62.125v217.436h-62.125z" fill="#fee97e"/><path d="m287.06 107.586v108.12c-9.76 3.29-20.2 5.07-31.06 5.07s-21.3-1.78-31.06-5.07v-108.12z" fill="#f9da58"/><path d="m411.31 203.926v90.04h-62.12v-134.38c22.61 10.74 43.07 25.26 60.56 42.75.53.53 1.05 1.06 1.56 1.59z" fill="#fee97e"/><path d="m162.81 159.586v134.38h-62.12v-90.04c17.82-18.2 38.83-33.28 62.12-44.34z" fill="#fee97e"/><path d="m162.81 159.586v32.87c-4.18 3.67-8.23 7.5-12.12 11.47-22.12 22.57-39.35 49.93-50 80.38v-80.38c17.82-18.2 38.83-33.28 62.12-44.34z" fill="#f9da58"/><circle cx="256" cy="123.121" fill="#548eb5" r="77.656"/><path d="m281 196.666c-7.85 2.66-16.26 4.11-25 4.11-42.89 0-77.66-34.77-77.66-77.65 0-42.89 34.77-77.66 77.66-77.66 8.74 0 17.15 1.45 25 4.11-15.74 5.35-29.21 15.61-38.58 28.96-8.87 12.62-14.08 28-14.08 44.59s5.2 31.95 14.07 44.57c9.37 13.35 22.85 23.62 38.59 28.97z" fill="#497090"/><circle cx="256" cy="123.121" fill="#f5fcff" r="46.593"/><path d="m228.34 123.126c0 16.59 5.2 31.95 14.07 44.57-19.1-5.81-33-23.57-33-44.57 0-21.01 13.9-38.77 33.01-44.59-8.87 12.62-14.08 28-14.08 44.59z" fill="#d8ecfe"/><g><path d="m481.2 410.716h-.26v-54.63c0-91.883-57.759-176.131-143.08-209.549 13.364-46.642-16.563-96.534-63.942-106.676-4.047-.867-8.036 1.714-8.903 5.764s1.714 8.037 5.765 8.904c32.089 6.868 55.38 35.717 55.38 68.596 0 38.681-31.474 70.15-70.16 70.15s-70.16-31.469-70.16-70.15c0-32.879 23.295-61.729 55.39-68.596 4.051-.867 6.632-4.853 5.765-8.903-.867-4.051-4.863-6.632-8.903-5.765-47.381 10.139-77.315 60.022-63.953 106.669-85.199 33.281-143.079 117.912-143.079 209.556v54.63c-16.464 1.075-31.06 13.305-31.06 30.79 0 16.983 13.816 30.8 30.8 30.8h450.4c16.809 0 30.8-13.991 30.8-30.8 0-16.977-13.816-30.79-30.8-30.79zm-124.51-238.834c17.212 9.443 33.162 21.307 47.119 35.139v79.443h-47.119zm-77.13 33.054v112.591h-47.12v-112.591c7.488 2.159 15.386 3.341 23.56 3.341s16.072-1.182 23.56-3.341zm-62.12-5.927v126.017c0 4.142 3.357 7.5 7.5 7.5h62.119c4.143 0 7.5-3.358 7.5-7.5v-126.017c16.421-8.376 29.782-21.911 37.918-38.47 3.098 1.215 6.172 2.501 9.213 3.866v129.559c0 4.142 3.357 7.5 7.5 7.5h62.119c4.143 0 7.5-3.358 7.5-7.5v-70.441c28.963 35.435 45.376 78.954 46.985 125.064h-66.514c-4.143 0-7.5 3.358-7.5 7.5s3.357 7.5 7.5 7.5h66.66v16.06h-419.88v-16.06h320.53c4.143 0 7.5-3.358 7.5-7.5s-3.357-7.5-7.5-7.5h-320.39c1.662-46.539 18.732-90.178 46.991-124.96v70.338c0 4.142 3.357 7.5 7.5 7.5h62.119c4.143 0 7.5-3.358 7.5-7.5v-129.582c3.027-1.354 6.099-2.635 9.209-3.851 8.135 16.563 21.498 30.099 37.921 38.477zm-109.25 8.027c13.842-13.759 29.664-25.657 47.119-35.208v114.636h-47.119zm373.01 250.27h-450.4c-8.712 0-15.8-7.088-15.8-15.8.901-9.628 6.167-14.892 15.8-15.79h80.84c4.143 0 7.5-3.358 7.5-7.5s-3.357-7.5-7.5-7.5h-65.58v-16.07h419.88v16.07h-321.62c-4.143 0-7.5 3.358-7.5 7.5s3.357 7.5 7.5 7.5h336.88c8.712 0 15.8 7.083 15.8 15.79 0 7.797-5 15.8-15.8 15.8z"/><path d="m201.906 123.121c0 29.827 24.267 54.093 54.094 54.093s54.094-24.266 54.094-54.093-24.267-54.093-54.094-54.093-54.094 24.266-54.094 54.093zm54.094-39.093c21.557 0 39.094 17.537 39.094 39.093s-17.537 39.094-39.094 39.094-39.094-17.537-39.094-39.093 17.537-39.094 39.094-39.094z"/></g></g></svg>