<svg id="Capa_1" enable-background="new 0 0 511.803 511.803" height="512" viewBox="0 0 511.803 511.803" width="512" xmlns="http://www.w3.org/2000/svg"><g><path d="m255.902 7.5-186.374 62.124v176.292c0 117.321 75.073 221.479 186.373 258.579 111.3-37.1 186.373-141.258 186.373-258.579v-176.292z" fill="#f5fcff"/><path d="m206.502 445.538c21.61 20.11 46.65 36.85 74.4 49.24-8.11 3.62-16.45 6.87-25 9.72-111.3-37.1-186.37-141.26-186.37-258.58v-176.29l186.37-62.13 25 8.33-161.37 53.8v176.29c0 77.44 32.71 149.16 86.97 199.62z" fill="#d8ecfe"/><path d="m255.902 471.264c-93.185-35.588-155.074-124.853-155.074-225.348v-153.732l155.074-51.691 155.074 51.691v153.733c-.001 100.495-61.889 189.759-155.074 225.347z" fill="#ade194"/><path d="m206.502 445.538c-65.02-44.1-105.67-118.17-105.67-199.62v-153.73l18.7-6.23v159.96c0 77.44 32.71 149.16 86.97 199.62z" fill="#7dce6f"/><circle cx="255.902" cy="255.998" fill="#f5fcff" r="124.249"/><path d="m280.902 377.738c-8.08 1.64-16.44 2.51-25 2.51-68.62 0-124.25-55.63-124.25-124.25s55.63-124.25 124.25-124.25c8.56 0 16.92.87 25 2.51-26.84 5.49-50.53 19.63-68.02 39.38-19.44 21.93-31.23 50.76-31.23 82.36s11.79 60.43 31.23 82.36c17.49 19.75 41.18 33.89 68.02 39.38z" fill="#d8ecfe"/><circle cx="255.902" cy="255.998" fill="#f07281" r="92.949"/><path d="m181.652 255.998c0 31.6 11.79 60.43 31.23 82.36-29.65-15.53-49.93-46.62-49.93-82.36s20.28-66.83 49.93-82.36c-19.44 21.93-31.23 50.76-31.23 82.36z" fill="#eb5569"/><path d="m302.495 240.467h-31.062v-31.145h-31.062v31.145h-31.063v31.062h31.063v30.98h31.062v-30.98h31.062z" fill="#f5fcff"/><g><g><path d="m253.53 511.611c-114.543-38.181-191.501-144.955-191.501-265.694v-176.293c0-3.228 2.065-6.094 5.128-7.115l186.373-62.124c1.541-.513 3.203-.513 4.744 0l186.373 62.125c3.063 1.021 5.128 3.887 5.128 7.115v176.292c0 120.739-76.958 227.514-191.501 265.694-.771.256-3.974.256-4.744 0zm-176.501-436.581v170.887c0 113.436 71.778 213.849 178.873 250.661 107.095-36.813 178.873-137.226 178.873-250.661v-170.887l-178.873-59.624z"/></g><g><path d="m253.226 478.274c-47.22-18.033-87.325-49.53-115.98-91.086-28.729-41.663-43.914-90.513-43.914-141.271v-153.729c0-3.228 2.065-6.094 5.128-7.115l155.07-51.69c1.541-.513 3.204-.513 4.743 0l67 22.33c3.93 1.31 6.054 5.557 4.744 9.487-1.311 3.929-5.563 6.052-9.486 4.744l-64.629-21.54-147.57 49.19v148.324c0 96.821 57.827 181.803 147.57 217.304 89.743-35.5 147.57-120.483 147.57-217.304v-148.324l-51.933-17.311c-3.929-1.31-6.053-5.557-4.743-9.487 1.31-3.929 5.555-6.054 9.487-4.744l57.061 19.02c3.063 1.021 5.128 3.887 5.128 7.115v153.73c0 50.757-15.186 99.607-43.914 141.271-28.655 41.556-68.761 73.053-115.98 91.086-.862.329-4.491.329-5.352 0z"/></g><g><path d="m240.282 386.769c-72.047-4.438-116.13-71.058-116.13-130.771 0-72.647 59.103-131.75 131.75-131.75s131.75 59.103 131.75 131.75c0 64.683-49.537 121.717-113.682 130.511-4.099.565-7.886-2.308-8.449-6.412s2.309-7.887 6.412-8.449c57.419-7.871 100.719-57.589 100.719-115.649 0-64.376-52.374-116.75-116.75-116.75s-116.75 52.374-116.75 116.75c0 58.736 43.873 108.532 102.054 115.828 4.109.516 7.023 4.265 6.508 8.375-.476 3.792-3.707 6.567-7.432 6.567z"/></g><g><path d="m255.902 356.448c-48.831 0-90.431-34.875-98.916-82.926-.721-4.079 2.003-7.97 6.081-8.69 4.083-.719 7.97 2.002 8.69 6.082 7.217 40.87 42.605 70.534 84.145 70.534 47.117 0 85.45-38.333 85.45-85.45s-38.333-85.45-85.45-85.45c-41.431 0-76.799 29.571-84.098 70.313-.73 4.077-4.632 6.789-8.705 6.06-4.077-.73-6.791-4.627-6.061-8.705 8.581-47.901 50.159-82.667 98.863-82.667 55.389 0 100.45 45.062 100.45 100.45s-45.061 100.449-100.449 100.449z"/></g><g><path d="m271.433 310.01h-31.063c-4.143 0-7.5-3.358-7.5-7.5v-23.48h-23.563c-4.143 0-7.5-3.358-7.5-7.5v-31.063c0-4.142 3.357-7.5 7.5-7.5h23.563v-23.645c0-4.142 3.357-7.5 7.5-7.5h31.063c4.143 0 7.5 3.358 7.5 7.5v23.645h23.563c4.143 0 7.5 3.358 7.5 7.5v31.063c0 4.142-3.357 7.5-7.5 7.5h-23.563v23.48c0 4.142-3.357 7.5-7.5 7.5zm-23.563-15h16.063v-23.48c0-4.142 3.357-7.5 7.5-7.5h23.563v-16.063h-23.563c-4.143 0-7.5-3.358-7.5-7.5v-23.645h-16.063v23.645c0 4.142-3.357 7.5-7.5 7.5h-23.563v16.063h23.563c4.143 0 7.5 3.358 7.5 7.5z"/></g></g></g></svg>