<svg id="Capa_1" enable-background="new 0 0 511.997 511.997" height="512" viewBox="0 0 511.997 511.997" width="512" xmlns="http://www.w3.org/2000/svg"><g><path d="m272.061 504.495h-32.125c-8.284 0-15-6.716-15-15v-109.249h62.125v109.249c0 8.284-6.716 15-15 15z" fill="#548eb5"/><path d="m269.939 504.497h-30c-8.29 0-15-6.72-15-15v-109.25h30v109.25c0 8.28 6.71 15 15 15z" fill="#497090"/><path d="m255.999 411.308h31.062v31.062h-31.062z" fill="#fee97e"/><path d="m193.874 349.184 31.062 31.062h62.125l31.062-31.062z" fill="#fee97e"/><path d="m254.939 380.247h-30l-31.06-31.06h30z" fill="#f9da58"/><path d="m318.123 349.184h-124.249v-310.623c41.416-41.416 82.833-41.416 124.249 0z" fill="#548eb5"/><path d="m270.999 9.317c-15.71 3.79-31.42 13.54-47.12 29.24v310.63h-30v-310.63c25.7-25.7 51.41-35.45 77.12-29.24z" fill="#497090"/><path d="m287.061 318.122h-62.125v-264.03c20.708-20.708 41.416-20.708 62.125 0z" fill="#fee97e"/><g><path d="m255.999 0c-22.673 0-45.357 11.188-67.423 33.253-1.407 1.407-2.197 3.314-2.197 5.304v310.631c0 1.957.807 3.915 2.192 5.3l28.868 28.868v42.672c0 4.143 3.358 7.5 7.5 7.5s7.5-3.357 7.5-7.5v-38.28h47.12v16.062h-23.56c-4.142 0-7.5 3.357-7.5 7.5v31.062c0 4.143 3.358 7.5 7.5 7.5h23.56v39.627c0 4.136-3.364 7.5-7.5 7.5h-32.12c-4.136 0-7.5-3.364-7.5-7.5v-30.78c0-4.143-3.358-7.5-7.5-7.5s-7.5 3.357-7.5 7.5v30.78c0 12.406 10.093 22.5 22.5 22.5h32.12c12.407 0 22.5-10.094 22.5-22.5v-106.144l28.868-28.868c1.388-1.388 2.192-3.338 2.192-5.3v-232.22c0-4.143-3.358-7.5-7.5-7.5s-7.5 3.357-7.5 7.5v224.717h-109.24v-299.98c18.414-17.722 36.779-26.704 54.62-26.704s36.206 8.982 54.62 26.704v42.583c0 4.143 3.358 7.5 7.5 7.5s7.5-3.357 7.5-7.5v-45.73c0-1.989-.79-3.896-2.197-5.304-22.066-22.065-44.751-33.253-67.423-33.253zm44.014 356.688-16.059 16.059h-55.911l-16.059-16.059zm-36.514 78.182v-16.062h16.06v16.062z"/><path d="m224.938 202.707c-4.142 0-7.5 3.357-7.5 7.5v107.91c0 4.143 3.358 7.5 7.5 7.5h62.12c4.142 0 7.5-3.357 7.5-7.5v-264.02c0-1.989-.79-3.896-2.197-5.304-11.764-11.764-23.999-17.729-36.363-17.729s-24.599 5.965-36.363 17.729c-1.407 1.407-2.197 3.314-2.197 5.304v123.431c0 4.143 3.358 7.5 7.5 7.5s7.5-3.357 7.5-7.5v-120.243c16.203-14.996 30.917-14.996 47.12 0v253.332h-47.12v-100.41c0-4.143-3.357-7.5-7.5-7.5z"/><path d="m263.499 287.06v-217.436c0-4.143-3.358-7.5-7.5-7.5s-7.5 3.357-7.5 7.5v217.436c0 4.143 3.358 7.5 7.5 7.5s7.5-3.358 7.5-7.5z"/><path d="m108.188 193.867c0-22.879 8.912-44.396 25.094-60.588 2.928-2.93 2.927-7.679-.003-10.606-2.93-2.929-7.679-2.929-10.606.003-19.014 19.025-29.485 44.308-29.485 71.191 0 26.891 10.471 52.177 29.485 71.202 3.535 2.93 7.071 2.931 10.606.003 2.93-2.928 2.931-7.677.003-10.606-16.182-16.193-25.094-37.713-25.094-60.599z"/><path d="m139.247 193.867c0-14.58 5.684-28.298 16.006-38.629 2.928-2.93 2.925-7.679-.005-10.606s-7.678-2.926-10.606.005c-13.151 13.163-20.395 30.646-20.395 49.23 0 18.596 7.244 36.081 20.397 49.234 3.535 2.928 7.071 2.928 10.606 0 2.929-2.93 2.929-7.678 0-10.607-10.319-10.319-16.003-24.038-16.003-38.627z"/><path d="m389.325 122.676c-2.927-2.93-7.676-2.933-10.606-.003-2.93 2.928-2.931 7.677-.003 10.606 16.182 16.192 25.094 37.709 25.094 60.588 0 22.886-8.912 44.406-25.094 60.599-2.928 2.93-2.927 7.679.003 10.606 3.536 2.928 7.071 2.927 10.606-.003 19.014-19.025 29.485-44.312 29.485-71.202 0-26.884-10.472-52.166-29.485-71.191z"/><path d="m367.355 144.637c-2.928-2.931-7.677-2.932-10.606-.005-2.93 2.928-2.933 7.677-.005 10.606 10.322 10.331 16.006 24.049 16.006 38.629 0 14.589-5.684 28.308-16.003 38.627-2.929 2.93-2.929 7.678 0 10.607 3.535 2.928 7.071 2.928 10.606 0 13.153-13.153 20.397-30.639 20.397-49.234 0-18.584-7.243-36.067-20.395-49.23z"/></g></g></svg>