<svg id="Capa_1" enable-background="new 0 0 511.998 511.998" height="512" viewBox="0 0 511.998 511.998" width="512" xmlns="http://www.w3.org/2000/svg"><g><path d="m240.468 224.993h62.12v186.37h-62.12z" fill="#98bce5"/><path d="m291.528 258.573v119.2c0 3.866-3.134 7-7 7h-44.06v-133.2h44.06c3.866 0 7 3.134 7 7z" fill="#7bacdf"/><g fill="#c9ebfa"><path d="m237.061 157.266c5.032-6.125 4.574-15.401-1.03-21.002l-31.059-31.058c-6.111-6.111-16.02-6.111-22.132 0-6.111 6.112-6.111 16.021 0 22.133l4.345 4.345h-86.465c-8.643 0-15.65 7.007-15.65 15.65s7.007 15.65 15.65 15.65h86.466l-4.346 4.346c-6.111 6.112-6.111 16.021 0 22.133 7.377 6.112 14.755 6.112 22.132 0 0 0 31.746-31.818 32.089-32.197z"/><path d="m274.936 157.266c-5.032-6.125-4.574-15.401 1.03-21.002l31.059-31.058c6.111-6.111 16.02-6.111 22.132 0 6.111 6.112 6.111 16.021 0 22.133l-4.345 4.345h86.465c8.643 0 15.65 7.007 15.65 15.65s-7.007 15.65-15.65 15.65h-86.466l4.346 4.346c6.111 6.112 6.111 16.021 0 22.133-7.377 6.112-14.755 6.112-22.132 0-.001 0-31.747-31.818-32.089-32.197z"/></g><path d="m7.5 240.521h108.718v155.311h-108.718z" fill="#fee97e"/><path d="m7.498 240.523h20v155.31h-20z" fill="#f9da58"/><path d="m116.218 224.989h62.125v186.375h-62.125z" fill="#548eb5"/><path d="m116.218 224.993h20v186.37h-20z" fill="#497090"/><path d="m302.591 224.989h93.187v186.374h-93.187z" fill="#548eb5"/><path d="m302.588 224.993h20v186.37h-20z" fill="#497090"/><path d="m395.778 240.521h108.718v155.311h-108.718z" fill="#fee97e"/><path d="m395.778 240.523h20v155.31h-20z" fill="#f9da58"/><path d="m7.5 271.577h108.718v93.192h-108.718z" fill="#98bce5"/><path d="m7.498 271.573h20v93.2h-20z" fill="#7bacdf"/><path d="m395.778 271.577h108.718v93.192h-108.718z" fill="#98bce5"/><path d="m395.778 271.573h20v93.2h-20z" fill="#7bacdf"/><path d="m209.405 256.577v-16.057h-31.062v155.311h31.062v-16.062c0-8.284 6.716-15 15-15h47.125v-93.192h-47.125c-8.285 0-15-6.715-15-15z" fill="#c9ebfa"/><path d="m178.338 240.523h20v155.31h-20z" fill="#a0ddf3"/><path d="m240.467 302.645h31.062v31.062h-31.062z" fill="#548eb5"/><g><path d="m349.185 264.082c-4.142 0-7.5 3.357-7.5 7.5v93.187c0 4.143 3.358 7.5 7.5 7.5s7.5-3.357 7.5-7.5v-93.187c0-4.142-3.358-7.5-7.5-7.5z"/><path d="m147.28 264.082c-4.142 0-7.5 3.357-7.5 7.5v93.187c0 4.143 3.358 7.5 7.5 7.5s7.5-3.357 7.5-7.5v-93.187c0-4.142-3.358-7.5-7.5-7.5z"/><path d="m100.719 170.484h71.432c-8.256 22.811 19.804 39.5 37.605 24.754.183-.15 33.023-33.117 33.099-33.211 7.474-9.097 6.805-22.743-1.522-31.067l-31.059-31.058c-9.025-9.025-23.712-9.024-32.739.001-6.553 6.554-8.348 16.092-5.385 24.28h-71.432c-12.765 0-23.15 10.385-23.15 23.15s10.386 23.151 23.151 23.151zm0-31.3h86.465c8.313.31 11.154-7.19 5.303-12.804l-4.345-4.345c-3.178-3.177-3.178-8.348-.001-11.525 3.178-3.178 8.349-3.178 11.526 0l31.06 31.059c2.819 2.817 3.112 7.571.706 10.725-2.249 2.275-19.659 19.733-31.503 31.604-4.352 3.502-7.664 3.514-12.009.033-2.955-3.192-2.881-8.194.221-11.296l4.346-4.346c5.85-5.295 4.01-12.545-5.303-12.804h-86.466c-4.494 0-8.15-3.656-8.15-8.15s3.657-8.151 8.15-8.151z"/><path d="m302.24 195.238c17.681 14.648 45.922-1.772 37.605-24.754h71.432c12.765 0 23.15-10.385 23.15-23.15s-10.385-23.15-23.15-23.15h-71.432c2.963-8.188 1.168-17.727-5.386-24.281-9.026-9.025-23.713-9.024-32.738 0l-31.058 31.057c-8.328 8.325-8.997 21.972-1.523 31.068.077.093 32.917 33.06 33.1 33.21zm-20.971-53.671 31.059-31.058c3.178-3.178 8.349-3.177 11.525-.001 3.178 3.179 3.178 8.35 0 11.526l-4.345 4.345c-5.26 6.363-2.76 12.613 5.303 12.804h86.465c4.494 0 8.15 3.656 8.15 8.15s-3.656 8.15-8.15 8.15h-86.466c-8.813.759-10.563 7.259-5.303 12.804l4.345 4.345c3.102 3.103 3.176 8.104.221 11.297-4.344 3.481-7.657 3.47-12.009-.033-11.844-11.87-29.254-29.328-31.503-31.604-2.405-3.152-2.112-7.906.708-10.725z"/><path d="m504.498 233.023h-101.22v-8.03c0-4.143-3.358-7.5-7.5-7.5h-155.31c-4.142 0-7.5 3.357-7.5 7.5v39.084h-8.563c-4.136 0-7.5-3.364-7.5-7.5v-16.057c0-4.143-3.358-7.5-7.5-7.5h-23.563v-8.03c0-4.143-3.358-7.5-7.5-7.5h-62.125c-4.142 0-7.5 3.357-7.5 7.5v8.031h-101.217c-4.142 0-7.5 3.357-7.5 7.5v155.312c0 4.143 3.358 7.5 7.5 7.5h101.218v8.032c0 4.143 3.358 7.5 7.5 7.5h62.125c4.142 0 7.5-3.357 7.5-7.5v-8.033h23.563c4.142 0 7.5-3.357 7.5-7.5v-16.063c0-4.136 3.364-7.5 7.5-7.5h8.563v39.095c0 4.143 3.358 7.5 7.5 7.5h155.31c4.142 0 7.5-3.357 7.5-7.5v-8.03h30.52c4.142 0 7.5-3.357 7.5-7.5s-3.358-7.5-7.5-7.5h-30.52v-16.064h93.72v16.064h-30.52c-4.142 0-7.5 3.357-7.5 7.5s3.358 7.5 7.5 7.5h38.02c4.142 0 7.5-3.357 7.5-7.5v-155.31c-.001-4.143-3.359-7.501-7.501-7.501zm-395.78 14.998v16.053h-30.52c-4.142 0-7.5 3.357-7.5 7.5s3.358 7.5 7.5 7.5h30.52v78.2h-93.718v-78.2h30.518c4.142 0 7.5-3.357 7.5-7.5s-3.358-7.5-7.5-7.5h-30.518v-16.053zm-93.718 140.311v-16.059h93.718v16.059zm155.842 15.532h-47.125v-171.375h47.125zm31.063-24.095v8.563h-16.063v-140.312h16.063v8.558c0 12.406 10.093 22.5 22.5 22.5h39.625v16.067h-23.563c-4.142 0-7.5 3.357-7.5 7.5v31.063c0 4.143 3.358 7.5 7.5 7.5h23.563v16.062h-39.625c-12.407-.001-22.5 10.092-22.5 22.499zm62.124-53.562h-16.063v-16.063h16.063zm124.249 77.656h-78.19v-69.34c0-4.143-3.358-7.5-7.5-7.5s-7.5 3.357-7.5 7.5v69.34h-47.12v-31.595h23.561c4.142 0 7.5-3.357 7.5-7.5v-93.191c0-4.143-3.358-7.5-7.5-7.5h-23.561v-31.584h47.12v69.34c0 4.143 3.358 7.5 7.5 7.5s7.5-3.357 7.5-7.5v-69.34h78.19zm108.718-46.594h-93.718v-78.191h93.718zm-93.718-93.192v-16.054h93.72v16.054z"/></g></g></svg>