<svg id="Capa_1" enable-background="new 0 0 512 512" height="512" viewBox="0 0 512 512" width="512" xmlns="http://www.w3.org/2000/svg"><g><path d="m178.346 7.502h124.249v124.249h-124.249z" fill="#ade194"/><path d="m178.35 7.5h50v124.25h-50z" fill="#7dce6f"/><path d="m240.47 38.564h62.125v62.125h-62.125z" fill="#d8ecfe"/><path d="m162.815 131.758h155.311v31.056h-155.311z" fill="#f5fcff"/><path d="m162.81 131.76h50v31.05h-50z" fill="#d8ecfe"/><path d="m147.284 162.817h186.374v341.681h-186.374z" fill="#f07281"/><path d="m147.28 162.82h50v341.68h-50z" fill="#eb5569"/><path d="m178.346 193.87h155.311v279.565h-155.311z" fill="#f5fcff"/><path d="m178.35 193.87h18.93v279.57h-18.93z" fill="#d8ecfe"/><path d="m333.657 442.374c-40.317-15.397-77.656-69.547-77.656-113.026v-73.348l77.656-31.062z" fill="#ade194"/><g><path d="m333.657 77.126c-4.142 0-7.5-3.358-7.5-7.5 0-4.142 3.358-7.5 7.5-7.5 4.142 0 7.5 3.358 7.5 7.5 0 4.143-3.358 7.5-7.5 7.5z"/><path d="m364.719 46.064c-4.142 0-7.5-3.358-7.5-7.5 0-4.142 3.358-7.5 7.5-7.5 4.142 0 7.5 3.358 7.5 7.5 0 4.142-3.357 7.5-7.5 7.5z"/><path d="m364.719 108.189c-4.142 0-7.5-3.358-7.5-7.5 0-4.142 3.358-7.5 7.5-7.5 4.142 0 7.5 3.358 7.5 7.5 0 4.142-3.357 7.5-7.5 7.5z"/><path d="m364.719 77.126c-4.142 0-7.5-3.358-7.5-7.5 0-4.142 3.358-7.5 7.5-7.5 4.142 0 7.5 3.358 7.5 7.5 0 4.143-3.357 7.5-7.5 7.5z"/><path d="m333.661 155.32h-8.035v-23.563c0-4.143-3.357-7.5-7.5-7.5h-8.035v-116.757c0-4.143-3.357-7.5-7.5-7.5h-45.771c-4.143 0-7.5 3.357-7.5 7.5s3.357 7.5 7.5 7.5h38.271v16.064h-54.62c-4.142 0-7.5 3.357-7.5 7.5v62.124c0 4.143 3.358 7.5 7.5 7.5h54.62v16.062h-109.241v-109.25h38.28c4.142 0 7.5-3.357 7.5-7.5s-3.358-7.5-7.5-7.5h-45.78c-4.142 0-7.5 3.357-7.5 7.5v116.758h-8.036c-4.142 0-7.5 3.357-7.5 7.5v23.563h-8.034c-4.142 0-7.5 3.357-7.5 7.5v73.859c0 4.143 3.358 7.5 7.5 7.5s7.5-3.357 7.5-7.5v-66.36h171.38v16.05h-147.81c-4.142 0-7.5 3.357-7.5 7.5v279.57c0 4.143 3.358 7.5 7.5 7.5h61.31c4.142 0 7.5-3.357 7.5-7.5s-3.358-7.5-7.5-7.5h-53.81v-264.57h140.311v18.488l-72.944 29.178c-2.848 1.14-4.715 3.897-4.715 6.964v73.348c0 44.604 36.43 99.279 77.659 118.009v18.583h-53.82c-4.143 0-7.5 3.357-7.5 7.5s3.357 7.5 7.5 7.5h53.82v16.06h-171.38v-227.63c0-4.143-3.358-7.5-7.5-7.5s-7.5 3.357-7.5 7.5v235.13c0 4.143 3.358 7.5 7.5 7.5h186.38c4.143 0 7.5-3.357 7.5-7.5v-341.68c0-4.142-3.358-7.5-7.5-7.5zm-85.691-62.132v-47.124h47.12v16.063h-23.558c-4.143 0-7.5 3.357-7.5 7.5s3.357 7.5 7.5 7.5h23.558v16.062h-47.12zm-77.655 46.07h140.311v16.056h-140.311zm93.187 190.09v-68.27l62.655-25.063v43.547h-23.563c-4.143 0-7.5 3.357-7.5 7.5s3.357 7.5 7.5 7.5h23.563v16.062h-23.563c-4.143 0-7.5 3.357-7.5 7.5s3.357 7.5 7.5 7.5h23.563v16.063h-23.563c-4.143 0-7.5 3.357-7.5 7.5s3.357 7.5 7.5 7.5h23.563v73.871c-33.427-18.801-62.655-64.682-62.655-101.21z"/></g></g></svg>