<svg id="Capa_1" enable-background="new 0 0 512 512" height="512" viewBox="0 0 512 512" width="512" xmlns="http://www.w3.org/2000/svg"><path d="m318.125 193.87h-31.062v-15.526c0-8.578 6.954-15.531 15.531-15.531 8.578 0 15.531 6.954 15.531 15.531z" fill="#548eb5"/><path d="m256 193.87h-62.125v-16.057c0-8.284 6.716-15 15-15h32.125c8.284 0 15 6.716 15 15z" fill="#fee97e"/><path d="m228.88 162.81c-8.29 0-15 6.72-15 15v16.06h-20v-16.06c0-8.28 6.71-15 15-15z" fill="#f9da58"/><path d="m240.469 162.813h-31.062v-139.78c0-8.578 6.954-15.531 15.531-15.531 8.578 0 15.531 6.954 15.531 15.531z" fill="#548eb5"/><path d="m234.94 11.16c-3.38 2.84-5.53 7.11-5.53 11.87v139.78h-20v-139.78c0-8.57 6.95-15.53 15.53-15.53 3.81 0 7.3 1.37 10 3.66z" fill="#497090"/><path d="m318.187 504.498h-124.374c-17.121 0-31-13.879-31-31v-248.628c0-17.121 13.879-31 31-31h124.374c17.121 0 31 13.879 31 31v248.628c0 17.121-13.879 31-31 31z" fill="#548eb5"/><path d="m243.81 504.5h-50c-17.12 0-31-13.88-31-31v-248.63c0-17.12 13.88-31 31-31h50c-17.12 0-31 13.88-31 31v248.63c0 17.12 13.88 31 31 31z" fill="#497090"/><path d="m193.875 287.062h124.249v62.125h-124.249z" fill="#f5fcff"/><path d="m193.88 287.06h18.93v62.13h-18.93z" fill="#d8ecfe"/><path d="m303.125 224.938h-94.249c-8.284 0-15-6.716-15-15v-16.068h124.249v16.067c0 8.285-6.716 15.001-15 15.001z" fill="#98bce5"/><path d="m243.81 193.87c-17.12 0-31 13.88-31 31v.07h-3.93c-8.29 0-15-6.72-15-15v-16.07z" fill="#7bacdf"/><path d="m224.938 473.436h62.125v31.062h-62.125z" fill="#98bce5"/><g><path d="m325.624 187.097v-8.752c0-12.699-10.331-23.031-23.03-23.031s-23.031 10.332-23.031 23.031v8.025h-16.063v-8.557c0-9.974-6.526-18.448-15.53-21.39v-52.193c0-4.143-3.357-7.5-7.5-7.5s-7.5 3.357-7.5 7.5v51.079h-16.06v-132.279c0-4.428 3.603-8.03 8.03-8.03 4.892.462 7.568 3.138 8.029 8.03v48.51c0 4.143 3.357 7.5 7.5 7.5s7.5-3.357 7.5-7.5v-48.51c-1.317-14.035-8.994-21.712-23.029-23.03-12.699 0-23.03 10.331-23.03 23.03v133.392c-9.006 2.94-15.534 11.416-15.534 21.391v9.284c-17.683 3.474-31.066 19.087-31.066 37.773v201.16c0 4.143 3.357 7.5 7.5 7.5s7.5-3.357 7.5-7.5v-201.16c0-10.36 6.742-19.17 16.066-22.288v7.355c0 12.406 10.094 22.5 22.5 22.5h94.248c12.406 0 22.5-10.094 22.5-22.5v-7.355c9.325 3.118 16.066 11.928 16.066 22.288v45.85c0 4.143 3.357 7.5 7.5 7.5s7.5-3.357 7.5-7.5v-45.85c0-18.685-13.383-34.299-31.066-37.773zm-31.061-8.752c0-4.429 3.603-8.031 8.031-8.031s8.03 3.603 8.03 8.031v8.025h-16.062v-8.025zm-93.187-.532c0-4.136 3.364-7.5 7.5-7.5h32.124c4.136 0 7.5 3.364 7.5 7.5v8.557h-47.124zm109.248 32.125c0 4.136-3.364 7.5-7.5 7.5h-94.248c-4.136 0-7.5-3.364-7.5-7.5v-8.567h109.248z"/><path d="m349.19 295.91c-4.143 0-7.5 3.357-7.5 7.5v170.09c0 12.958-10.542 23.5-23.5 23.5h-23.628v-23.564c0-4.143-3.357-7.5-7.5-7.5h-62.125c-4.143 0-7.5 3.357-7.5 7.5v23.564h-23.627c-12.958 0-23.5-10.542-23.5-23.5v-14.78c0-4.143-3.357-7.5-7.5-7.5s-7.5 3.357-7.5 7.5v14.78c0 21.229 17.271 38.5 38.5 38.5h124.38c21.229 0 38.5-17.271 38.5-38.5v-170.09c0-4.142-3.357-7.5-7.5-7.5zm-116.752 185.026h47.125v16.063h-47.125z"/><path d="m186.376 349.187c0 4.143 3.357 7.5 7.5 7.5h124.248c4.143 0 7.5-3.357 7.5-7.5v-62.124c0-4.143-3.357-7.5-7.5-7.5h-124.248c-4.143 0-7.5 3.357-7.5 7.5zm15-54.624h109.248v47.124h-109.248z"/><path d="m193.876 387.749h15.53c4.143 0 7.5-3.357 7.5-7.5s-3.357-7.5-7.5-7.5h-15.53c-4.143 0-7.5 3.357-7.5 7.5s3.357 7.5 7.5 7.5z"/><path d="m193.876 418.812h15.53c4.143 0 7.5-3.357 7.5-7.5s-3.357-7.5-7.5-7.5h-15.53c-4.143 0-7.5 3.357-7.5 7.5s3.357 7.5 7.5 7.5z"/><path d="m193.876 449.873h15.53c4.143 0 7.5-3.357 7.5-7.5s-3.357-7.5-7.5-7.5h-15.53c-4.143 0-7.5 3.357-7.5 7.5s3.357 7.5 7.5 7.5z"/><path d="m263.766 372.749h-15.531c-4.143 0-7.5 3.357-7.5 7.5s3.357 7.5 7.5 7.5h15.531c4.143 0 7.5-3.357 7.5-7.5s-3.358-7.5-7.5-7.5z"/><path d="m263.766 403.812h-15.531c-4.143 0-7.5 3.357-7.5 7.5s3.357 7.5 7.5 7.5h15.531c4.143 0 7.5-3.357 7.5-7.5s-3.358-7.5-7.5-7.5z"/><path d="m263.766 434.873h-15.531c-4.143 0-7.5 3.357-7.5 7.5s3.357 7.5 7.5 7.5h15.531c4.143 0 7.5-3.357 7.5-7.5s-3.358-7.5-7.5-7.5z"/><path d="m318.124 372.749h-15.53c-4.143 0-7.5 3.357-7.5 7.5s3.357 7.5 7.5 7.5h15.53c4.143 0 7.5-3.357 7.5-7.5s-3.357-7.5-7.5-7.5z"/><path d="m318.124 403.812h-15.53c-4.143 0-7.5 3.357-7.5 7.5s3.357 7.5 7.5 7.5h15.53c4.143 0 7.5-3.357 7.5-7.5s-3.357-7.5-7.5-7.5z"/><path d="m318.124 434.873h-15.53c-4.143 0-7.5 3.357-7.5 7.5s3.357 7.5 7.5 7.5h15.53c4.143 0 7.5-3.357 7.5-7.5s-3.357-7.5-7.5-7.5z"/><path d="m193.876 263.5h124.248c4.143 0 7.5-3.357 7.5-7.5s-3.357-7.5-7.5-7.5h-124.248c-4.143 0-7.5 3.357-7.5 7.5s3.357 7.5 7.5 7.5z"/><path d="m108.188 96.746c0-22.878 8.912-44.396 25.095-60.589 2.929-2.93 2.927-7.679-.003-10.606-2.931-2.929-7.68-2.927-10.606.003-19.014 19.026-29.486 44.309-29.486 71.192 0 26.889 10.472 52.175 29.485 71.201 1.465 1.466 3.385 2.198 5.305 2.198 1.919 0 3.837-.731 5.302-2.195 2.93-2.928 2.932-7.677.003-10.606-16.182-16.194-25.095-37.714-25.095-60.598z"/><path d="m155.252 135.373c-10.319-10.32-16.003-24.039-16.003-38.627 0-14.58 5.684-28.299 16.005-38.63 2.928-2.931 2.926-7.679-.005-10.606-2.93-2.928-7.679-2.925-10.606.005-13.151 13.163-20.394 30.647-20.394 49.231 0 18.595 7.243 36.079 20.396 49.232 1.465 1.465 3.384 2.197 5.304 2.197 1.919 0 3.839-.732 5.303-2.196 2.929-2.928 2.929-7.677 0-10.606z"/><path d="m389.326 25.554c-2.929-2.931-7.676-2.932-10.606-.003-2.93 2.928-2.932 7.677-.003 10.606 16.183 16.193 25.095 37.711 25.095 60.589 0 22.884-8.912 44.404-25.095 60.598-2.929 2.93-2.927 7.679.003 10.606 1.465 1.464 3.383 2.195 5.302 2.195 1.92 0 3.841-.733 5.305-2.198 19.014-19.026 29.485-44.313 29.485-71.201 0-26.883-10.472-52.166-29.486-71.192z"/><path d="m367.357 47.515c-2.928-2.93-7.677-2.933-10.606-.005-2.931 2.928-2.933 7.676-.005 10.606 10.321 10.331 16.005 24.05 16.005 38.63 0 14.588-5.684 28.307-16.003 38.627-2.929 2.929-2.929 7.678.001 10.606 1.464 1.464 3.384 2.196 5.303 2.196s3.839-.732 5.304-2.197c13.152-13.153 20.396-30.638 20.396-49.232-.001-18.584-7.243-36.068-20.395-49.231z"/></g></svg>