<svg id="Capa_1" enable-background="new 0 0 512.119 512.119" height="512" viewBox="0 0 512.119 512.119" width="512" xmlns="http://www.w3.org/2000/svg"><path d="m89.101 302.711h232.97v155.31h-232.97z" fill="#98bce5"/><path d="m322.071 302.711v26.7c-9.67 7.47-20.06 14.04-31.06 19.56-25.71 12.93-54.74 20.21-85.43 20.21s-59.71-7.28-85.42-20.21c-11-5.52-21.4-12.09-31.06-19.56v-26.7z" fill="#7bacdf"/><path d="m73.57 458.026h264.029v46.593h-264.029z" fill="#548eb5"/><path d="m73.571 458.021h50v46.6h-50z" fill="#497090"/><path d="m89.101 302.711h50v155.31h-50z" fill="#7bacdf"/><path d="m120.163 318.123h170.842v108.84h-170.842z" fill="#548eb5"/><path d="m291.01 318.121v30.85c-25.71 12.93-54.74 20.21-85.43 20.21s-59.71-7.28-85.42-20.21v-30.85z" fill="#497090"/><path d="m120.161 318.121h18.94v108.84h-18.94z" fill="#497090"/><circle cx="446.317" cy="69.748" fill="#548eb5" r="31.062"/><path d="m456.321 99.171c-3.14 1.06-6.5 1.64-10 1.64-17.16 0-31.07-13.91-31.07-31.06 0-17.16 13.91-31.07 31.07-31.07 3.5 0 6.86.58 10 1.64-12.25 4.16-21.07 15.77-21.07 29.43-.001 13.66 8.82 25.26 21.07 29.42z" fill="#497090"/><circle cx="205.584" cy="178.343" fill="#f5fcff" r="170.842"/><path d="m134.141 298.511c25.43 25.7 58.96 43.36 96.44 48.85-8.16 1.2-16.51 1.82-25 1.82-94.35 0-170.84-76.48-170.84-170.84 0-94.35 76.49-170.84 170.84-170.84 8.49 0 16.84.62 25 1.82-37.47 5.49-70.99 23.15-96.41 48.84-30.56 30.86-49.43 73.32-49.43 120.18s18.86 89.31 49.4 120.17z" fill="#d8ecfe"/><circle cx="205.584" cy="178.343" fill="#ffde5c" r="139.78"/><path d="m84.74 178.341c0 46.86 18.86 89.31 49.4 120.17-40.92-24.38-68.34-69.07-68.34-120.17 0-51.11 27.43-95.81 68.37-120.18-30.559 30.86-49.43 73.32-49.43 120.18z" fill="#ffc736"/><circle cx="205.584" cy="178.343" fill="#f5fcff" r="46.593"/><path d="m220.581 222.471c-4.71 1.6-9.75 2.47-15 2.47-25.73 0-46.59-20.87-46.59-46.6s20.86-46.59 46.59-46.59c5.25 0 10.29.87 15 2.47-18.37 6.24-31.59 23.64-31.59 44.12-.001 20.48 13.22 37.88 31.59 44.13z" fill="#d8ecfe"/><g><path d="m205.584 232.437c-29.827 0-54.093-24.267-54.093-54.094s24.266-54.094 54.093-54.094 54.094 24.267 54.094 54.094-24.267 54.094-54.094 54.094zm0-93.188c-21.556 0-39.093 17.537-39.093 39.094s17.537 39.094 39.093 39.094c21.557 0 39.094-17.537 39.094-39.094s-17.537-39.094-39.094-39.094z"/></g><g><path d="m484.879 69.748c0-21.264-17.299-38.563-38.563-38.563-21.263 0-38.562 17.299-38.562 38.563 0 18.697 13.377 34.323 31.062 37.824v212.798c0 28.948-23.552 52.5-52.5 52.5h-56.746v-66.468c33.5-32.441 54.36-77.858 54.36-128.061 0-98.337-80.008-178.34-178.351-178.34-45.302 0-88.478 17.003-121.576 47.876-3.028 2.825-3.193 7.571-.368 10.601 2.825 3.027 7.571 3.194 10.601.368 30.311-28.273 69.854-43.845 111.344-43.845 90.072 0 163.351 73.274 163.351 163.34s-73.278 163.34-163.351 163.34c-90.065 0-163.34-73.274-163.34-163.34 0-34.829 10.807-68.061 31.251-96.101 2.44-3.348 1.705-8.039-1.642-10.479-3.349-2.439-8.038-1.705-10.479 1.642-22.328 30.625-34.13 66.912-34.13 104.938 0 50.205 20.861 95.623 54.36 128.064v144.12h-8.031c-4.143 0-7.5 3.357-7.5 7.5v46.594c0 4.143 3.357 7.5 7.5 7.5h264.029c4.143 0 7.5-3.357 7.5-7.5v-46.594c0-4.143-3.357-7.5-7.5-7.5h-8.028v-62.655h56.746c37.22 0 67.5-30.28 67.5-67.5v-212.798c17.686-3.501 31.063-19.127 31.063-37.824zm-154.78 427.371h-249.03v-31.594h249.029v31.594zm-217.439-166.615v96.457c0 4.143 3.357 7.5 7.5 7.5h72.96c4.143 0 7.5-3.357 7.5-7.5s-3.357-7.5-7.5-7.5h-65.46v-80.727c23.555 11.49 49.996 17.947 77.92 17.947 27.928 0 54.373-6.458 77.931-17.95v80.73h-57.7c-4.143 0-7.5 3.357-7.5 7.5s3.357 7.5 7.5 7.5h65.2c4.143 0 7.5-3.357 7.5-7.5v-96.46c5.562-3.409 10.92-7.118 16.06-11.097v131.118h-217.97v-131.115c5.139 3.979 10.497 7.688 16.059 11.097zm333.656-237.194c-12.992 0-23.562-10.569-23.562-23.562s10.569-23.563 23.562-23.563 23.563 10.57 23.563 23.563-10.57 23.562-23.563 23.562z"/><path d="m365.053 39.238c1.919 0 3.839-.732 5.304-2.196l10.982-10.982c2.929-2.93 2.929-7.678 0-10.607-2.93-2.928-7.678-2.928-10.607 0l-10.982 10.982c-2.929 2.93-2.929 7.678 0 10.607 1.464 1.464 3.384 2.196 5.303 2.196z"/><path d="m337.599 30.531c4.143 0 7.5-3.357 7.5-7.5v-15.531c0-4.143-3.357-7.5-7.5-7.5s-7.5 3.357-7.5 7.5v15.531c0 4.143 3.357 7.5 7.5 7.5z"/><path d="m366.262 59.194c0 4.143 3.357 7.5 7.5 7.5h15.531c4.143 0 7.5-3.357 7.5-7.5s-3.357-7.5-7.5-7.5h-15.531c-4.143 0-7.5 3.358-7.5 7.5z"/><path d="m205.58 46.062c66.602 0 123.029 49.757 131.258 115.737.514 4.111 4.277 7.026 8.37 6.515 4.11-.513 7.027-4.26 6.515-8.37-9.163-73.475-71.991-128.882-146.143-128.882-81.21 0-147.279 66.069-147.279 147.279 0 81.211 66.069 147.28 147.279 147.28 36.544 0 71.592-13.478 98.688-37.949 26.896-24.291 43.848-57.427 47.729-93.304.446-4.118-2.531-7.817-6.649-8.263-4.11-.457-7.817 2.531-8.263 6.649-7.272 67.194-63.808 117.866-131.505 117.866-72.939 0-132.279-59.341-132.279-132.28s59.34-132.278 132.279-132.278z"/><path d="m267.443 380.37c0-4.143-3.357-7.5-7.5-7.5h-108.717c-4.143 0-7.5 3.357-7.5 7.5s3.357 7.5 7.5 7.5h108.718c4.142 0 7.499-3.357 7.499-7.5z"/></g></svg>