<svg id="Capa_1" enable-background="new 0 0 511.998 511.998" height="512" viewBox="0 0 511.998 511.998" width="512" xmlns="http://www.w3.org/2000/svg"><g><path d="m147.323 100.688h124.25v50.56h-124.25z" fill="#fee97e"/><path d="m147.323 100.688h30v50.56h-30z" fill="#f9da58"/><path d="m442.416 318.123h-62.124l-31.063 186.373h124.249z" fill="#548eb5"/><path d="m410.293 318.118-31.06 186.38h-30l31.06-186.38z" fill="#497090"/><path d="m318.167 69.625h67.656c5.523 0 10 4.477 10 10v238.498h31.062v-248.561c0-17.121-13.879-31-31-31h-77.718z" fill="#f5fcff"/><path d="m256.043 30.797h62.125v46.593h-62.125z" fill="#548eb5"/><path d="m256.043 30.798h20v46.59h-20z" fill="#497090"/><path d="m162.856 7.5h93.187v93.187h-93.187z" fill="#f5fcff"/><path d="m162.853 7.498h20v93.19h-20z" fill="#d8ecfe"/><path d="m162.856 69.625-124.249 31.062v-31.062l124.249-31.063z" fill="#eb5569"/><circle cx="209.449" cy="54.093" fill="#548eb5" r="15.531"/><path d="m38.607 7.5h124.249v62.125l-124.249-31.063z" fill="#f07281"/><path d="m318.167 504.496h-217.438v-264.028c0-60.044 48.675-108.719 108.719-108.719 60.044 0 108.719 48.675 108.719 108.719z" fill="#f07281"/><path d="m234.453 134.638c-23.16 5.44-43.46 18.29-58.26 35.92-15.89 18.9-25.46 43.29-25.46 69.91v264.03h-50v-264.03c0-60.04 48.67-108.72 108.72-108.72 8.6 0 16.98 1 25 2.89z" fill="#eb5569"/><path d="m132.029 473.196v-232.728c0-42.688 34.73-77.419 77.419-77.419s77.419 34.73 77.419 77.419v232.729h-154.838z" fill="#f5fcff"/><path d="m176.193 170.558c-15.89 18.9-25.46 43.29-25.46 69.91v232.73h-18.7v-232.73c0-30.79 18.07-57.44 44.16-69.91z" fill="#d8ecfe"/><path d="m131.794 255.998h155.311v31.062h-155.311z" fill="#f07281"/><path d="m131.793 255.998h18.94v31.06h-18.94z" fill="#eb5569"/><path d="m131.794 349.185h155.311v62.125h-155.311z" fill="#f07281"/><path d="m131.793 349.188h18.94v62.12h-18.94z" fill="#eb5569"/><g><path d="m209.449 77.125c12.7 0 23.031-10.332 23.031-23.031s-10.332-23.031-23.031-23.031-23.031 10.332-23.031 23.031 10.332 23.031 23.031 23.031zm0-31.062c4.428 0 8.031 3.603 8.031 8.031s-3.603 8.031-8.031 8.031-8.031-3.603-8.031-8.031 3.603-8.031 8.031-8.031z"/><path d="m480.88 503.265-13.27-79.58c-.682-4.086-4.543-6.856-8.631-6.164-4.086.681-6.846 4.545-6.165 8.631l11.814 70.847h-106.542l28.56-171.38h49.413l11.385 68.304c.681 4.085 4.545 6.844 8.631 6.165 4.086-.682 6.846-4.546 6.165-8.632l-12.43-74.57c-.603-3.616-3.732-6.267-7.398-6.267h-8.028v-241.056c0-21.229-17.271-38.5-38.5-38.5h-70.218v-.266c0-4.143-3.358-7.5-7.5-7.5h-54.625v-15.797c0-4.143-3.358-7.5-7.5-7.5h-217.434c-4.142 0-7.5 3.357-7.5 7.5v31.063c0 3.441 2.342 6.441 5.681 7.276l33.025 8.256-33.03 8.256c-3.339.835-5.681 3.835-5.681 7.276v31.061c0 4.709 5.002 8.356 9.319 7.276l114.935-28.732v13.955h-8.034c-4.142 0-7.5 3.357-7.5 7.5v46.784c-28.269 21.22-46.59 55.007-46.59 92.995v123.44c0 4.143 3.358 7.5 7.5 7.5s7.5-3.357 7.5-7.5v-123.44c0-55.813 45.407-101.22 101.22-101.22 54.866 0 101.21 46.288 101.21 101.22v256.53h-202.43v-100.41c0-4.143-3.358-7.5-7.5-7.5s-7.5 3.357-7.5 7.5v107.91c0 4.143 3.358 7.5 7.5 7.5h217.43c4.142 0 7.5-3.357 7.5-7.5v-264.03c0-36.238-17.629-71.306-46.59-93.073v-46.707c0-4.143-3.358-7.5-7.5-7.5h-8.03v-8.296h54.625c4.142 0 7.5-3.357 7.5-7.5v-.265h60.156c1.378 0 2.5 1.121 2.5 2.5v230.993h-8.03c-3.667 0-6.795 2.65-7.398 6.268l-31.06 186.38c-.232 5.196 2.234 8.107 7.398 8.732h124.25c5.164-.625 7.63-3.536 7.397-8.733zm-216.808-365.441c-33.567-17.923-75.705-17.851-109.25.09v-29.726h109.25zm-15.529-44.637h-78.187v-78.187h78.187zm-202.436-78.187h109.249v45.02l-109.249-27.313zm-.004 60.484 54.637-13.657 31.196 7.799-85.833 21.457zm264.564-5.594h-47.125v-31.593h47.125zm75.156-7.765h-60.156v-16.062h70.218c12.958 0 23.5 10.542 23.5 23.5v241.056h-16.062v-230.994c0-9.649-7.851-17.5-17.5-17.5z"/><path d="m124.533 473.198c0 4.143 3.358 7.5 7.5 7.5h154.83c4.142 0 7.5-3.357 7.5-7.5v-232.73c0-39.412-28.393-74.708-66.994-83.003-4.055-.866-8.039 1.708-8.908 5.758-.87 4.049 1.707 8.038 5.757 8.908 31.538 6.777 55.146 36.159 55.146 68.337v8.03h-139.83v-8.03c0-32.161 23.645-61.568 55.146-68.337 4.05-.87 6.627-4.859 5.757-8.908-.87-4.051-4.859-6.621-8.908-5.758-38.602 8.295-66.994 43.591-66.994 83.003v232.73zm15-116.513h139.83v47.125h-139.83zm139.829-15h-139.83v-47.124h139.83zm-139.829 124.013v-46.888h139.83v46.889h-139.83zm139.829-202.2v16.063h-139.83v-16.063z"/></g></g></svg>