<svg id="Capa_1" enable-background="new 0 0 511.996 511.996" height="512" viewBox="0 0 511.996 511.996" width="512" xmlns="http://www.w3.org/2000/svg"><g><path d="m442.368 147.226v62.37c0 16.2-2.07 31.91-5.95 46.9-19.59 75.48-85.32 132.38-165.3 138.75-.01 0-.01 0-.02 0-1.18.1-2.37.18-3.56.25-.1.01-.19.02-.29.02-1.17.07-2.35.13-3.52.18-.1 0-.19 0-.28.01-1.18.04-2.37.08-3.55.1-1.26.03-2.52.04-3.78.04-43.32 0-83.18-14.79-114.82-39.59s-55.05-59.62-65.46-99.68c-3.9-15.01-5.98-30.75-5.98-46.98v-62.37z" fill="#548eb5"/><path d="m442.368 147.226v62.37c0 16.2-2.07 31.91-5.95 46.9-7.95 2.58-16.43 3.97-25.23 3.97h-54.67c-31.31 0-59.45-17.4-73.46-45.4-5.15-10.32-15.52-16.73-27.06-16.73s-21.91 6.41-27.06 16.73c-14.01 28-42.15 45.4-73.46 45.4h-27.473c-10.744 0-17.956 10.945-13.815 20.859 26.255 62.859 85.977 108.269 156.908 113.921-1.18.1-2.37.18-3.56.25-.1.01-.19.02-.29.02-1.17.07-2.35.13-3.52.18-.1 0-.19 0-.28.01-1.18.04-2.37.08-3.55.1-1.26.03-2.52.04-3.78.04-43.32 0-83.18-14.79-114.82-39.59s-55.05-59.62-65.46-99.68c-3.9-15.01-5.98-30.75-5.98-46.98v-62.37z" fill="#497090"/><path d="m20.064 374.265h124.249v46.52h-124.249z" fill="#548eb5" transform="matrix(-.707 -.707 .707 -.707 -140.788 736.733)"/><path d="m124.668 442.896-15 15-87.86-87.85 32.9-32.9 15 15-7.293 7.293c-5.858 5.858-5.858 15.356.001 21.214z" fill="#497090"/><path d="m156.588 367.056-35.98 35.99h-.01l-43.98-43.98h.01l33.63-33.64c12.98 16.33 28.65 30.43 46.33 41.63z" fill="#fee97e"/><path d="m135.598 388.046-14.99 15h-.01l-43.98-43.98h.01l33.63-33.64c4.41 5.56 9.14 10.85 14.15 15.86l-7.175 7.175c-5.857 5.857-5.858 15.353-.002 21.211z" fill="#f9da58"/><path d="m367.683 374.265h124.249v46.52h-124.249z" fill="#548eb5" transform="matrix(.707 -.707 .707 .707 -155.205 420.352)"/><path d="m410.041 435.613 7.287 7.283-15 15-32.9-32.89 87.86-87.86 15 15-62.25 62.25c-5.859 5.86-5.858 15.359.003 21.217z" fill="#497090"/><path d="m435.378 359.066-43.98 43.98-35.9-35.9c17.7-11.19 33.38-25.27 46.37-41.59z" fill="#fee97e"/><path d="m398.069 379.717 8.329 8.329-15 15-35.9-35.9c17.7-11.19 33.38-25.27 46.37-41.59l15.84 15.84c-5.676 5.67-11.716 10.973-18.082 15.874-7.176 5.524-7.96 16.044-1.557 22.447z" fill="#f9da58"/><path d="m473.434 116.34h31.062v62h-31.062z" fill="#548eb5"/><path d="m7.5 116.34h31.062v62h-31.062z" fill="#548eb5"/><path d="m38.562 116.34v61.875c0 34.379 27.87 62.249 62.249 62.249h54.667c23.531 0 45.042-13.295 55.566-34.342 8.514-17.027 25.917-27.783 44.954-27.783 19.037 0 36.44 10.756 44.954 27.783 10.523 21.047 32.035 34.342 55.566 34.342h54.667c34.379 0 62.249-27.87 62.249-62.249v-61.875c0-34.379-27.87-62.249-62.249-62.249h-310.374c-34.379 0-62.249 27.87-62.249 62.249z" fill="#98bce5"/><path d="m150.808 240.466h-50c-34.38 0-62.25-27.87-62.25-62.25v-61.88c0-34.37 27.87-62.24 62.25-62.24h50c-23.23 0-43.48 12.72-54.18 31.57-5.14 9.06-8.07 19.52-8.07 30.67v61.88c0 11.15 2.93 21.62 8.07 30.67 10.69 18.86 30.95 31.58 54.18 31.58z" fill="#7bacdf"/><path d="m356.518 209.165c-11.751 0-22.315-6.529-27.57-17.04-13.905-27.81-41.857-45.085-72.949-45.085s-59.044 17.275-72.949 45.085c-5.255 10.511-15.819 17.04-27.57 17.04h-54.667c-17.065 0-30.949-13.884-30.949-30.949v-61.876c0-17.065 13.884-30.949 30.949-30.949h310.374c17.065 0 30.949 13.884 30.949 30.949v61.876c0 17.065-13.884 30.949-30.949 30.949z" fill="#f5fcff"/><path d="m88.558 178.216c0 11.15 2.93 21.62 8.07 30.67-15.09-2.05-26.77-15.02-26.77-30.67v-61.88c0-15.64 11.68-28.62 26.77-30.67-5.14 9.06-8.07 19.52-8.07 30.67z" fill="#d8ecfe"/><circle cx="255.998" cy="349.194" fill="#fee97e" r="77.656"/><path d="m265.998 426.206c-3.27.42-6.61.64-10 .64-42.89 0-77.66-34.76-77.66-77.65s34.77-77.66 77.66-77.66c3.39 0 6.73.22 10 .64-38.17 4.91-67.66 37.52-67.66 77.02s29.49 72.11 67.66 77.01z" fill="#f9da58"/><path d="m255.998 364.25c-8.302 0-15.056-6.754-15.056-15.056s6.754-15.057 15.056-15.057 15.056 6.755 15.056 15.057-6.754 15.056-15.056 15.056z" fill="#606060"/><g><g><path d="m255.998 310.089c-4.142 0-7.5-3.358-7.5-7.5 0-4.142 3.358-7.5 7.5-7.5 4.142 0 7.5 3.358 7.5 7.5 0 4.143-3.358 7.5-7.5 7.5z"/><path d="m255.998 403.349c-4.142 0-7.5-3.358-7.5-7.5 0-4.142 3.358-7.5 7.5-7.5 4.142 0 7.5 3.358 7.5 7.5 0 4.143-3.358 7.5-7.5 7.5z"/></g><g><path d="m289.886 329.654c-2.071-3.587-.842-8.174 2.745-10.245 3.587-2.071 8.174-.842 10.245 2.745 2.071 3.587.842 8.174-2.745 10.245-3.587 2.072-8.174.843-10.245-2.745z"/><path d="m209.12 376.284c-2.071-3.587-.842-8.174 2.745-10.245 3.587-2.071 8.174-.842 10.245 2.745 2.071 3.587.842 8.174-2.745 10.245-3.587 2.072-8.174.843-10.245-2.745z"/></g><g><path d="m222.11 329.654c-2.071 3.587-6.658 4.816-10.245 2.745-3.587-2.071-4.816-6.658-2.745-10.245 2.071-3.587 6.658-4.816 10.245-2.745 3.587 2.071 4.817 6.658 2.745 10.245z"/><path d="m302.876 376.284c-2.071 3.587-6.658 4.816-10.245 2.745-3.587-2.071-4.816-6.658-2.745-10.245 2.071-3.587 6.658-4.816 10.245-2.745 3.587 2.071 4.816 6.658 2.745 10.245z"/></g><g><path d="m69.858 156.187c-4.142 0-7.5 3.357-7.5 7.5v14.529c0 21.03 17.59 38.45 38.45 38.45h54.67c14.616 0 27.75-8.119 34.277-21.185 12.633-25.256 38.016-40.945 66.243-40.945s53.61 15.689 66.241 40.941c6.529 13.069 19.664 21.188 34.279 21.188h54.67c21.202 0 38.45-17.249 38.45-38.45v-61.88c0-21.201-17.249-38.45-38.45-38.45h-310.38c-20.871 0-38.45 17.415-38.45 38.45v14.66c0 4.143 3.358 7.5 7.5 7.5s7.5-3.357 7.5-7.5v-14.66c0-11.801 11.655-23.45 23.45-23.45h310.38c12.931 0 23.45 10.52 23.45 23.45v61.88c0 12.931-10.52 23.45-23.45 23.45h-54.67c-8.895 0-16.888-4.939-20.862-12.896-15.19-30.369-45.713-49.234-79.658-49.234s-64.467 18.865-79.66 49.238c-3.972 7.952-11.965 12.892-20.86 12.892h-54.67c-11.798 0-23.45-11.633-23.45-23.45v-14.529c0-4.142-3.358-7.499-7.5-7.499z"/><path d="m504.496 108.841h-23.967c-3.752-34.943-33.414-62.245-69.341-62.245h-25.99c-4.142 0-7.5 3.357-7.5 7.5s3.358 7.5 7.5 7.5h25.99c30.171 0 54.719 24.527 54.749 54.686 0 .02-.003.039-.003.06v62c0 .005.001.011.001.016-.077 30.125-24.604 54.609-54.746 54.609h-54.67c-20.499 0-39.682-11.868-48.86-30.19-4.796-9.604-12.161-17.663-21.294-23.308-28.195-17.445-67.167-6.446-82.023 23.302-9.321 18.626-28.044 30.196-48.863 30.196h-54.67c-30.142 0-54.67-24.484-54.746-54.609 0-.005.001-.011.001-.016v-62c0-.02-.003-.04-.003-.06.03-30.158 24.578-54.686 54.749-54.686h251.71c4.142 0 7.5-3.357 7.5-7.5s-3.358-7.5-7.5-7.5h-251.71c-35.927 0-65.589 27.302-69.341 62.245h-23.969c-4.142 0-7.5 3.357-7.5 7.5v62c0 4.143 3.358 7.5 7.5 7.5h23.983c2.396 21.928 14.99 40.832 32.932 51.851 4.654 32.005 17.215 61.8 35.903 87.067l-23.693 23.701-16.615-16.615c-2.929-2.928-7.678-2.928-10.606 0l-32.895 32.895c-2.929 2.93-2.929 7.678 0 10.607l87.857 87.857c3.535 2.928 7.071 2.928 10.606 0l32.895-32.895c2.929-2.93 2.929-7.678 0-10.607l-16.656-16.656 26.516-26.523c7.173 4.232 14.661 8.022 22.434 11.337 14.114 27.564 42.797 46.486 75.836 46.486 32.988 0 61.634-18.864 75.771-46.359 7.828-3.322 15.368-7.125 22.589-11.376l26.43 26.431-16.66 16.66c-2.929 2.93-2.929 7.678 0 10.607l32.895 32.895c3.535 2.928 7.071 2.928 10.606 0l87.857-87.857c2.929-2.93 2.929-7.678 0-10.607l-32.895-32.895c-2.929-2.928-7.678-2.928-10.606 0l-16.611 16.611-23.557-23.557c18.769-25.333 31.372-55.234 36.019-87.372 17.804-11.042 30.291-29.864 32.675-51.686h23.983c4.142 0 7.5-3.357 7.5-7.5v-62c.003-4.143-3.355-7.5-7.497-7.5zm-489.496 15h16.058v47h-16.058zm94.67 323.453-77.251-77.251 22.288-22.288 77.251 77.251zm10.935-54.855-33.373-33.373 22.516-22.523c10.307 11.884 22.078 22.53 35.082 31.664zm336.684-44.684 22.288 22.288-77.251 77.251-22.288-22.288zm-32.521 11.307-33.373 33.373-24.127-24.128c13.014-9.122 24.796-19.758 35.113-31.633zm-85.723 8.917c10.269-45.408-19.442-92.196-65.006-102.015-4.048-.866-8.039 1.703-8.912 5.752-.873 4.05 1.703 8.039 5.751 8.912 32.032 6.902 55.28 35.739 55.28 68.568 0 38.681-31.474 70.149-70.16 70.149s-70.16-31.469-70.16-70.149c0-32.931 23.341-61.791 55.499-68.624 4.052-.86 6.639-4.843 5.778-8.895s-4.846-6.643-8.895-5.777c-45.639 9.696-75.502 56.464-65.301 101.937-47.484-24.989-81.421-70.174-92.022-122.783 6.313 1.884 12.993 2.911 19.911 2.911h54.67c26.534 0 50.397-14.746 62.28-38.489 15.027-30.086 61.411-30.172 76.485.009 11.699 23.355 36.147 38.48 62.275 38.48h54.67c7.007 0 13.772-1.05 20.158-2.981-10.611 52.766-44.651 98.03-92.301 122.995zm157.951-197.138h-16.058v-47h16.058z"/><path d="m233.442 349.194c0 12.438 10.119 22.556 22.556 22.556 12.438 0 22.556-10.118 22.556-22.556s-10.119-22.557-22.556-22.557c-12.437.001-22.556 10.12-22.556 22.557zm30.112 0c0 4.166-3.39 7.556-7.556 7.556s-7.556-3.39-7.556-7.556c0-4.167 3.39-7.557 7.556-7.557s7.556 3.39 7.556 7.557z"/></g></g></g></svg>