<svg id="Capa_1" enable-background="new 0 0 512 512" height="512" viewBox="0 0 512 512" width="512" xmlns="http://www.w3.org/2000/svg"><g><path d="m302.588 192.658h.001v-45.606h124.249v27.599c0 10.426 5.15 20.261 13.894 25.938 38.376 24.916 63.766 68.145 63.766 117.31 0 43.24-19.64 81.9-50.49 107.54l-22.09-22.09c25.28-19.89 41.51-50.78 41.51-85.45 0-32.526-14.282-61.708-36.913-81.63-5.61-4.939-12.871-7.594-20.346-7.59l-113.58.06v-.061s-.001 0-.001.001z" fill="#f5fcff"/><path d="m302.59 147.052h20v81.68l-20 .01z" fill="#d8ecfe"/><path d="m431.918 403.348c-18.5 14.57-41.83 23.26-67.2 23.26-60.05 0-108.72-48.67-108.72-108.71 0-36.95 18.42-69.59 46.59-89.22v-36.02c-46.02 22.87-77.65 70.36-77.65 125.24 0 77.19 62.58 139.78 139.78 139.78 33.95 0 65.07-12.11 89.29-32.24z" fill="#c9ebfa"/><path d="m209.412 192.658h-.001v-45.606h-124.249v27.599c0 10.426-5.15 20.261-13.894 25.938-38.376 24.916-63.766 68.145-63.766 117.31 0 43.24 19.64 81.9 50.49 107.54l22.09-22.09c-25.28-19.89-41.51-50.78-41.51-85.45 0-32.526 14.282-61.708 36.913-81.63 5.61-4.939 12.871-7.594 20.346-7.59l113.58.06v-.061s.001 0 .001.001z" fill="#c9ebfa"/><path d="m85.16 147.052h20v27.6c0 10.42-5.15 20.26-13.89 25.94-38.38 24.91-63.77 68.14-63.77 117.31 0 38.15 15.29 72.73 40.08 97.95l-9.59 9.59c-30.85-25.64-50.49-64.3-50.49-107.54 0-49.17 25.39-92.4 63.77-117.31 8.74-5.68 13.89-15.52 13.89-25.94z" fill="#a0ddf3"/><circle cx="364.714" cy="442.143" fill="#98bce5" r="31.062"/><path d="m374.71 471.562c-3.14 1.06-6.5 1.64-10 1.64-17.15 0-31.06-13.9-31.06-31.06 0-17.15 13.91-31.06 31.06-31.06 3.5 0 6.86.58 10 1.64-12.25 4.17-21.06 15.77-21.06 29.42 0 13.66 8.81 25.25 21.06 29.42z" fill="#7bacdf"/><path d="m364.714 449.643c4.142 0 7.5-3.358 7.5-7.5 0-4.142-3.358-7.5-7.5-7.5-4.142 0-7.5 3.358-7.5 7.5 0 4.142 3.357 7.5 7.5 7.5z"/><path d="m57.992 425.438c24.22 20.13 55.34 32.24 89.29 32.24 77.2 0 139.78-62.59 139.78-139.78 0-54.88-31.63-102.37-77.65-125.24v36.02c28.17 19.63 46.59 52.27 46.59 89.22 0 60.04-48.67 108.71-108.72 108.71-25.37 0-48.7-8.69-67.2-23.26z" fill="#f5fcff"/><circle cx="147.286" cy="442.143" fill="#98bce5" r="31.062"/><path d="m157.29 471.562c-3.14 1.06-6.5 1.64-10 1.64-17.16 0-31.07-13.9-31.07-31.06 0-17.15 13.91-31.06 31.07-31.06 3.5 0 6.86.58 10 1.64-12.25 4.16-21.07 15.76-21.07 29.42s8.82 25.26 21.07 29.42z" fill="#7bacdf"/><path d="m147.286 449.643c-4.142 0-7.5-3.358-7.5-7.5 0-4.142 3.358-7.5 7.5-7.5 4.142 0 7.5 3.358 7.5 7.5 0 4.142-3.357 7.5-7.5 7.5z"/><g><path d="m512 317.902c0-50.09-25.116-96.297-67.183-123.6-6.561-4.263-10.478-11.609-10.478-19.65v-27.601c0-4.143-3.357-7.5-7.5-7.5h-39.095v-8.031c0-10.169-6.628-18.814-15.788-21.858-3.25-43.754-39.864-78.368-84.433-78.368h-63.042c-44.57 0-81.182 34.614-84.433 78.366-9.163 3.042-15.792 11.689-15.792 21.859v8.031h-39.096c-4.142 0-7.5 3.357-7.5 7.5v27.601c0 8.041-3.917 15.388-10.473 19.648-42.07 27.307-67.187 73.514-67.187 123.603 0 67.511 48.153 128.186 113.878 143.462 6.67 11.547 19.142 19.34 33.409 19.34 14.278 0 26.758-7.806 33.424-19.368 28.777-6.666 54.58-21.655 74.796-43.545.168-.182.325-.372.493-.554 20.069 21.947 46.416 37.418 75.31 44.134 6.671 11.543 19.141 19.334 33.405 19.334 14.266 0 26.738-7.793 33.408-19.34 65.742-15.28 113.877-75.929 113.877-143.463zm-139.255-178.351h-16.063v-8.03c0-10.444 16.063-10.439 16.063 0zm-233.49-8.03c0-4.429 3.603-8.031 8.031-8.031s8.031 3.603 8.031 8.031v8.03h-16.062zm15.818-21.674c3.122-35.562 33.049-63.552 69.408-63.552h63.042c36.358 0 66.285 27.99 69.408 63.551-8.881 3.198-15.249 11.706-15.249 21.675v8.031h-39.092c-4.143 0-7.5 3.357-7.5 7.5v41.055c-14.531 7.817-27.828 18.186-39.019 30.4-11.077-12.092-24.252-22.413-39.161-30.411v-41.045c0-4.143-3.358-7.5-7.5-7.5h-39.093v-8.031c0-9.967-6.366-18.473-15.244-21.673zm110.647 120.353c8.522-9.607 18.477-18.007 29.37-24.777v19.423c-7.527 5.623-14.27 12.104-20.197 19.332-2.789-4.832-5.852-9.498-9.173-13.978zm-250.72 87.702c0-44.988 22.562-86.491 60.357-111.021 10.835-7.042 17.303-19.09 17.303-32.229v-20.101h109.25v66.687l-106.069-.056c-.019 0-.038 0-.056 0-9.356 0-18.322 3.359-25.248 9.458-20.613 18.128-34.178 42.998-38.196 70.029-.609 4.097 2.219 7.912 6.316 8.521 4.096.599 7.913-2.219 8.521-6.316 3.498-23.528 15.311-45.182 33.269-60.974 4.188-3.689 9.633-5.719 15.344-5.719h.035l111.248.058c8.799 6.447 16.386 14.191 22.576 22.868-8.102 18.557-12.211 38.313-12.211 58.793 0 20.525 4.126 40.333 12.269 58.942-13.016 18.233-32.052 32.043-54.78 38.449-7.012-7.217-16.809-11.713-27.642-11.713-10.828 0-20.62 4.492-27.631 11.702-37.552-10.576-66.518-43.36-72.422-81.954-.626-4.096-4.45-6.9-8.548-6.28-4.094.627-6.906 4.454-6.279 8.548 4.037 26.392 16.936 50.319 36.611 68.213l-11.37 11.37c-27.188-25.04-42.647-60.116-42.647-97.275zm233.5 0c0 15.023-3.257 29.362-9.162 42.288-4.578-13.548-6.898-27.713-6.898-42.288 0-14.527 2.305-28.642 6.851-42.139 5.978 13.048 9.209 27.39 9.209 42.139zm-179.209 106.846 11.516-11.516c9.409 6.587 19.606 11.662 30.453 15.179-1.986 5.269-2.806 10.626-2.458 16.07-14.133-4.304-27.538-10.986-39.511-19.733zm77.996 40.957c-12.992 0-23.563-10.57-23.563-23.563s10.57-23.563 23.563-23.563 23.562 10.57 23.562 23.563-10.57 23.563-23.562 23.563zm38.484-21.227c.347-5.443-.472-10.799-2.458-16.068 47.403-15.5 80.187-60.647 80.187-110.508 0-36.19-17.644-71.38-46.59-93.053v-19.449c34.312 21.193 57.289 57.424 61.807 97.491.465 4.117 4.187 7.082 8.293 6.613 4.116-.465 7.077-4.178 6.613-8.293-1.665-14.768-5.511-28.938-11.251-42.161 6.276-8.787 13.858-16.432 22.585-22.809l111.223-.058h.034c5.705 0 11.15 2.03 15.34 5.72 17.21 15.146 28.865 35.831 32.819 58.242.72 4.08 4.612 6.81 8.688 6.083 4.079-.72 6.803-4.609 6.083-8.688-4.543-25.752-17.925-49.509-37.679-66.895-6.93-6.104-15.895-9.462-25.245-9.462-.018 0-.037 0-.056 0l-106.076.056v-66.687h109.25v20.101c0 13.14 6.469 25.188 17.308 32.23 37.792 24.528 60.354 66.03 60.354 111.019 0 37.159-15.459 72.235-42.646 97.276l-11.368-11.368c20.526-18.644 33.582-43.682 37.037-71.349.513-4.11-2.403-7.858-6.513-8.372-4.115-.508-7.858 2.402-8.372 6.513-4.96 39.726-34.303 73.84-72.793 84.68-7.011-7.21-16.803-11.702-27.631-11.702-10.831 0-20.627 4.495-27.638 11.709-22.121-6.252-41.299-19.776-54.72-38.577 5.649-12.966 9.43-26.753 11.151-41.076.494-4.112-2.438-7.847-6.552-8.341-4.112-.505-7.847 2.439-8.341 6.552-6.179 51.415-43.153 95.618-92.843 110.631zm79.875-38.938c3.342-4.495 6.407-9.155 9.193-13.961 14.094 17.231 32.696 29.968 53.846 36.836-1.986 5.27-2.805 10.628-2.456 16.072-23.28-7.09-44.335-20.595-60.583-38.947zm99.068 60.165c-12.992 0-23.563-10.57-23.563-23.563s10.57-23.563 23.563-23.563 23.562 10.57 23.562 23.563-10.57 23.563-23.562 23.563zm36.026-37.294c10.848-3.516 21.044-8.591 30.453-15.179l11.516 11.516c-11.973 8.747-25.377 15.429-39.511 19.733.348-5.443-.472-10.8-2.458-16.07z"/><path d="m380.245 170.613h-31.063c-4.143 0-7.5 3.357-7.5 7.5s3.357 7.5 7.5 7.5h8.031v10.125c0 4.143 3.357 7.5 7.5 7.5s7.5-3.357 7.5-7.5v-10.125h8.031c4.143 0 7.5-3.357 7.5-7.5s-3.356-7.5-7.499-7.5z"/><path d="m131.755 185.613h8.031v10.125c0 4.143 3.358 7.5 7.5 7.5s7.5-3.357 7.5-7.5v-10.125h8.031c4.142 0 7.5-3.357 7.5-7.5s-3.358-7.5-7.5-7.5h-31.062c-4.142 0-7.5 3.357-7.5 7.5s3.358 7.5 7.5 7.5z"/></g></g></svg>