<svg id="Capa_1" enable-background="new 0 0 512 512" height="512" viewBox="0 0 512 512" width="512" xmlns="http://www.w3.org/2000/svg"><g><path d="m318.12 38.56v3.7c0 37.42-14.82 73.31-41.23 99.82l-11.85 11.9c-5.79 5.81-9.04 13.68-9.04 21.88 0-8.2-3.25-16.07-9.04-21.88l-11.85-11.9c-26.41-26.51-41.23-62.4-41.23-99.82v-3.7z" fill="#f4a94a"/><path d="m225 504.498h-155.436c-17.121 0-31-13.879-31-31v-217.498l28.404-42.497c21.986-32.894 33.721-71.571 33.721-111.136v-94.865h93.187v34.757c0 37.419 14.828 73.314 41.237 99.824l11.85 11.895c5.788 5.81 9.038 13.677 9.038 21.878v297.641c-.001 17.122-13.88 31.001-31.001 31.001z" fill="#fee97e"/><path d="m68.56 473.5c0 17.12 13.88 31 31 31h-30c-17.12 0-31-13.88-31-31v-217.5l28.41-42.5c21.98-32.89 33.72-71.57 33.72-111.13v-94.87h30v94.87c0 39.56-11.74 78.24-33.72 111.13l-28.41 42.5z" fill="#f9da58"/><path d="m287 504.498h155.436c17.121 0 31-13.879 31-31v-217.498l-28.404-42.497c-21.986-32.894-33.721-71.571-33.721-111.136v-94.865h-93.187v34.757c0 37.419-14.828 73.314-41.237 99.824l-11.85 11.895c-5.788 5.81-9.038 13.677-9.038 21.878v297.641c.001 17.122 13.88 31.001 31.001 31.001z" fill="#fee97e"/><path d="m69.865 473.198v-207.701l23.126-34.602c25.513-38.172 38.998-82.616 38.998-128.528v-63.565h30.587v3.457c0 46.018 17.886 89.313 50.362 121.915l11.763 11.808v297.217h-154.836z" fill="#ffb952"/><path d="m442.135 473.198v-207.701l-23.126-34.602c-25.513-38.172-38.998-82.616-38.998-128.528v-63.565h-30.587v3.457c0 46.018-17.886 89.313-50.362 121.915l-11.762 11.807v297.217z" fill="#ffb952"/><path d="m38.564 388.015h155.311v46.593h-155.311z" fill="#f5fcff"/><path d="m38.56 388.01h30v46.6h-30z" fill="#d8ecfe"/><path d="m318.125 388.015h155.311v46.593h-155.311z" fill="#f5fcff"/><path d="m38.564 294.828h155.311v46.593h-155.311z" fill="#f5fcff"/><path d="m38.56 294.83h30v46.59h-30z" fill="#d8ecfe"/><path d="m318.125 294.828h155.311v46.593h-155.311z" fill="#f5fcff"/><path d="m193.875 380.249h124.249v62.125h-124.249z" fill="#8cbdf9"/><path d="m193.875 287.062h124.249v62.125h-124.249z" fill="#8cbdf9"/><path d="m479.676 251.832c-31.126-46.561-60.866-90.511-60.866-149.462v-94.87c0-4.143-3.357-7.5-7.5-7.5h-93.19c-4.143 0-7.5 3.357-7.5 7.5v23.56h-38.22c-4.143 0-7.5 3.357-7.5 7.5s3.357 7.5 7.5 7.5h38.162c-.948 34.261-14.705 66.353-38.988 90.729-5.191 4.948-11.273 10.416-15.575 16.229-4.303-5.813-10.385-11.281-15.576-16.229-24.282-24.374-38.038-56.466-38.987-90.728h38.273c4.143 0 7.5-3.357 7.5-7.5s-3.357-7.5-7.5-7.5h-38.33v-23.561c0-4.143-3.357-7.5-7.5-7.5h-93.189c-4.143 0-7.5 3.357-7.5 7.5v94.87c0 58.671-29.812 103.006-60.866 149.462-.824 1.233-1.265 2.684-1.265 4.168v217.5c0 21.229 17.271 38.5 38.5 38.5h155.441c12.702 0 23.984-6.187 31-15.703 7.016 9.515 18.298 15.703 31 15.703h155.44c21.229 0 38.5-17.271 38.5-38.5v-217.5c0-1.484-.44-2.935-1.264-4.168zm-169.052 42.731v.19c0 .026-.004.051-.004.077v15.794h-54.62c-4.143 0-7.5 3.357-7.5 7.5s3.357 7.5 7.5 7.5h54.62v15.796c0 .026.004.051.004.077v.189h-109.248v-.266-46.593-.266h109.248zm15 132.545v-31.594h140.312v31.594zm109.016 15v23.592h-139.84v-15.827h23.324c4.143 0 7.5-3.357 7.5-7.5v-.265zm0-61.593h-109.016v-.266c0-4.143-3.357-7.5-7.5-7.5h-23.324v-16.063h23.324c4.143 0 7.5-3.357 7.5-7.5v-.267h109.016zm-202.44-7.766v-16.063h16.3v16.063zm31.3-16.062h16.3v16.063h-16.3zm-186.14-69.359v-19.552c60.64-77.666 64.64-120.717 62.13-221.476h15.634c1.126 51.564 25.074 97.773 62.076 132.777v100.485h-23.324c-4.143 0-7.5 3.357-7.5 7.5v.266zm109.016 15v31.593h-140.312v-31.593zm-140.316-44.052c32.39-48.456 62.13-94.922 62.13-155.906v-87.37h78.189v27.26c0 46.932 22.24 85.349 55.268 117.015 4.419 4.435 6.853 10.324 6.853 16.586v103.702h-16.3v-103.583c0-1.983-.786-3.887-2.186-5.292-36.913-35.926-60.357-79.457-59.934-131.888 0-4.143-3.357-7.5-7.5-7.5h-30.59c-4.143 0-7.5 3.357-7.5 7.5v63.57c0 61.507-27.998 109.797-60.865 158.962-.824 1.233-1.265 2.684-1.265 4.168v21.828h-16.3zm0 90.645h16.3v31.589h-16.3zm0 46.589h57.66c4.143 0 7.5-3.357 7.5-7.5s-3.357-7.5-7.5-7.5h-26.36v-31.589h109.016v.266c0 4.143 3.357 7.5 7.5 7.5h23.324v16.063h-23.324c-4.143 0-7.5 3.357-7.5 7.5v.261h-49.966c-4.143 0-7.5 3.357-7.5 7.5s3.357 7.5 7.5 7.5h49.966v31.601h-140.316zm147.816 54.363h23.324v15.827h-139.84v-23.59h109.016v.263c0 4.143 3.357 7.5 7.5 7.5zm54.624 23.627c0 12.958-10.542 23.5-23.5 23.5h-155.44c-12.958 0-23.5-10.542-23.5-23.5v-31.39h16.3v31.09c0 4.143 3.357 7.5 7.5 7.5h154.84c4.143 0 7.5-3.357 7.5-7.5v-23.327h16.3zm-47.124-38.627v-.185c0-.026.004-.051.004-.077v-46.601c0-.026-.004-.051-.004-.077v-.183h109.248v.266 15.797h-54.624c-4.143 0-7.5 3.357-7.5 7.5s3.357 7.5 7.5 7.5h54.624v15.797.265h-109.248zm264.564 38.627c0 12.958-10.542 23.5-23.5 23.5h-155.44c-12.958 0-23.5-10.542-23.5-23.5v-23.627h16.3v23.327c0 4.143 3.357 7.5 7.5 7.5h154.84c4.143 0 7.5-3.357 7.5-7.5v-31.092h16.301v31.392zm0-92.985h-16.3v-31.595h16.301v31.595zm0-46.595h-140.316v-31.59h44.696c4.143 0 7.5-3.357 7.5-7.5s-3.357-7.5-7.5-7.5h-44.696v-.268c0-4.143-3.357-7.5-7.5-7.5h-23.324v-100.485c37.094-35.099 60.949-81.145 62.076-132.777h15.634c-.51 88.7-6.176 131.034 62.13 221.477v19.554h-31.64c-4.143 0-7.5 3.357-7.5 7.5s3.357 7.5 7.5 7.5h62.94zm0-46.59h-16.3v-21.83c0-1.484-.335-3.012-1.265-4.168-62.948-78.336-60.865-136.892-60.865-222.532 0-4.143-3.357-7.5-7.5-7.5h-30.59c-4.143 0-7.5 3.357-7.5 7.5.421 52.568-23.102 96.087-59.935 131.889-1.399 1.405-2.186 3.309-2.186 5.292v103.582h-16.3v-103.703c0-6.262 2.434-12.151 6.854-16.588 33.028-31.665 55.267-70.082 55.267-117.012v-27.26h78.189c0 94.477-14.671 151.814 62.131 243.276z"/></g></svg>