<svg id="Capa_1" enable-background="new 0 0 512 512" height="512" viewBox="0 0 512 512" width="512" xmlns="http://www.w3.org/2000/svg"><g><path d="m38.564 69.625h46.593v434.872h-46.593z" fill="#8cbdf9"/><path d="m38.56 69.629h20v434.87h-20z" fill="#73a2da"/><path d="m426.842 69.625h46.593v434.872h-46.593z" fill="#8cbdf9"/><path d="m426.84 69.629h20v434.87h-20z" fill="#73a2da"/><path d="m77.392 38.563h-31.062v-15.531c0-8.578 6.954-15.531 15.531-15.531 8.578 0 15.531 6.954 15.531 15.531z" fill="#f07281"/><path d="m465.67 38.563h-31.062v-15.531c0-8.578 6.954-15.531 15.531-15.531 8.578 0 15.531 6.954 15.531 15.531z" fill="#f07281"/><path d="m38.564 38.563h46.593v31.062h-46.593z" fill="#8cbdf9"/><path d="m38.56 38.559h20v31.07h-20z" fill="#73a2da"/><path d="m426.842 38.563h46.593v31.062h-46.593z" fill="#8cbdf9"/><path d="m426.84 38.559h20v31.07h-20z" fill="#73a2da"/><path d="m7.502 224.937h496.996v124.249h-496.996z" fill="#fee97e"/><path d="m7.5 224.939h30v124.25h-30z" fill="#f9da58"/><g><g fill="#548eb5"><path d="m78.507 349.186h-31.062l33.292-124.249h31.063z"/><path d="m166.696 349.186h-31.062l33.292-124.249h31.062z"/><path d="m254.885 349.186h-31.062l33.292-124.249h31.062z"/><path d="m343.074 349.186h-31.062l33.292-124.249h31.062z"/><path d="m431.263 349.186h-31.063l33.293-124.249h31.062z"/></g></g><path d="m7.502 69.625h496.996v124.249h-496.996z" fill="#fee97e"/><path d="m7.5 69.629h30v124.25h-30z" fill="#f9da58"/><g><g fill="#548eb5"><path d="m78.507 193.875h-31.062l33.292-124.25h31.063z"/><path d="m166.696 193.875h-31.062l33.292-124.25h31.062z"/><path d="m254.885 193.875h-31.062l33.292-124.25h31.062z"/><path d="m343.074 193.875h-31.062l33.292-124.25h31.062z"/><path d="m431.263 193.875h-31.063l33.293-124.25h31.062z"/></g></g><path d="m504.5 201.379c4.143 0 7.5-3.357 7.5-7.5v-124.25c0-4.143-3.357-7.5-7.5-7.5h-23.564v-23.566c0-4.143-3.357-7.5-7.5-7.5h-.266v-8.031c0-12.699-10.332-23.031-23.031-23.031s-23.03 10.332-23.03 23.031v8.031h-.266c-4.143 0-7.5 3.357-7.5 7.5v23.565h-179.173c-4.143 0-7.5 3.357-7.5 7.5s3.357 7.5 7.5 7.5h7.171l-29.274 109.25h-41.597l29.273-109.25c4.313.05 9.238-2.354 9.238-7.5 0-4.143-3.357-7.5-7.5-7.5l-114.824-.002v-23.563c0-4.143-3.357-7.5-7.5-7.5h-.266v-8.031c0-12.699-10.331-23.031-23.03-23.031s-23.031 10.332-23.031 23.031v8.031h-.266c-4.143 0-7.5 3.357-7.5 7.5v23.565h-23.564c-4.143 0-7.5 3.357-7.5 7.5v124.25c0 4.143 3.357 7.5 7.5 7.5h70.16v16.061h-70.16c-4.143 0-7.5 3.357-7.5 7.5v124.25c0 4.143 3.357 7.5 7.5 7.5h23.56v147.81c0 4.143 3.357 7.5 7.5 7.5h46.6c4.143 0 7.5-3.357 7.5-7.5v-62.71c0-4.143-3.357-7.5-7.5-7.5s-7.5 3.357-7.5 7.5v55.21h-31.6v-140.31h31.6v52.42c0 4.143 3.357 7.5 7.5 7.5s7.5-3.357 7.5-7.5v-52.42h326.68v147.81c0 4.143 3.357 7.5 7.5 7.5h46.601c4.143 0 7.5-3.357 7.5-7.5v-147.81h23.56c4.143 0 7.5-3.357 7.5-7.5v-124.25c0-4.143-3.357-7.5-7.5-7.5h-23.56v-16.061h23.559zm-62.392-178.347c0-4.429 3.603-8.031 8.03-8.031 4.429 0 8.031 3.603 8.031 8.031v8.031h-16.062v-8.031zm-7.765 23.031h.266 31.062.266v16.063h-31.593v-16.063zm-380.513-23.031c0-4.429 3.603-8.031 8.031-8.031s8.03 3.603 8.03 8.031v8.031h-16.061zm-7.766 23.031h.266 31.062.266v16.063h-31.594zm450.936 140.316h-55.964l29.273-109.25h26.691zm-144.153 0 29.273-109.25h41.598l-29.274 109.25zm13.744-109.25-29.272 109.246h-15.533l29.272-109.246zm88.189 0-29.272 109.246h-15.533l29.273-109.246zm-191.911 0h15.533l-29.272 109.246h-15.533zm31.063 0h41.597l-29.273 109.25h-41.598zm-205.652 109.25 29.274-109.25h41.597l-29.273 109.25zm13.745-109.25-29.273 109.246h-15.532l29.271-109.246zm58.916 109.246h-15.533l29.272-109.246h15.533zm-145.941-109.246h55.963l-29.273 109.25h-26.69zm0 155.31h55.963l-29.273 109.25h-26.69zm42.22 109.247 29.272-109.246h15.533l-29.273 109.246zm31.06.003 29.274-109.25h41.597l-29.273 109.25zm57.128-.003 29.272-109.246h15.533l-29.272 109.246zm31.061.003 29.273-109.25h41.598l-29.274 109.25zm57.128-.003 29.273-109.246h15.533l-29.273 109.246zm31.061.003 29.274-109.25c4.313.05 9.068-1.315 9.238-7.5.114-4.141-3.357-7.5-7.5-7.5l-203.01-.003v-16.058h326.68v16.061h-90.99c-4.143 0-7.5 3.357-7.5 7.5s3.357 7.5 7.5 7.5h7.179l-29.273 109.25zm57.128-.003 29.272-109.246h15.533l-29.272 109.246zm31.061.003 29.273-109.25h41.598l-29.274 109.25zm72.661-.003h-15.533l29.273-109.246h15.532zm40.432 155.313h-31.6v-140.31h31.601v140.31zm31.06-155.31h-55.964l29.273-109.25h26.691zm-31.06-124.25-31.601-.003v-16.058h31.601z"/></g></svg>