<svg id="Capa_1" enable-background="new 0 0 511.744 511.744" height="512" viewBox="0 0 511.744 511.744" width="512" xmlns="http://www.w3.org/2000/svg"><g><path d="m299.752 271.274v60.14l-43.88 33.05-43.88-33.05v-60.14z" fill="#ffcebf"/><path d="m299.752 271.274v43.79c-11.58 5.49-24.51 8.55-38.14 8.55h-11.48c-13.63 0-26.56-3.06-38.14-8.55v-43.79z" fill="#ffb09e"/><path d="m426.712 402.214v102.03h-341.68v-102.03c0-18.33 11.89-34.55 29.38-40.06l44.25-13.94 53.36-16.8 43.85 33.05 43.85-33.05 53.36 16.8 44.25 13.94c17.49 5.51 29.38 21.73 29.38 40.06z" fill="#98bce5"/><path d="m353.082 348.214-40.269 69.312c-2.027 3.49-6.578 4.547-9.936 2.308l-26.245-17.499-20.76-13.84-20.76 13.84-26.245 17.499c-3.358 2.239-7.908 1.182-9.936-2.308l-40.269-69.312 53.36-16.8 43.85 33.05 43.85-33.05z" fill="#7bacdf"/><path d="m212.022 331.414 8.84 6.66-76.45 24.08c-17.49 5.51-29.38 21.73-29.38 40.06v102.03h-30v-102.03c0-18.33 11.89-34.55 29.38-40.06z" fill="#7bacdf"/><path d="m212.02 331.414 43.852 33.046-46.593 31.063-31.063-53.462z" fill="#5f99d7"/><path d="m299.725 331.414-43.853 33.046 46.594 31.063 31.062-53.462z" fill="#5f99d7"/><path d="m255.872 364.46-31.062 20.709 15.531 25.885h31.062l15.531-25.885z" fill="#548eb5"/><path d="m286.932 385.164-10.3 17.17-20.76-13.84-20.76 13.84-10.3-17.17 31.06-20.7z" fill="#497090"/><path d="m240.341 411.054-15.531 93.188h62.124l-15.531-93.188z" fill="#548eb5"/><path d="m331.122 142.794v91.31c0 38.39-31.12 69.51-69.51 69.51h-11.48c-38.39 0-69.51-31.12-69.51-69.51v-91.31c0-11.75 9.53-21.28 21.29-21.28h107.92c11.76 0 21.29 9.53 21.29 21.28z" fill="#ffeee6"/><path d="m331.12 161.425h15.061c11.541 0 20.897 9.356 20.897 20.897v15.659c0 11.541-9.356 20.897-20.897 20.897h-15.061z" fill="#ffcebf"/><path d="m180.624 161.425h-15.061c-11.541 0-20.897 9.356-20.897 20.897v15.659c0 11.541 9.356 20.897 20.897 20.897h15.061z" fill="#ffcebf"/><path d="m198.608 24.799-38.796 25.929c-15.058 10.064-18.318 30.838-7.067 45.031l27.879 35.17h150.496l28.102-35.281c11.266-14.144 8.085-34.888-6.901-45.007l-37.874-25.571c-17.167-11.59-37.408-17.784-58.122-17.784-20.547 0-40.634 6.095-57.717 17.513z" fill="#98bce5"/><path d="m271.322 8.374c-5.14.75-10.2 1.88-15.15 3.39-9.73 2.95-19.02 7.32-27.56 13.03l-38.8 25.93c-15.06 10.07-18.32 30.84-7.07 45.03l27.88 35.17h-30l-27.88-35.17c-11.25-14.19-7.99-34.96 7.07-45.03l38.8-25.93c8.54-5.71 17.83-10.08 27.56-13.03 9.72-2.96 19.88-4.48 30.15-4.48 5.04 0 10.05.37 15 1.09z" fill="#7bacdf"/><path d="m309.832 121.514h-77.92-30c-11.76 0-21.29 9.53-21.29 21.28v91.31c0 38.389 31.121 69.51 69.51 69.51h11.48c3.14 0 6.23-.21 9.26-.62-34.01-4.52-60.25-33.64-60.25-68.89v-37.688c0-8.285 6.709-15.001 14.994-15 25.601.003 75.006.008 75.006.008 11.45 0 22.02-3.83 30.5-10.28v-28.35c0-11.75-9.53-21.28-21.29-21.28z" fill="#ffdfcf"/><path d="m300.624 161.425h-89.504c-16.842 0-30.496-13.654-30.496-30.496h150.496c0 16.842-13.654 30.496-30.496 30.496z" fill="#548eb5"/><path d="m241.122 161.424h-30c-16.84 0-30.5-13.65-30.5-30.5h30c0 16.85 13.66 30.5 30.5 30.5z" fill="#497090"/><path d="m162.645 100.433h186.414v30.496h-186.414z" fill="#5f99d7"/><path d="m162.642 100.434h30v30.49h-30z" fill="#3c87d0"/><path d="m256.006 38.456v-.107l-.1.054-.1-.054v.107l-30.996 16.576c0 18.332 10.355 37.239 26.749 45.441h8.693c16.394-8.202 26.749-27.11 26.749-45.441z" fill="#ffde5c"/><g><path d="m426.712 433.254c4.142 0 7.5-3.357 7.5-7.5v-23.54c0-21.715-13.916-40.688-34.627-47.213l-92.333-29.08v-29.799c19.714-14.493 31.37-37.376 31.37-62.017v-7.727h7.559c15.658 0 28.397-12.739 28.397-28.397v-15.658c0-15.658-12.739-28.397-28.397-28.397h-7.559c.141-4.942.416-10.58-.335-15.501h10.775c4.142 0 7.5-3.357 7.5-7.5v-19.898c18.431-18.2 24.828-49.807-.043-66.597l-37.871-25.571c-37.131-25.063-87.078-25.126-124.203-.3l-38.801 25.931c-24.264 16.222-24.646 42.669-.501 66.365v20.069c0 4.143 3.358 7.5 7.5 7.5h10.815c-.751 4.921-.475 10.559-.335 15.501h-7.559c-15.658 0-28.397 12.739-28.397 28.397v15.658c0 15.658 12.739 28.397 28.397 28.397h7.559v7.727c0 24.645 11.658 47.53 31.37 62.017v29.799l-50.184 15.81c-3.951 1.244-6.145 5.456-4.9 9.406 1.244 3.95 5.452 6.147 9.407 4.9l15.932-5.019 28.047 48.271c2.208 3.801 7.158 4.797 10.645 2.473l8.987-5.991 10.063 16.773-14.033 84.2h-63.802v-54.628c0-4.143-3.358-7.5-7.5-7.5s-7.5 3.357-7.5 7.5v54.628h-47.123v-94.53c0-15.135 9.698-28.358 24.133-32.906l10.86-3.42c3.951-1.244 6.145-5.455 4.901-9.406-1.245-3.95-5.456-6.146-9.407-4.9l-10.86 3.42c-20.711 6.524-34.626 25.498-34.626 47.213v102.03c0 4.143 3.358 7.5 7.5 7.5h341.68c4.142 0 7.5-3.357 7.5-7.5v-45.8c0-4.143-3.358-7.5-7.5-7.5s-7.5 3.357-7.5 7.5v38.3h-44.634v-54.628c0-4.143-3.358-7.5-7.5-7.5s-7.5 3.357-7.5 7.5v54.628h-66.29l-14.033-84.2 10.063-16.773 8.987 5.991c3.487 2.324 8.436 1.329 10.645-2.473l28.048-48.274 58.08 18.291c14.435 4.548 24.133 17.771 24.133 32.906v23.54c0 4.145 3.358 7.502 7.5 7.502zm-134.46-128.482v22.881l-36.38 27.416-36.38-27.416v-22.881c19.047 10.679 51.911 9.076 72.76 0zm53.929-135.847c7.387 0 13.397 6.01 13.397 13.397v15.658c0 7.388-6.01 13.397-13.397 13.397h-7.559v-42.453h7.559zm-182.201-111.965 38.802-25.932c32.128-21.48 75.343-21.426 107.474.262l37.87 25.57c17.852 12.55 6.997 36.074.937 36.074h-67.993c8.406-10.398 13.432-23.948 13.432-37.903 0-2.767-1.523-5.309-3.963-6.613l-29.992-16.039c-2.667-2.027-6.614-2.022-9.282 0l-29.992 16.039c-2.44 1.305-3.963 3.847-3.963 6.613 0 13.955 5.025 27.505 13.432 37.903h-68.099c-5.271.001-18.146-22.15 1.337-35.974zm89.384 35.975c-11.299-6.417-19.402-19.579-20.829-33.529l23.372-12.498 23.371 12.498c-1.427 13.951-9.531 27.113-20.829 33.529zm-83.222 15h171.42v15.489h-69.21c-4.142 0-7.5 3.357-7.5 7.5s3.358 7.5 7.5 7.5h50.027c-3.124 9.099-11.944 15.5-21.757 15.5h-89.5c-10.523-.522-17.771-5.689-21.742-15.5h50.282c4.142 0 7.5-3.357 7.5-7.5s-3.358-7.5-7.5-7.5h-69.52zm-4.578 103.443c-7.387 0-13.397-6.01-13.397-13.397v-15.658c0-7.388 6.01-13.397 13.397-13.397h7.559v42.453h-7.559zm22.558 22.727.002-72.68c5.081 9.109 15.331 7.5 22.998 7.499h89.5c12.5.001 22.998-5.185 22.998-7.499l.002 72.68c0 20.954-10.462 40.333-27.995 51.846-21.45 14.124-57.92 14.217-79.519-.006-17.523-11.507-27.986-30.886-27.986-51.84zm23.634 150.753-22.344-38.458 21.16-6.665 32.336 24.355zm66.325 111.883h-44.417l13.031-78.188h18.355zm-10.924-93.187h-22.569l-9.667-16.112 20.952-13.968 20.952 13.968zm32.831-18.696-31.151-20.769 32.336-24.355 21.161 6.664z"/><path d="m209.279 449.657c4.142 0 7.5-3.357 7.5-7.5s-3.358-7.5-7.5-7.5h-31.063c-4.142 0-7.5 3.357-7.5 7.5s3.358 7.5 7.5 7.5z"/><path d="m302.465 434.657c-4.142 0-7.5 3.357-7.5 7.5s3.358 7.5 7.5 7.5h31.063c4.142 0 7.5-3.357 7.5-7.5s-3.358-7.5-7.5-7.5z"/><path d="m223.49 207.246c4.142 0 7.5-3.357 7.5-7.5v-9.845c0-4.143-3.358-7.5-7.5-7.5s-7.5 3.357-7.5 7.5v9.845c0 4.143 3.358 7.5 7.5 7.5z"/><path d="m288.107 207.246c4.142 0 7.5-3.357 7.5-7.5v-9.845c0-4.143-3.358-7.5-7.5-7.5s-7.5 3.357-7.5 7.5v9.845c0 4.143 3.358 7.5 7.5 7.5z"/><path d="m255.872 266.837c14.507 0 26.309-11.802 26.309-26.309 0-4.143-3.358-7.5-7.5-7.5s-7.5 3.357-7.5 7.5c0 6.235-5.073 11.309-11.309 11.309s-11.309-5.073-11.309-11.309c0-4.143-3.358-7.5-7.5-7.5s-7.5 3.357-7.5 7.5c.001 14.507 11.802 26.309 26.309 26.309z"/></g></g></svg>