<svg id="Capa_1" enable-background="new 0 0 511.955 511.955" height="512" viewBox="0 0 511.955 511.955" width="512" xmlns="http://www.w3.org/2000/svg"><g><path d="m147.3 473.434h217.436v31.022h-217.436z" fill="#548eb5"/><path d="m147.298 473.438h30v31.02h-30z" fill="#497090"/><path d="m365.267 349.185h-16.062v-62.125h16.062c8.284 0 15 6.716 15 15v32.125c0 8.284-6.716 15-15 15z" fill="#f07281"/><path d="m162.831 255.957h186.374v217.436h-186.374z" fill="#ade194"/><path d="m162.828 255.958h30v217.43h-30z" fill="#7dce6f"/><path d="m193.893 69.625h-31.062v-42.125c0-11.046 8.954-20 20-20h11.062z" fill="#fee97e"/><path d="m318.142 69.625h31.062v-42.125c0-11.046-8.954-20-20-20h-11.062z" fill="#fee97e"/><path d="m364.736 256.121h-217.436c-20.712-51.802-20.705-134.689 0-186.455h46.593v.041c0 34.31 27.814 62.124 62.124 62.124 34.31 0 62.124-27.814 62.124-62.124v-.041h46.593c20.71 51.784 20.71 134.671.002 186.455z" fill="#548eb5"/><path d="m177.298 69.668c-20.7 51.76-20.71 134.65 0 186.45h-30c-20.71-51.8-20.7-134.69 0-186.45z" fill="#497090"/><path d="m170.105 224.821c-9.061-36.252-9.337-83.512-.826-120.422 13.806 34.396 47.484 58.731 86.739 58.731 39.258 0 72.938-24.337 86.742-58.72 8.509 36.913 8.233 84.166-.828 120.41h-171.827z" fill="#c9ebfa"/><path d="m193.893 287.06h124.249v155.269h-124.249z" fill="#548eb5"/><path d="m240.487 349.185h-77.656v-31.062h77.656c8.578 0 15.531 6.954 15.531 15.531 0 8.577-6.954 15.531-15.531 15.531z" fill="#fee97e"/><path d="m162.828 318.118h30v31.07h-30z" fill="#f9da58"/><path d="m240.487 411.309h-77.656v-31.062h77.656c8.578 0 15.531 6.954 15.531 15.531 0 8.578-6.954 15.531-15.531 15.531z" fill="#fee97e"/><path d="m162.828 380.248h30v31.06h-30z" fill="#f9da58"/><g><path d="m272.478 232.318h69.45c3.441 0 6.441-2.342 7.276-5.681 9.3-37.2 10.112-85.951.863-123.914-1.882-7.726-10.049-10.726-14.269-1.108-14.207 32.375-44.482 54.013-79.78 54.013-35.29 0-65.995-21.457-79.78-54.023-3.22-7.606-12.386-6.028-14.268 1.109-9.959 37.775-8.438 86.71.862 123.923.834 3.339 3.834 5.682 7.276 5.682h69.69c4.142 0 7.5-3.357 7.5-7.5s-3.358-7.5-7.5-7.5h-63.74c-5.998-27.573-7.081-60.785-3.183-90.437 18.463 26.813 50.566 43.746 83.144 43.746 32.575 0 64.666-16.908 83.143-43.734 3.897 29.653 2.815 62.86-3.183 90.425h-63.5c-4.142 0-7.5 3.357-7.5 7.5s3.357 7.499 7.499 7.499z"/><path d="m365.267 279.561h-8.559v-15.942h8.03c3.067 0 5.825-1.867 6.963-4.715 8.554-21.384 13.929-48.194 15.545-77.533.228-4.136-2.94-7.673-7.076-7.9-4.132-.235-7.673 2.939-7.901 7.076-1.409 25.581-5.784 48.984-12.7 68.072h-207.1c-17.549-48.549-17.549-122.914 0-171.45h34.327c3.732 34.896 33.353 62.16 69.223 62.16 34.848 0 65.552-27.489 69.225-62.16h34.325c7.147 19.788 11.693 44.912 12.877 71.435.185 4.137 3.689 7.362 7.827 7.157 4.138-.185 7.343-3.688 7.158-7.827-1.374-30.753-6.813-58.78-15.729-81.052-1.14-2.847-3.897-4.713-6.963-4.713h-8.034v-34.669c0-15.163-12.336-27.5-27.5-27.5h-11.062c-4.142 0-7.5 3.357-7.5 7.5v18.927l-20.208-10.104c-2.111-1.057-4.597-1.057-6.708 0l-27.708 13.854-27.709-13.854c-2.111-1.057-4.596-1.057-6.708 0l-20.208 10.104v-18.927c0-4.143-3.358-7.5-7.5-7.5h-11.062c-15.164 0-27.5 12.337-27.5 27.5v34.668h-8.034c-3.067 0-5.825 1.867-6.964 4.715-21.527 53.83-21.528 138.175 0 192.02 1.139 2.848 3.896 4.716 6.964 4.716h8.03v202.315h-8.028c-4.142 0-7.5 3.357-7.5 7.5v31.021c0 4.143 3.358 7.5 7.5 7.5h217.436c4.142 0 7.5-3.357 7.5-7.5v-31.021c0-4.143-3.358-7.5-7.5-7.5h-8.028v-53.815c0-4.143-3.358-7.5-7.5-7.5s-7.5 3.357-7.5 7.5v53.77h-171.38v-47.079h16.07v23.519c0 4.143 3.358 7.5 7.5 7.5h124.24c4.142 0 7.5-3.357 7.5-7.5v-155.271c0-4.143-3.358-7.5-7.5-7.5h-124.24c-4.142 0-7.5 3.357-7.5 7.5v23.564h-16.07v-47.004h171.38v115.82c0 4.143 3.358 7.5 7.5 7.5s7.5-3.357 7.5-7.5v-22.754h8.559c12.407 0 22.5-10.094 22.5-22.5v-32.124c0-12.406-10.093-22.499-22.5-22.499zm-39.625-264.561h3.562c6.893 0 12.5 5.607 12.5 12.5v34.625h-16.062zm-100.686 16.417 27.708 13.854c2.111 1.057 4.597 1.057 6.708 0l27.708-13.854 23.563 11.781v26.423c-.364 29.112-25.178 54.707-54.625 54.707-30.118 0-54.62-24.503-54.62-54.66 0-.029-.004-.058-.004-.087v-26.383zm-54.625-3.917c0-6.893 5.607-12.5 12.5-12.5h3.562v47.125h-16.062zm186.905 469.455h-202.436v-16.021h202.436zm-163.358-109.208c.007 0 .013.001.019.001s.013-.001.019-.001h46.57c4.428 0 8.031 3.603 8.031 8.031s-3.603 8.031-8.031 8.031h-46.55c-.013 0-.026-.002-.039-.002s-.026.002-.039.002h-23.528v-16.063h23.548zm7.52-93.189h109.24v140.271h-109.24v-16.019h39.089c12.7 0 23.031-10.332 23.031-23.031s-10.332-23.031-23.031-23.031h-39.089v-16.063h39.089c12.7 0 23.031-10.332 23.031-23.031s-10.332-23.031-23.031-23.031h-39.089zm-31.067 31.064h70.155c4.428 0 8.031 3.603 8.031 8.031s-3.603 8.031-8.031 8.031h-70.155zm16.067 31.063v16.063h-16.07v-16.063zm186.369-22.5c0 4.136-3.364 7.5-7.5 7.5h-8.559v-47.124h8.559c4.136 0 7.5 3.364 7.5 7.5z"/><path d="m325.642 193.874c0-4.143-3.358-7.5-7.5-7.5h-124.249c-4.142 0-7.5 3.357-7.5 7.5s3.358 7.5 7.5 7.5h124.249c4.143 0 7.5-3.357 7.5-7.5z"/></g></g></svg>