<svg id="Capa_1" enable-background="new 0 0 512.109 512.109" height="512" viewBox="0 0 512.109 512.109" width="512" xmlns="http://www.w3.org/2000/svg"><g><path d="m474.57 402.28c0 3.11-.35 6.14-1.03 9.04v.01c-1.71 7.44-5.5 14.09-10.71 19.3-7.26 7.26-17.29 11.75-28.36 11.75h-292.15c-22.5 0-40.75-18.24-40.75-40.75 0-12.19 1.15-24.33 3.43-36.25 2.27-11.92 5.67-23.64 10.16-34.97l.73-1.87c15.32-38.69 20.36-80.69 14.65-121.92l-22.82-156.87-6.15-42.24h217.56l-23.88 197.18c-8.71 84.47 56.86 158.23 141.77 159.48 10.42.15 19.8 4.47 26.59 11.36 6.78 6.89 10.96 16.33 10.96 26.75z" fill="#fee97e"/><path d="m428.09 442.38h-285.77c-22.5 0-40.75-18.24-40.75-40.75 0-12.19 1.15-24.33 3.43-36.25 2.27-11.92 5.67-23.64 10.16-34.97l.73-1.87c15.32-38.69 20.36-80.69 14.65-121.92l-19.93-136.99-2.89-19.88h171.86l-2.41 19.88-7.54 62.24-7.49 61.84-9.14 75.44c-3.58 35.13 7.37 69.02 30.85 95.43 23.51 26.45 55.95 41.31 91.34 41.83 7.91.11 15.56 1.8 22.6 4.91 6.63 2.92 12.71 7.1 17.94 12.42 5.37 5.44 9.53 11.76 12.36 18.64z" fill="#f9da58"/><path d="m110.609 69.628h200.963l7.563-62.125h-217.563z" fill="#ffb952"/><path d="m279.58 49.75-2.41 19.88h-166.56l-2.89-19.88z" fill="#f4a94a"/><path d="m241.509 193.707h55.073l7.66-61.84h-54.794z" fill="#ffb952"/><path d="m269.63 131.87-7.49 61.839h-20.63l7.94-61.839z" fill="#f4a94a"/><path d="m473.54 411.316v.01c-1.71 7.44-5.5 14.09-10.71 19.3-7.26 7.26-17.29 11.75-28.36 11.75h-122.9v-31.06z" fill="#548eb5"/><path d="m428.09 442.38h-116.52v-31.06h86.22c6.63 2.92 12.71 7.1 17.94 12.42 5.37 5.44 9.53 11.76 12.36 18.64z" fill="#497090"/><path d="m412.45 464.516c0 3.11-.35 6.14-1.03 9.04-1.71 7.45-5.5 14.1-10.72 19.31-7.26 7.26-17.28 11.75-28.35 11.75h-292.15c-19.17 0-35.24-13.23-39.59-31.06-.76-3.1-1.16-6.35-1.16-9.69 0-12.19 1.15-24.33 3.43-36.25 2.27-11.93 5.66-23.64 10.15-34.97l.74-1.87c15.32-38.69 20.36-80.7 14.64-121.92l-28.96-199.11h217.56l-23.89 197.18c-8.71 84.46 56.87 158.23 141.78 159.48 10.41.15 19.8 4.47 26.58 11.36 6.79 6.89 10.97 16.33 10.97 26.75z" fill="#fee97e"/><path d="m110.2 504.62h-30c-19.17 0-35.24-13.23-39.59-31.06-.76-3.1-1.16-6.35-1.16-9.69 0-12.19 1.15-24.33 3.43-36.25 2.27-11.93 5.66-23.64 10.15-34.97l.74-1.87c15.32-38.69 20.36-80.7 14.64-121.92l-1.85-12.74-9.08-62.41-8.99-61.84h-.01l-9.03-62.12h30l9.04 62.12 8.99 61.84 9.08 62.41 1.85 12.74c5.72 41.22.68 83.23-14.64 121.92l-.74 1.87c-4.49 11.33-7.88 23.04-10.15 34.97-2.28 11.92-3.43 24.06-3.43 36.25 0 3.34.4 6.59 1.16 9.69 4.35 17.83 20.42 31.06 39.59 31.06z" fill="#f9da58"/><path d="m48.484 131.867h200.964l7.562-62.121-217.562-.004z" fill="#ffb952"/><path d="m78.49 131.87h-30.01l-9.03-62.12h30z" fill="#f4a94a"/><path d="m234.458 256.116h-167.93l-9.2-62.409h184.79z" fill="#ffb952"/><path d="m96.56 256.12h-30.03l-9.2-62.411h30.15z" fill="#f4a94a"/><path d="m411.42 473.556c-1.71 7.45-5.5 14.1-10.72 19.31-7.26 7.26-17.28 11.75-28.35 11.75h-292.15c-19.17 0-35.24-13.23-39.59-31.06z" fill="#548eb5"/><path d="m110.2 504.62h-30c-19.17 0-35.24-13.23-39.59-31.06h30c4.35 17.83 20.42 31.06 39.59 31.06z" fill="#497090"/><path d="m480.897 412.783c6.116-27.251-15.456-55.706-43.766-56.112-34.833-.52-67.829-14.062-92.908-38.133-2.988-2.867-7.735-2.771-10.604.218-2.868 2.988-2.771 7.736.218 10.604 27.826 26.707 64.432 41.732 103.076 42.309 16.807.242 30.897 15.457 30.12 32.147h-152.503c-49.719-25.44-79.67-80.372-73.957-136.06 2.688-22.183 5.375-44.367 8.063-66.55h39.48c-4.974 34.837 4.603 72.553 23.754 101.719 3.166 3.618 6.628 4.335 10.386 2.153 3.463-2.273 4.427-6.924 2.153-10.386-17.464-26.598-24.969-57.432-21.706-89.178l23.872-197.113c.039-5.034-2.443-7.835-7.445-8.401h-217.56c-5.089.598-7.563 3.458-7.422 8.58l7.811 53.659h-62.509c-5.089.597-7.563 3.457-7.422 8.579 10.973 75.446 34.121 210.742 31.172 231.029-.596 4.097 3.361 7.493 7.5 7.493h.007c4.142-.004 7.497-3.364 7.493-7.507-.012-12.758-1.109-25.594-2.974-38.217h150.739c-5.199 42.869 8.641 86.962 37.329 119.235 28.12 31.633 69.128 50.433 111.497 51.057 16.954.246 30.918 14.883 30.122 32.147h-281.174c-1.287-44.135-23.495-74.279-59.695-81.406 5.614-15.931 9.615-32.406 11.878-49.114.556-4.105-2.321-7.883-6.426-8.439-4.103-.549-7.908 2.319-8.438 6.426-5.302 41.024-19.546 59.322-27.048 93.327-15.5 70.26 19.167 85.21 46 85.21l292.34.05c31.112 0 55.201-32.617 45.201-62.229h16.919c21.2 0 42.226-16.038 46.427-37.097zm-423.741-273.416h183.864l-5.675 46.84h-171.377zm240.266-15h-39.476l5.723-47.239h39.474zm-46.968 61.84 5.675-46.84h39.477l-5.673 46.84zm-74.764-108.968c4.142 0 7.5-3.357 7.5-7.5s-3.358-7.5-7.5-7.5h-58.573l-6.876-47.239h200.426l-5.708 47.128-96.58.111c-4.142 0-7.5 3.357-7.5 7.5s3.358 7.5 7.5 7.5h40.167l-5.71 47.128h-187.862l-6.854-47.128zm-102.645 171.377-6.895-47.409h167.377l-5.744 47.409zm35.7 217.44h-61.715c-1.437-21.982 3.991-46.594 11.629-67.13 30.583 4.879 48.874 29.405 50.086 67.13zm263.605 31.053h-292.15c-12.047 0-22.617-6.438-28.451-16.054h348.699c-5.575 9.43-17.158 16.054-28.098 16.054zm62.12-62.229h-25.472c-9.905-11.54-22.645-15.484-37.344-16.063h90.918c-5.571 9.434-17.161 16.063-28.102 16.063z"/></g></svg>