<svg id="Capa_1" enable-background="new 0 0 511.91 511.91" height="512" viewBox="0 0 511.91 511.91" width="512" xmlns="http://www.w3.org/2000/svg"><g><path d="m424.185 174.92c-30.14-62.49-94.09-105.6-168.1-105.6-103 0-186.5 83.5-186.5 186.51 0 103 83.5 186.5 186.5 186.5 73.9 0 137.77-42.99 167.96-105.32 11.89-24.54 18.55-52.08 18.55-81.18 0-28.99-6.62-56.44-18.41-80.91zm-168.18 205.33c-68.65 0-124.3-55.65-124.3-124.3 0-68.64 55.65-124.29 124.3-124.29 52.41 0 97.25 32.45 115.52 78.35 5.66 14.21 8.77 29.71 8.77 45.94 0 16.26-3.12 31.8-8.8 46.03-18.29 45.86-63.11 78.27-115.49 78.27z" fill="#f07281"/><path d="m111.465 321.46c-7.68-20.41-11.88-42.53-11.88-65.63 0-22.99 4.16-45.01 11.77-65.35 13.9-37.16 39.32-68.7 71.91-90.28 25.55-16.91 55.5-27.71 87.77-30.28-4.93-.4-9.92-.6-14.95-.6-29.02 0-56.48 6.63-80.97 18.45-37.98 18.33-68.8 49.16-87.12 87.15-11.8 24.47-18.41 51.92-18.41 80.91 0 29.1 6.66 56.64 18.55 81.18 30.18 62.33 94.05 105.32 167.95 105.32 5.03 0 10.01-.2 14.94-.6-73.33-5.86-134.69-54.13-159.56-120.27zm290.06-111.45c-2.08-5.23-4.51-10.3-7.26-15.15-18.07-31.95-49.87-55.11-87.39-61.45-6.78-1.15-13.76-1.75-20.87-1.75-5.08 0-10.09.3-15 .9 10.87 1.31 21.31 4.02 31.13 7.95 31.6 12.63 56.8 37.88 69.39 69.5 5.66 14.21 8.77 29.71 8.77 45.94 0 16.26-3.12 31.8-8.8 46.03-16.52 41.42-54.68 71.87-100.5 77.37 4.92.6 9.93.9 15.01.9 46.4 0 86.87-25.43 108.21-63.12 2.76-4.85 5.19-9.91 7.28-15.15 5.68-14.23 8.8-29.77 8.8-46.03 0-16.23-3.11-31.73-8.77-45.94z" fill="#eb5569"/><path d="m271.486 100.689h-31.062v-77.656c0-8.578 6.954-15.531 15.531-15.531 8.578 0 15.531 6.954 15.531 15.531z" fill="#548eb5"/><path d="m271.486 411.219h-31.062v77.656c0 8.578 6.954 15.531 15.531 15.531 8.578 0 15.531-6.954 15.531-15.531z" fill="#fff"/><g fill="#548eb5"><path d="m100.69 240.423v31.062h-77.656c-8.578 0-15.531-6.953-15.531-15.531 0-8.578 6.954-15.531 15.531-15.531z"/><path d="m411.22 240.423v31.062h77.656c8.578 0 15.531-6.953 15.531-15.531 0-8.578-6.954-15.531-15.531-15.531z"/><path d="m271.486 411.219h-31.062v77.656c0 8.578 6.954 15.531 15.531 15.531 8.578 0 15.531-6.954 15.531-15.531z"/></g><path d="m442.595 255.83c0 29.1-6.66 56.64-18.55 81.18l-52.55-35.03c5.68-14.23 8.8-29.77 8.8-46.03 0-16.23-3.11-31.73-8.77-45.94l52.66-35.09c11.79 24.47 18.41 51.92 18.41 80.91z" fill="#f5fcff"/><path d="m410.295 255.95c0 16.26-3.12 31.8-8.8 46.03-2.09 5.24-4.52 10.3-7.28 15.15l-22.72-15.15c5.68-14.23 8.8-29.77 8.8-46.03 0-16.23-3.11-31.73-8.77-45.94l22.74-15.15c2.75 4.85 5.18 9.92 7.26 15.15 5.66 14.21 8.77 29.71 8.77 45.94z" fill="#d8ecfe"/><path d="m69.582 255.83c0 29.1 6.66 56.64 18.55 81.18l52.55-35.03c-5.68-14.23-8.8-29.77-8.8-46.03 0-16.23 3.11-31.73 8.77-45.94l-52.66-35.09c-11.79 24.47-18.41 51.92-18.41 80.91z" fill="#f5fcff"/><path d="m111.465 321.46-23.33 15.55c-11.89-24.54-18.55-52.08-18.55-81.18 0-28.99 6.61-56.44 18.41-80.91l23.36 15.56c-7.61 20.34-11.77 42.36-11.77 65.35 0 23.1 4.2 45.22 11.88 65.63z" fill="#d8ecfe"/><path d="m255.953 69.458c29.1 0 56.64 6.66 81.18 18.55l-35.03 52.55c-14.23-5.68-29.77-8.8-46.03-8.8-16.23 0-31.73 3.11-45.94 8.77l-35.09-52.66c24.47-11.79 51.92-18.41 80.91-18.41z" fill="#f5fcff"/><path d="m271.035 69.92c-32.27 2.57-62.22 13.37-87.77 30.28l-8.22-12.33c.02-.03.04-.07.07-.1 24.49-11.82 51.95-18.45 80.97-18.45 5.03 0 10.02.2 14.95.6z" fill="#c9c9c9"/><path d="m306.875 133.41-4.74 7.1c-9.82-3.93-20.26-6.64-31.13-7.95 4.91-.6 9.92-.9 15-.9 7.11 0 14.09.6 20.87 1.75z" fill="#c9c9c9"/><path d="m255.953 442.472c29.1 0 56.64-6.66 81.18-18.55l-35.03-52.55c-14.23 5.68-29.77 8.8-46.03 8.8-16.23 0-31.73-3.11-45.94-8.77l-35.09 52.66c24.47 11.79 51.92 18.41 80.91 18.41z" fill="#f5fcff"/><path d="m488.875 232.92h-9.046c-4.521-44.745-22.115-86.536-51.14-121.25-2.656-3.178-7.388-3.599-10.564-.943-3.178 2.657-3.601 7.387-.943 10.564 26.759 32.004 43.114 70.449 47.574 111.629h-15.997c-10.246-87.745-81.942-159.387-169.774-169.749v-16.018c43.293 4.681 83.321 22.389 116.197 51.503 3.618 2.712 7.147 2.497 10.588-.644 2.746-3.101 2.458-7.841-.644-10.587-35.637-31.558-79.123-50.603-126.142-55.347v-9.048c-1.317-14.035-8.994-21.712-23.029-23.03-12.699 0-23.03 10.331-23.03 23.03v9.065c-51.301 5.25-99.383 28.073-136.046 64.751s-59.465 84.769-64.692 136.073h-9.152c-14.036 1.318-21.712 8.995-23.03 23.03 0 12.704 10.331 23.04 23.03 23.04h9.166c5.25 51.281 28.059 99.346 64.714 136.001 36.656 36.654 84.725 59.464 136.01 64.713v9.166c0 12.704 10.331 23.04 23.03 23.04 14.041-1.321 21.718-9.001 23.03-23.04v-9.152c51.304-5.221 99.397-28.021 136.078-64.684 36.681-36.662 59.506-84.743 64.756-136.044h9.055c12.699 0 23.03-10.336 23.03-23.04.001-11.116-7.497-23.029-23.029-23.029zm-68.014 92.954-40.268-26.842c9.577-27.667 9.588-58.397.027-86.069l40.365-26.897c18.758 44.215 18.731 95.629-.124 139.808zm-164.776 108.956c-24.755 0-48.351-5.053-69.814-14.179l26.751-40.139c27.65 9.588 58.249 9.606 85.918.076l26.756 40.135c-21.873 9.228-45.544 14.107-69.611 14.107zm-158.263-95.449 39.412-26.27c13.021 26.945 34.921 48.644 61.655 61.56l-26.294 39.453c-31.79-16.834-57.927-42.961-74.773-74.743zm158.183 33.369c-58.478 0-108.267-43.657-115.813-101.55-.536-4.107-4.3-6.992-8.407-6.468-4.107.536-7.003 4.3-6.468 8.407 1.166 8.941 3.229 17.578 6.083 25.832l-40.109 26.734c-18.705-43.948-18.75-95.499-.121-139.478l40.207 26.795c-2.81 8.145-4.852 16.661-6.018 25.474-.543 4.106 2.346 7.876 6.452 8.419 4.105.541 7.876-2.346 8.419-6.452 7.639-57.753 57.411-101.304 115.774-101.304 61.628 0 119.367 53.372 116.79 116.79-2.679 65.957-61.589 116.801-116.789 116.801zm-83.596-275.125 26.428 39.649c-26.728 12.934-48.625 34.653-61.633 61.606l-39.523-26.339c16.809-31.842 42.934-58.03 74.728-74.916zm153.399-6.506-26.81 40.224c-27.704-9.557-58.348-9.538-86.032.083l-26.888-40.34c43.301-19.868 105.207-18.283 139.73.033zm88.685 81.247-39.701 26.455c-12.787-26.593-35.058-48.832-61.646-61.656l26.347-39.53c31.465 16.629 57.94 42.462 75 74.731zm-158.538-157.366c4.892.461 7.569 3.138 8.03 8.03v38.955c-5.354-.226-10.707-.22-16.061.019v-38.974c.001-4.427 3.603-8.03 8.031-8.03zm-23.03 32.179v16.029c-87.518 10.46-159.12 82.037-169.481 169.712h-16.174c10.629-97.152 88.505-175.064 185.655-185.741zm-217.92 208.771c.461-4.892 3.138-7.569 8.03-8.03h39.224c-.236 5.357-.233 10.714.01 16.07h-39.234c-4.428 0-8.03-3.606-8.03-8.04zm32.28 23.04h16.188c10.448 87.428 82.025 159.003 169.452 169.452v16.178c-97.096-10.673-174.966-88.538-185.64-185.63zm208.67 217.92c-4.428 0-8.03-3.606-8.03-8.04v-39.224c5.353.24 10.707.245 16.061.017v39.208c-.001 4.462-3.198 8.039-8.031 8.039zm23.03-32.275v-16.177c37.282-4.442 73.177-19.935 101.919-44.121 3.169-2.667 3.576-7.398.909-10.567-2.666-3.169-7.398-3.577-10.567-.909-9.863 8.3-20.551 15.45-31.84 21.384l-26.315-39.473c26.579-12.804 48.86-35.016 61.666-61.604l39.579 26.383c-5.859 11.052-12.871 21.491-20.918 31.091-2.661 3.175-2.244 7.905.93 10.566 3.176 2.659 7.905 2.245 10.566-.93 24.033-28.673 39.431-64.118 43.817-101.288h16.006c-10.678 97.153-88.595 175.026-185.752 185.645zm209.89-200.645h-38.965c.243-5.357.246-10.713.01-16.07h38.955c4.892.461 7.569 3.138 8.03 8.03 0 4.434-3.602 8.04-8.03 8.04z"/></g></svg>