<svg id="Capa_1" enable-background="new 0 0 512 512" height="512" viewBox="0 0 512 512" width="512" xmlns="http://www.w3.org/2000/svg"><g><path d="m504.498 193.875s-22.485 15.531-31.062 15.531-15.531-6.954-15.531-15.531 6.954-15.531 15.531-15.531 31.062 15.531 31.062 15.531z" fill="#fee97e"/><path d="m442.374 504.498h-31.062v-170.842c0-8.578 6.954-15.531 15.531-15.531 8.578 0 15.531 6.954 15.531 15.531z" fill="#548eb5"/><path d="m7.502 100.689h31.062v62.125h-31.062z" fill="#8cbdf9"/><path d="m380.249 100.689h31.062v62.125h-31.062z" fill="#8cbdf9"/><path d="m209.407 504.498c-94.354 0-170.843-76.489-170.843-170.842v-295.154c0-17.121 13.879-31 31-31h279.685c17.121 0 31 13.879 31 31v295.154c0 94.353-76.489 170.842-170.842 170.842z" fill="#548eb5"/><path d="m234.41 502.68c-8.16 1.2-16.51 1.82-25 1.82-94.36 0-170.85-76.49-170.85-170.84v-295.16c0-17.12 13.88-31 31-31h50c-17.12 0-31 13.88-31 31v295.16c0 46.21 18.35 88.13 48.16 118.88l.01.01c25.57 26.39 59.59 44.55 97.68 50.13z" fill="#497090"/><path d="m209.01 473.198c-77.133-.216-139.146-63.76-139.146-140.893v-278.503c0-8.284 6.716-15 15-15h249.085c8.284 0 15 6.716 15 15v279.854c0 77.076-62.814 139.758-139.939 139.542z" fill="#8cbdf9"/><path d="m136.72 452.54c-40.15-24.86-66.86-69.62-66.86-120.24v-278.5c0-8.28 6.72-15 15-15h3.7v294.86c0 46.21 18.35 88.13 48.16 118.88z" fill="#73a2da"/><path d="m100.689 100.689h217.436v124.249h-217.436z" fill="#f5fcff"/><path d="m100.69 100.69h20v124.25h-20z" fill="#d8ecfe"/><g><path d="m100.689 77.126c-4.142 0-7.5-3.358-7.5-7.5 0-4.142 3.358-7.5 7.5-7.5 4.142 0 7.5 3.358 7.5 7.5 0 4.143-3.358 7.5-7.5 7.5z"/><path d="m318.125 77.126c-4.142 0-7.5-3.358-7.5-7.5 0-4.142 3.358-7.5 7.5-7.5 4.142 0 7.5 3.358 7.5 7.5 0 4.143-3.358 7.5-7.5 7.5z"/><g><path d="m62.364 53.802v278.503c0 81.598 65.775 148.166 146.624 148.393.142 0 .281.001.423.001 39.141-.001 75.982-15.25 103.777-42.968 27.897-27.819 43.261-64.78 43.261-104.074v-279.855c0-12.406-10.094-22.5-22.5-22.5h-249.085c-12.406 0-22.5 10.094-22.5 22.5zm279.085 0v279.854c0 35.279-13.798 68.469-38.853 93.453-24.964 24.894-58.042 38.59-93.188 38.589-.124 0-.254-.001-.379-.001-72.601-.203-131.666-60.043-131.666-133.393v-278.502c0-4.136 3.364-7.5 7.5-7.5h249.085c4.137 0 7.501 3.364 7.501 7.5z"/><path d="m100.69 232.44h92.369c4.143 0 7.5-3.357 7.5-7.5s-3.357-7.5-7.5-7.5h-84.869v-109.25h202.43v109.25h-84.87c-4.143 0-7.5 3.357-7.5 7.5s3.357 7.5 7.5 7.5h92.37c4.143 0 7.5-3.357 7.5-7.5v-124.25c0-4.143-3.357-7.5-7.5-7.5h-217.43c-4.143 0-7.5 3.357-7.5 7.5v124.25c0 4.143 3.358 7.5 7.5 7.5z"/><path d="m162.813 77.127h93.187c4.143 0 7.5-3.357 7.5-7.5s-3.357-7.5-7.5-7.5h-93.187c-4.143 0-7.5 3.357-7.5 7.5s3.358 7.5 7.5 7.5z"/><path d="m411.312 170.313c4.143 0 7.5-3.357 7.5-7.5v-62.125c0-4.143-3.357-7.5-7.5-7.5h-23.562v-54.688c0-21.229-17.271-38.5-38.5-38.5h-42.99c-4.143 0-7.5 3.357-7.5 7.5s3.357 7.5 7.5 7.5h42.99c12.958 0 23.5 10.542 23.5 23.5v295.16c0 90.066-73.274 163.34-163.34 163.34-90.072 0-163.35-73.273-163.35-163.34v-295.16c0-12.958 10.542-23.5 23.5-23.5h204.01c4.143 0 7.5-3.357 7.5-7.5s-3.357-7.5-7.5-7.5h-204.01c-21.229 0-38.5 17.271-38.5 38.5v54.688h-23.558c-4.143 0-7.5 3.357-7.5 7.5v62.125c0 4.143 3.357 7.5 7.5 7.5h23.558v163.347c0 98.337 80.007 178.34 178.35 178.34 98.337 0 178.34-80.003 178.34-178.34v-163.347zm-396.31-15v-47.125h16.058v47.125zm388.81-47.125v47.125h-16.062v-47.125z"/><path d="m508.761 187.705c-5.726-3.955-25.195-16.86-35.325-16.86-10.074 0-18.652 6.504-21.771 15.531h-9.182c-12.76 0-23.141 10.381-23.141 23.141v102.363c-9.028 3.119-15.533 11.701-15.533 21.78v170.84c0 4.143 3.357 7.5 7.5 7.5h31.061c4.143 0 7.5-3.357 7.5-7.5v-76.94c0-4.143-3.357-7.5-7.5-7.5s-7.5 3.357-7.5 7.5v69.44h-16.06v-163.34c0-4.421 3.583-8.018 7.993-8.038 4.45 0 8.067 3.563 8.067 8.038v61.22c0 4.143 3.357 7.5 7.5 7.5s7.5-3.357 7.5-7.5v-61.22c-.828-10.94-6.004-18.196-15.527-21.768v-102.375c0-4.488 3.652-8.141 8.141-8.141h9.182c3.119 9.027 11.697 15.53 21.771 15.53 10.129 0 29.599-12.904 35.325-16.859 4.315-4.114 4.315-8.228-.001-12.342zm-35.325 14.201c-4.429 0-8.031-3.603-8.031-8.03 0-4.429 3.603-8.031 8.028-8.031 2.413.039 9.43 3.398 17.192 8.032-7.758 4.633-14.773 7.99-17.189 8.029z"/></g></g></g></svg>