<svg id="Capa_1" enable-background="new 0 0 511.998 511.998" height="512" viewBox="0 0 511.998 511.998" width="512" xmlns="http://www.w3.org/2000/svg"><g><path d="m411.309 100.688v124.22c0 50.81-24.4 95.93-62.12 124.27-25.96 19.51-58.25 31.07-93.22 31.07-35.09 0-67.46-11.64-93.47-31.26-37.58-28.35-61.87-73.38-61.87-124.08v-124.22z" fill="#c9ebfa"/><path d="m270.989 379.528c-.62.06-1.23.12-1.85.17-.56.05-1.11.09-1.67.13-1.45.11-2.9.19-4.36.26-.38.02-.75.03-1.13.05-.74.02-1.48.05-2.22.06-.42.02-.85.02-1.27.03-.84.01-1.68.02-2.52.02-35.09 0-67.46-11.64-93.47-31.26-37.58-28.35-61.87-73.38-61.87-124.08v-124.22h30v124.22c0 35.45 11.88 68.13 31.87 94.27 8.59 11.25 18.7 21.29 30 29.81 22.27 16.8 49.19 27.75 78.49 30.54z" fill="#a0ddf3"/><circle cx="147.125" cy="147.124" fill="#f07281" r="15.375"/><path d="m349.189 256.158v93.02c-25.96 19.51-58.25 31.07-93.22 31.07-35.09 0-67.46-11.64-93.47-31.26v-92.83c0-51.56 41.79-93.35 93.34-93.35 25.78 0 49.12 10.45 66.01 27.34s27.34 40.23 27.34 66.01z" fill="#f5fcff"/><path d="m270.989 379.528c-.62.06-1.23.12-1.85.17-.56.05-1.11.09-1.67.13-1.45.11-2.9.19-4.36.26-.38.02-.75.03-1.13.05-.74.02-1.48.05-2.22.06-.42.02-.85.02-1.27.03-.84.01-1.68.02-2.52.02-35.09 0-67.46-11.64-93.47-31.26v-29.81c8.59 11.25 18.7 21.29 30 29.81 22.27 16.8 49.19 27.75 78.49 30.54z" fill="#d8ecfe"/><circle cx="255.999" cy="255.998" fill="#c9ebfa" r="62.125"/><path d="m265.999 317.308c-3.25.54-6.59.81-10 .81-34.31 0-62.12-27.81-62.12-62.12s27.81-62.12 62.12-62.12c3.41 0 6.75.27 10 .81-29.56 4.77-52.12 30.4-52.12 61.31s22.56 56.54 52.12 61.31z" fill="#a0ddf3"/><path d="m442.369 7.498v62.19c0 17.12-13.88 31-31 31h-310.74c-17.12 0-31-13.88-31-31v-62.19z" fill="#c9ebfa"/><path d="m130.629 100.688h-30c-17.12 0-31-13.88-31-31v-62.19h30v62.19c0 17.12 13.88 31 31 31z" fill="#a0ddf3"/><path d="m442.369 69.628v.06c0 17.12-13.88 31-31 31h-310.74c-17.12 0-31-13.88-31-31v-.06z" fill="#f5fcff"/><path d="m130.629 100.688h-30c-17.12 0-31-13.88-31-31v-.06h30v.06c0 17.12 13.88 31 31 31z" fill="#d8ecfe"/><circle cx="255.999" cy="255.998" fill="#f07281" r="31.062"/><path d="m265.999 285.418c-3.14 1.06-6.5 1.64-10 1.64-17.16 0-31.06-13.9-31.06-31.06s13.9-31.06 31.06-31.06c3.5 0 6.86.58 10 1.64-12.25 4.17-21.06 15.76-21.06 29.42s8.81 25.25 21.06 29.42z" fill="#eb5569"/><g><path d="m350.211 457.911c-25.205 25.206-58.662 39.087-94.208 39.087s-69.003-13.881-94.209-39.087c-2.929-2.928-7.678-2.928-10.606 0-2.929 2.93-2.929 7.678 0 10.607 28.039 28.038 65.263 43.479 104.815 43.479 39.553 0 76.777-15.441 104.815-43.479 2.929-2.93 2.929-7.678 0-10.607-2.929-2.928-7.678-2.928-10.607 0z"/><path d="m179.616 429.482c-2.928 2.93-2.927 7.679.003 10.606 20.441 20.431 47.568 31.682 76.383 31.682s55.942-11.251 76.383-31.682c2.93-2.928 2.931-7.677.003-10.606-2.928-2.931-7.677-2.932-10.606-.003-17.608 17.599-40.969 27.291-65.78 27.291s-48.171-9.692-65.78-27.291c-2.93-2.928-7.679-2.926-10.606.003z"/><path d="m303.949 411.645c2.928-2.931 2.925-7.679-.005-10.606s-7.679-2.926-10.606.005c-9.987 9.996-23.246 15.501-37.335 15.501s-27.348-5.505-37.335-15.501c-2.928-2.931-7.677-2.932-10.606-.005-2.93 2.928-2.933 7.677-.005 10.606 12.821 12.832 29.849 19.899 47.947 19.899 18.097 0 35.124-7.067 47.945-19.899z"/><path d="m442.373 0h-372.748c-4.142 0-7.5 3.357-7.5 7.5v62.187c0 18.662 13.35 34.261 31 37.761v117.458c0 88.728 74.029 162.842 162.843 162.842 88.72 0 162.842-74.082 162.842-162.842v-117.447c17.681-3.476 31.063-19.088 31.063-37.772v-62.187c0-4.143-3.358-7.5-7.5-7.5zm-38.563 224.905c0 42.637-18.15 81.109-47.121 108.117v-76.864c0-26.94-10.49-52.267-29.537-71.313-14.72-14.72-33.275-24.399-53.662-27.992-4.077-.724-7.969 2.006-8.688 6.084-.719 4.079 2.005 7.969 6.084 8.688 17.338 3.057 33.127 11.296 45.659 23.828 16.214 16.213 25.143 37.772 25.143 60.706v89.135c-24.195 17.277-53.791 27.454-85.721 27.454-32.04 0-61.728-10.249-85.969-27.635v-88.954c0-41.745 29.777-77.297 70.803-84.534 4.08-.72 6.803-4.609 6.083-8.688-.719-4.079-4.612-6.809-8.688-6.083-48.208 8.504-83.197 50.269-83.197 99.306v76.633c-28.827-26.996-46.874-65.37-46.874-107.886v-116.72h295.685zm7.563-131.718h-.063-310.685c-10.357 0-19.165-6.738-22.285-16.059h254.539c4.142 0 7.5-3.357 7.5-7.5s-3.358-7.5-7.5-7.5h-255.754v-47.128h357.747v47.128h-69.304c-4.142 0-7.5 3.357-7.5 7.5s3.358 7.5 7.5 7.5h68.089c-3.12 9.32-11.927 16.059-22.284 16.059z"/><path d="m147.125 169.998c12.613 0 22.875-10.262 22.875-22.874 0-12.613-10.261-22.875-22.875-22.875s-22.875 10.262-22.875 22.875c0 12.612 10.261 22.874 22.875 22.874zm0-30.749c4.342 0 7.875 3.532 7.875 7.875 0 4.342-3.533 7.874-7.875 7.874s-7.875-3.532-7.875-7.874c0-4.343 3.533-7.875 7.875-7.875z"/><path d="m255.999 294.561c21.263 0 38.562-17.299 38.562-38.563s-17.299-38.563-38.562-38.563-38.562 17.299-38.562 38.563 17.299 38.563 38.562 38.563zm0-62.125c12.992 0 23.562 10.57 23.562 23.563s-10.57 23.563-23.562 23.563-23.562-10.57-23.562-23.563 10.57-23.563 23.562-23.563z"/><path d="m188.812 237.691c-1.086 3.997 1.273 8.118 5.27 9.204 3.999 1.083 8.119-1.272 9.205-5.271 6.441-23.696 28.118-40.247 52.713-40.247 30.118 0 54.62 24.503 54.62 54.62s-24.502 54.62-54.62 54.62c-24.595 0-46.271-16.551-52.713-40.247-1.086-3.996-5.204-6.353-9.205-5.271-3.997 1.086-6.356 5.207-5.27 9.204 8.212 30.213 35.84 51.313 67.188 51.313 38.389 0 69.62-31.231 69.62-69.62s-31.231-69.62-69.62-69.62c-31.348.002-58.977 21.103-67.188 51.315z"/></g></g></svg>