<svg id="Capa_1" enable-background="new 0 0 512 512" height="512" viewBox="0 0 512 512" width="512" xmlns="http://www.w3.org/2000/svg"><g><path d="m131.751 224.938v-93.187c0-68.621 55.628-124.249 124.249-124.249 68.621 0 124.249 55.628 124.249 124.249v93.187h-31.326v-93.319c0-51.393-41.662-93.055-93.055-93.055-51.393 0-93.055 41.662-93.055 93.055v93.319z" fill="#c9ebfa"/><path d="m380.311 504.498h-248.622c-17.121 0-31-13.879-31-31v-233.56c0-8.284 6.716-15 15-15h68.916c5.682 0 10.876 3.21 13.416 8.292l11.386 22.77h93.187l11.385-22.77c2.541-5.082 7.735-8.292 13.416-8.292h68.916c8.284 0 15 6.716 15 15v233.56c0 17.121-13.879 31-31 31z" fill="#ffb952"/><path d="m181.69 504.5h-50c-17.12 0-31-13.88-31-31v-233.56c0-8.29 6.71-15 15-15h50c-8.29 0-15 6.71-15 15v233.56c0 17.12 13.88 31 31 31z" fill="#f4a94a"/><path d="m131.989 473.198v-216.961h42.542l15.531 31.063h131.876l15.531-31.063h42.542v216.961z" fill="#fee97e"/><path d="m131.99 256.24h18.7v216.96h-18.7z" fill="#f9da58"/><path d="m287.062 349.187c0-17.155-13.907-31.062-31.062-31.062s-31.062 13.907-31.062 31.062c0 11.495 6.249 21.525 15.531 26.896v50.759c0 8.577 6.953 15.531 15.531 15.531s15.531-6.954 15.531-15.531v-50.759c9.282-5.371 15.531-15.401 15.531-26.896z" fill="#548eb5"/><g><path d="m162.813 325.625c-4.142 0-7.5-3.358-7.5-7.5 0-4.142 3.358-7.5 7.5-7.5 4.142 0 7.5 3.358 7.5 7.5 0 4.142-3.358 7.5-7.5 7.5z"/><path d="m162.813 449.874c-4.142 0-7.5-3.358-7.5-7.5 0-4.142 3.358-7.5 7.5-7.5 4.142 0 7.5 3.358 7.5 7.5 0 4.142-3.358 7.5-7.5 7.5z"/><path d="m348.923 325.625c-4.142 0-7.5-3.358-7.5-7.5 0-4.142 3.358-7.5 7.5-7.5 4.142 0 7.5 3.358 7.5 7.5 0 4.142-3.358 7.5-7.5 7.5z"/><path d="m348.923 449.874c-4.142 0-7.5-3.358-7.5-7.5 0-4.142 3.358-7.5 7.5-7.5 4.142 0 7.5 3.358 7.5 7.5 0 4.142-3.358 7.5-7.5 7.5z"/><g><path d="m396.31 217.44h-8.56v-36.86c0-4.143-3.358-7.5-7.5-7.5s-7.5 3.357-7.5 7.5v36.86h-16.33v-85.82c0-55.449-45.106-100.561-100.55-100.561-54.816 0-100.56 45.745-100.56 100.561v85.82h-16.06v-85.69c0-64.376 52.374-116.75 116.75-116.75 63.432 0 116.75 53.303 116.75 116.75v16.15c0 4.143 3.358 7.5 7.5 7.5s7.5-3.357 7.5-7.5v-16.15c0-71.582-60.151-131.75-131.75-131.75-72.647 0-131.75 59.103-131.75 131.75v85.69h-8.56c-12.407 0-22.5 10.094-22.5 22.5v233.56c0 21.229 17.271 38.5 38.5 38.5h248.62c21.229 0 38.5-17.271 38.5-38.5v-233.56c0-12.406-10.093-22.5-22.5-22.5zm7.5 256.06c0 12.958-10.542 23.5-23.5 23.5h-248.62c-12.958 0-23.5-10.542-23.5-23.5v-233.56c0-4.136 3.365-7.5 7.5-7.5h68.91c2.862 0 5.434 1.588 6.712 4.146l11.39 22.77c1.271 2.54 3.867 4.145 6.708 4.145h30.25c4.142 0 7.5-3.357 7.5-7.5s-3.358-7.5-7.5-7.5h-25.616l-9.316-18.624c-3.835-7.67-11.548-12.436-20.128-12.436h-14.29v-85.82c0-46.245 39.211-85.561 85.56-85.561 47.172 0 85.55 38.382 85.55 85.561v85.82h-14.02c-8.58 0-16.293 4.766-20.127 12.435l-9.317 18.625h-25.616c-4.142 0-7.5 3.357-7.5 7.5s3.358 7.5 7.5 7.5h30.25c2.84 0 5.437-1.604 6.708-4.145l11.391-22.771c1.278-2.557 3.85-4.145 6.712-4.145h68.91c4.135 0 7.5 3.364 7.5 7.5v233.56z"/><path d="m380.01 248.74h-42.54c-2.841 0-5.438 1.604-6.708 4.146l-13.457 26.914h-122.61l-13.458-26.914c-1.271-2.541-3.867-4.146-6.708-4.146h-42.54c-4.142 0-7.5 3.357-7.5 7.5v107.67c0 4.143 3.358 7.5 7.5 7.5s7.5-3.357 7.5-7.5v-100.17h30.404l13.458 26.914c1.271 2.54 3.867 4.146 6.708 4.146h131.88c2.841 0 5.438-1.605 6.708-4.146l13.458-26.914h30.404v201.96h-233.019v-69.11c0-4.143-3.358-7.5-7.5-7.5s-7.5 3.357-7.5 7.5v76.61c0 4.143 3.358 7.5 7.5 7.5h248.02c4.142 0 7.5-3.357 7.5-7.5v-216.96c0-4.142-3.358-7.5-7.5-7.5z"/><path d="m256 449.873c12.7 0 23.031-10.331 23.031-23.03v-46.737c9.676-7.227 15.531-18.708 15.531-30.919 0-21.264-17.299-38.563-38.563-38.563s-38.563 17.299-38.563 38.563c0 12.211 5.855 23.692 15.531 30.919v46.737c.002 12.699 10.333 23.03 23.033 23.03zm-23.563-100.686c0-12.992 10.57-23.563 23.563-23.563s23.563 10.57 23.563 23.563c0 8.379-4.517 16.197-11.788 20.405-2.317 1.341-3.744 3.814-3.744 6.491v50.76c0 4.428-3.603 8.03-8.031 8.03s-8.031-3.603-8.031-8.03v-50.76c0-2.677-1.427-5.15-3.744-6.491-7.271-4.208-11.788-12.027-11.788-20.405z"/></g></g></g></svg>