<svg id="Capa_1" enable-background="new 0 0 511.997 511.997" height="512" viewBox="0 0 511.997 511.997" width="512" xmlns="http://www.w3.org/2000/svg"><g><path d="m255.999 410.579c-74.2 0-140.076-47.48-163.54-117.873l-2.125-6.376-20.709-124.249 60.851-10.142c21.246-3.541 41.33-12.135 58.561-25.058l11.049-8.287c16.13-12.098 35.749-18.637 55.912-18.637 20.163 0 39.782 6.54 55.912 18.637l11.049 8.287c17.231 12.923 37.315 21.517 58.561 25.058l60.851 10.142-20.707 124.249-2.125 6.376c-23.464 70.393-89.34 117.873-163.54 117.873z" fill="#548eb5"/><path d="m182.979 358.958c26.05 26.52 60.35 44.3 98.02 49.8-8.19 1.2-16.54 1.82-25 1.82-74.2 0-140.08-47.48-163.54-117.87l-2.13-6.38-20.7-124.25 48.651-8.106 5.139 30.876 16.91 101.48 2.13 6.38c8.5 25.47 22.54 47.939 40.52 66.25z" fill="#497090"/><path d="m255.999 379.279c-60.823 0-114.612-38.769-133.846-96.472l-1.349-4.046-15.158-90.952 29.977-4.996c26.079-4.347 51.043-15.029 72.195-30.893l11.05-8.287c10.642-7.981 23.83-12.378 37.132-12.378 13.303 0 26.489 4.396 37.132 12.378l11.048 8.286c21.154 15.865 46.119 26.547 72.197 30.894l29.977 4.996-15.159 90.953-1.349 4.047c-19.235 57.702-73.024 96.47-133.847 96.47z" fill="#8cbdf9"/><path d="m182.979 358.958c-28.01-16.93-49.95-43.51-60.83-76.15l-1.35-4.05-15.15-90.95 17.77-2.96 16.91 101.48 2.13 6.38c8.5 25.47 22.54 47.939 40.52 66.25z" fill="#73a2da"/><g><path d="m272.329 385.828c52.741 0 117.411-53.275 126.259-105.827l15.158-90.961c.328-4.58-1.727-7.457-6.166-8.631-35.354-5.01-69.662-12.554-98.904-34.493-33.424-27.751-71.935-27.749-105.358.003-29.24 21.939-63.549 29.479-98.901 34.49-4.439 1.174-6.494 4.051-6.166 8.631l15.15 90.95c9.413 56.475 72.332 99.658 125.398 105.787 4.12.482 7.836-2.476 8.311-6.59s-2.476-7.836-6.59-8.311c-52.875-6.106-106.187-55.609-112.419-93.933l-13.821-82.971c35.294-5.113 68.923-14.209 98.037-36.054 25.992-24.214 61.368-24.217 87.361-.003 29.115 21.845 62.745 30.945 98.04 36.057l-13.83 82.985c-16.56 49.835-59.576 87.816-112.409 93.918-4.115.475-7.065 4.196-6.59 8.311.441 3.825 3.683 6.642 7.44 6.642z"/><path d="m473.497 185.644h-27.45l3.721-22.334c.681-4.086-2.08-7.949-6.166-8.631l-60.85-10.139c-48.086-6.272-62.753-42.939-109.104-50.518-4.09-.669-7.971 1.997-8.693 6.076s1.998 7.971 6.076 8.693c40.607 7.193 54.969 42.809 109.256 50.544l53.452 8.906-19.37 116.27c-21.792 69.149-84.946 118.564-158.369 118.564-72.669 0-137.499-49.341-158.369-118.564l-19.371-116.27c21.402-3.566 43.564-5.603 64.421-11.654 58.553-16.987 62.645-41.457 98.292-47.797 4.078-.725 6.796-4.619 6.071-8.697-.726-4.077-4.59-6.641-8.698-6.07-42.68 5.933-58.68 41.911-109.1 50.516l-60.85 10.14c-4.085.682-6.846 4.545-6.165 8.631l3.721 22.334h-27.452c-21.229 0-38.5 17.271-38.5 38.5v39.68c0 16.718 10.681 31.43 26.578 36.608l71.073 23.146c30.961 57.55 91.298 94.5 158.348 94.5 67.051 0 127.389-36.951 158.349-94.5l71.072-23.146c15.896-5.178 26.577-19.89 26.577-36.607v-39.68c0-21.23-17.271-38.501-38.5-38.501zm-442.274 100.525c-9.703-3.161-16.223-12.142-16.223-22.346v-39.68c0-12.958 10.542-23.5 23.5-23.5h29.951l14.48 86.916c.899 5.41 4.213 12.85 6.034 17.413zm465.774-22.346c0 10.205-6.52 19.185-16.223 22.345l-57.741 18.804c1.833-4.595 5.119-11.988 6.034-17.413l14.48-86.916h29.949c12.958 0 23.5 10.542 23.5 23.5v39.68z"/><path d="m155.313 255.268c0 4.143 3.358 7.5 7.5 7.5h186.373c4.143 0 7.5-3.357 7.5-7.5s-3.357-7.5-7.5-7.5h-186.373c-4.143 0-7.5 3.357-7.5 7.5z"/><path d="m346.672 231.273c3.822 1.276 7.016-.239 9.582-4.547 1.391-3.901-.646-8.192-4.547-9.582-25.471-9.077-52.053-14.338-79.007-15.637-4.118-.176-7.653 2.993-7.853 7.13-.199 4.138 2.993 7.653 7.13 7.853 25.482 1.227 50.613 6.2 74.695 14.783z"/><path d="m239.153 201.856c-25.443 1.721-51.883 6.833-78.585 15.195-3.953 1.238-6.154 5.446-4.916 9.398 2.454 4.405 5.586 6.044 9.398 4.916 25.577-8.01 50.849-12.903 75.115-14.545 4.133-.279 7.256-3.855 6.977-7.988s-3.852-7.254-7.989-6.976z"/><path d="m160.571 293.487c33.657 10.54 66.53 15.809 98.42 15.809 31.975 0 62.961-5.302 92.711-15.9 3.902-1.391 5.938-5.681 4.549-9.582-1.391-3.903-5.688-5.938-9.582-4.549-56.286 20.054-117.389 20.021-181.615-.092-3.954-1.237-8.16.963-9.398 4.916-1.239 3.952.962 8.16 4.915 9.398z"/></g></g></svg>