<svg id="Capa_1" enable-background="new 0 0 512.242 512.242" height="512" viewBox="0 0 512.242 512.242" width="512" xmlns="http://www.w3.org/2000/svg"><g><path d="m489.212 144.619v282.34h-144.65v-65.37c-.8-13.45-27.09-36.16-37.68-62.91-12.5-31.54-20.65-58.12-36.7-91.7-4.65-9.73 6.04-21.29 23.48-13.24 20.89 9.65 25.98 29.19 35.92 48.1 3.97 7.56 14.98 3.53 14.98-3.77v-129.61c0-9.99 8.1-18.08 18.08-18.08 5 0 9.52 2.02 12.79 5.29s5.29 7.79 5.29 12.79v-36.16c0-9.99 8.1-18.08 18.09-18.08 4.99 0 9.51 2.02 12.78 5.29s5.3 7.79 5.3 12.79v18.08c0-9.99 8.09-18.08 18.08-18.08 4.99 0 9.51 2.02 12.78 5.29s5.3 7.79 5.3 12.79v54.24c0-9.99 8.09-18.08 18.08-18.08 3.61 0 6.97 1.05 9.79 2.88 1.08.69 2.09 1.5 3 2.41 3.27 3.27 5.29 7.79 5.29 12.79z" fill="#ade194"/><path d="m23.032 426.962h144.648v-65.369c.799-13.458 27.092-36.162 37.685-62.911 12.493-31.546 20.644-58.124 36.699-91.702 4.651-9.728-6.045-21.289-23.481-13.238-20.89 9.646-25.562 29.419-35.921 48.1-4.195 7.565-13.977 3.341-14.981-3.768v-129.615c0-9.986-8.095-18.081-18.081-18.081-9.986 0-18.081 8.095-18.081 18.081v-36.163c0-9.986-8.095-18.081-18.081-18.081-9.986 0-18.081 8.095-18.081 18.081v18.081c0-9.986-8.095-18.081-18.081-18.081-9.986 0-18.081 8.095-18.081 18.081v54.243c0-9.986-8.095-18.081-18.081-18.081-9.986 0-18.081 8.095-18.081 18.081v282.342z" fill="#ade194"/><path d="m489.213 458.024h-144.649c-8.578 0-15.531-6.954-15.531-15.531 0-8.578 6.954-15.531 15.531-15.531h144.648c8.578 0 15.531 6.954 15.531 15.531.001 8.577-6.953 15.531-15.53 15.531z" fill="#fee97e"/><path d="m374.562 458.019h-30c-8.58 0-15.53-6.95-15.53-15.53 0-4.29 1.74-8.17 4.55-10.98s6.69-4.55 10.98-4.55h30c-4.29 0-8.17 1.74-10.98 4.55s-4.55 6.69-4.55 10.98c0 8.58 6.95 15.53 15.53 15.53z" fill="#f9da58"/><g fill="#7dce6f"><path d="m434.923 72.299c3.7 0 7.13 1.11 10 3.01-1 .67-1.93 1.43-2.78 2.28-3.27 3.27-5.3 7.79-5.3 12.79v144.646c0 12.844-20 12.197-20 0v-144.646c0-5 2.03-9.52 5.3-12.79s7.79-5.29 12.78-5.29z"/><path d="m480.922 129.419c-3.83 1.99-7.86 9.06-7.87 14.96v90.65c0 12.84-20 12.19-20 0v-90.41c0-9.99 8.09-18.08 18.08-18.08 3.61 0 6.97 1.05 9.79 2.88z"/><path d="m398.716 54.219c3.7 0 7.13 1.11 10 3.01-1 .67-1.93 1.43-2.78 2.28-3.27 3.27-5.3 7.79-5.3 12.79v162.726c0 12.844-20 12.197-20 0v-162.726c0-5 2.03-9.52 5.3-12.79s7.79-5.29 12.78-5.29z"/><path d="m326.882 298.679c10.59 26.75 36.88 49.46 37.68 62.91v65.37h-20v-65.37c-.8-13.45-27.09-36.16-37.68-62.91-12.5-31.54-20.65-58.12-36.7-91.7-4.65-9.72 6.02-21.27 23.43-13.26-4.25 3.09-5.75 8.41-3.43 13.26 16.05 33.58 24.2 60.16 36.7 91.7z"/><path d="m362.642 90.379c3.7 0 7.14 1.11 10.01 3.01-4.87 3.24-8.09 8.78-8.09 15.07v129.61c0 8.675-10.603 12.608-14.98 3.77-1.664-3.361-3.44-6.6-5.02-9.89v-123.49c0-9.99 8.1-18.08 18.08-18.08z"/></g><path d="m23.032 458.024h144.648c8.578 0 15.531-6.954 15.531-15.531 0-8.578-6.954-15.531-15.531-15.531h-144.648c-8.578 0-15.531 6.954-15.531 15.531-.001 8.577 6.953 15.531 15.531 15.531z" fill="#fee97e"/><path d="m42.052 453.469c2.81 2.81 6.69 4.55 10.98 4.55h-30c-4.29 0-8.17-1.74-10.98-4.55s-4.55-6.69-4.55-10.98c0-8.57 6.95-15.53 15.53-15.53h30c-8.58 0-15.53 6.96-15.53 15.53 0 4.29 1.74 8.17 4.55 10.98z" fill="#f9da58"/><g fill="#7dce6f"><path d="m77.272 72.299c3.7 0 7.13 1.11 10 3.01-1 .67-1.93 1.43-2.78 2.28-3.27 3.27-5.3 7.79-5.3 12.79v144.646c0 12.844-20 12.197-20 0v-144.646c0-5 2.03-9.52 5.3-12.79s7.79-5.29 12.78-5.29z"/><path d="m149.649 90.379c3.7 0 7.13 1.11 10 3.01-1 .67-1.93 1.43-2.78 2.28-3.27 3.27-5.3 7.79-5.3 12.79v126.566c0 12.844-20 12.197-20 0v-126.566c0-5 2.03-9.52 5.3-12.79s7.79-5.29 12.78-5.29z"/><path d="m113.432 54.219c3.7 0 7.13 1.11 10 3.01-1 .67-1.93 1.43-2.78 2.28-3.27 3.27-5.3 7.79-5.3 12.79v162.726c0 12.844-20 12.197-20 0v-162.726c0-5 2.03-9.52 5.3-12.79s7.79-5.29 12.78-5.29z"/><path d="m41.112 126.539c3.7 0 7.13 1.11 10 3.01-1 .67-1.94 1.43-2.79 2.28-3.27 3.27-5.29 7.79-5.29 12.79v282.34h-20v-282.34c0-5 2.02-9.52 5.29-12.79 3.28-3.27 7.8-5.29 12.79-5.29z"/><path d="m238.632 193.719c-.02 0-.03.01-.05.02-20.89 9.65-25.45 29.485-35.92 48.1-4.728 8.405-14.603 1.218-14.98-3.77v-6.12c7.42-15.45 13.68-30.25 30.9-38.21 8.74-4.03 15.78-3.14 20.05-.02z"/></g><g><path d="m496.712 420.719v-89.22c0-4.143-3.357-7.5-7.5-7.5s-7.5 3.357-7.5 7.5v87.96h-129.649v-57.87c0-.148-.005-.297-.014-.445-.532-8.942-7.602-18.404-16.553-30.384-7.824-10.473-16.692-22.342-21.642-34.845-3.985-10.055-25.865-69.07-36.905-92.169-.788-1.648-.131-2.828.56-3.527 1.773-1.798 6.246-2.792 13.008.329 13.775 6.363 19.443 18.231 26.006 31.973 2.011 4.213 4.091 8.568 6.485 12.928 7.323 13.338 29.055 7.635 29.055-7.379v-129.61c0-5.834 4.746-10.58 10.579-10.58 5.416 0 10.504 5.284 10.585 10.677v126.47c0 4.143 3.357 7.5 7.5 7.5s7.5-3.357 7.5-7.5l-.005-162.727c0-5.834 4.751-10.58 10.591-10.58 6.447.604 9.973 4.131 10.579 10.58l-.003 162.727c0 4.143 3.357 7.5 7.5 7.5s7.5-3.357 7.5-7.5v-144.59c0-.02.003-.039.003-.058 0-5.834 4.746-10.58 10.58-10.58 6.448.604 9.974 4.131 10.58 10.58l-.001 144.646c0 4.143 3.357 7.5 7.5 7.5s7.5-3.357 7.5-7.5v-90.387c0-.007.001-.013.001-.019 0-5.834 4.746-10.58 10.58-10.58 6.455.598 9.982 4.125 10.58 10.58v154.19c0 4.143 3.357 7.5 7.5 7.5s7.5-3.357 7.5-7.5v-154.19c-.09-20.75-20.812-30.291-36.16-23.288v-30.952c0-17.681-21.243-30.48-36.643-23.063-3.173-12.597-11.539-19.463-25.097-20.598-14.11 0-25.591 11.476-25.591 25.58v12.851c-16.554-7.51-36.159 4.967-36.159 23.31v128.158c.153 1.408-.097 3.085-.906 1.611-2.19-3.987-4.177-8.148-6.099-12.172-7.159-14.991-14.563-30.493-33.253-39.127-13.805-6.372-24.537-2.757-29.974 2.754-5.413 5.485-6.754 13.544-3.416 20.53 10.747 22.484 32.448 81.018 36.493 91.226 5.684 14.356 15.188 27.076 23.571 38.298 6.17 8.258 13.152 17.604 13.583 22.126v58.866c-9.522 3.571-14.698 10.824-15.53 21.76 0 12.699 10.331 23.03 23.03 23.03h19.869c4.143 0 7.5-3.357 7.5-7.5s-3.357-7.5-7.5-7.5h-19.869c-4.428 0-8.03-3.603-8.03-8.03.461-4.892 3.138-7.569 8.03-8.03h144.649c4.428 0 8.03 3.603 8.03 8.03-.462 4.892-3.139 7.568-8.03 8.03h-92.1c-4.143 0-7.5 3.357-7.5 7.5s3.357 7.5 7.5 7.5h92.1c14.035-1.319 21.712-8.996 23.03-23.03.002-10.073-6.501-18.651-15.528-21.77z"/><path d="m245.413 189.684c-5.438-5.511-16.166-9.128-29.977-2.753-18.688 8.633-26.719 23.851-33.25 39.126-2.431 5.686-6.564 13.875-7.005 10.561v-128.159c0-18.343-19.605-30.82-36.159-23.31v-12.85c0-14.104-11.48-25.58-25.591-25.58-13.558 1.134-21.923 8-25.097 20.598-15.4-7.417-36.643 5.381-36.643 23.063v30.952c-15.347-7.002-36.16 3.121-36.16 23.288v154.19c0 4.143 3.357 7.5 7.5 7.5s7.5-3.357 7.5-7.5v-154.19c.596-6.454 4.123-9.981 10.58-10.58 5.834 0 10.58 4.746 10.58 10.58 0 .007.001.013.001.019v90.387c0 4.143 3.357 7.5 7.5 7.5s7.5-3.357 7.5-7.5v-144.647c.606-6.45 4.132-9.976 10.58-10.58 5.834 0 10.58 4.746 10.58 10.58 0 .02.003.039.003.058v144.588c0 4.143 3.357 7.5 7.5 7.5s7.5-3.357 7.5-7.5l-.003-162.727c.606-6.449 4.132-9.976 10.579-10.58 5.84 0 10.591 4.746 10.591 10.58l-.005 162.727c0 4.143 3.357 7.5 7.5 7.5s7.5-3.357 7.5-7.5v-126.47c.081-5.392 5.169-10.677 10.585-10.677 5.833 0 10.579 4.746 10.579 10.58v129.61c0 15.191 21.764 20.66 29.055 7.38 2.395-4.36 4.475-8.716 6.485-12.929 6.563-13.741 17.302-26.504 26.003-31.972 7.314-4.596 15.897-1.68 13.571 3.196-11.024 23.108-18.239 42.514-25.859 63.068-8.649 23.328-11.564 35.556-32.688 63.946-8.927 11.998-16.021 21.441-16.553 30.384-.009.148-.014.297-.014.445v57.87h-129.649v-87.96c0-4.143-3.357-7.5-7.5-7.5s-7.5 3.357-7.5 7.5v89.223c-9.027 3.122-15.532 11.7-15.532 21.774 0 12.699 10.332 23.03 23.031 23.03h144.649c12.699 0 23.031-10.332 23.031-23.031 0-10.073-6.503-18.65-15.529-21.769v-58.86c.431-4.522 7.41-13.871 13.583-22.126 24.392-32.618 25.603-43.071 34.736-67.71 7.498-20.226 14.581-39.329 25.329-61.814 3.337-6.985 1.996-15.044-3.417-20.529zm-77.733 260.839h-144.649c-4.429 0-8.031-3.603-8.031-8.031s3.603-8.03 8.031-8.03h144.649c4.429 0 8.031 3.603 8.031 8.031s-3.603 8.03-8.031 8.03z"/></g></g></svg>