<svg id="Capa_1" enable-background="new 0 0 511.998 511.998" height="512" viewBox="0 0 511.998 511.998" width="512" xmlns="http://www.w3.org/2000/svg"><g><path d="m426.723 504.498h-341.447c-8.578 0-15.531-6.954-15.531-15.531 0-8.578 6.954-15.531 15.531-15.531h341.447c8.578 0 15.531 6.954 15.531 15.531 0 8.578-6.954 15.531-15.531 15.531z" fill="#ffb952"/><path d="m135.28 504.5h-50c-8.58 0-15.54-6.96-15.54-15.53 0-4.29 1.74-8.17 4.55-10.98s6.7-4.55 10.99-4.55h50c-4.29 0-8.18 1.74-10.99 4.55s-4.55 6.69-4.55 10.98c0 8.57 6.96 15.53 15.54 15.53z" fill="#f4a94a"/><path d="m215.997 38.953-99.897 434.483 279.56-.406-103.5-436.494c-4.57-17.122-20.078-29.035-37.8-29.035-18.649.001-34.706 13.164-38.363 31.452z" fill="#fee97e"/><path d="m279.37 16.54c-6.71 5.56-11.57 13.36-13.37 22.41l-2.39 11.97-91.24 391.13-6.26 31.32-50.01.07 99.9-434.49c1.82-9.14 6.75-17 13.56-22.58 6.8-5.58 15.48-8.87 24.8-8.87 9.39 0 18.16 3.35 25.01 9.04z" fill="#f9da58"/><path d="m246.689 45.092c.729-3.645 3.955-6.29 7.672-6.29 3.538 0 6.646 2.387 7.559 5.805l93.008 397.183-200.636.291z" fill="#ffb952"/><path d="m263.61 50.92-91.24 391.13-18.08.03 92.4-396.99c.73-3.64 3.95-6.29 7.67-6.29 3.54 0 6.65 2.39 7.56 5.81z" fill="#f4a94a"/><path d="m304.147 224.938h-99.316l14.46-62.128 70.309.003z" fill="#f5fcff"/><path d="m237.509 162.81-14.493 62.13-18.185-.002 14.46-62.128z" fill="#dff1f7"/><path d="m333.212 349.187h-157.3l14.459-62.125h128.26z" fill="#f5fcff"/><path d="m208.525 287.06-14.575 62.13-18.038-.003 14.459-62.127z" fill="#dff1f7"/><g><path d="m426.723 465.936h-25.037l-64.177-270.652c-.956-4.029-4.99-6.522-9.028-5.567-4.03.956-6.522 4.998-5.567 9.028l63.264 266.8-260.654.383 97.786-425.297c.017-.071.031-.144.046-.216 1.422-7.14 5.313-13.618 10.961-18.247 5.634-4.622 12.752-7.168 20.044-7.168 14.269 0 26.808 9.608 30.527 23.378l29.842 125.852c.956 4.03 4.998 6.518 9.028 5.567 4.03-.956 6.522-4.998 5.567-9.028l-29.867-125.959c-.017-.067-.033-.136-.052-.203-5.435-20.377-23.959-34.607-45.045-34.607-10.752 0-21.249 3.755-29.555 10.569-8.294 6.796-14.022 16.312-16.139 26.804l-98.537 428.563h-24.854c-12.699 0-23.031 10.332-23.031 23.031s10.332 23.031 23.031 23.031h341.447c12.699 0 23.03-10.332 23.03-23.031s-10.331-23.031-23.03-23.031zm0 31.062h-341.447c-4.429 0-8.031-3.603-8.031-8.031s3.603-8.031 8.031-8.031h30.738c.029 0 .057.005.086.005h.011l3.328-.005h307.284c4.428 0 8.03 3.603 8.03 8.031s-3.602 8.031-8.03 8.031z"/><path d="m269.168 42.682c-1.784-6.701-7.873-11.382-14.808-11.382-7.221 0-13.5 5.104-14.992 12.158l-79.232 331.197c-.021.091-.042.183-.061.274l-13.14 65.679c-.441 2.205.131 4.492 1.558 6.23 1.425 1.735 3.552 2.741 5.797 2.741h.011l200.64-.29c2.288-.003 4.449-1.051 5.869-2.845 1.421-1.794 1.944-4.138 1.423-6.365l-93.01-397.179c-.017-.073-.036-.146-.055-.218zm-15.184 4.153c.021-.09.041-.18.06-.27.054-.27.517-.308.618-.061l25.48 108.809h-52.109zm55.253 232.725h-45.507c-4.143 0-7.5 3.357-7.5 7.5s3.357 7.5 7.5 7.5h49.02l11.037 47.131h-140.341l11.275-47.131h36.32c4.143 0 7.5-3.357 7.5-7.5s-3.357-7.5-7.5-7.5h-32.731l11.273-47.122h87.467c.385 0 .761-.038 1.131-.094zm-96.066-62.122 11.273-47.124h59.21l11.035 47.124zm-49.728 217.128 11.314-56.559 5.1-21.317h147.442l18.175 77.613z"/></g></g></svg>