<svg id="Capa_1" enable-background="new 0 0 512 512" height="512" viewBox="0 0 512 512" width="512" xmlns="http://www.w3.org/2000/svg"><g><path d="m167.582 131.751h-93.436c-34.242 0-62 27.758-62 62v54.616c0 5.069.622 10.119 1.851 15.037l48.533 194.131c6.9 27.6 31.699 46.963 60.149 46.963h44.903c34.242 0 62-27.758 62-62v-248.747c0-34.242-27.759-62-62-62zm30.7 310.747c0 16.928-13.772 30.7-30.7 30.7h-44.903c-14.113 0-26.361-9.563-29.784-23.254l-48.532-194.13c-.608-2.434-.917-4.938-.917-7.446v-54.616c0-16.928 13.772-30.7 30.7-30.7h93.436c16.928 0 30.7 13.772 30.7 30.7z" fill="#f07281"/><path d="m198.282 348.949h31.3v31.3h-31.3z" fill="#c9ebfa" transform="matrix(-1 0 0 -1 427.864 729.199)"/><path d="m437.638 7.502h-93.436c-34.242 0-62 27.758-62 62v248.747c0 34.242 27.758 62 62 62h44.903c28.45 0 53.249-19.363 60.149-46.963l48.533-194.131c1.229-4.918 1.851-9.968 1.851-15.037v-54.616c0-34.242-27.758-62-62-62zm30.701 116.617c0 2.508-.309 5.013-.917 7.446l-48.532 194.13c-3.423 13.691-15.67 23.254-29.784 23.254h-44.903c-16.928 0-30.7-13.772-30.7-30.7v-248.747c0-16.928 13.772-30.7 30.7-30.7h93.436c16.928 0 30.7 13.772 30.7 30.7z" fill="#f07281"/><path d="m313.796 224.938h-32.125c-8.284 0-15-6.716-15-15v-94.249c0-8.284 6.716-15 15-15h32.125c8.284 0 15 6.716 15 15v94.249c0 8.284-6.716 15-15 15z" fill="#c9ebfa"/><path d="m301.67 224.94h-20c-8.28 0-15-6.72-15-15v-94.25c0-8.29 6.72-15 15-15h20c-8.28 0-15 6.71-15 15v94.25c0 8.28 6.72 15 15 15z" fill="#a0ddf3"/><path d="m282.203 224.7h31.3v31.3h-31.3z" fill="#c9ebfa"/><path d="m441.234 178.698-28.461 113.311c-3.33 13.26 6.696 26.116 20.367 26.116h18.82c9.628 0 18.022-6.547 20.367-15.884l28.461-113.311c3.33-13.26-6.696-26.116-20.367-26.116h-18.82c-9.627-.001-18.021 6.546-20.367 15.884z" fill="#c9ebfa"/><path d="m480.95 162.82c-9.36.29-17.42 6.75-19.72 15.88l-28.46 113.31c-3.29 13.09 6.44 25.78 19.84 26.1-.22.01-.43.01-.65.01h-18.82c-13.67 0-23.7-12.85-20.37-26.11l28.46-113.31c2.35-9.34 10.74-15.89 20.37-15.89h18.82c.18 0 .35 0 .53.01z" fill="#a0ddf3"/><path d="m197.988 349.187h32.125c8.284 0 15-6.716 15-15v-94.249c0-8.284-6.716-15-15-15h-32.125c-8.284 0-15 6.716-15 15v94.249c0 8.284 6.716 15 15 15z" fill="#c9ebfa"/><path d="m217.99 349.19h-20c-8.29 0-15-6.72-15-15v-94.25c0-8.29 6.71-15 15-15h20c-8.29 0-15 6.71-15 15v94.25c0 8.28 6.71 15 15 15z" fill="#a0ddf3"/><path d="m70.55 302.947 28.461 113.311c3.33 13.26-6.696 26.116-20.367 26.116h-18.82c-9.628 0-18.022-6.547-20.367-15.884l-28.462-113.312c-3.33-13.26 6.696-26.116 20.367-26.116h18.82c9.628 0 18.023 6.547 20.368 15.885z" fill="#c9ebfa"/><path d="m79.17 442.36c-.18.01-.35.01-.53.01h-18.82c-9.62 0-18.02-6.54-20.36-15.88l-28.46-113.31c-3.34-13.26 6.69-26.12 20.36-26.12h18.82c.22 0 .43 0 .65.01-13.4.32-23.13 13.02-19.83 26.11l28.46 113.31c2.29 9.13 10.36 15.58 19.71 15.87z" fill="#a0ddf3"/><g><path d="m468.339 201.375c-4.142 0-7.5-3.358-7.5-7.5 0-4.142 3.358-7.5 7.5-7.5 4.142 0 7.5 3.358 7.5 7.5 0 4.143-3.358 7.5-7.5 7.5z"/><path d="m445.224 294.562c-4.142 0-7.5-3.358-7.5-7.5 0-4.142 3.358-7.5 7.5-7.5 4.142 0 7.5 3.358 7.5 7.5 0 4.142-3.358 7.5-7.5 7.5z"/><g><path d="m499.623 162.745c3.591-11.87 7.518-26.259 7.518-38.625v-54.62c0-38.322-31.178-69.5-69.5-69.5h-93.44c-38.322 0-69.5 31.178-69.5 69.5v24.799c-9.004 2.942-15.529 11.416-15.529 21.389v94.249c0 9.974 6.525 18.448 15.529 21.389v86.923c0 38.322 31.178 69.5 69.5 69.5h44.91c31.945 0 59.667-21.646 67.416-52.641l2.599-10.395c9.912-2.564 17.889-10.344 20.477-20.647l28.46-113.312c4.287-15.921-7.265-26.933-8.44-28.009zm-209.922-93.245c0-30.052 24.449-54.5 54.5-54.5h93.44c30.051 0 54.5 24.448 54.5 54.5v54.62c0 10.173-3.301 21.989-6.253 31.724-5.166-.996-11.446-.724-16.676-.53 2.895-9.55 6.63-21.081 6.63-31.193v-54.621c0-21.063-17.137-38.2-38.2-38.2h-30.38c-4.142 0-7.5 3.357-7.5 7.5s3.358 7.5 7.5 7.5h30.38c12.792 0 23.2 10.407 23.2 23.2v54.62c0 10.574-4.477 22.387-7.394 32.403-9.446 2.816-16.986 10.393-19.487 20.347l-28.461 113.312c-2.29 9.118.942 20.656 7.71 27.308-1.755 12.377-10.212 23.961-24.1 23.961h-44.91c-12.792 0-23.2-10.407-23.2-23.2l.002-87.003c8.882-3.012 15.293-11.423 15.293-21.309v-94.249c0-9.887-6.413-18.299-15.295-21.31v-24.88c0-12.793 10.408-23.2 23.2-23.2h30.38c4.142 0 7.5-3.357 7.5-7.5s-3.358-7.5-7.5-7.5h-30.38c-21.063 0-38.2 17.137-38.2 38.2v23.688h-16.3v-23.688zm31.595 85.813h-47.125v-16.063h47.125zm-47.125 15h47.125v15.943h-47.125zm7.5-62.125h32.125c4.136 0 7.5 3.364 7.5 7.5v8.563h-47.125v-8.563c0-4.135 3.364-7.5 7.5-7.5zm-1.013 109.173c-3.657-.497-6.487-3.632-6.487-7.423v-8.681h47.125v8.681c0 3.746-2.763 6.851-6.357 7.404-.466-.091-33.782-.085-34.281.019zm25.342 15.077v16.062h-16.298v-16.063h16.298zm135.974 99.033c-6.076 24.305-27.815 41.279-52.864 41.279h-44.91c-30.051 0-54.5-24.448-54.5-54.5v-54.75h16.3v54.75c0 21.063 17.137 38.2 38.2 38.2h44.91c18.751 0 33.914-13.54 37.703-31.53 5.035 1.133 11.458.922 16.623.704zm51.541-144.369-28.46 113.312c-1.51 6.012-6.895 10.211-13.094 10.211h-18.82c-8.404 0-15.33-7.883-13.093-16.788l28.46-113.312c1.51-6.012 6.895-10.211 13.093-10.211h18.82c9.83 1.334 14.194 6.93 13.094 16.788z"/><path d="m237.08 218.547v-24.797c0-38.322-31.178-69.5-69.5-69.5h-30.37c-4.142 0-7.5 3.357-7.5 7.5s3.358 7.5 7.5 7.5h30.37c30.051 0 54.5 24.448 54.5 54.5v23.688h-16.3v-23.688c0-21.063-17.137-38.2-38.2-38.2h-93.43c-21.063 0-38.2 17.137-38.2 38.2v54.62c0 10.118 3.718 21.638 6.619 31.192-5.226-.193-11.502-.466-16.664.529-2.951-9.733-6.255-21.549-6.255-31.721v-54.62c0-30.052 24.449-54.5 54.5-54.5h30.37c4.142 0 7.5-3.357 7.5-7.5s-3.358-7.5-7.5-7.5h-30.37c-38.322 0-69.5 31.178-69.5 69.5v54.62c0 12.363 3.929 26.751 7.518 38.617-7.26 6.644-10.828 18.537-8.447 28.017l28.46 113.312c2.588 10.302 10.563 18.08 20.473 20.646 5.599 34.743 33.557 63.038 70.026 63.038h44.9c38.322 0 69.5-31.178 69.5-69.5v-7.35c0-4.143-3.358-7.5-7.5-7.5s-7.5 3.357-7.5 7.5v7.35c0 30.052-24.449 54.5-54.5 54.5h-44.9c-27.573 0-48.922-21.137-54.336-47.127 5.164.219 11.587.43 16.623-.703 3.798 17.986 18.962 31.53 37.713 31.53h44.9c21.063 0 38.2-17.137 38.2-38.2v-54.751h16.3v14.721c0 4.143 3.358 7.5 7.5 7.5s7.5-3.357 7.5-7.5l.001-46.893c9.005-2.941 15.531-11.416 15.531-21.39v-94.249c.001-9.975-6.526-18.45-15.532-21.391zm-158.437 216.326h-18.82c-6.199 0-11.583-4.199-13.094-10.211l-28.46-113.312c-1.1-9.858 3.264-15.454 13.093-16.788h18.82c6.199 0 11.583 4.199 13.093 10.211l28.46 113.312c1.615 6.915-2.608 16.788-13.092 16.788zm112.138 7.627c0 12.793-10.408 23.2-23.2 23.2h-44.9c-13.887 0-22.35-11.583-24.109-23.959 6.769-6.652 10.004-18.19 7.713-27.311l-28.46-113.312c-2.501-9.956-10.042-17.534-19.491-20.349l-6.699-26.787c-.454-1.808-.684-3.696-.684-5.613v-54.62c0-12.793 10.407-23.2 23.2-23.2h93.43c12.792 0 23.2 10.407 23.2 23.2v24.879c-8.881 3.012-15.292 11.423-15.292 21.309v94.249c0 9.885 6.411 18.296 15.292 21.309zm31.299-69.751h-16.298v-16.063h16.298zm15.533-38.562c0 3.792-2.83 6.926-6.487 7.423-.498-.104-33.815-.11-34.28-.02-3.594-.553-6.357-3.657-6.357-7.404v-8.681h47.125v8.682zm0-23.681h-47.125v-15.943h47.125zm0-30.943h-47.125v-16.063h47.125zm0-31.063h-47.125v-8.563c0-4.136 3.364-7.5 7.5-7.5h32.125c4.136 0 7.5 3.364 7.5 7.5z"/></g><path d="m43.446 325.625c4.142 0 7.5-3.358 7.5-7.5 0-4.142-3.358-7.5-7.5-7.5-4.142 0-7.5 3.358-7.5 7.5 0 4.142 3.358 7.5 7.5 7.5z"/><path d="m66.56 418.811c4.142 0 7.5-3.358 7.5-7.5 0-4.142-3.358-7.5-7.5-7.5-4.142 0-7.5 3.358-7.5 7.5 0 4.142 3.358 7.5 7.5 7.5z"/></g></g></svg>