<svg id="Capa_1" enable-background="new 0 0 511.955 511.955" height="512" viewBox="0 0 511.955 511.955" width="512" xmlns="http://www.w3.org/2000/svg"><g><path d="m318.102 131.749h124.249v31.122h-124.249z" fill="#548eb5"/><path d="m318.098 131.747h20v31.12h-20z" fill="#497090"/><g><path d="m317.983 457.979c-42.82 0-77.656-34.836-77.656-77.655v-248.694c0-25.561-20.795-46.355-46.355-46.355h-.238c-25.561 0-46.355 20.795-46.355 46.355v124.368h-31.3v-124.368c0-42.819 34.836-77.656 77.655-77.656h.238c42.819 0 77.655 34.837 77.655 77.656v248.693c0 25.561 20.795 46.354 46.355 46.354s46.356-20.794 46.356-46.354v-124.366h31.3v124.366c.001 42.82-34.835 77.656-77.655 77.656z" fill="#f5fcff"/></g><path d="m142.791 504.455h-22.125c-11.046 0-20-8.954-20-20v-42.125h62.125v42.125c0 11.046-8.955 20-20 20z" fill="#ffb952"/><path d="m140.668 504.457h-20c-11.05 0-20-8.96-20-20v-42.13h20v42.13c0 11.04 8.95 20 20 20z" fill="#f4a94a"/><path d="m163.322 442.331h-63.187c-8.284 0-15-6.716-15-15v-47.125h93.187v47.125c0 8.284-6.716 15-15 15z" fill="#fee97e"/><path d="m120.138 442.327h-20c-8.29 0-15-6.71-15-15v-47.12h20v47.12c0 8.29 6.71 15 15 15z" fill="#f9da58"/><path d="m69.604 349.084h124.249v31.122h-124.249z" fill="#548eb5"/><path d="m69.608 349.087h20v31.12h-20z" fill="#497090"/><path d="m69.604 318.082h124.249v31.122h-124.249z" fill="#fee97e"/><path d="m69.608 318.077h20v31.13h-20z" fill="#f9da58"/><path d="m100.666 255.957h62.125v62.125h-62.125z" fill="#548eb5"/><path d="m100.668 255.957h20v62.12h-20z" fill="#497090"/><path d="m349.164 193.873h62.125v62.125h-62.125z" fill="#548eb5"/><path d="m349.168 193.877h20v62.12h-20z" fill="#497090"/><path d="m318.102 162.752h124.249v31.122h-124.249z" fill="#fee97e"/><path d="m318.098 162.747h20v31.13h-20z" fill="#f9da58"/><path d="m411.82 69.624h-63.187c-8.284 0-15 6.716-15 15v47.125h93.187v-47.125c0-8.284-6.716-15-15-15z" fill="#fee97e"/><path d="m368.638 69.627c-8.29 0-15 6.71-15 15v47.12h-20v-47.12c0-8.29 6.71-15 15-15z" fill="#f9da58"/><path d="m391.289 7.5h-22.125c-11.046 0-20 8.954-20 20v42.125h62.125v-42.125c0-11.046-8.954-20-20-20z" fill="#ffb952"/><path d="m389.168 7.497c-11.05 0-20 8.96-20 20v42.13h-20v-42.13c0-11.04 8.95-20 20-20h20z" fill="#f4a94a"/><g><path d="m442.351 124.249h-8.031v-39.625c0-9.974-6.526-18.449-15.531-21.39v-35.734c0-15.163-12.336-27.5-27.5-27.5h-22.125c-15.164 0-27.5 12.337-27.5 27.5v35.734c-9.005 2.941-15.531 11.416-15.531 21.39v39.625h-8.031c-4.142 0-7.5 3.357-7.5 7.5v62.124c0 4.143 3.358 7.5 7.5 7.5h23.562v54.625c0 4.143 3.358 7.5 7.5 7.5h7.673v116.829c0 21.422-17.428 38.85-38.85 38.85-21.427 0-38.86-17.428-38.86-38.85v-248.7c0-46.952-38.203-85.15-85.16-85.15h-.23c-46.957 0-85.16 38.198-85.16 85.15v29.09c0 4.143 3.358 7.5 7.5 7.5s7.5-3.357 7.5-7.5v-29.09c0-38.681 31.474-70.15 70.16-70.15h.23c38.686 0 70.16 31.47 70.16 70.15v248.7c0 29.692 24.162 53.85 53.86 53.85 29.693 0 53.85-24.157 53.85-53.85v-116.829h16.3v58.879c0 4.143 3.358 7.5 7.5 7.5s7.5-3.357 7.5-7.5v-58.879h8.151c4.142 0 7.5-3.357 7.5-7.5v-54.625h23.563c4.142 0 7.5-3.357 7.5-7.5v-62.124c0-4.143-3.358-7.5-7.5-7.5zm-85.687-96.749c0-6.893 5.607-12.5 12.5-12.5h22.125c6.893 0 12.5 5.607 12.5 12.5v34.624h-47.125zm-15.531 57.124c0-4.136 3.364-7.5 7.5-7.5h.531 62.125.531c4.136 0 7.5 3.364 7.5 7.5v39.625h-78.187zm93.718 54.625v16.003h-109.249v-16.003zm-31.062 109.249h-47.125v-47.125h47.125zm-78.187-62.125v-16.003h109.249v16.003z"/><path d="m193.737 92.777h.23c21.427 0 38.86 17.428 38.86 38.85v107.36c0 4.143 3.358 7.5 7.5 7.5s7.5-3.357 7.5-7.5v-107.36c0-29.692-24.162-53.85-53.86-53.85h-.23c-29.698 0-53.86 24.157-53.86 53.85v116.83h-16.3v-55.06c0-4.143-3.358-7.5-7.5-7.5s-7.5 3.357-7.5 7.5v55.06h-7.911c-4.142 0-7.5 3.357-7.5 7.5v54.624h-23.562c-4.142 0-7.5 3.357-7.5 7.5v62.125c0 4.143 3.358 7.5 7.5 7.5h8.031v39.624c0 9.974 6.526 18.449 15.531 21.39v35.735c0 15.163 12.336 27.5 27.5 27.5h22.125c15.164 0 27.5-12.337 27.5-27.5v-35.735c9.005-2.941 15.531-11.416 15.531-21.39v-39.624h8.031c4.142 0 7.5-3.357 7.5-7.5v-62.125c0-4.143-3.358-7.5-7.5-7.5h-23.562v-54.624c0-4.143-3.358-7.5-7.5-7.5h-7.914v-116.83c0-21.422 17.433-38.85 38.86-38.85zm-38.446 391.678c0 6.893-5.607 12.5-12.5 12.5h-22.125c-6.893 0-12.5-5.607-12.5-12.5v-34.625h47.125zm15.531-57.125c0 4.136-3.364 7.5-7.5 7.5h-63.187c-4.136 0-7.5-3.364-7.5-7.5v-39.624h78.187zm-93.718-54.624v-16.003h109.249v16.003zm109.249-31.122h-109.249v-16.003h109.249zm-31.062-31.003h-47.125v-47.124h47.125z"/><path d="m395.638 347.567c-4.142 0-7.5 3.357-7.5 7.5v25.26c0 38.681-31.469 70.149-70.15 70.149-38.686 0-70.16-31.469-70.16-70.149v-108.65c0-4.143-3.358-7.5-7.5-7.5s-7.5 3.357-7.5 7.5v108.65c0 46.951 38.203 85.149 85.16 85.149 46.952 0 85.15-38.198 85.15-85.149v-25.26c0-4.142-3.358-7.5-7.5-7.5z"/></g></g></svg>