<svg id="Capa_1" enable-background="new 0 0 512 512" height="512" viewBox="0 0 512 512" width="512" xmlns="http://www.w3.org/2000/svg"><g><path d="m409.14 320.773h-250.476v-219.167l125.238-75.619 125.238 75.619z" fill="#fee97e"/><path d="m293.98 32.079-115.16 69.529v219.161h-20.159v-219.161l125.239-75.618z" fill="#f9da58"/><path d="m283.902 273.809c-47.035-14.873-78.274-52.179-78.274-94.179v-55.199l78.274-40.99 78.274 40.99v55.199c0 42-31.238 79.306-78.274 94.179z" fill="#f5fcff"/><path d="m293.98 270.189c-3.266 1.32-6.632 2.53-10.08 3.619-47.031-14.867-78.268-52.182-78.268-94.174v-55.206l78.268-40.984 10.08 5.282-68.189 35.702v55.206c0 38.917 26.822 73.813 68.189 90.555z" fill="#d8ecfe"/><circle cx="283.902" cy="179.878" fill="#ade194" r="46.964"/><path d="m293.98 225.758c-3.246.716-6.622 1.089-10.08 1.089-25.935 0-46.961-21.036-46.961-46.971s21.026-46.961 46.961-46.961c3.457 0 6.834.373 10.08 1.089-21.097 4.606-36.881 23.395-36.881 45.872-.001 22.478 15.784 41.266 36.881 45.882z" fill="#7dce6f"/><g><path d="m96.06 148.693c-5.427 0-10.709-2.802-13.64-7.828-4.39-7.525-1.848-17.185 5.677-21.575l187.857-109.583c4.912-2.864 10.985-2.864 15.897 0l187.857 109.583c7.525 4.39 10.067 14.049 5.678 21.575-4.391 7.526-14.05 10.067-21.575 5.678l-179.909-104.948-179.908 104.947c-2.499 1.458-5.235 2.151-7.934 2.151z" fill="#f07281"/></g><path d="m126.627 350.768s30.897-65.037 91.556-65.037c11.577 0 23.054 2.141 33.853 6.314l24.014 9.281h47.543c11.115 0 20.126 9.011 20.126 20.126 0 0-.307 4.032-.878 5.897l.005.002 38.202-22.054 69.711-40.258c9.626-5.554 21.933-2.248 27.487 7.378 5.303 9.149 1.805 22.204-7.358 27.487l-127.426 99.597c-8.82 6.905-19.696 10.644-30.884 10.644h-126.574z" fill="#ffcebf"/><path d="m165.02 358.919 51.226 51.226h-30.239l-59.379-59.379s30.894-65.034 91.553-65.034c5.231 0 10.442.434 15.573 1.3-36.712 6.606-60.426 36.757-70.821 53.111-3.795 5.97-2.916 13.773 2.087 18.776z" fill="#ffb09e"/><path d="m475.191 268.395-63.905 36.902-38.202 22.054c.564-1.865.877-5.896.877-5.896 0-3.81-1.048-7.368-2.893-10.402l9.979-5.755 69.711-40.258c8.124-4.688 18.173-3.066 24.433 3.355z" fill="#ffb09e"/><path d="m76.407 333.856h63.849v173.405h-63.849z" fill="#548eb5" transform="matrix(.707 -.707 .707 .707 -265.65 199.781)"/><path d="m162.189 489.32-15.119 15.119-122.619-122.618 45.147-45.147 15.119 15.119-19.336 19.337c-5.905 5.904-5.905 15.478 0 21.382z" fill="#497090"/><path d="m133.272 316.993h30.361v154.138h-30.361z" fill="#f5fcff" transform="matrix(.707 -.707 .707 .707 -235.163 220.39)"/><path d="m202.295 449.213-10.08 10.08-108.99-108.991 21.47-21.469 10.08 10.08-6.401 6.401c-2.755 2.755-2.756 7.223 0 9.978z" fill="#d8ecfe"/><g><path d="m483.516 112.758-109.787-64.046c-3.605-2.103-8.234-.885-10.339 2.721-2.104 3.607-.886 8.235 2.721 10.339l109.786 64.045c4.092 2.93 5.077 6.678 2.955 11.242-2.929 4.081-6.673 5.066-11.231 2.953l-179.912-104.948c-2.355-1.372-5.264-1.372-7.619 0l-179.929 104.959c-4.141 2.153-7.878 1.166-11.21-2.96-2.281-3.917-.955-8.962 2.951-11.245l187.863-109.586c2.552-1.488 5.726-1.489 8.278 0l49.612 28.939c3.608 2.105 8.237.884 10.339-2.721 2.104-3.607.885-8.236-2.721-10.339l-49.612-28.939c-7.253-4.229-16.261-4.229-23.514 0l-187.868 109.589c-11.098 6.486-14.863 20.801-8.388 31.921 6.16 10.541 21.352 14.588 31.907 8.39l43.303-25.26v51.126c0 4.176 3.385 7.56 7.56 7.56s7.56-3.384 7.56-7.56v-59.946l117.679-68.646 117.679 68.646v165.715l-51.236 29.586c-3.163-11.808-13.957-20.527-26.749-20.527h-46.136c-18.622-7.969-38.799-15.593-59.277-15.593-18.219 0-35.823 5.527-51.96 16.162v-82.446c0-4.176-3.385-7.56-7.56-7.56s-7.56 3.384-7.56 7.56v94.313c-10.067 9.261-19.082 20.5-26.201 32.149l-14.864-14.864c-2.952-2.951-7.738-2.951-10.691 0l-16.124 16.123-8.278-8.278c-2.952-2.951-7.739-2.951-10.691 0l-45.149 45.149c-2.952 3.564-2.952 7.128 0 10.692l122.617 122.613c3.564 2.952 7.127 2.952 10.691 0l66.617-66.618c2.953-2.952 2.952-7.738 0-10.691l-14.773-14.773h50.394c4.176 0 7.56-3.384 7.56-7.56s-3.384-7.56-7.56-7.56h-65.514l-53.182-53.182c8.17-14.171 36.243-56.11 82.228-56.11 19.027 0 37.831 7.693 55.14 15.084.87.337 1.794.509 2.727.509h47.546c6.839 0 12.419 5.49 12.566 12.293-.588 6.77-4.783 12.841-12.567 12.841h-91.281c-4.175 0-7.56 3.384-7.56 7.56s3.385 7.56 7.56 7.56h91.281c11.171 0 20.983-6.55 25.348-16.577l105.595-60.975c6.998-3.204 12.72-1.664 17.168 4.62 3.811 6.574-.414 13.791-5.471 17.741l-127.431 99.601c-7.445 5.827-16.757 9.036-26.225 9.036h-24.987c-4.176 0-7.56 3.384-7.56 7.56s3.384 7.56 7.56 7.56h24.987c12.83 0 25.453-4.351 35.539-12.247l127.046-99.3c13.046-9.93 17.325-24.789 9.631-37.518-7.506-12.417-24.579-17.782-37.816-10.148l-30.278 17.484v-148.164l43.304 25.261c11.114 6.481 25.522 2.769 31.908-8.394 8.892-15.544-3.008-28.777-8.395-31.921zm-336.451 380.991-111.925-111.924 34.458-34.458 111.925 111.925zm45.149-45.147-98.301-98.302 10.778-10.777 98.301 98.301z"/><path d="m270.889 200.944c2.963 2.957 7.764 2.946 10.713-.03l23.327-23.544c2.938-2.966 2.916-7.752-.05-10.691-2.965-2.937-7.752-2.917-10.691.05l-17.985 18.153-4.816-4.81c-2.956-2.95-7.742-2.946-10.692.008-2.95 2.955-2.946 7.741.008 10.692z"/><path d="m283.902 234.402c30.065 0 54.523-24.46 54.523-54.524s-24.459-54.523-54.523-54.523c-30.065 0-54.524 24.459-54.524 54.523s24.46 54.524 54.524 54.524zm0-93.928c21.727 0 39.404 17.677 39.404 39.404 0 21.728-17.677 39.405-39.404 39.405-21.728 0-39.405-17.677-39.405-39.405.001-21.728 17.677-39.404 39.405-39.404z"/><path d="m281.623 281.017c1.52.469 3.04.469 4.559 0 24.496-7.747 45.349-21.332 60.304-39.288 15.21-18.261 23.249-39.736 23.249-62.1v-55.199c0-2.812-1.561-5.392-4.053-6.697l-78.273-40.99c-2.196-1.15-4.816-1.15-7.014 0l-78.274 40.99c-2.491 1.305-4.053 3.885-4.053 6.697v55.199c0 22.364 8.04 43.838 23.25 62.1 14.955 17.957 35.809 31.542 60.305 39.288zm-68.435-152.011 70.714-37.032 70.714 37.032v50.623c0 38.144-27.67 71.772-70.714 86.228-43.044-14.456-70.714-48.084-70.714-86.228z"/></g></g></svg>