<svg id="Capa_1" enable-background="new 0 0 512 512" height="512" viewBox="0 0 512 512" width="512" xmlns="http://www.w3.org/2000/svg"><g><path d="m318.122 38.095v435c0 17.12-13.87 31-31 31h-217.559c-17.12 0-31-13.88-31-31v-435c0-17.12 13.88-31 31-31h217.56c17.129 0 30.999 13.88 30.999 31z" fill="#548eb5"/><path d="m318.122 328.785v133.18h-155.31c-36.72 0-66.59-29.87-66.59-66.59s29.87-66.59 66.59-66.59z" fill="#497090"/><path d="m119.563 504.095h-50c-17.12 0-31-13.88-31-31v-435c0-17.12 13.88-31 31-31h50c-17.12 0-31 13.88-31 31v435c0 17.12 13.879 31 31 31z" fill="#497090"/><path d="m272.065 473.031h-187.436c-8.284 0-15-6.716-15-15v-404.872c0-8.284 6.716-15 15-15h187.436c8.284 0 15 6.716 15 15v404.872c0 8.284-6.716 15-15 15z" fill="#c9ebfa"/><path d="m287.063 328.785v129.25c0 1.36-.18 2.68-.52 3.93h-123.73c-36.72 0-66.59-29.87-66.59-66.59s29.87-66.59 66.59-66.59z" fill="#a0ddf3"/><path d="m88.563 38.155v434.88h-3.93c-8.29 0-15-6.72-15-15v-404.88c0-8.28 6.71-15 15-15z" fill="#a0ddf3"/><path d="m458.438 441.968h-295.622c-25.733 0-46.593-20.861-46.593-46.593 0-25.733 20.861-46.593 46.593-46.593h295.623c8.284 0 15 6.716 15 15v63.187c-.001 8.284-6.716 14.999-15.001 14.999z" fill="#8cbdf9"/><circle cx="162.816" cy="395.375" fill="#c9ebfa" r="15.531"/><g><g fill="#8cbdf9"><path d="m100.691 69.221h31.062v31.062h-31.062z"/><path d="m162.816 69.221h31.062v31.062h-31.062z"/><path d="m224.94 69.221h31.062v31.062h-31.062z"/><path d="m100.691 131.346h31.062v31.062h-31.062z"/><path d="m162.816 131.346h31.062v31.062h-31.062z"/><path d="m224.94 131.346h31.062v31.062h-31.062z"/><path d="m100.691 193.47h31.062v31.062h-31.062z"/><path d="m162.816 193.47h31.062v31.062h-31.062z"/><path d="m224.94 193.47h31.062v31.062h-31.062z"/><path d="m100.691 255.595h31.062v31.062h-31.062z"/><path d="m162.816 255.595h31.062v31.062h-31.062z"/><path d="m224.94 255.595h31.062v31.062h-31.062z"/></g></g><path d="m224.94 379.844h217.436v31.062h-217.436z" fill="#c9ebfa"/><g><g><g><path d="m131.753 107.783h-31.063c-4.143 0-7.5-3.357-7.5-7.5v-31.061c0-4.143 3.357-7.5 7.5-7.5h31.063c4.143 0 7.5 3.357 7.5 7.5v31.062c0 4.142-3.357 7.499-7.5 7.499zm-23.562-15h16.063v-16.061h-16.063z"/></g><g><path d="m193.878 107.783h-31.063c-4.143 0-7.5-3.357-7.5-7.5v-31.061c0-4.143 3.357-7.5 7.5-7.5h31.063c4.143 0 7.5 3.357 7.5 7.5v31.062c0 4.142-3.357 7.499-7.5 7.499zm-23.562-15h16.063v-16.061h-16.063z"/></g><g><path d="m256.002 107.783h-31.062c-4.143 0-7.5-3.357-7.5-7.5v-31.061c0-4.143 3.357-7.5 7.5-7.5h31.063c4.143 0 7.5 3.357 7.5 7.5v31.062c-.001 4.142-3.358 7.499-7.501 7.499zm-23.562-15h16.063v-16.061h-16.063z"/></g><g><path d="m131.753 169.908h-31.063c-4.143 0-7.5-3.357-7.5-7.5v-31.063c0-4.143 3.357-7.5 7.5-7.5h31.063c4.143 0 7.5 3.357 7.5 7.5v31.063c0 4.143-3.357 7.5-7.5 7.5zm-23.562-15h16.063v-16.063h-16.063z"/></g><g><path d="m193.878 169.908h-31.063c-4.143 0-7.5-3.357-7.5-7.5v-31.063c0-4.143 3.357-7.5 7.5-7.5h31.063c4.143 0 7.5 3.357 7.5 7.5v31.063c0 4.143-3.357 7.5-7.5 7.5zm-23.562-15h16.063v-16.063h-16.063z"/></g><g><path d="m256.002 169.908h-31.062c-4.143 0-7.5-3.357-7.5-7.5v-31.063c0-4.143 3.357-7.5 7.5-7.5h31.063c4.143 0 7.5 3.357 7.5 7.5v31.063c-.001 4.143-3.358 7.5-7.501 7.5zm-23.562-15h16.063v-16.063h-16.063z"/></g><g><path d="m131.753 232.032h-31.063c-4.143 0-7.5-3.357-7.5-7.5v-31.062c0-4.143 3.357-7.5 7.5-7.5h31.063c4.143 0 7.5 3.357 7.5 7.5v31.062c0 4.143-3.357 7.5-7.5 7.5zm-23.562-15h16.063v-16.062h-16.063z"/></g><g><path d="m193.878 232.032h-31.063c-4.143 0-7.5-3.357-7.5-7.5v-31.062c0-4.143 3.357-7.5 7.5-7.5h31.063c4.143 0 7.5 3.357 7.5 7.5v31.062c0 4.143-3.357 7.5-7.5 7.5zm-23.562-15h16.063v-16.062h-16.063z"/></g><g><path d="m256.002 232.032h-31.062c-4.143 0-7.5-3.357-7.5-7.5v-31.062c0-4.143 3.357-7.5 7.5-7.5h31.063c4.143 0 7.5 3.357 7.5 7.5v31.062c-.001 4.143-3.358 7.5-7.501 7.5zm-23.562-15h16.063v-16.062h-16.063z"/></g><g><path d="m131.753 294.157h-31.063c-4.143 0-7.5-3.357-7.5-7.5v-31.063c0-4.143 3.357-7.5 7.5-7.5h31.063c4.143 0 7.5 3.357 7.5 7.5v31.063c0 4.143-3.357 7.5-7.5 7.5zm-23.562-15h16.063v-16.063h-16.063z"/></g><g><path d="m193.878 294.157h-31.063c-4.143 0-7.5-3.357-7.5-7.5v-31.063c0-4.143 3.357-7.5 7.5-7.5h31.063c4.143 0 7.5 3.357 7.5 7.5v31.063c0 4.143-3.357 7.5-7.5 7.5zm-23.562-15h16.063v-16.063h-16.063z"/></g><g><path d="m256.002 294.157h-31.062c-4.143 0-7.5-3.357-7.5-7.5v-31.063c0-4.143 3.357-7.5 7.5-7.5h31.063c4.143 0 7.5 3.357 7.5 7.5v31.063c-.001 4.143-3.358 7.5-7.501 7.5zm-23.562-15h16.063v-16.063h-16.063z"/></g></g><g><path d="m458.438 341.281h-132.815v-178.066c0-4.143-3.357-7.5-7.5-7.5s-7.5 3.357-7.5 7.5v178.066h-16.061v-288.127c0-12.406-10.094-22.5-22.5-22.5h-187.43c-12.406 0-22.5 10.094-22.5 22.5v279.29c0 4.143 3.357 7.5 7.5 7.5s7.5-3.357 7.5-7.5v-279.29c0-4.136 3.364-7.5 7.5-7.5h187.43c4.136 0 7.5 3.364 7.5 7.5v288.127h-116.746c-29.827 0-54.094 24.267-54.094 54.094s24.267 54.093 54.094 54.093h116.746v8.567c0 4.136-3.364 7.5-7.5 7.5h-187.43c-4.136 0-7.5-3.364-7.5-7.5v-92.91c0-4.143-3.357-7.5-7.5-7.5s-7.5 3.357-7.5 7.5v92.91c0 12.406 10.094 22.5 22.5 22.5h187.43c12.406 0 22.5-10.094 22.5-22.5v-8.567h16.061v24.032c0 12.958-10.542 23.5-23.5 23.5h-217.561c-12.958 0-23.5-10.542-23.5-23.5v-435c0-12.958 10.542-23.5 23.5-23.5h217.561c12.958 0 23.5 10.542 23.5 23.5v92.439c0 4.143 3.357 7.5 7.5 7.5s7.5-3.357 7.5-7.5v-92.439c0-21.229-17.271-38.5-38.5-38.5h-217.561c-21.229 0-38.5 17.271-38.5 38.5v435c0 21.229 17.271 38.5 38.5 38.5h217.561c21.229 0 38.5-17.271 38.5-38.5v-24.032h132.815c12.406 0 22.5-10.094 22.5-22.5v-63.187c0-12.406-10.094-22.5-22.5-22.5zm7.5 85.687c0 4.136-3.364 7.5-7.5 7.5h-295.622c-21.557 0-39.094-17.537-39.094-39.093 0-21.557 17.537-39.094 39.094-39.094h295.622c4.136 0 7.5 3.364 7.5 7.5z"/><path d="m162.816 372.344c-12.699 0-23.031 10.332-23.031 23.031s10.332 23.031 23.031 23.031 23.031-10.332 23.031-23.031-10.332-23.031-23.031-23.031zm0 31.062c-4.429 0-8.031-3.603-8.031-8.031s3.603-8.031 8.031-8.031 8.031 3.603 8.031 8.031-3.602 8.031-8.031 8.031z"/><path d="m442.373 372.345h-32.14c-4.143 0-7.5 3.357-7.5 7.5s3.357 7.5 7.5 7.5h24.64v16.06h-202.43v-16.06h145.1c4.143 0 7.5-3.357 7.5-7.5s-3.357-7.5-7.5-7.5h-152.6c-4.143 0-7.5 3.357-7.5 7.5v31.06c0 4.143 3.357 7.5 7.5 7.5h217.43c4.143 0 7.5-3.357 7.5-7.5v-31.06c0-4.143-3.358-7.5-7.5-7.5z"/></g></g></g></svg>