<svg id="Capa_1" enable-background="new 0 0 512.112 512.112" height="512" viewBox="0 0 512.112 512.112" width="512" xmlns="http://www.w3.org/2000/svg"><g><circle cx="349.243" cy="426.84" fill="#fee97e" r="77.656"/><path d="m364.246 503.048c-4.85.95-9.87 1.45-15 1.45-42.89 0-77.66-34.77-77.66-77.66s34.77-77.65 77.66-77.65c5.13 0 10.15.5 15 1.45-35.71 6.98-62.66 38.44-62.66 76.2s26.95 69.22 62.66 76.21z" fill="#f9da58"/><g><g><path d="m224.092 504.607c-25.574-.485-45.81-21.908-45.81-47.487v-14.749c0-8.643 7.007-15.65 15.65-15.65 8.643 0 15.65 7.007 15.65 15.65v15.085c0 8.288 6.356 15.431 14.635 15.839 8.849.437 16.189-6.637 16.189-15.393v-77.774h31.301v77.774c-.001 26.058-21.446 47.201-47.615 46.705z" fill="#548eb5"/></g></g><path d="m69.683 271.529c0-25.733 20.861-46.593 46.593-46.593 25.733 0 46.593 20.861 46.593 46.593 0-25.733 20.861-46.593 46.593-46.593 25.733 0 46.593 20.861 46.593 46.593 0-25.733 20.861-46.593 46.593-46.593 25.733 0 46.593 20.861 46.593 46.593 0-25.733 20.861-46.593 46.593-46.593 25.733 0 46.593 20.861 46.593 46.593v-46.629c0-102.911-83.426-186.338-186.338-186.338-102.8 0-186.18 83.252-186.337 186.052z" fill="#548eb5"/><path d="m256.096 38.558c5.05 0 10.06.2 15.01.6-45.43 3.61-86.26 23.52-116.67 53.88-33.72 33.66-54.6 80.18-54.68 131.58v3.34c-17.58 6.66-30.07 23.66-30.07 43.57l.07-46.91c.08-51.4 20.96-97.92 54.68-131.58s80.26-54.48 131.66-54.48z" fill="#497090"/><g><path d="m263.556 31.215v-23.715c0-4.143-3.357-7.5-7.5-7.5s-7.5 3.357-7.5 7.5v23.715c-45.735 1.765-89.211 19.537-123.137 50.515-3.06 2.792-3.274 7.536-.482 10.595 2.795 3.061 7.539 3.274 10.596.482 21.371-19.514 46.852-33.343 74.297-40.678-45.863 45.04-54.814 121.304-54.432 182.088-20.515-21.474-57.554-21.585-78.156-.097-1.68-42.261 11.178-84.583 37.028-118.179 2.525-3.282 1.912-7.991-1.371-10.518s-7.992-1.912-10.518 1.371c-26.18 34.024-40.055 74.763-40.125 117.812l-.07 46.772v.134.005.011c0 4.14 3.354 7.497 7.494 7.5h.006c4.138 0 7.494-3.351 7.5-7.488v-.141c.07-21.494 17.579-38.961 39.09-38.961 21.323 0 39.09 17.769 39.09 39.09 0 12.394 15.03 9.97 15 0-.065-21.33 17.818-39.09 39.101-39.09 21.32 0 39.09 17.77 39.09 39.09v101.1h-8.15c-4.143 0-7.5 3.357-7.5 7.5v77.774c-.517 5.008-3.29 7.641-8.319 7.901-4.138-.204-7.504-3.948-7.504-8.348v-15.085c0-12.766-10.385-23.15-23.15-23.15s-23.15 10.385-23.15 23.15v14.749c0 29.764 23.852 54.43 53.168 54.985 23.897.396 47.021-16.801 53.324-39.833 15.108 23.848 41.714 39.725 71.973 39.725 19.596 0 38.728-6.822 53.872-19.209 14.932-12.214 25.366-29.271 29.382-48.031.867-4.05-1.714-8.036-5.765-8.903-4.048-.865-8.036 1.713-8.903 5.765-6.868 32.089-35.713 55.379-68.586 55.379-37.35 0-67.969-29.339-70.04-66.18-1.925-39.6 30.061-74.13 70.04-74.13 32.873 0 61.718 23.29 68.586 55.379.867 4.052 4.861 6.629 8.903 5.765 4.051-.867 6.632-4.854 5.765-8.903-4.016-18.761-14.449-35.818-29.378-48.03-15.144-12.388-34.276-19.21-53.876-19.21-29.093 0-54.814 14.671-70.182 36.993-.674-3.45-3.71-6.054-7.358-6.054h-8.15v-101.1c0-21.319 17.771-39.09 39.09-39.09 21.326 0 39.101 17.762 39.101 39.09 0 4.143 3.357 7.5 7.5 7.5s7.5-3.357 7.5-7.5c0-21.321 17.768-39.09 39.09-39.09s39.09 17.769 39.09 39.09c0 4.143 3.357 7.5 7.5 7.5s7.5-3.357 7.5-7.5v-46.63c-.004-104.383-82.941-189.746-186.374-193.682zm.65 426.687c0 22.4-18.855 38.092-39.973 39.205-21.202-.401-38.452-18.34-38.452-39.987v-14.749c0-4.494 3.656-8.15 8.15-8.15s8.15 3.656 8.15 8.15v15.085c0 12.48 9.561 22.728 21.766 23.33 14.557-.756 22.576-8.384 24.058-22.884v-70.274h16.301zm-93.808-223.751c-.024-62.153 19.07-175.244 78.158-187.375v187.409c-18.25-23.687-59.75-22.937-78.158-.034zm264.528-.002c-20.697-21.565-57.49-21.59-78.18.035.303-24.645-1.227-49.477-5.609-73.75-.736-4.076-4.63-6.781-8.714-6.048-4.076.736-6.784 4.638-6.048 8.714 4.231 23.424 5.644 47.304 5.371 71.083-20.681-21.602-57.484-21.634-78.19.002v-187.393c26.476 5.07 51.079 36.725 65.471 85.182 1.18 3.97 5.353 6.234 9.325 5.054 3.971-1.179 6.233-5.354 5.054-9.325-9.848-33.159-24.108-58.974-41.022-75.558 81.623 21.893 135.081 98.579 132.542 182.004z"/><path d="m349.243 481.72c4.143 0 7.5-3.357 7.5-7.5v-9.109c11.173-1.578 19.797-11.198 19.797-22.8 0-12.699-10.332-23.031-23.031-23.031h-8.531c-4.429 0-8.031-3.603-8.031-8.031s3.603-8.031 8.031-8.031h7.622c2.907 0 5.422 1.87 6.257 4.654 1.19 3.968 5.376 6.22 9.338 5.029 3.968-1.189 6.22-5.371 5.029-9.338-2.346-7.823-8.718-13.442-16.48-14.937v-9.287c0-4.143-3.357-7.5-7.5-7.5s-7.5 3.357-7.5 7.5v9.11c-11.173 1.578-19.797 11.198-19.797 22.8 0 12.699 10.332 23.031 23.031 23.031h8.531c4.429 0 8.031 3.603 8.031 8.031s-3.603 8.031-8.031 8.031h-9.622c-2.906 0-5.421-1.871-6.257-4.656-1.191-3.967-5.372-6.218-9.34-5.027-3.967 1.191-6.218 5.372-5.027 9.34 2.547 8.485 9.826 14.384 18.48 15.228v8.992c0 4.143 3.357 7.501 7.5 7.501z"/></g></g></svg>