<svg id="Capa_1" enable-background="new 0 0 512 512" height="512" viewBox="0 0 512 512" width="512" xmlns="http://www.w3.org/2000/svg"><g><path d="m253.718.372-184.928 61.643c-2.947.982-4.935 3.74-4.935 6.846v176.55c0 120.954 77.398 228.337 192.145 266.586 114.747-38.249 192.145-145.633 192.145-266.586v-176.549c0-3.106-1.988-5.864-4.935-6.846l-184.928-61.644c-1.481-.493-3.083-.493-4.564 0z" fill="#f5fcff"/><path d="m205.07 451.214c22.279 20.733 48.095 37.991 76.704 50.765-8.361 3.732-16.959 7.083-25.774 10.021-114.747-38.249-192.141-145.634-192.141-266.587v-176.548c0-3.106 1.988-5.864 4.934-6.846l184.925-61.649c1.481-.494 3.082-.494 4.564 0l23.492 7.828-161.433 53.821c-2.947.982-4.934 3.74-4.934 6.846v176.548c0 79.838 33.723 153.779 89.663 205.801z" fill="#d8ecfe"/><path d="m415.88 92.12v153.29c0 103.61-63.81 195.64-159.88 232.33-18.245-6.965-35.302-15.943-51.007-26.604.026.024.051.05.077.074-.67-.46-1.34-.91-2.01-1.37-65.86-45.62-106.94-121.3-106.94-204.43v-153.29c0-3.11 1.99-5.86 4.94-6.85l14.34-4.78 138.32-46.1c1.48-.5 3.08-.5 4.56 0l152.66 50.88c2.95.99 4.94 3.74 4.94 6.85z" fill="#ade194"/><path d="m205.07 451.21c-.67-.46-1.34-.91-2.01-1.37-65.86-45.62-106.94-121.3-106.94-204.43v-153.29c0-3.11 1.99-5.86 4.94-6.85l14.34-4.78.01.01v164.91c0 79.84 33.72 153.78 89.66 205.8z" fill="#7dce6f"/><path d="m191.952 202.066v-58.346c0-35.373 28.675-64.048 64.048-64.048 35.373 0 64.048 28.675 64.048 64.048v58.346h-32.024v-58.346c0-17.686-14.338-32.024-32.024-32.024-17.686 0-32.024 14.338-32.024 32.024v58.346z" fill="#f5fcff"/><path d="m352.07 206.76v130.12c0 8.28-6.71 15-15 15h-162.14c-8.29 0-15-6.72-15-15v-130.12c0-8.29 6.71-15 15-15h162.14c8.29 0 15 6.71 15 15z" fill="#ffde5c"/><path d="m206.32 351.88h-31.39c-8.29 0-15-6.72-15-15v-130.12c0-8.29 6.71-15 15-15h31.39c-8.54 0-15.47 6.92-15.47 15.47v129.19c0 8.53 6.93 15.46 15.47 15.46z" fill="#ffc736"/><path d="m280.018 247.799c0-13.265-10.753-24.018-24.018-24.018s-24.018 10.753-24.018 24.018c0 7.112 3.093 13.499 8.005 17.897v38.145c0 8.843 7.169 16.012 16.012 16.012s16.012-7.169 16.012-16.012v-38.144c4.913-4.398 8.007-10.786 8.007-17.898z" fill="#548eb5"/></g></svg>