<svg id="Capa_1" enable-background="new 0 0 512 512" height="512" viewBox="0 0 512 512" width="512" xmlns="http://www.w3.org/2000/svg"><g><path d="m260.689 448.182h-9.378c-85.776 0-155.31-69.535-155.31-155.31v-73.375c0-85.776 69.535-155.31 155.31-155.31h9.378c85.776 0 155.31 69.535 155.31 155.31v73.375c0 85.775-69.535 155.31-155.31 155.31z" fill="#ffcebf"/><g><g fill="#548eb5"><path d="m88.789 0h-81.578c-3.982 0-7.211 3.229-7.211 7.211v81.577c0 3.983 3.229 7.212 7.211 7.212h17.577c3.983 0 7.212-3.229 7.212-7.211v-49.578c0-3.982 3.229-7.211 7.211-7.211h49.577c3.983 0 7.212-3.229 7.212-7.211v-17.578c0-3.982-3.229-7.211-7.211-7.211z"/><path d="m423.211 0h81.577c3.983 0 7.212 3.229 7.212 7.211v81.577c0 3.983-3.229 7.211-7.211 7.211h-17.577c-3.983 0-7.211-3.229-7.211-7.211v-49.577c0-3.983-3.229-7.211-7.211-7.211h-49.577c-3.983 0-7.211-3.229-7.211-7.211v-17.578c-.002-3.982 3.227-7.211 7.209-7.211z"/><path d="m88.789 512h-81.578c-3.982 0-7.211-3.229-7.211-7.211v-81.577c0-3.983 3.229-7.212 7.211-7.212h17.577c3.983 0 7.211 3.229 7.211 7.211v49.577c0 3.983 3.229 7.211 7.211 7.211h49.577c3.983 0 7.211 3.229 7.211 7.211v17.577c.002 3.984-3.227 7.213-7.209 7.213z"/><path d="m423.211 512h81.577c3.983 0 7.211-3.229 7.211-7.211v-81.577c0-3.983-3.229-7.211-7.211-7.211h-17.577c-3.983 0-7.211 3.229-7.211 7.211v49.577c0 3.983-3.229 7.211-7.211 7.211h-49.577c-3.983 0-7.211 3.229-7.211 7.211v17.577c-.001 3.983 3.228 7.212 7.21 7.212z"/></g></g><g><g><path d="m142.978 408.973c-1.975 0-3.949-.752-5.458-2.257-31.756-31.689-49.245-73.851-49.245-118.718v-63.995c0-41.725 15.418-81.714 43.412-112.604 27.797-30.671 65.682-49.921 106.677-54.204 4.243-.438 8.044 2.638 8.488 6.882s-2.638 8.044-6.882 8.487c-77.671 8.115-136.242 73.219-136.242 151.438v63.995c0 40.733 15.877 79.01 44.708 107.78 3.02 3.014 3.026 7.907.012 10.927-1.51 1.512-3.49 2.269-5.47 2.269z" fill="#f5fcff"/></g><g><path d="m256 455.723c-32.374 0-63.791-9.241-90.852-26.724-3.585-2.316-4.613-7.099-2.297-10.683 2.316-3.585 7.099-4.613 10.683-2.297 24.556 15.865 53.073 24.251 82.466 24.251s57.91-8.386 82.467-24.251c3.584-2.314 8.366-1.287 10.683 2.297 2.315 3.584 1.287 8.367-2.297 10.683-27.062 17.483-58.478 26.724-90.853 26.724z" fill="#f5fcff"/></g><g><path d="m369.022 408.973c-1.98 0-3.96-.757-5.469-2.269-3.014-3.021-3.009-7.913.012-10.927 28.831-28.769 44.708-67.046 44.708-107.78v-63.995c0-40.682-15.839-78.921-44.599-107.671-24.611-24.622-57.157-40.165-91.643-43.767-4.244-.444-7.325-4.243-6.882-8.487.444-4.243 4.246-7.327 8.487-6.882 38 3.97 73.857 21.092 100.964 48.21 31.678 31.667 49.126 73.786 49.126 118.598v63.995c0 44.867-17.489 87.029-49.245 118.718-1.509 1.505-3.485 2.257-5.459 2.257z" fill="#f5fcff"/></g><g><path d="m272.824 422.624c-3.82 0-7.14-2.832-7.651-6.721-.556-4.231 2.424-8.111 6.654-8.667 59.545-7.822 104.448-59.083 104.448-119.238v-63.995c0-26.683-8.558-51.953-24.748-73.08-2.596-3.387-1.954-8.236 1.433-10.833 3.387-2.595 8.236-1.954 10.833 1.433 18.275 23.847 27.935 52.368 27.935 82.479v63.995c0 67.883-50.681 125.731-117.888 134.559-.342.046-.681.068-1.016.068z" fill="#f5fcff"/></g><g><path d="m333.856 130.132c-1.642 0-3.297-.521-4.7-1.599-21.133-16.228-46.43-24.806-73.156-24.806-26.709 0-51.993 8.567-73.117 24.776-3.386 2.598-8.235 1.959-10.834-1.427-2.598-3.385-1.959-8.235 1.427-10.833 23.846-18.298 52.383-27.97 82.524-27.97 30.16 0 58.711 9.683 82.568 28.002 3.384 2.599 4.021 7.45 1.423 10.834-1.523 1.983-3.816 3.022-6.135 3.023z" fill="#f5fcff"/></g><g><path d="m239.176 422.624c-.336 0-.674-.022-1.016-.067-67.207-8.829-117.888-66.677-117.888-134.559v-63.995c0-30.141 9.672-58.678 27.97-82.524 2.598-3.386 7.448-4.024 10.834-1.426 3.385 2.598 4.024 7.448 1.426 10.833-16.209 21.124-24.776 46.408-24.776 73.117v63.995c0 60.155 44.903 111.416 104.448 119.238 4.23.556 7.21 4.436 6.654 8.667-.511 3.889-3.832 6.721-7.652 6.721z" fill="#f5fcff"/></g><g><path d="m256 391.727c-21.374 0-41.899-6.449-59.356-18.649-3.498-2.445-4.352-7.262-1.907-10.759 2.444-3.499 7.262-4.351 10.759-1.907 14.848 10.377 32.312 15.862 50.503 15.862s35.655-5.485 50.503-15.862c3.498-2.444 8.315-1.591 10.759 1.907 2.445 3.498 1.591 8.314-1.907 10.759-17.455 12.201-37.98 18.649-59.354 18.649z" fill="#f5fcff"/></g><g><path d="m177.269 350.654c-2.437 0-4.835-1.149-6.338-3.298-12.208-17.452-18.661-37.978-18.661-59.358v-63.995c0-50.422 35.98-93.378 85.552-102.139 4.204-.738 8.211 2.062 8.953 6.264s-2.062 8.21-6.264 8.953c-42.176 7.454-72.788 44.009-72.788 86.921v63.995c0 18.196 5.488 35.659 15.87 50.501 2.446 3.497 1.595 8.314-1.902 10.76-1.348.943-2.893 1.396-4.422 1.396z" fill="#f5fcff"/></g><g><path d="m334.731 350.654c-1.53 0-3.074-.453-4.422-1.396-3.497-2.446-4.349-7.263-1.902-10.76 10.382-14.842 15.87-32.305 15.87-50.501v-63.995c0-23.576-9.181-45.746-25.852-62.428-12.885-12.875-29.116-21.346-46.935-24.494-4.202-.742-7.007-4.751-6.265-8.953s4.748-7.007 8.953-6.265c20.954 3.701 40.033 13.655 55.173 28.784 19.592 19.603 30.379 45.653 30.379 73.355v63.995c0 21.38-6.453 41.906-18.661 59.358-1.503 2.15-3.901 3.3-6.338 3.3z" fill="#f5fcff"/></g><g><path d="m239.171 357.486c-.67 0-1.35-.088-2.027-.271-19.053-5.167-35.303-18.185-44.583-35.717-5.42-10.249-8.284-21.832-8.284-33.5v-63.995c0-10.976 2.414-21.509 7.175-31.306 1.866-3.838 6.487-5.436 10.327-3.572 3.838 1.865 5.437 6.488 3.572 10.327-3.729 7.674-5.62 15.934-5.62 24.551v63.995c0 9.29 2.184 18.13 6.49 26.273 7.284 13.761 20.03 23.978 34.968 28.029 4.118 1.117 6.552 5.361 5.435 9.479-.933 3.442-4.05 5.707-7.453 5.707z" fill="#f5fcff"/></g><g><path d="m272.829 357.486c-3.403 0-6.519-2.265-7.453-5.706-1.117-4.118 1.317-8.362 5.435-9.479 14.938-4.051 27.684-14.268 34.969-28.031 4.305-8.14 6.489-16.981 6.489-26.271v-63.995c0-6.233-1.012-12.356-3.006-18.2-1.379-4.038.778-8.43 4.816-9.808 4.04-1.379 8.43.778 9.808 4.816 2.545 7.455 3.835 15.258 3.835 23.192v63.995c0 11.668-2.864 23.252-8.283 33.498-9.281 17.534-25.53 30.552-44.584 35.719-.677.182-1.357.27-2.026.27z" fill="#f5fcff"/></g><g><path d="m297.214 182.774c-1.76.001-3.528-.598-4.978-1.821-10.112-8.532-22.981-13.23-36.235-13.23-11.126 0-21.878 3.243-31.095 9.378-3.552 2.365-8.349 1.402-10.713-2.15-2.365-3.552-1.402-8.349 2.15-10.713 11.762-7.829 25.475-11.967 39.658-11.967 16.897 0 33.305 5.992 46.2 16.872 3.262 2.752 3.675 7.626.923 10.888-1.529 1.81-3.713 2.743-5.91 2.743z" fill="#f5fcff"/></g><g><path d="m256 327.722c-21.904 0-39.724-17.82-39.724-39.724v-63.995c0-13.856 7.038-26.484 18.826-33.778 3.628-2.245 8.39-1.124 10.636 2.505 2.245 3.628 1.124 8.39-2.505 10.636-7.203 4.457-11.504 12.172-11.504 20.637v63.995c0 13.383 10.888 24.271 24.271 24.271s24.271-10.888 24.271-24.271v-63.995c0-6.479-2.526-12.574-7.112-17.16-1.34-1.34-2.811-2.506-4.372-3.465-3.635-2.235-4.771-6.993-2.537-10.628 2.235-3.636 6.994-4.772 10.628-2.537 2.59 1.592 5.015 3.511 7.207 5.704 7.505 7.505 11.638 17.479 11.638 28.086v63.995c.001 21.904-17.819 39.724-39.723 39.724z" fill="#f5fcff"/></g></g><path d="m473 272h-434c-3.866 0-7-3.134-7-7v-18c0-3.866 3.134-7 7-7h434c3.866 0 7 3.134 7 7v18c0 3.866-3.134 7-7 7z" fill="#98bce5"/></g></svg>