<svg id="Capa_1" enable-background="new 0 0 512 512" height="512" viewBox="0 0 512 512" width="512" xmlns="http://www.w3.org/2000/svg"><g><path d="m156.138 233.999v-153.999c0-44.183 35.817-80 80-80 44.183 0 80 35.817 80 80v105c0 3.866-3.134 7-7 7h-18c-3.866 0-7-3.134-7-7v-105c0-26.51-21.49-48-48-48-26.51 0-48 21.49-48 48v153.999z" fill="#98bce5"/><path d="m348.14 239v258c0 8.28-6.72 15-15 15h-194c-8.29 0-15-6.72-15-15v-17l10-14.33v-194.26l-10-15.41v-17c0-8.29 6.71-15 15-15h194c8.28 0 15 6.71 15 15z" fill="#ffde5c"/><path d="m170.5 512h-31.36c-8.29 0-15-6.72-15-15v-17l10-14.33v-194.26l-10-15.41v-17c0-8.29 6.71-15 15-15h31.36c-8.53 0-15.46 6.91-15.46 15.45v257.1c0 8.53 6.93 15.45 15.46 15.45z" fill="#ffc736"/><path d="m205.137 479.998h-81v-223.999h81c8.284 0 15 6.716 15 15v193.999c0 8.284-6.715 15-15 15z" fill="#548eb5"/><path d="m124.137 255.999h30.906v224.003h-30.906z" fill="#497090"/><circle cx="172.138" cy="367.999" fill="#fff" r="16"/><circle cx="172.138" cy="303.999" fill="#fff" r="16"/><circle cx="172.138" cy="431.998" fill="#fff" r="16"/><g fill="#548eb5"><path d="m373.137 447.998h-82c-3.866 0-7-3.134-7-7v-18c0-3.866 3.134-7 7-7h82c3.866 0 7 3.134 7 7v18c0 3.866-3.134 7-7 7z"/><path d="m373.137 383.998h-82c-3.866 0-7-3.134-7-7v-18c0-3.866 3.134-7 7-7h82c3.866 0 7 3.134 7 7v18c0 3.866-3.134 7-7 7z"/><path d="m373.137 319.999h-82c-3.866 0-7-3.134-7-7v-18c0-3.866 3.134-7 7-7h82c3.866 0 7 3.134 7 7v18c0 3.866-3.134 7-7 7z"/></g><g><g><path d="m380.137 199.726h-32c-4.268 0-7.726-3.459-7.726-7.726s3.459-7.726 7.726-7.726h32c4.268 0 7.726 3.459 7.726 7.726s-3.459 7.726-7.726 7.726z" fill="#548eb5"/></g></g><g><g><path d="m348.137 167.726c-1.978 0-3.955-.754-5.464-2.263-3.017-3.017-3.017-7.909 0-10.927l22.628-22.627c3.019-3.018 7.91-3.018 10.928 0 3.017 3.017 3.017 7.909 0 10.927l-22.629 22.627c-1.509 1.508-3.486 2.263-5.463 2.263z" fill="#548eb5"/></g></g><g><g><path d="m252.137 199.726h-32c-4.267 0-7.726-3.459-7.726-7.726s3.459-7.726 7.726-7.726h32c4.268 0 7.726 3.459 7.726 7.726s-3.458 7.726-7.726 7.726z" fill="#548eb5"/></g></g><g><g><path d="m252.137 167.726c-1.977 0-3.955-.755-5.463-2.263l-22.627-22.627c-3.018-3.017-3.018-7.91 0-10.927 3.017-3.017 7.909-3.017 10.927 0l22.628 22.627c3.017 3.017 3.017 7.909 0 10.927-1.51 1.508-3.488 2.263-5.465 2.263z" fill="#548eb5"/></g></g></g></svg>