<svg id="Capa_1" enable-background="new 0 0 512 512" height="512" viewBox="0 0 512 512" width="512" xmlns="http://www.w3.org/2000/svg"><g><path d="m416 15v482c0 8.28-6.72 15-15 15h-290c-8.28 0-15-6.72-15-15v-482c0-8.28 6.72-15 15-15h129l16 10 16-10h129c8.28 0 15 6.72 15 15z" fill="#548eb5"/><path d="m162.96 512h-51.96c-8.28 0-15-6.72-15-15v-482c0-8.28 6.72-15 15-15h51.96c-8.54 0-15.45 6.92-15.45 15.45v481.1c0 8.53 6.91 15.45 15.45 15.45z" fill="#497090"/><path d="m374 141.67v227.33l10 14.91v57.07c0 3.87-3.14 7-7 7h-242c-3.86 0-7-3.13-7-7v-57.07l10-16.91v-226l-10-13.09v-56.91c0-3.86 3.14-7 7-7h242c3.86 0 7 3.14 7 7v56.91z" fill="#f5fcff"/><path d="m147.51 64.01v383.97h-12.51c-3.86 0-7-3.13-7-7v-57.07l10-16.91v-226l-10-13.09v-56.91c0-3.86 3.14-7 7-7h12.5z" fill="#d8ecfe"/><path d="m128.001 127.907h255.998v255.998h-255.998z" fill="#ade194"/><path d="m128 127.907h19.512v256h-19.512z" fill="#7dce6f"/><g><g><path d="m327.721 320.046c0 4.265-3.451 7.726-7.726 7.726h-127.99c-3.132 0-5.944-1.885-7.139-4.77s-.536-6.212 1.669-8.417l9.9-9.91 44.185-44.215 19.79-19.8 40.95-40.98h-109.355c-4.275 0-7.726-3.462-7.726-7.726 0-4.265 3.451-7.726 7.726-7.726h127.99c3.132 0 5.944 1.885 7.139 4.77s.536 6.212-1.669 8.417l-9.9 9.91-44.215 44.235-19.831 19.852-40.878 40.908h109.354c4.275 0 7.726 3.461 7.726 7.726z" fill="#548eb5"/></g></g><path d="m256 32.002c8.837 0 16-7.163 16-16v-16h-32v16c0 8.836 7.164 16 16 16z" fill="#98bce5"/><g><path d="m288 487.724h-64c-4.268 0-7.726-3.459-7.726-7.726s3.459-7.726 7.726-7.726h64c4.268 0 7.726 3.459 7.726 7.726s-3.458 7.726-7.726 7.726z" fill="#98bce5"/></g><g fill="#fff"><circle cx="192.001" cy="191.954" r="16"/><circle cx="256" cy="191.954" r="16"/><circle cx="319.999" cy="191.954" r="16"/><circle cx="192.001" cy="256.047" r="16"/><circle cx="256" cy="256.047" r="16"/><circle cx="319.999" cy="256.047" r="16"/><circle cx="192.001" cy="320.046" r="16"/><circle cx="256" cy="320.046" r="16"/><circle cx="319.999" cy="320.046" r="16"/></g><g fill="#d8ecfe"><path d="m208.004 191.954c0 2.802-.721 5.439-1.998 7.726h-14c-4.275 0-7.726-3.462-7.726-7.726 0-4.265 3.451-7.726 7.726-7.726h14c1.277 2.286 1.998 4.924 1.998 7.726z"/><path d="m271.999 191.954c0 2.802-.721 5.439-1.999 7.726h-28c-1.277-2.287-1.999-4.924-1.999-7.726s.721-5.439 1.999-7.726h28c1.278 2.286 1.999 4.924 1.999 7.726z"/><path d="m325.465 197.414-9.9 9.91c-6.676-1.916-11.569-8.066-11.569-15.37 0-2.802.721-5.439 1.999-7.726h14c3.132 0 5.944 1.885 7.139 4.77 1.195 2.884.536 6.211-1.669 8.416z"/></g><circle cx="192.001" cy="256.047" fill="#fff" r="16"/><path d="m271.35 251.56-19.831 19.852c-5.254-1.535-9.395-5.687-10.899-10.951l19.79-19.8c5.263 1.504 9.415 5.645 10.94 10.899z" fill="#d8ecfe"/><circle cx="319.999" cy="256.047" fill="#fff" r="16"/><path d="m208.004 320.046c0 2.802-.721 5.439-1.998 7.726h-14c-3.132 0-5.944-1.885-7.139-4.77s-.536-6.212 1.669-8.417l9.9-9.91c6.674 1.917 11.568 8.067 11.568 15.371z" fill="#d8ecfe"/><path d="m271.999 320.046c0 2.802-.721 5.439-1.999 7.726h-28c-1.277-2.287-1.999-4.924-1.999-7.726s.721-5.439 1.999-7.726h28c1.278 2.287 1.999 4.924 1.999 7.726z" fill="#d8ecfe"/><path d="m327.721 320.046c0 4.265-3.451 7.726-7.726 7.726h-14c-1.277-2.287-1.999-4.924-1.999-7.726s.721-5.439 1.999-7.726h14c4.275 0 7.726 3.461 7.726 7.726z" fill="#d8ecfe"/></g></svg>