<svg id="Capa_1" enable-background="new 0 0 512 512" height="512" viewBox="0 0 512 512" width="512" xmlns="http://www.w3.org/2000/svg"><g><path d="m224.001 388.84h64v69.159h-64z" fill="#f5fcff"/><path d="m287.999 388.835v30.604h-17.637c-8.534 0-15.453 6.918-15.453 15.453v23.104h-30.906v-69.16h63.996z" fill="#d8ecfe"/><path d="m505 398.84h-497.998c-3.866 0-7-3.134-7-7v-352.421c0-3.866 3.134-7 7-7h497.998c3.866 0 7 3.134 7 7v352.421c0 3.866-3.134 7-7 7z" fill="#548eb5"/><path d="m51.509 32.419v366.416h-44.509c-3.866 0-7-3.134-7-7v-352.416c0-3.866 3.134-7 7-7z" fill="#497090"/><path d="m473 334.84h-433.998c-3.866 0-7-3.134-7-7v-256.421c0-3.866 3.134-7 7-7h433.998c3.866 0 7 3.134 7 7v256.421c0 3.866-3.134 7-7 7z" fill="#f5fcff"/><path d="m51.509 64.416v270.424h-12.511c-3.866 0-7-3.134-7-7v-256.424c0-3.866 3.134-7 7-7z" fill="#d8ecfe"/><g><path d="m272.001 374.566h-32c-4.268 0-7.726-3.459-7.726-7.726s3.459-7.726 7.726-7.726h32c4.268 0 7.726 3.459 7.726 7.726s-3.458 7.726-7.726 7.726z" fill="#98bce5"/></g><path d="m352.001 479.581h-192v-25c0-3.866 3.134-7 7-7h177.999c3.866 0 7 3.134 7 7v25z" fill="#548eb5"/><path d="m211.507 447.583v31.998h-51.509v-24.998c0-3.866 3.134-7 7-7z" fill="#497090"/><path d="m441 257.149h-369.998c-3.866 0-7-3.134-7-7v-82c0-3.866 3.134-7 7-7h369.998c3.866 0 7 3.134 7 7v82c0 3.866-3.134 7-7 7z" fill="#98bce5"/><g><g fill="#548eb5"><path d="m148.549 197.286c-2.135-3.696-6.86-4.962-10.554-2.828l-2.267 1.309v-2.617c0-4.267-3.459-7.726-7.726-7.726s-7.726 3.459-7.726 7.726v2.617l-2.267-1.309c-3.695-2.134-8.422-.868-10.554 2.828-2.134 3.695-.867 8.421 2.828 10.554l2.267 1.309-2.267 1.309c-3.695 2.134-4.962 6.859-2.828 10.554 1.432 2.479 4.028 3.865 6.698 3.865 1.311 0 2.64-.334 3.856-1.037l2.267-1.309v2.617c0 4.267 3.459 7.726 7.726 7.726s7.726-3.459 7.726-7.726v-2.617l2.267 1.309c1.216.703 2.545 1.037 3.856 1.037 2.67 0 5.268-1.386 6.698-3.865 2.134-3.695.867-8.421-2.828-10.554l-2.267-1.309 2.267-1.309c3.695-2.133 4.962-6.859 2.828-10.554z"/><path d="m212.549 197.286c-2.133-3.696-6.861-4.962-10.554-2.828l-2.267 1.309v-2.617c0-4.267-3.459-7.726-7.726-7.726-4.268 0-7.726 3.459-7.726 7.726v2.618l-2.268-1.309c-3.697-2.134-8.422-.867-10.554 2.828-2.134 3.696-.867 8.421 2.828 10.554l2.267 1.309-2.267 1.309c-3.695 2.133-4.962 6.859-2.828 10.554 1.431 2.479 4.028 3.865 6.698 3.865 1.311 0 2.64-.334 3.856-1.037l2.268-1.309v2.618c0 4.267 3.459 7.726 7.726 7.726 4.268 0 7.726-3.459 7.726-7.726v-2.617l2.267 1.309c1.217.703 2.545 1.037 3.856 1.037 2.67 0 5.268-1.386 6.698-3.865 2.134-3.696.867-8.421-2.828-10.554l-2.267-1.309 2.267-1.309c3.695-2.135 4.962-6.86 2.828-10.556z"/><path d="m276.548 197.286c-2.135-3.696-6.86-4.962-10.554-2.828l-2.267 1.309v-2.617c0-4.267-3.459-7.726-7.726-7.726-4.268 0-7.726 3.459-7.726 7.726v2.617l-2.267-1.309c-3.695-2.134-8.422-.868-10.554 2.828-2.134 3.695-.867 8.421 2.828 10.554l2.267 1.309-2.267 1.309c-3.695 2.134-4.962 6.859-2.828 10.554 1.432 2.479 4.028 3.865 6.698 3.865 1.311 0 2.64-.334 3.856-1.037l2.267-1.309v2.617c0 4.267 3.459 7.726 7.726 7.726 4.268 0 7.726-3.459 7.726-7.726v-2.617l2.267 1.309c1.216.703 2.545 1.037 3.856 1.037 2.67 0 5.268-1.386 6.698-3.865 2.134-3.695.867-8.421-2.828-10.554l-2.267-1.309 2.267-1.309c3.696-2.133 4.962-6.859 2.828-10.554z"/><path d="m340.549 197.286c-2.133-3.696-6.86-4.962-10.554-2.828l-2.268 1.309v-2.618c0-4.267-3.459-7.726-7.726-7.726-4.268 0-7.726 3.459-7.726 7.726v2.617l-2.267-1.309c-3.697-2.134-8.422-.867-10.554 2.828-2.134 3.696-.867 8.421 2.828 10.554l2.267 1.309-2.267 1.309c-3.695 2.133-4.962 6.859-2.828 10.554 1.431 2.479 4.028 3.865 6.698 3.865 1.311 0 2.64-.334 3.856-1.037l2.267-1.309v2.617c0 4.267 3.459 7.726 7.726 7.726 4.268 0 7.726-3.459 7.726-7.726v-2.618l2.268 1.309c1.217.703 2.545 1.037 3.856 1.037 2.67 0 5.268-1.386 6.698-3.865 2.134-3.696.867-8.421-2.828-10.554l-2.267-1.309 2.267-1.309c3.695-2.131 4.961-6.856 2.828-10.552z"/><path d="m401.72 210.458-2.267-1.309 2.267-1.309c3.695-2.134 4.962-6.859 2.828-10.554-2.135-3.696-6.861-4.962-10.554-2.828l-2.267 1.309v-2.617c0-4.267-3.459-7.726-7.726-7.726-4.268 0-7.726 3.459-7.726 7.726v2.617l-2.267-1.309c-3.694-2.134-8.422-.868-10.554 2.828-2.134 3.695-.867 8.421 2.828 10.554l2.267 1.309-2.267 1.309c-3.695 2.134-4.962 6.859-2.828 10.554 1.432 2.479 4.028 3.865 6.698 3.865 1.311 0 2.64-.334 3.856-1.037l2.267-1.309v2.617c0 4.267 3.459 7.726 7.726 7.726 4.268 0 7.726-3.459 7.726-7.726v-2.617l2.267 1.309c1.216.703 2.545 1.037 3.856 1.037 2.67 0 5.268-1.386 6.698-3.865 2.134-3.695.867-8.42-2.828-10.554z"/></g></g></g></svg>