<svg id="Capa_1" enable-background="new 0 0 512 512" height="512" viewBox="0 0 512 512" width="512" xmlns="http://www.w3.org/2000/svg"><g><path d="m416 15v482c0 8.28-6.72 15-15 15h-290c-8.28 0-15-6.72-15-15v-482c0-8.28 6.72-15 15-15h129l16.01 10 15.99-10h129c8.28 0 15 6.72 15 15z" fill="#548eb5"/><path d="m162.96 512h-51.96c-8.28 0-15-6.72-15-15v-482c0-8.28 6.72-15 15-15h51.96c-8.54 0-15.45 6.92-15.45 15.45v481.1c0 8.53 6.91 15.45 15.45 15.45z" fill="#497090"/><path d="m376.999 447.982h-241.998c-3.866 0-7-3.134-7-7v-369.98c0-3.866 3.134-7 7-7h241.998c3.866 0 7 3.134 7 7v369.981c0 3.865-3.134 6.999-7 6.999z" fill="#f5fcff"/><path d="m258.344 287.999h-4.687c-42.886 0-77.653-34.766-77.653-77.653v-36.693c0-42.886 34.766-77.653 77.653-77.653h4.687c42.886 0 77.653 34.766 77.653 77.653v36.693c-.001 42.887-34.767 77.653-77.653 77.653z" fill="#ffcebf"/><path d="m147.512 64.005v383.979h-12.512c-3.866 0-7-3.134-7-7v-369.979c0-3.866 3.134-7 7-7z" fill="#d8ecfe"/><circle cx="256" cy="367.999" fill="#ade194" r="48"/><path d="m256 32.002c8.837 0 16-7.163 16-16v-16h-32v16c0 8.836 7.164 16 16 16z" fill="#98bce5"/><g><path d="m288 487.724h-63.999c-4.267 0-7.726-3.459-7.726-7.726s3.459-7.726 7.726-7.726h63.999c4.267 0 7.726 3.459 7.726 7.726s-3.459 7.726-7.726 7.726z" fill="#98bce5"/></g><g><g><path d="m256 231.729c-12.64 0-23.047-9.881-23.694-22.494-.218-4.262 3.059-7.893 7.32-8.112 4.261-.222 7.893 3.059 8.112 7.321.225 4.392 3.854 7.833 8.262 7.833 4.561 0 8.272-3.711 8.272-8.272v-32.008c0-2.208-.861-4.285-2.424-5.848s-3.64-2.424-5.848-2.424c-4.407 0-8.036 3.441-8.262 7.833-.219 4.262-3.836 7.552-8.112 7.321-4.261-.219-7.539-3.851-7.32-8.112.647-12.614 11.054-22.494 23.694-22.494 6.336 0 12.293 2.468 16.775 6.95s6.95 10.439 6.95 16.775v32.008c0 13.08-10.643 23.723-23.725 23.723z" fill="#d8ecfe"/></g><g><path d="m303.983 182.888c-4.207 0-7.652-3.374-7.723-7.597-.176-10.477-4.363-20.338-11.79-27.766-7.601-7.61-17.711-11.799-28.471-11.799-4.782 0-9.448.824-13.866 2.45-4.006 1.475-8.446-.578-9.919-4.583-1.474-4.005.578-8.446 4.583-9.919 6.133-2.257 12.593-3.401 19.202-3.401 14.891 0 28.883 5.799 39.4 16.328 10.274 10.274 16.068 23.924 16.311 38.431.071 4.267-3.329 7.783-7.596 7.855-.043 0-.087.001-.131.001z" fill="#d8ecfe"/></g><g><path d="m256 263.726c-6.531 0-12.938-1.127-19.044-3.351-4.01-1.46-6.076-5.894-4.617-9.903 1.46-4.01 5.893-6.077 9.903-4.617 4.406 1.605 9.035 2.418 13.757 2.418 21.829 0 39.89-17.749 40.261-39.566.072-4.221 3.517-7.595 7.723-7.595.044 0 .089.001.134.001 4.266.072 7.666 3.59 7.594 7.857-.512 30.192-25.504 54.756-55.711 54.756z" fill="#d8ecfe"/></g><g><path d="m213.955 238.87c-2.722 0-5.36-1.441-6.77-3.991-4.519-8.179-6.908-17.472-6.908-26.875v-32.008c0-9.35 2.364-18.598 6.836-26.742 2.053-3.74 6.751-5.109 10.491-3.054 3.74 2.054 5.108 6.751 3.054 10.491-3.224 5.873-4.929 12.549-4.929 19.306v32.008c0 6.796 1.722 13.505 4.98 19.401 2.064 3.735.709 8.436-3.026 10.499-1.182.654-2.464.965-3.728.965z" fill="#d8ecfe"/></g><g><path d="m176.008 182.888c-.027 0-.053 0-.079-.001-4.267-.043-7.691-3.537-7.648-7.804.235-23.239 9.464-45.049 25.987-61.413 16.534-16.375 38.458-25.394 61.732-25.394 14.725 0 29.294 3.72 42.13 10.759 3.741 2.051 5.112 6.748 3.06 10.489-2.051 3.741-6.747 5.112-10.489 3.06-10.566-5.793-22.565-8.856-34.701-8.856-39.45 0-71.869 32.079-72.268 71.511-.042 4.241-3.494 7.649-7.724 7.649z" fill="#d8ecfe"/></g><g><path d="m256 295.724c-23.274 0-45.198-9.019-61.732-25.394-16.523-16.364-25.752-38.175-25.987-61.413-.043-4.267 3.381-7.761 7.648-7.804.027-.001.053-.001.079-.001 4.231 0 7.682 3.408 7.724 7.648.399 39.431 32.818 71.511 72.268 71.511 11.145 0 21.824-2.463 31.741-7.32 3.831-1.876 8.461-.292 10.337 3.54 1.877 3.832.292 8.46-3.54 10.337-12.051 5.903-25.017 8.896-38.538 8.896z" fill="#d8ecfe"/></g><g><path d="m317.734 266.601c-1.731 0-3.472-.578-4.912-1.766-3.292-2.715-3.759-7.585-1.044-10.877 10.633-12.89 16.488-29.21 16.488-45.954v-32.008c0-15.817-5.016-30.839-14.506-43.441-2.567-3.408-1.885-8.253 1.524-10.82 3.408-2.566 8.254-1.884 10.82 1.524 11.524 15.302 17.615 33.538 17.615 52.736v32.008c0 20.323-7.11 40.135-20.021 55.787-1.526 1.853-3.737 2.811-5.964 2.811z" fill="#d8ecfe"/></g></g><g><path d="m248.159 391.788c-2.047 0-4.011-.812-5.46-2.259l-10.411-10.396c-3.019-3.015-3.023-7.907-.008-10.927 3.016-3.019 7.907-3.022 10.927-.008l4.922 4.915 18.382-18.553c3.004-3.031 7.896-3.054 10.927-.05 3.031 3.003 3.054 7.895.05 10.927l-23.841 24.063c-1.446 1.459-3.413 2.283-5.468 2.288-.006 0-.014 0-.02 0z" fill="#f5fcff"/></g></g></svg>