<svg id="Capa_1" enable-background="new 0 0 512 512" height="512" viewBox="0 0 512 512" width="512" xmlns="http://www.w3.org/2000/svg"><g><path d="m205.28 300.775-54.602 31.525-13.375-5.142-20.847-36.109 2.698-13.351 54.602-31.524 16.659 4.975 19.335 33.489z" fill="#98bce5"/><path d="m426.265 209.595-46.491 26.843-88.994 51.373-56.559 32.648c-7.277 4.212-16.583 1.715-20.795-5.572l-13.762-23.839-41.64-72.127 218.401-126.097 41.64 72.127 13.772 23.85c4.202 7.276 1.705 16.582-5.572 20.794z" fill="#98bce5"/><path d="m379.774 236.439-88.994 51.373c-2.568-6.14-3.988-12.869-3.988-19.922 0-28.569 23.251-51.819 51.83-51.819 16.754-.001 31.673 7.996 41.152 20.368z" fill="#7bacdf"/><path d="m161.95 150.294h252.19v83.284h-252.19z" fill="#7bacdf" transform="matrix(.866 -.5 .5 .866 -57.378 169.742)"/><path d="m150.678 332.3-13.178 19.96c-2.867 4.343-9.302 4.15-11.904-.357l-35.679-61.798c-2.57-4.451.373-10.061 5.495-10.477l23.742-1.93z" fill="#548eb5"/><path d="m354.379 331.005v-63.112h-31.524v63.175c0 34.751 28.171 62.922 62.922 62.922h73.175v-31.524h-73.112c-17.376 0-31.461-14.085-31.461-31.461z" fill="#548eb5"/><path d="m490.476 425.515h-34.524c-3.866 0-7-3.134-7-7v-80.573c0-3.866 3.134-7 7-7h34.524z" fill="#98bce5"/><path d="m487.476 457.039h24.524v-157.621h-24.524c-3.866 0-7 3.134-7 7v143.621c0 3.866 3.134 7 7 7z" fill="#548eb5"/><g><g><path d="m7.612 181.841c-4.204 0-7.612-3.408-7.612-7.612 0-65.764 53.503-119.268 119.268-119.268 4.204 0 7.612 3.408 7.612 7.612s-3.408 7.612-7.612 7.612c-57.371 0-104.045 46.675-104.045 104.045 0 4.203-3.408 7.611-7.611 7.611z" fill="#548eb5"/></g></g><g><g><path d="m39.136 180.519c-4.204 0-7.612-3.408-7.612-7.612 0-47.653 38.769-86.422 86.422-86.422 4.204 0 7.612 3.408 7.612 7.612s-3.408 7.612-7.612 7.612c-39.259 0-71.199 31.94-71.199 71.199.001 4.204-3.407 7.611-7.611 7.611z" fill="#548eb5"/></g></g><g><g><path d="m70.66 180.473c-4.204 0-7.612-3.408-7.612-7.612 0-30.296 24.648-54.944 54.944-54.944 4.204 0 7.612 3.408 7.612 7.612s-3.408 7.612-7.612 7.612c-21.902 0-39.721 17.819-39.721 39.721.001 4.203-3.407 7.611-7.611 7.611z" fill="#548eb5"/></g></g><circle cx="338.616" cy="267.893" fill="#f5fcff" r="31.524"/><path d="m348.77 297.757c-3.187 1.076-6.597 1.664-10.149 1.664-17.415 0-31.532-14.117-31.532-31.532 0-17.405 14.117-31.522 31.532-31.522 3.552 0 6.962.589 10.149 1.664-12.432 4.222-21.383 15.994-21.383 29.858-.001 13.864 8.95 25.646 21.383 29.868z" fill="#d8ecfe"/><path d="m429.16 135.12-236.21 136.37-26.36 15.22c-2.61 1.51-5.89 1.18-8.15-.82l-63.54-56.35c-3.58-3.17-3-8.91 1.14-11.3l264.65-152.8c13.25-7.64 29.74-4.57 39.42 6.54 1.32 1.51 2.52 3.18 3.56 4.98l28.06 48.59c1.93 3.35.78 7.63-2.57 9.57z" fill="#f5fcff"/><path d="m171.03 252.05 21.92 19.44-26.36 15.22c-2.61 1.51-5.89 1.18-8.15-.82l-63.54-56.35c-3.58-3.17-3-8.91 1.14-11.3l264.65-152.8c13.25-7.64 29.74-4.57 39.42 6.54l-223.94 129.29c-18.59 10.74-21.21 36.54-5.14 50.78z" fill="#d8ecfe"/></g></svg>