<svg id="Capa_1" enable-background="new 0 0 512 512" height="512" viewBox="0 0 512 512" width="512" xmlns="http://www.w3.org/2000/svg"><g><path d="m480.004 84.605v309.392h-448.006v-309.392c0-11.383 9.23-20.604 20.604-20.604h406.799c11.373 0 20.603 9.221 20.603 20.604z" fill="#f5fcff"/><path d="m31.998 352h448.007v41.998h-448.007z" fill="#d8ecfe"/><path d="m104.111 64.001c-11.373 0-20.604 9.22-20.604 20.604v309.392h-51.509v-309.392c0-11.383 9.23-20.604 20.604-20.604z" fill="#d8ecfe"/><path d="m441 351.997h-369.998c-3.866 0-7-3.134-7-7v-241.999c0-3.866 3.134-7 7-7h369.998c3.866 0 7 3.134 7 7v241.999c0 3.866-3.134 7-7 7z" fill="#98bce5"/><path d="m83.507 95.999v256.001h-12.502c-3.866 0-7-3.134-7-7v-242.001c0-3.866 3.134-7 7-7z" fill="#7bacdf"/><path d="m258.749 316.832c-1.763.729-3.732.729-5.495 0-39.998-16.54-66.37-55.551-66.37-99.347v-63.475c0-3.013 1.928-5.688 4.786-6.641l62.118-20.706c1.437-.479 2.99-.479 4.427 0l62.118 20.706c2.858.953 4.786 3.628 4.786 6.641v63.475c0 43.797-26.372 82.807-66.37 99.347z" fill="#f5fcff"/><g><g><path d="m272.001 215.724c-4.268 0-7.726-3.459-7.726-7.726v-16c0-4.562-3.711-8.274-8.274-8.274-4.562 0-8.274 3.712-8.274 8.274v16c0 4.267-3.459 7.726-7.726 7.726s-7.726-3.459-7.726-7.726v-16c0-13.083 10.643-23.726 23.726-23.726s23.726 10.643 23.726 23.726v16c0 4.266-3.458 7.726-7.726 7.726z" fill="#548eb5"/></g></g><path d="m231.001 207.997h50c3.866 0 7 3.134 7 7v34c0 3.866-3.134 7-7 7h-50c-3.866 0-7-3.134-7-7v-34c0-3.866 3.134-7 7-7z" fill="#ffde5c"/><path d="m244.607 208v47.996h-13.604c-3.866 0-7-3.134-7-7v-33.996c0-3.866 3.134-7 7-7z" fill="#ffc736"/><path d="m512 390.999v37c0 11.04-8.95 20-20 20h-472c-11.05 0-20-8.96-20-20v-37c0-3.87 3.13-7 7-7h185.001l13.002 10h104.75l10.248-10h184.999c3.87 0 7 3.13 7 7z" fill="#548eb5"/><path d="m72.11 447.989-.03.01h-52.08c-11.05 0-20-8.96-20-20v-37c0-3.87 3.13-7 7-7h44.51v43.39c0 11.38 9.22 20.6 20.6 20.6z" fill="#497090"/><path d="m320.001 383.996h-128v17c0 8.284 6.716 15 15 15h97.999c8.284 0 15-6.716 15-15v-17z" fill="#98bce5"/></g></svg>