<svg id="Capa_1" enable-background="new 0 0 512 512" height="512" viewBox="0 0 512 512" width="512" xmlns="http://www.w3.org/2000/svg"><g><path d="m505 432.043h-497.998c-3.866 0-7-3.134-7-7v-338.086c0-3.866 3.134-7 7-7h150.14c1.857 0 3.637.737 4.95 2.05l27.907 27.907c1.313 1.313 3.093 2.05 4.95 2.05h310.051c3.866 0 7 3.134 7 7v306.079c0 3.866-3.134 7-7 7z" fill="#ffde5c"/><path d="m32.15 79.958v352.082h-25.15c-3.866 0-7-3.134-7-7v-338.082c0-3.866 3.134-7 7-7z" fill="#ffc736"/><path d="m473.121 400.035h-434.111c-3.866 0-7-3.134-7-7v-242.063c0-3.866 3.134-7 7-7h434.111c3.866 0 7 3.134 7 7v242.063c0 3.866-3.134 7-7 7z" fill="#f5fcff"/><g><g><path d="m410.177 279.711h-94.9c-4.269 0-7.728-3.46-7.728-7.728s3.46-7.728 7.728-7.728h94.9c4.269 0 7.728 3.46 7.728 7.728s-3.459 7.728-7.728 7.728z" fill="#548eb5"/></g></g><g><g><path d="m410.177 343.727h-42.008c-4.268 0-7.728-3.46-7.728-7.728v-19.279c0-2.761-2.239-5-5-5h-46.171c-4.232 0-7.922-3.261-8.049-7.49-.131-4.377 3.377-7.966 7.725-7.966h59.223c4.268 0 7.728 3.46 7.728 7.728v24.279h33.956c4.232 0 7.922 3.261 8.049 7.49.131 4.376-3.377 7.966-7.725 7.966z" fill="#548eb5"/></g></g><g><g><path d="m368.169 247.703h-52.568c-4.232 0-7.922-3.261-8.049-7.49-.131-4.377 3.377-7.966 7.725-7.966h40.164c2.761 0 5-2.239 5-5v-19.28c0-4.268 3.46-7.728 7.728-7.728h41.684c4.232 0 7.922 3.261 8.049 7.49.131 4.377-3.377 7.966-7.725 7.966h-29.28c-2.761 0-5 2.239-5 5v19.28c0 4.268-3.46 7.728-7.728 7.728z" fill="#548eb5"/></g></g><g><g><path d="m196.853 279.711h-94.9c-4.269 0-7.728-3.46-7.728-7.728s3.46-7.728 7.728-7.728h94.9c4.269 0 7.728 3.46 7.728 7.728s-3.459 7.728-7.728 7.728z" fill="#548eb5"/></g></g><g><g><path d="m143.961 343.727h-41.684c-4.232 0-7.922-3.261-8.049-7.49-.131-4.377 3.377-7.966 7.725-7.966h29.28c2.761 0 5-2.239 5-5v-19.279c0-4.268 3.46-7.728 7.728-7.728h58.899c4.232 0 7.922 3.261 8.049 7.49.131 4.377-3.377 7.966-7.725 7.966h-46.494c-2.761 0-5 2.239-5 5v19.279c-.001 4.268-3.461 7.728-7.729 7.728z" fill="#548eb5"/></g></g><g><g><path d="m196.853 247.703h-52.892c-4.268 0-7.728-3.46-7.728-7.728v-19.28c0-2.761-2.239-5-5-5h-28.956c-4.232 0-7.922-3.261-8.049-7.49-.131-4.377 3.377-7.966 7.725-7.966h42.008c4.268 0 7.728 3.46 7.728 7.728v19.28c0 2.761 2.239 5 5 5h39.84c4.232 0 7.922 3.261 8.049 7.49.131 4.377-3.377 7.966-7.725 7.966z" fill="#548eb5"/></g></g><g fill="#ade194"><circle cx="95.949" cy="271.983" r="16.004"/><circle cx="95.949" cy="207.967" r="16.004"/><circle cx="95.949" cy="335.998" r="16.004"/></g><g fill="#ade194"><circle cx="416.181" cy="271.983" r="16.004"/><circle cx="416.181" cy="207.967" r="16.004"/><circle cx="416.181" cy="335.998" r="16.004"/></g><path d="m258.889 366.935c-1.763.729-3.732.729-5.495 0-40.008-16.544-66.388-55.565-66.388-99.372v-63.492c0-3.013 1.928-5.688 4.786-6.641l62.135-20.712c1.437-.479 2.99-.479 4.427 0l62.135 20.712c2.858.953 4.786 3.628 4.786 6.641v63.492c.002 43.807-26.378 82.828-66.386 99.372z" fill="#98bce5"/><g><g><path d="m272.145 265.8c-4.269 0-7.728-3.46-7.728-7.728v-16.004c0-4.563-3.712-8.275-8.276-8.275s-8.276 3.712-8.276 8.275v16.004c0 4.268-3.46 7.728-7.728 7.728s-7.728-3.46-7.728-7.728v-16.004c0-13.086 10.647-23.732 23.732-23.732s23.732 10.646 23.732 23.732v16.004c.001 4.268-3.459 7.728-7.728 7.728z" fill="#548eb5"/></g></g><path d="m231.134 258.072h50.016c3.866 0 7 3.134 7 7v34.012c0 3.866-3.134 7-7 7h-50.016c-3.866 0-7-3.134-7-7v-34.012c0-3.866 3.134-7 7-7z" fill="#f5fcff"/><path d="m244.74 258.07v48.019h-13.609c-3.866 0-7-3.134-7-7v-34.019c0-3.866 3.134-7 7-7z" fill="#d8ecfe"/></g></svg>