<svg id="Capa_1" enable-background="new 0 0 512 512" height="512" viewBox="0 0 512 512" width="512" xmlns="http://www.w3.org/2000/svg"><g><path d="m411.187 62.019c2.947.982 4.934 3.74 4.934 6.846v176.548c0 10.165-.546 20.238-1.619 30.176-5.289 49.198-23.393 95.241-51.425 134.129-23.867 33.115-54.919 61.033-91.395 81.302-15.021 8.351-30.97 15.403-47.703 20.98-114.745-38.249-192.15-145.634-192.15-266.587v-176.548c0-3.106 1.988-5.864 4.935-6.846l184.934-61.648c1.481-.494 3.083-.494 4.565 0z" fill="#f5fcff"/><path d="m173.051 451.214c22.289 20.743 48.094 37.991 76.704 50.765-7.618 3.401-15.434 6.485-23.431 9.228-1.516.52-3.171.52-4.687 0-113.456-38.922-189.808-145.667-189.808-265.794v-176.548c0-3.106 1.988-5.864 4.935-6.846l184.935-61.649c1.481-.494 3.082-.494 4.564 0l23.492 7.828-161.443 53.821c-2.947.982-4.934 3.74-4.934 6.846v176.548c-.001 79.848 33.732 153.779 89.673 205.801z" fill="#d8ecfe"/><path d="m223.978 477.737c-96.071-36.69-159.876-128.719-159.876-232.326v-153.291c0-3.106 1.988-5.864 4.935-6.846l152.659-50.886c1.481-.494 3.083-.494 4.564 0l152.659 50.886c2.947.982 4.935 3.74 4.935 6.846v153.292c0 103.607-63.805 195.635-159.876 232.325z" fill="#ade194"/><path d="m173.051 451.214c-67.034-45.465-108.953-121.829-108.953-205.801v-153.288c0-3.107 1.988-5.865 4.936-6.847l14.343-4.779v164.913c0 79.849 33.733 153.78 89.674 205.802z" fill="#7dce6f"/><path d="m159.93 202.066v-58.346c0-35.373 28.675-64.048 64.048-64.048 35.373 0 64.048 28.675 64.048 64.048v58.346h-32.024v-58.346c0-17.686-14.338-32.024-32.024-32.024-17.686 0-32.024 14.338-32.024 32.024v58.346z" fill="#f5fcff"/><path d="m414.503 275.589c-5.289 49.198-23.393 95.241-51.425 134.129-23.867 33.115-54.919 61.033-91.395 81.302-7.464-7.887-13.97-16.681-19.32-26.218-10.805-19.197-16.98-41.342-16.98-64.889 0-73.178 59.528-132.706 132.706-132.706 4.99 0 9.908.278 14.743.825 11.021 1.217 21.629 3.794 31.671 7.557z" fill="#d8ecfe"/><path d="m382.832 268.032c-7.588 83.828-56.971 157.593-130.469 196.77-10.805-19.197-16.98-41.342-16.98-64.889 0-16.928 3.186-33.135 9-48.033 13.475-34.599 41.063-62.198 75.663-75.673 14.908-5.815 31.104-9 48.043-9 4.99 0 9.907.279 14.743.825z" fill="#7dce6f"/><path d="m320.05 206.76v130.12c0 8.28-6.72 15-15 15h-162.14c-8.29 0-15-6.72-15-15v-130.12c0-8.29 6.71-15 15-15h162.14c8.28 0 15 6.71 15 15z" fill="#ffde5c"/><path d="m320.046 276.208v60.208c0 8.536-6.918 15.464-15.465 15.464h-60.198c13.475-34.599 41.064-62.198 75.663-75.672z" fill="#ffc736"/><path d="m174.3 351.88h-31.39c-8.29 0-15-6.72-15-15v-130.12c0-8.29 6.71-15 15-15h31.39c-8.54 0-15.47 6.92-15.47 15.47v129.19c0 8.53 6.93 15.46 15.47 15.46z" fill="#ffc736"/><path d="m247.996 247.799c0-13.265-10.753-24.018-24.018-24.018s-24.018 10.753-24.018 24.018c0 7.112 3.093 13.499 8.005 17.897v38.145c0 8.843 7.169 16.012 16.012 16.012s16.012-7.169 16.012-16.012v-38.144c4.913-4.398 8.007-10.786 8.007-17.898z" fill="#497090"/><circle cx="368.087" cy="399.913" fill="#f5fcff" r="112.084"/><path d="m448.143 399.913c0 26.197-12.578 49.445-32.022 64.054-13.372 10.052-30.012-3.989-48.033-3.989s-34.661 14.041-48.043 3.979c-19.444-14.599-32.022-37.857-32.022-64.044 0-44.218 35.847-80.065 80.065-80.065s80.055 35.847 80.055 80.065z" fill="#98bce5"/><circle cx="368.087" cy="386.901" fill="#ffeee6" r="32.024"/><path d="m378.398 417.233c-3.237 1.093-6.701 1.691-10.31 1.691-17.691 0-32.022-14.341-32.022-32.022 0-17.691 14.331-32.022 32.022-32.022 3.608 0 7.073.598 10.31 1.691-12.629 4.299-21.712 16.248-21.712 30.331 0 14.073 9.083 26.032 21.712 30.331z" fill="#ffdfcf"/><path d="m416.122 436.544v27.424c-13.372 10.052-30.012 16.011-48.033 16.011s-34.661-5.959-48.043-16.021v-27.413c0-11.382 9.237-20.619 20.619-20.619h54.837c11.392-.002 20.62 9.236 20.62 20.618z" fill="#f07281"/><path d="m378.398 479.318c-3.371.433-6.815.66-10.31.66-18.021 0-34.661-5.959-48.043-16.021v-27.413c0-11.382 9.237-20.619 20.619-20.619h20.619c-11.382 0-20.619 9.237-20.619 20.619v27.413c10.785 8.114 23.693 13.557 37.734 15.361z" fill="#eb5569"/></g></svg>