<svg id="Capa_1" enable-background="new 0 0 512 512" height="512" viewBox="0 0 512 512" width="512" xmlns="http://www.w3.org/2000/svg"><g><path d="m191.995 169.992v-105.987c0-35.349 28.656-64.005 64.005-64.005 35.349 0 64.005 28.656 64.005 64.005v105.987h-32.003v-105.987c0-17.675-14.328-32.003-32.003-32.003-17.675 0-32.003 14.328-32.003 32.003v105.987z" fill="#98bce5"/><g><g><g><path d="m127.99 279.728h-74.006c-4.267 0-7.727-3.46-7.727-7.727s3.46-7.727 7.727-7.727h74.005c4.267 0 7.727 3.46 7.727 7.727s-3.459 7.727-7.726 7.727z" fill="#548eb5"/></g><g><path d="m95.987 343.734h-41.679c-4.231 0-7.92-3.26-8.047-7.489-.131-4.376 3.377-7.965 7.723-7.965h29.276c2.761 0 5-2.239 5-5v-19.276c0-4.268 3.46-7.727 7.727-7.727h31.678c4.231 0 7.921 3.26 8.047 7.489.131 4.376-3.377 7.965-7.723 7.965h-24.275v24.276c0 4.267-3.459 7.727-7.727 7.727z" fill="#548eb5"/></g><g><path d="m127.99 247.726h-32.003c-4.268 0-7.727-3.46-7.727-7.727v-19.275c0-2.761-2.239-5-5-5h-28.952c-4.231 0-7.92-3.26-8.047-7.489-.131-4.376 3.377-7.965 7.723-7.965h42.003c4.268 0 7.727 3.46 7.727 7.727v24.275h23.951c4.231 0 7.921 3.26 8.047 7.489.132 4.376-3.376 7.965-7.722 7.965z" fill="#548eb5"/></g><g><path d="m458.016 279.728h-74.006c-4.267 0-7.727-3.46-7.727-7.727s3.46-7.727 7.727-7.727h74.005c4.267 0 7.727 3.46 7.727 7.727s-3.459 7.727-7.726 7.727z" fill="#548eb5"/></g><g><path d="m458.016 343.734h-42.003c-4.268 0-7.727-3.46-7.727-7.727v-19.276c0-2.761-2.239-5-5-5h-18.951c-4.231 0-7.921-3.26-8.047-7.489-.131-4.376 3.377-7.965 7.723-7.965h32.002c4.268 0 7.727 3.46 7.727 7.727v19.276c0 2.761 2.239 5 5 5h28.952c4.231 0 7.921 3.26 8.047 7.489.132 4.376-3.377 7.965-7.723 7.965z" fill="#548eb5"/></g><g><path d="m416.013 247.726h-31.678c-4.231 0-7.921-3.26-8.047-7.489-.131-4.376 3.377-7.965 7.723-7.965h19.275c2.761 0 5-2.239 5-5v-19.275c0-4.268 3.46-7.727 7.727-7.727h41.679c4.231 0 7.921 3.26 8.048 7.489.131 4.376-3.377 7.965-7.723 7.965h-29.277c-2.761 0-5 2.239-5 5v19.275c0 4.267-3.46 7.727-7.727 7.727z" fill="#548eb5"/></g></g></g><path d="m368.556 384.01h-225.112c-8.535 0-15.454-6.919-15.454-15.454v-193.11c0-8.535 6.919-15.454 15.454-15.454h225.113c8.535 0 15.454 6.919 15.454 15.454v193.11c-.001 8.535-6.92 15.454-15.455 15.454z" fill="#ffde5c"/><path d="m441.016 512h-370.032c-3.866 0-7-3.134-7-7v-82.008c0-3.866 3.134-7 7-7h370.031c3.866 0 7 3.134 7 7v82.008c.001 3.866-3.133 7-6.999 7z" fill="#98bce5"/><g fill="#ade194"><circle cx="47.983" cy="272.001" r="16.001"/><circle cx="47.983" cy="207.996" r="16.001"/><circle cx="47.983" cy="336.007" r="16.001"/></g><g fill="#ade194"><circle cx="464.017" cy="272.001" r="16.001"/><circle cx="464.017" cy="207.996" r="16.001"/><circle cx="464.017" cy="336.007" r="16.001"/></g><path d="m194.956 384.012h-51.514c-8.531 0-15.454-6.923-15.454-15.454v-193.115c0-8.531 6.923-15.454 15.454-15.454h51.514c-8.531 0-15.454 6.923-15.454 15.454v193.115c0 8.53 6.924 15.454 15.454 15.454z" fill="#ffc736"/><path d="m352.01 198.99v146.02c0 3.86-3.14 7-7 7h-178.02c-3.86 0-7-3.14-7-7v-146.02c0-3.86 3.14-7 7-7h178.02c3.86 0 7 3.14 7 7z" fill="#fee97e"/><path d="m179.5 192v160.01h-12.51c-3.86 0-7-3.14-7-7v-146.02c0-3.86 3.14-7 7-7h12.5z" fill="#f9da58"/><path d="m280.002 248.062c0-13.256-10.746-24.002-24.002-24.002s-24.002 10.746-24.002 24.002c0 7.107 3.091 13.49 8 17.885v38.12c0 8.837 7.164 16.001 16.001 16.001s16.001-7.164 16.001-16.001v-38.118c4.91-4.396 8.002-10.779 8.002-17.887z" fill="#548eb5"/><g fill="#f5fcff"><path d="m148.539 452.132c-2.133-3.696-6.86-4.963-10.555-2.828l-2.267 1.309v-2.618c0-4.267-3.46-7.727-7.727-7.727s-7.727 3.46-7.727 7.727v2.618l-2.267-1.309c-3.696-2.135-8.422-.868-10.555 2.828-2.134 3.696-.868 8.421 2.828 10.555l2.267 1.309-2.267 1.309c-3.696 2.134-4.962 6.86-2.828 10.555 1.431 2.479 4.029 3.865 6.699 3.865 1.311 0 2.64-.334 3.856-1.037l2.267-1.309v2.618c0 4.267 3.46 7.727 7.727 7.727s7.727-3.46 7.727-7.727v-2.618l2.267 1.309c1.217.703 2.546 1.037 3.856 1.037 2.67 0 5.268-1.386 6.699-3.865 2.134-3.695.868-8.421-2.828-10.555l-2.267-1.309 2.267-1.309c3.695-2.134 4.962-6.86 2.828-10.555z"/><path d="m212.544 452.132c-2.135-3.696-6.86-4.963-10.555-2.828l-2.267 1.309v-2.618c0-4.267-3.46-7.727-7.727-7.727s-7.727 3.46-7.727 7.727v2.618l-2.267-1.309c-3.696-2.135-8.422-.868-10.555 2.828-2.134 3.696-.868 8.421 2.828 10.555l2.267 1.309-2.267 1.309c-3.696 2.134-4.962 6.86-2.828 10.555 1.431 2.479 4.029 3.865 6.699 3.865 1.311 0 2.64-.334 3.856-1.037l2.267-1.309v2.618c0 4.267 3.46 7.727 7.727 7.727s7.727-3.46 7.727-7.727v-2.618l2.267 1.309c1.217.703 2.546 1.037 3.856 1.037 2.67 0 5.268-1.386 6.699-3.865 2.134-3.695.868-8.421-2.828-10.555l-2.267-1.309 2.267-1.309c3.696-2.134 4.962-6.86 2.828-10.555z"/><path d="m276.549 452.132c-2.134-3.696-6.86-4.963-10.555-2.828l-2.267 1.309v-2.618c0-4.267-3.46-7.727-7.727-7.727s-7.727 3.46-7.727 7.727v2.618l-2.267-1.309c-3.696-2.135-8.422-.868-10.555 2.828-2.134 3.696-.868 8.421 2.828 10.555l2.267 1.309-2.267 1.309c-3.696 2.134-4.962 6.86-2.828 10.555 1.431 2.479 4.029 3.865 6.699 3.865 1.311 0 2.64-.334 3.856-1.037l2.267-1.309v2.618c0 4.267 3.46 7.727 7.727 7.727s7.727-3.46 7.727-7.727v-2.618l2.267 1.309c1.217.703 2.546 1.037 3.856 1.037 2.67 0 5.268-1.386 6.699-3.865 2.134-3.695.868-8.421-2.828-10.555l-2.267-1.309 2.267-1.309c3.696-2.134 4.962-6.86 2.828-10.555z"/><path d="m340.554 452.132c-2.134-3.696-6.859-4.963-10.555-2.828l-2.267 1.309v-2.618c0-4.267-3.46-7.727-7.727-7.727s-7.727 3.46-7.727 7.727v2.618l-2.267-1.309c-3.695-2.135-8.422-.868-10.555 2.828-2.134 3.696-.868 8.421 2.828 10.555l2.267 1.309-2.267 1.309c-3.696 2.134-4.962 6.86-2.828 10.555 1.431 2.479 4.029 3.865 6.699 3.865 1.311 0 2.64-.334 3.856-1.037l2.267-1.309v2.618c0 4.267 3.46 7.727 7.727 7.727s7.727-3.46 7.727-7.727v-2.618l2.267 1.309c1.217.703 2.546 1.037 3.856 1.037 2.67 0 5.268-1.386 6.699-3.865 2.134-3.695.868-8.421-2.828-10.555l-2.267-1.309 2.267-1.309c3.696-2.134 4.962-6.86 2.828-10.555z"/><path d="m401.731 465.305-2.267-1.309 2.267-1.309c3.696-2.134 4.962-6.86 2.828-10.555-2.134-3.696-6.859-4.963-10.555-2.828l-2.267 1.309v-2.618c0-4.267-3.46-7.727-7.727-7.727s-7.727 3.46-7.727 7.727v2.618l-2.267-1.309c-3.697-2.135-8.421-.868-10.555 2.828s-.868 8.421 2.828 10.555l2.267 1.309-2.267 1.309c-3.696 2.134-4.962 6.86-2.828 10.555 1.431 2.479 4.029 3.865 6.699 3.865 1.311 0 2.64-.334 3.856-1.037l2.267-1.309v2.618c0 4.267 3.46 7.727 7.727 7.727s7.727-3.46 7.727-7.727v-2.618l2.267 1.309c1.217.703 2.546 1.037 3.856 1.037 2.67 0 5.268-1.386 6.699-3.865 2.135-3.695.868-8.421-2.828-10.555z"/></g></g></svg>