<svg id="Capa_1" enable-background="new 0 0 512 512" height="512" viewBox="0 0 512 512" width="512" xmlns="http://www.w3.org/2000/svg"><g><path d="m118.474 447.997h-75.396l-10.302-32 12.224-10h72.667l11.108 10z" fill="#497090"/><path d="m468.922 447.997h-75.396l-10.301-32 11.108-10h73.334l11.557 10z" fill="#497090"/><path d="m505 415.995h-497.998c-3.866 0-7-3.134-7-7v-337.992c0-3.866 3.134-7 7-7h497.998c3.866 0 7 3.134 7 7v337.992c0 3.866-3.134 7-7 7z" fill="#548eb5"/><path d="m31.997 64.004v351.992h-24.997c-3.866 0-7-3.134-7-7v-337.992c0-3.866 3.134-7 7-7z" fill="#497090"/><path d="m472.998 383.998h-433.996c-3.866 0-7-3.134-7-7v-273.998c0-3.866 3.134-7 7-7h433.996c3.866 0 7 3.134 7 7v273.998c0 3.866-3.134 7-7 7z" fill="#ffde5c"/><path d="m440.998 351.998h-369.996c-3.866 0-7-3.134-7-7v-209.998c0-3.866 3.134-7 7-7h369.997c3.866 0 7 3.134 7 7v209.998c-.001 3.866-3.135 7-7.001 7z" fill="#548eb5"/><path d="m233.547 224h-98.546c-3.866 0-7-3.134-7-7v-49.999c0-3.866 3.134-7 7-7h98.546c3.866 0 7 3.134 7 7v49.999c0 3.866-3.134 7-7 7z" fill="#98bce5"/><g><g><g><path d="m169.68 199.727h-9.786c-4.267 0-7.726-3.459-7.726-7.726s3.459-7.726 7.726-7.726h9.786c4.267 0 7.726 3.459 7.726 7.726s-3.459 7.726-7.726 7.726z" fill="#ffde5c"/></g><g><path d="m208.654 199.727h-9.786c-4.267 0-7.726-3.459-7.726-7.726s3.459-7.726 7.726-7.726h9.786c4.267 0 7.726 3.459 7.726 7.726s-3.458 7.726-7.726 7.726z" fill="#ffde5c"/></g></g></g><g><g><path d="m150.192 263.726h-9.786c-4.267 0-7.726-3.459-7.726-7.726s3.459-7.726 7.726-7.726h9.786c4.267 0 7.726 3.459 7.726 7.726s-3.459 7.726-7.726 7.726z" fill="#f5fcff"/></g><g><path d="m189.167 263.726h-9.786c-4.267 0-7.726-3.459-7.726-7.726s3.459-7.726 7.726-7.726h9.786c4.267 0 7.726 3.459 7.726 7.726s-3.459 7.726-7.726 7.726z" fill="#f5fcff"/></g><g><path d="m228.142 263.726h-9.786c-4.267 0-7.726-3.459-7.726-7.726s3.459-7.726 7.726-7.726h9.786c4.267 0 7.726 3.459 7.726 7.726s-3.459 7.726-7.726 7.726z" fill="#f5fcff"/></g><g><path d="m150.192 295.725h-9.786c-4.267 0-7.726-3.459-7.726-7.726s3.459-7.726 7.726-7.726h9.786c4.267 0 7.726 3.459 7.726 7.726s-3.459 7.726-7.726 7.726z" fill="#f5fcff"/></g><g><path d="m189.167 295.725h-9.786c-4.267 0-7.726-3.459-7.726-7.726s3.459-7.726 7.726-7.726h9.786c4.267 0 7.726 3.459 7.726 7.726s-3.459 7.726-7.726 7.726z" fill="#f5fcff"/></g><g><path d="m228.142 295.725h-9.786c-4.267 0-7.726-3.459-7.726-7.726s3.459-7.726 7.726-7.726h9.786c4.267 0 7.726 3.459 7.726 7.726s-3.459 7.726-7.726 7.726z" fill="#f5fcff"/></g><g><path d="m150.192 327.724h-9.786c-4.267 0-7.726-3.459-7.726-7.726s3.459-7.726 7.726-7.726h9.786c4.267 0 7.726 3.459 7.726 7.726s-3.459 7.726-7.726 7.726z" fill="#f5fcff"/></g><g><path d="m189.167 327.724h-9.786c-4.267 0-7.726-3.459-7.726-7.726s3.459-7.726 7.726-7.726h9.786c4.267 0 7.726 3.459 7.726 7.726s-3.459 7.726-7.726 7.726z" fill="#f5fcff"/></g><g><path d="m228.142 327.724h-9.786c-4.267 0-7.726-3.459-7.726-7.726s3.459-7.726 7.726-7.726h9.786c4.267 0 7.726 3.459 7.726 7.726s-3.459 7.726-7.726 7.726z" fill="#f5fcff"/></g></g><circle cx="351.999" cy="239.999" fill="#497090" r="84.603"/><path d="m416 240c0 32.72-24.57 59.72-56.27 63.54-2.53.3-5.11.46-7.73.46s-5.2-.16-7.73-.46c-31.7-3.82-56.27-30.82-56.27-63.54 0-32.73 24.57-59.72 56.27-63.54 2.53-.3 5.11-.46 7.73-.46s5.2.16 7.73.46c31.7 3.82 56.27 30.81 56.27 63.54z" fill="#ffde5c"/><g><g><g><path d="m359.73 176.46v31.54c0 4.27-3.46 7.73-7.73 7.73s-7.73-3.46-7.73-7.73v-31.54c2.53-.3 5.11-.46 7.73-.46s5.2.16 7.73.46z" fill="#ffc736"/></g><g><path d="m359.73 272v31.54c-2.53.3-5.11.46-7.73.46s-5.2-.16-7.73-.46v-31.54c0-4.27 3.46-7.73 7.73-7.73s7.73 3.46 7.73 7.73z" fill="#ffc736"/></g></g></g><path d="m73.001 224h-41v-64.002h41c3.866 0 7 3.134 7 7v50.002c0 3.866-3.134 7-7 7z" fill="#ffc736"/><path d="m73.001 319.998h-41v-64.002h41c3.866 0 7 3.134 7 7v50.002c0 3.866-3.134 7-7 7z" fill="#ffc736"/><circle cx="351.999" cy="239.999" fill="#548eb5" r="32"/><path d="m362.304 270.308c-3.235 1.092-6.696 1.69-10.302 1.69-17.678 0-32.008-14.33-32.008-31.997 0-17.678 14.33-31.997 32.008-31.997 3.606 0 7.067.598 10.302 1.69-12.62 4.286-21.706 16.236-21.706 30.308 0 14.07 9.087 26.02 21.706 30.306z" fill="#497090"/></g></svg>