<svg id="Capa_1" enable-background="new 0 0 512 512" height="512" viewBox="0 0 512 512" width="512" xmlns="http://www.w3.org/2000/svg"><g><path d="m228.81 504.498c-102.932 0-186.374-83.442-186.374-186.373v-124.25c0-102.931 83.442-186.373 186.373-186.373 102.931 0 186.373 83.442 186.373 186.373v124.249c.001 102.932-83.441 186.374-186.372 186.374z" fill="#ffcebf"/><path d="m253.808 502.83c-8.18 1.1-16.52 1.67-25 1.67-102.93 0-186.37-83.44-186.37-186.38v-124.24c0-102.94 83.44-186.38 186.37-186.38 8.48 0 16.82.57 25 1.67-91.11 12.21-161.37 90.25-161.37 184.71v124.24c0 94.46 70.26 172.5 161.37 184.71z" fill="#ffb09e"/><g><g><path d="m415.056 247.16c-4.143 0-7.5-3.358-7.5-7.5v-45.78c0-47.779-18.606-92.7-52.394-126.487-33.775-33.787-78.692-52.393-126.476-52.393-38.741 0-75.591 12.175-106.564 35.208-3.324 2.473-8.022 1.782-10.494-1.542s-1.781-8.022 1.542-10.494c33.582-24.972 73.526-38.172 115.516-38.172 51.792 0 100.475 20.167 137.083 56.788 36.619 36.619 56.786 85.306 56.786 137.092v45.78c.001 4.142-3.357 7.5-7.499 7.5z" fill="#f5fcff"/></g><g><path d="m93.168 453.56c-1.992 0-3.979-.789-5.455-2.351-34.111-36.124-52.897-83.39-52.897-133.089v-124.24c0-49.7 18.786-96.965 52.897-133.089 2.843-3.012 7.589-3.148 10.603-.304 3.011 2.844 3.147 7.591.304 10.603-31.471 33.328-48.803 76.936-48.803 122.791v124.24c0 45.854 17.332 89.462 48.803 122.791 2.844 3.012 2.708 7.759-.304 10.603-1.45 1.366-3.301 2.045-5.148 2.045z" fill="#f5fcff"/></g><g><path d="m228.686 512c-41.99 0-81.935-13.2-115.516-38.172-3.324-2.472-4.015-7.17-1.542-10.494 2.472-3.324 7.169-4.015 10.494-1.542 30.973 23.033 67.823 35.208 106.564 35.208 98.629 0 178.87-80.245 178.87-178.88v-45.78c0-4.142 3.357-7.5 7.5-7.5s7.5 3.358 7.5 7.5v45.78c0 106.906-86.97 193.88-193.87 193.88z" fill="#f5fcff"/></g><g><path d="m349.451 423.28c-1.657 0-3.325-.547-4.714-1.671-3.22-2.606-3.717-7.329-1.11-10.548 21.196-26.181 32.869-59.188 32.869-92.94v-124.241c0-33.745-11.671-66.756-32.861-92.953-2.605-3.22-2.106-7.943 1.114-10.548s7.942-2.106 10.548 1.114c23.344 28.858 36.199 65.219 36.199 102.387v124.24c0 37.177-12.86 73.536-36.211 102.379-1.481 1.831-3.648 2.781-5.834 2.781z" fill="#f5fcff"/></g><g><path d="m73.376 247.16c-4.142 0-7.5-3.358-7.5-7.5v-45.78c0-89.779 73.036-162.82 162.81-162.82 37.178 0 73.537 12.86 102.379 36.211 3.219 2.606 3.716 7.329 1.109 10.548s-7.326 3.718-10.549 1.11c-26.18-21.196-59.187-32.869-92.94-32.869-81.503 0-147.81 66.312-147.81 147.82v45.78c.001 4.142-3.357 7.5-7.499 7.5z" fill="#f5fcff"/></g><g><path d="m228.686 480.94c-89.774 0-162.81-73.041-162.81-162.82v-45.78c0-4.142 3.358-7.5 7.5-7.5s7.5 3.358 7.5 7.5v45.78c0 81.508 66.307 147.82 147.81 147.82 33.753 0 66.76-11.673 92.94-32.869 3.22-2.606 7.941-2.108 10.549 1.11 2.606 3.219 2.109 7.942-1.109 10.548-28.843 23.351-65.202 36.211-102.38 36.211z" fill="#f5fcff"/></g><g><path d="m352.936 247.16c-4.143 0-7.5-3.358-7.5-7.5v-45.78c0-31.188-12.144-60.506-34.193-82.557-22.06-22.049-51.379-34.193-82.556-34.193-25.923 0-50.466 8.313-70.976 24.042-3.286 2.52-7.994 1.9-10.516-1.388-2.521-3.287-1.899-7.995 1.388-10.516 23.152-17.754 50.852-27.139 80.104-27.139 35.183 0 68.268 13.703 93.162 38.585 24.885 24.885 38.588 57.971 38.588 93.165v45.78c-.001 4.143-3.359 7.501-7.501 7.501z" fill="#f5fcff"/></g><g><path d="m228.686 449.87c-29.252 0-56.952-9.384-80.104-27.139-3.287-2.521-3.908-7.229-1.388-10.516 2.522-3.287 7.229-3.909 10.516-1.388 20.51 15.729 45.053 24.042 70.976 24.042 64.375 0 116.75-52.374 116.75-116.75v-45.78c0-4.142 3.357-7.5 7.5-7.5s7.5 3.358 7.5 7.5v45.78c0 72.648-59.103 131.751-131.75 131.751z" fill="#f5fcff"/></g><g><path d="m130.041 401.17c-2.252 0-4.479-1.01-5.956-2.935-17.761-23.147-27.149-50.851-27.149-80.116v-124.239c0-29.201 9.35-56.853 27.043-79.979 1.365-1.858 3.565-3.065 6.047-3.065 4.142 0 7.5 3.353 7.5 7.495v.01c0 1.65-.544 3.254-1.548 4.564-15.728 20.51-24.042 45.053-24.042 70.976v124.24c0 25.934 8.316 50.48 24.05 70.984 2.521 3.286 1.902 7.995-1.384 10.516-1.362 1.044-2.968 1.549-4.561 1.549z" fill="#f5fcff"/></g><g><path d="m305.119 378.94c-1.483 0-2.981-.438-4.289-1.353-3.396-2.373-4.225-7.048-1.852-10.444 10.073-14.414 15.397-31.366 15.397-49.023v-124.24c0-17.667-5.324-34.618-15.396-49.022-2.373-3.394-1.546-8.07 1.849-10.444 3.396-2.373 8.071-1.545 10.444 1.848 11.844 16.937 18.104 36.86 18.104 57.618v124.24c0 20.747-6.26 40.67-18.103 57.616-1.457 2.087-3.787 3.204-6.154 3.204z" fill="#f5fcff"/></g><g><path d="m135.496 247.16c-4.142 0-7.5-3.358-7.5-7.5v-45.78c0-55.521 45.169-100.69 100.69-100.69 20.759 0 40.683 6.26 57.618 18.104 3.395 2.374 4.222 7.05 1.849 10.444-2.375 3.394-7.048 4.223-10.445 1.848-14.401-10.072-31.353-15.396-49.021-15.396-47.25 0-85.69 38.44-85.69 85.69v45.78c-.001 4.142-3.359 7.5-7.501 7.5z" fill="#f5fcff"/></g><g><path d="m228.686 418.81c-55.521 0-100.69-45.169-100.69-100.69v-45.78c0-4.142 3.358-7.5 7.5-7.5s7.5 3.358 7.5 7.5v45.78c0 47.25 38.44 85.69 85.69 85.69 17.662 0 34.614-5.327 49.021-15.406 3.395-2.375 8.07-1.547 10.444 1.847s1.548 8.07-1.847 10.444c-16.94 11.851-36.864 18.115-57.618 18.115z" fill="#f5fcff"/></g><g><path d="m290.806 247.16c-4.143 0-7.5-3.358-7.5-7.5v-45.78c0-14.595-5.68-28.313-15.993-38.626-10.32-10.32-24.038-16.003-38.626-16.003-10.64 0-20.947 3.06-29.808 8.849-3.468 2.265-8.116 1.291-10.381-2.177-2.266-3.468-1.291-8.115 2.177-10.381 11.307-7.387 24.451-11.291 38.012-11.291 18.596 0 36.081 7.244 49.234 20.397 13.146 13.147 20.386 30.631 20.386 49.233v45.78c-.001 4.141-3.359 7.499-7.501 7.499z" fill="#f5fcff"/></g><g><path d="m173.022 353.222c-2.758 0-5.412-1.526-6.722-4.164-4.8-9.658-7.233-20.067-7.233-30.938v-124.24c0-10.871 2.434-21.28 7.233-30.938 1.843-3.709 6.344-5.223 10.054-3.378 3.709 1.843 5.222 6.345 3.378 10.054-3.76 7.565-5.666 15.728-5.666 24.262v124.24c0 8.534 1.906 16.697 5.666 24.262 1.843 3.709.331 8.211-3.378 10.054-1.073.533-2.211.786-3.332.786z" fill="#f5fcff"/></g><g><path d="m228.686 387.75c-13.561 0-26.706-3.904-38.012-11.291-3.468-2.266-4.442-6.913-2.177-10.381 2.266-3.468 6.914-4.442 10.381-2.177 8.861 5.789 19.168 8.849 29.808 8.849 30.117 0 54.62-24.507 54.62-54.63v-45.78c0-4.142 3.357-7.5 7.5-7.5s7.5 3.358 7.5 7.5v45.78c0 38.394-31.232 69.63-69.62 69.63z" fill="#f5fcff"/></g><g><path d="m258.922 332.752c-.58 0-1.169-.068-1.757-.209-4.028-.967-6.509-5.016-5.542-9.044.413-1.72.623-3.53.623-5.379v-124.24c0-1.849-.209-3.659-.623-5.379-.967-4.028 1.514-8.077 5.542-9.044 4.029-.965 8.077 1.514 9.044 5.542.688 2.866 1.036 5.854 1.036 8.881v124.24c0 3.027-.349 6.015-1.036 8.881-.826 3.439-3.898 5.751-7.287 5.751z" fill="#f5fcff"/></g><g><path d="m197.626 247.16c-4.142 0-7.5-3.358-7.5-7.5v-45.78c0-21.268 17.298-38.57 38.56-38.57 3.028 0 6.017.349 8.882 1.038 4.027.968 6.508 5.018 5.54 9.045-.968 4.028-5.019 6.507-9.045 5.54-1.719-.413-3.528-.623-5.377-.623-12.991 0-23.56 10.573-23.56 23.57v45.78c0 4.142-3.358 7.5-7.5 7.5z" fill="#f5fcff"/></g><g><path d="m228.686 356.69c-21.262 0-38.56-17.302-38.56-38.57v-45.78c0-4.142 3.358-7.5 7.5-7.5s7.5 3.358 7.5 7.5v45.78c0 12.997 10.569 23.57 23.56 23.57 1.849 0 3.659-.209 5.377-.623 4.026-.967 8.077 1.513 9.045 5.54s-1.513 8.077-5.54 9.045c-2.865.689-5.854 1.038-8.882 1.038z" fill="#f5fcff"/></g></g><circle cx="368.466" cy="395.78" fill="#f07281" r="108.718"/><path d="m446.118 395.78c0 25.41-12.2 47.96-31.06 62.13-12.97 9.75-29.11 5.53-46.59 5.53s-33.62 4.22-46.6-5.54c-18.86-14.16-31.06-36.72-31.06-62.12 0-42.89 34.77-77.66 77.66-77.66s77.65 34.77 77.65 77.66z" fill="#f5fcff"/><circle cx="368.466" cy="383.249" fill="#ffeee6" r="31.062"/><path d="m378.468 412.67c-3.14 1.06-6.5 1.64-10 1.64-17.16 0-31.06-13.91-31.06-31.06 0-17.16 13.9-31.06 31.06-31.06 3.5 0 6.86.58 10 1.64-12.25 4.17-21.06 15.76-21.06 29.42 0 13.65 8.81 25.25 21.06 29.42z" fill="#ffdfcf"/><path d="m415.058 431.31v26.6c-12.97 9.75-29.11 15.53-46.59 15.53s-33.62-5.78-46.6-15.54v-26.59c0-11.04 8.96-20 20-20h53.19c11.05 0 20 8.96 20 20z" fill="#98bce5"/><path d="m378.468 472.8c-3.27.42-6.61.64-10 .64-17.48 0-33.62-5.78-46.6-15.54v-26.59c0-11.046 8.954-20 20-20h20c-11.04 0-20 8.96-20 20v22.985c0 2.304 1.122 4.476 3.027 5.771 9.815 6.673 21.243 11.15 33.573 12.734z" fill="#7bacdf"/></g></svg>