<svg id="Capa_1" enable-background="new 0 0 512 512" height="512" viewBox="0 0 512 512" width="512" xmlns="http://www.w3.org/2000/svg"><g><path d="m336.544 79.869h-321.08c-8.54 0-15.464 6.923-15.464 15.464v129.191c0 8.541 6.924 15.464 15.464 15.464h45.276c1.856 0 3.637.737 4.949 2.05l25.024 25.02c2.734 2.733 7.165 2.733 9.899 0l25.024-25.02c1.313-1.313 3.093-2.05 4.949-2.05h205.957c8.541 0 15.464-6.924 15.464-15.464v-129.191c.002-8.541-6.922-15.464-15.462-15.464z" fill="#98bce5"/><path d="m20.619 95.337v129.19c0 8.536 6.928 15.464 15.464 15.464h-20.619c-8.536 0-15.464-6.928-15.464-15.464v-129.19c0-8.547 6.928-15.464 15.464-15.464h20.619c-8.536-.001-15.464 6.917-15.464 15.464z" fill="#7bacdf"/><path d="m175.456 432.131h321.079c8.541 0 15.464-6.924 15.464-15.464v-128.775c0-8.541-6.924-15.464-15.464-15.464h-45.557c-1.856 0-3.637-.737-4.949-2.05l-25.024-25.02c-2.734-2.733-7.165-2.733-9.899 0l-25.024 25.02c-1.313 1.313-3.093 2.05-4.949 2.05h-205.677c-8.541 0-15.464 6.924-15.464 15.464v128.775c0 8.541 6.924 15.464 15.464 15.464z" fill="#ade194"/><path d="m180.614 287.889v128.777c0 8.536 6.918 15.464 15.464 15.464h-20.619c-8.547 0-15.464-6.928-15.464-15.464v-128.777c0-8.536 6.918-15.464 15.464-15.464h20.619c-8.546 0-15.464 6.928-15.464 15.464z" fill="#7dce6f"/><g><g><path d="m111.675 167.242c-4.271 0-7.732-3.462-7.732-7.732v-32.022c0-4.565-3.714-8.279-8.28-8.279s-8.28 3.714-8.28 8.279v32.022c0 4.27-3.461 7.732-7.732 7.732s-7.732-3.462-7.732-7.732v-32.022c0-13.092 10.652-23.744 23.744-23.744s23.744 10.651 23.744 23.744v32.022c0 4.27-3.461 7.732-7.732 7.732z" fill="#548eb5"/></g></g><g><path d="m287.96 215.697h-96.072c-4.271 0-7.732-3.462-7.732-7.732s3.461-7.732 7.732-7.732h96.072c4.271 0 7.732 3.462 7.732 7.732.001 4.27-3.461 7.732-7.732 7.732z" fill="#f5fcff"/></g><g><path d="m287.96 183.673h-96.072c-4.271 0-7.732-3.462-7.732-7.732s3.461-7.732 7.732-7.732h96.072c4.271 0 7.732 3.462 7.732 7.732.001 4.27-3.461 7.732-7.732 7.732z" fill="#f5fcff"/></g><g><path d="m287.96 151.649h-96.072c-4.271 0-7.732-3.462-7.732-7.732s3.461-7.732 7.732-7.732h96.072c4.271 0 7.732 3.462 7.732 7.732.001 4.27-3.461 7.732-7.732 7.732z" fill="#f5fcff"/></g><g><path d="m287.96 119.626h-96.072c-4.271 0-7.732-3.462-7.732-7.732s3.461-7.732 7.732-7.732h96.072c4.271 0 7.732 3.462 7.732 7.732s-3.461 7.732-7.732 7.732z" fill="#f5fcff"/></g><g><path d="m271.795 360.225c-4.271 0-7.732-3.462-7.732-7.732v-32.022c0-4.565-3.714-8.28-8.28-8.28s-8.28 3.715-8.28 8.28v32.022c0 4.27-3.461 7.732-7.732 7.732s-7.732-3.462-7.732-7.732v-32.022c0-13.093 10.652-23.744 23.744-23.744s23.744 10.651 23.744 23.744v32.022c0 4.27-3.461 7.732-7.732 7.732z" fill="#548eb5"/></g><g><path d="m448.079 408.261h-96.072c-4.271 0-7.732-3.462-7.732-7.732s3.461-7.732 7.732-7.732h96.072c4.271 0 7.732 3.462 7.732 7.732.001 4.27-3.461 7.732-7.732 7.732z" fill="#f5fcff"/></g><g><path d="m448.079 376.237h-96.072c-4.271 0-7.732-3.462-7.732-7.732s3.461-7.732 7.732-7.732h96.072c4.271 0 7.732 3.462 7.732 7.732.001 4.27-3.461 7.732-7.732 7.732z" fill="#f5fcff"/></g><g><path d="m448.079 344.213h-96.072c-4.271 0-7.732-3.462-7.732-7.732s3.461-7.732 7.732-7.732h96.072c4.271 0 7.732 3.462 7.732 7.732s-3.461 7.732-7.732 7.732z" fill="#f5fcff"/></g><g><path d="m448.079 312.19h-96.072c-4.271 0-7.732-3.462-7.732-7.732s3.461-7.732 7.732-7.732h96.072c4.271 0 7.732 3.462 7.732 7.732s-3.461 7.732-7.732 7.732z" fill="#f5fcff"/></g><path d="m70.792 159.51h50.048c3.866 0 7 3.134 7 7v34.444c0 3.866-3.134 7-7 7h-50.048c-3.866 0-7-3.134-7-7v-34.444c0-3.866 3.134-7 7-7z" fill="#f5fcff"/><path d="m84.415 159.514v48.445h-13.619c-3.866 0-7-3.134-7-7v-34.445c0-3.866 3.134-7 7-7z" fill="#d8ecfe"/><path d="m230.912 352.493h50.048c3.866 0 7 3.134 7 7v33.615c0 3.866-3.134 7-7 7h-50.048c-3.866 0-7-3.134-7-7v-33.615c0-3.866 3.134-7 7-7z" fill="#f5fcff"/><path d="m244.534 352.489v47.62h-13.619c-3.866 0-7-3.134-7-7v-33.62c0-3.866 3.134-7 7-7z" fill="#d8ecfe"/></g></svg>