<svg id="Capa_1" enable-background="new 0 0 512 512" height="512" viewBox="0 0 512 512" width="512" xmlns="http://www.w3.org/2000/svg"><g><path d="m384 111.424v101.266h-352.003v-101.266c0-8.54 6.923-15.453 15.453-15.453h321.097c8.53 0 15.453 6.912 15.453 15.453z" fill="#ffde5c"/><path d="m352 207.489v193.09c0 8.54-6.92 15.45-15.45 15.45h-321.1c-8.53 0-15.45-6.91-15.45-15.45v-193.09c0-8.54 6.92-15.45 15.45-15.45h321.1c8.53 0 15.45 6.91 15.45 15.45z" fill="#98bce5"/><path d="m352.003 192.035h-19.193c-.927 5.007-1.411 10.168-1.411 15.442v27.629c-4.09.464-7.963 1.607-11.517 3.327-12.105 5.81-20.48 18.193-20.48 32.492v129.092c0 5.748 1.35 11.188 3.76 16.009h33.388c8.534 0 15.453-6.918 15.453-15.453z" fill="#7bacdf"/><path d="m345.986 160.027c-6.459 9.488-11.023 20.356-13.186 32.059h51.2v-62.913c-15.504 6.346-28.711 17.174-38.014 30.854z" fill="#ffc736"/><path d="m78.356 95.971c-8.53 0-15.453 6.913-15.453 15.453v80.663h-30.906v-80.663c0-8.54 6.923-15.453 15.453-15.453z" fill="#ffc736"/><path d="m32.002 160.031h351.997v32.059h-351.997z" fill="#548eb5"/><g fill="#447d99"><path d="m384 160.027v32.059h-51.2c2.163-11.703 6.727-22.571 13.186-32.059z"/><path d="m31.997 160.027h30.905v32.059h-30.905z"/><path d="m369.145 192.087h-337.148v-20.655h304.553c14.371 0 26.815 8.457 32.595 20.655z"/></g><path d="m47.45 416.029h-32c-8.53 0-15.45-6.91-15.45-15.45v-193.09c0-8.54 6.92-15.45 15.45-15.45h32c-8.53 0-15.45 6.91-15.45 15.45v193.09c0 8.54 6.92 15.45 15.45 15.45z" fill="#7bacdf"/><path d="m271.939 280.059h-40.939c-3.866 0-7-3.134-7-7v-33.939c0-3.866 3.134-7 7-7h40.939l10 7.97v31.939z" fill="#548eb5"/><path d="m312.878 280.059h-40.939v-47.939h40.939c3.866 0 7 3.134 7 7v33.939c0 3.865-3.134 7-7 7z" fill="#ffb952"/><path d="m319.882 238.435v34.619c0 3.866-3.134 7-7 7h-13.48v-9.127c-.001-14.299 8.375-26.682 20.48-32.492z" fill="#f4a94a"/><g><path d="m64.002 247.816h-32c-4.268 0-7.726-3.459-7.726-7.726s3.459-7.726 7.726-7.726h32c4.268 0 7.726 3.459 7.726 7.726s-3.458 7.726-7.726 7.726z" fill="#eaf6ff"/></g><g><path d="m192.001 279.754h-159.999c-4.268 0-7.726-3.459-7.726-7.726s3.459-7.726 7.726-7.726h159.999c4.268 0 7.726 3.459 7.726 7.726s-3.458 7.726-7.726 7.726z" fill="#eaf6ff"/></g><g><path d="m32 232.359v15.46c-4.27 0-7.72-3.46-7.72-7.73s3.45-7.73 7.72-7.73z" fill="#d8ecfe"/></g><g><path d="m32 264.299v15.46c-4.27 0-7.72-3.46-7.72-7.73s3.45-7.73 7.72-7.73z" fill="#d8ecfe"/></g><g><path d="m192.001 247.755h-96c-4.268 0-7.726-3.459-7.726-7.726s3.459-7.726 7.726-7.726h96c4.268 0 7.726 3.459 7.726 7.726s-3.458 7.726-7.726 7.726z" fill="#eaf6ff"/></g><path d="m312.999 384.027h-273.997c-3.866 0-7-3.134-7-7v-33.939c0-3.866 3.134-7 7-7h273.998c3.866 0 7 3.134 7 7v33.939c-.001 3.866-3.135 7-7.001 7z" fill="#eaf6ff"/><path d="m299.401 336.085h20.594v47.945h-20.594z" fill="#d8ecfe"/><path d="m352.001 265.779v-58.301c0-35.346 28.654-63.999 63.999-63.999 35.346 0 63.999 28.654 63.999 63.999v58.301h-32v-58.301c0-17.673-14.327-32-32-32-17.673 0-32 14.327-32 32v58.301z" fill="#eaf6ff"/><path d="m512 270.479v130c0 8.28-6.72 15-15 15h-162c-8.28 0-15-6.72-15-15v-130c0-8.29 6.72-15 15-15h162c8.28 0 15 6.71 15 15z" fill="#ffde5c"/><path d="m366.36 415.479h-31.36c-8.28 0-15-6.72-15-15v-130c0-8.29 6.72-15 15-15h30.96c-8.35.21-15.05 7.05-15.05 15.45v129.1c0 8.53 6.91 15.45 15.45 15.45z" fill="#ffc736"/><path d="m440.001 311.477c0-13.255-10.745-24-24-24s-24 10.745-24 24c0 7.106 3.091 13.489 7.999 17.883v38.116c0 8.837 7.163 16 16 16s16-7.163 16-16v-38.115c4.909-4.394 8.001-10.777 8.001-17.884z" fill="#497090"/></g></svg>