<svg id="Capa_1" enable-background="new 0 0 512 512" height="512" viewBox="0 0 512 512" width="512" xmlns="http://www.w3.org/2000/svg"><g><path d="m382.1 194.91v232.52h-252.2v-232.52c0-68.62 55.63-124.25 124.25-124.25h3.7c8.08 0 15.97.77 23.62 2.24 57.32 11.04 100.63 61.47 100.63 122.01z" fill="#f07281"/><path d="m281.47 72.9c-.03.1-.06.21-.1.31-26.97 5.5-50.8 19.63-68.5 39.36-20.05 22.32-32.22 51.84-32.22 84.19v230.66h-50.75v-232.51c0-68.62 55.63-124.25 124.25-124.25h3.7c8.08 0 15.97.77 23.62 2.24z" fill="#eb5569"/><path d="m350.57 195.37v232.06h-189.14v-232.06c0-36.22 20.67-67.62 50.86-83.04 12.7-6.49 27.08-10.15 42.32-10.15h2.78c51.46 0 93.18 41.73 93.18 93.19z" fill="#f5fcff"/><path d="m212.87 112.57c-20.05 22.32-32.22 51.84-32.22 84.19v230.66h-19.22v-232.05c0-36.22 20.67-67.62 50.86-83.04.2.07.39.15.58.24z" fill="#d8ecfe"/><path d="m319.048 427.487h-126.096v-200.13c0-34.31 27.814-62.124 62.124-62.124h1.848c34.31 0 62.124 27.814 62.124 62.124z" fill="#f07281"/><g><g><g><path d="m256 46.747c-4.204 0-7.612-3.408-7.612-7.612v-31.523c0-4.204 3.408-7.612 7.612-7.612s7.612 3.408 7.612 7.612v31.524c0 4.204-3.408 7.611-7.612 7.611z" fill="#548eb5"/></g><g><path d="m367.404 92.892c-1.948 0-3.896-.743-5.382-2.229-2.973-2.972-2.973-7.792 0-10.764l22.291-22.291c2.972-2.972 7.792-2.972 10.764 0 2.973 2.972 2.973 7.792 0 10.764l-22.291 22.291c-1.486 1.486-3.434 2.229-5.382 2.229z" fill="#548eb5"/></g><g><path d="m144.596 92.892c-1.948 0-3.896-.743-5.382-2.229l-22.291-22.291c-2.973-2.972-2.973-7.792 0-10.764 2.972-2.972 7.792-2.972 10.764 0l22.291 22.291c2.973 2.972 2.973 7.792 0 10.764-1.486 1.486-3.434 2.229-5.382 2.229z" fill="#548eb5"/></g><g><g><path d="m98.451 204.296h-31.524c-4.204 0-7.612-3.408-7.612-7.612s3.408-7.612 7.612-7.612h31.524c4.204 0 7.612 3.408 7.612 7.612s-3.408 7.612-7.612 7.612z" fill="#548eb5"/></g><g><path d="m445.073 204.296h-31.524c-4.204 0-7.612-3.408-7.612-7.612s3.408-7.612 7.612-7.612h31.524c4.204 0 7.612 3.408 7.612 7.612s-3.408 7.612-7.612 7.612z" fill="#548eb5"/></g></g></g></g><path d="m413.621 459.011h-315.242v-34.524c0-3.866 3.134-7 7-7h301.242c3.866 0 7 3.134 7 7z" fill="#548eb5"/><path d="m149.124 417.485v41.522h-50.743v-34.522c0-3.866 3.134-7 7-7z" fill="#497090"/><path d="m445.145 511.998h-378.29v-56.048c0-3.866 3.134-7 7-7h364.29c3.866 0 7 3.134 7 7z" fill="#98bce5"/><path d="m117.602 448.946v63.054h-50.743v-56.054c0-3.866 3.134-7 7-7z" fill="#7bacdf"/><g><g><path d="m161.428 495.97c-4.204 0-7.612-3.408-7.612-7.612v-15.762c0-4.204 3.408-7.612 7.612-7.612s7.612 3.408 7.612 7.612v15.762c-.001 4.204-3.409 7.612-7.612 7.612z" fill="#f5fcff"/></g><g><path d="m192.952 495.97c-4.204 0-7.612-3.408-7.612-7.612v-15.762c0-4.204 3.408-7.612 7.612-7.612s7.612 3.408 7.612 7.612v15.762c-.001 4.204-3.409 7.612-7.612 7.612z" fill="#f5fcff"/></g><g><path d="m224.476 495.97c-4.204 0-7.612-3.408-7.612-7.612v-15.762c0-4.204 3.408-7.612 7.612-7.612s7.612 3.408 7.612 7.612v15.762c0 4.204-3.408 7.612-7.612 7.612z" fill="#f5fcff"/></g><g><path d="m256 495.97c-4.204 0-7.612-3.408-7.612-7.612v-15.762c0-4.204 3.408-7.612 7.612-7.612s7.612 3.408 7.612 7.612v15.762c0 4.204-3.408 7.612-7.612 7.612z" fill="#f5fcff"/></g><g><path d="m287.524 495.97c-4.204 0-7.612-3.408-7.612-7.612v-15.762c0-4.204 3.408-7.612 7.612-7.612s7.612 3.408 7.612 7.612v15.762c-.001 4.204-3.408 7.612-7.612 7.612z" fill="#f5fcff"/></g><g><path d="m319.048 495.97c-4.204 0-7.612-3.408-7.612-7.612v-15.762c0-4.204 3.408-7.612 7.612-7.612s7.612 3.408 7.612 7.612v15.762c0 4.204-3.408 7.612-7.612 7.612z" fill="#f5fcff"/></g><g><path d="m350.572 495.97c-4.204 0-7.612-3.408-7.612-7.612v-15.762c0-4.204 3.408-7.612 7.612-7.612s7.612 3.408 7.612 7.612v15.762c0 4.204-3.408 7.612-7.612 7.612z" fill="#f5fcff"/></g></g></g></svg>