<svg id="Capa_1" enable-background="new 0 0 512 512" height="512" viewBox="0 0 512 512" width="512" xmlns="http://www.w3.org/2000/svg"><g><g fill="#98bce5"><path d="m0 114.076h512v32h-512z"/><path d="m0 240.069h512v32h-512z"/><path d="m0 368.069h512v32h-512z"/></g><g><path d="m250.38 233.731-32.47 56.24c-.89 1.54-2.01 2.88-3.29 3.98-4.86 4.21-12.05 5.11-17.93 1.71l-.81-.47c-7.43-4.29-9.97-13.79-5.68-21.22l32.47-56.24c4.28-7.42 13.78-9.97 21.21-5.68l.81.47c.7.41 1.36.86 1.98 1.37 5.87 4.7 7.59 13.12 3.71 19.84z" fill="#f5fcff"/><path d="m246.67 213.891c-1.33 1.14-2.72 2.66-3.64 4.25l-31.99 55.42c-1.46 2.53-2.16 5.28-2.16 8 0 4.56 2.15 9.31 5.74 12.39-4.86 4.21-12.05 5.11-17.93 1.71l-.81-.47c-7.43-4.29-9.97-13.79-5.68-21.22l32.47-56.24c4.28-7.42 13.78-9.97 21.21-5.68l.81.47c.7.41 1.36.86 1.98 1.37z" fill="#d8ecfe"/><path d="m278.09 249.731-16.47 28.53c-.93 1.61-2.11 2.99-3.46 4.12-4.85 4.09-11.94 4.92-17.75 1.56l-.82-.47c-7.42-4.28-9.97-13.78-5.68-21.21l16.47-28.53c4.29-7.42 13.79-9.97 21.21-5.68l.82.47c.64.37 1.25.78 1.81 1.23 6 4.69 7.79 13.2 3.87 19.98z" fill="#f5fcff"/><path d="m258.16 282.381c-4.85 4.09-11.94 4.92-17.75 1.56l-.82-.47c-7.42-4.28-9.97-13.78-5.68-21.21l16.47-28.53c4.29-7.42 13.79-9.97 21.21-5.68l.82.47c.64.37 1.25.78 1.81 1.23-4.94 7.61-19.47 32.1-19.47 32.1-3.76 6.49-1.8 15.46 3.41 20.53z" fill="#d8ecfe"/><path d="m321.8 238.021-32.47 56.24c-.87 1.51-1.95 2.81-3.19 3.9-4.86 4.28-12.1 5.2-18.02 1.78l-.81-.47c-7.43-4.28-9.98-13.78-5.69-21.21l32.47-56.24c4.29-7.43 13.79-9.97 21.22-5.68l.81.47c.69.4 1.34.84 1.94 1.33 5.9 4.7 7.63 13.14 3.74 19.88z" fill="#f5fcff"/><path d="m318.06 218.141c-1.31 1.14-2.7 2.73-3.6 4.28l-32 55.43c-3.93 6.8-2.1 15.41 3.68 20.31-4.86 4.28-12.1 5.2-18.02 1.78l-.81-.47c-7.43-4.28-9.98-13.78-5.69-21.21l32.47-56.24c4.29-7.43 13.79-9.97 21.22-5.68l.81.47c.69.4 1.34.84 1.94 1.33z" fill="#d8ecfe"/><path d="m214.43 232.001-10.85 18.79-5.15 8.92-69.28-40.01c-.04-.02-.08-.04-.12-.06l-.29-.17c-7.43-4.28-9.97-13.78-5.68-21.21l.47-.81c4.29-7.43 13.78-9.98 21.21-5.69l2.94 1.7z" fill="#f5fcff"/><path d="m203.58 250.791-5.15 8.92-69.28-40.01c-.04-.02-.08-.04-.12-.06l-.29-.17c-7.43-4.28-9.97-13.78-5.68-21.21l.47-.81c4.29-7.43 13.78-9.98 21.21-5.69l2.94 1.7c-1.35 1.19-2.9 2.87-3.78 4.39-4.42 7.66-1.8 17.45 5.85 21.85z" fill="#d8ecfe"/><path d="m388.94 313.731-.47.82c-.92 1.59-2.08 2.96-3.41 4.08-4.85 4.12-11.96 4.97-17.8 1.6l-69.64-40.2-.05-.03v-.01l16-27.71 15.45 8.92 54.24 31.32c7.43 4.29 9.97 13.79 5.68 21.21z" fill="#f5fcff"/><path d="m385.06 318.631c-4.85 4.12-11.96 4.97-17.8 1.6l-69.64-40.2-.05-.04 16-27.71 15.45 8.92-3.12 5.41c-4.27 7.39-1.73 16.84 5.66 21.11z" fill="#d8ecfe"/></g><g><g><path d="m331.403 105.666-32.47 56.24c-.89 1.54-2.01 2.88-3.29 3.98-4.86 4.21-12.05 5.11-17.93 1.71l-.81-.47c-7.43-4.29-9.97-13.79-5.68-21.22l32.47-56.24c4.28-7.42 13.78-9.97 21.21-5.68l.81.47c.7.41 1.36.86 1.98 1.37 5.87 4.7 7.59 13.12 3.71 19.84z" fill="#f5fcff"/><path d="m327.693 85.826c-1.33 1.14-2.72 2.66-3.64 4.25l-31.99 55.42c-1.46 2.53-2.16 5.28-2.16 8 0 4.56 2.15 9.31 5.74 12.39-4.86 4.21-12.05 5.11-17.93 1.71l-.81-.47c-7.43-4.29-9.97-13.79-5.68-21.22l32.47-56.24c4.28-7.42 13.78-9.97 21.21-5.68l.81.47c.7.41 1.36.86 1.98 1.37z" fill="#d8ecfe"/><path d="m359.113 121.666-16.47 28.53c-.93 1.61-2.11 2.99-3.46 4.12-4.85 4.09-11.94 4.92-17.75 1.56l-.82-.47c-7.42-4.28-9.97-13.78-5.68-21.21l16.47-28.53c4.29-7.42 13.79-9.97 21.21-5.68l.82.47c.64.37 1.25.78 1.81 1.23 6 4.69 7.79 13.2 3.87 19.98z" fill="#f5fcff"/><path d="m339.183 154.316c-4.85 4.09-11.94 4.92-17.75 1.56l-.82-.47c-7.42-4.28-9.97-13.78-5.68-21.21l16.47-28.53c4.29-7.42 13.79-9.97 21.21-5.68l.82.47c.64.37 1.25.78 1.81 1.23-4.94 7.61-19.47 32.1-19.47 32.1-3.76 6.49-1.8 15.46 3.41 20.53z" fill="#d8ecfe"/><path d="m402.823 109.956-32.47 56.24c-.87 1.51-1.95 2.81-3.19 3.9-4.86 4.28-12.1 5.2-18.02 1.78l-.81-.47c-7.43-4.28-9.98-13.78-5.69-21.21l32.47-56.24c4.29-7.43 13.79-9.97 21.22-5.68l.81.47c.69.4 1.34.84 1.94 1.33 5.9 4.7 7.63 13.14 3.74 19.88z" fill="#f5fcff"/><path d="m399.083 90.076c-1.31 1.14-2.7 2.73-3.6 4.28l-32 55.43c-3.93 6.8-2.1 15.41 3.68 20.31-4.86 4.28-12.1 5.2-18.02 1.78l-.81-.47c-7.43-4.28-9.98-13.78-5.69-21.21l32.47-56.24c4.29-7.43 13.79-9.97 21.22-5.68l.81.47c.69.4 1.34.84 1.94 1.33z" fill="#d8ecfe"/><path d="m295.453 103.936-10.85 18.79-5.15 8.92-69.28-40.01c-.04-.02-.08-.04-.12-.06l-.29-.17c-7.43-4.28-9.97-13.78-5.68-21.21l.47-.81c4.29-7.43 13.78-9.98 21.21-5.69l2.94 1.7z" fill="#f5fcff"/><path d="m284.603 122.726-5.15 8.92-69.28-40.01c-.04-.02-.08-.04-.12-.06l-.29-.17c-7.43-4.28-9.97-13.78-5.68-21.21l.47-.81c4.29-7.43 13.78-9.98 21.21-5.69l2.94 1.7c-1.35 1.19-2.9 2.87-3.78 4.39-4.42 7.66-1.8 17.45 5.85 21.85z" fill="#d8ecfe"/><path d="m469.963 185.666-.47.82c-.92 1.59-2.08 2.96-3.41 4.08-4.85 4.12-11.96 4.97-17.8 1.6l-69.64-40.2-.05-.03v-.01l16-27.71 15.45 8.92 54.24 31.32c7.43 4.29 9.97 13.79 5.68 21.21z" fill="#f5fcff"/><path d="m466.083 190.566c-4.85 4.12-11.96 4.97-17.8 1.6l-69.64-40.2-.05-.04 16-27.71 15.45 8.92-3.12 5.41c-4.27 7.39-1.73 16.84 5.66 21.11z" fill="#d8ecfe"/></g><g><path d="m169.357 361.804-32.47 56.24c-.89 1.54-2.01 2.88-3.29 3.98-4.86 4.21-12.05 5.11-17.93 1.71l-.81-.47c-7.43-4.29-9.97-13.79-5.68-21.22l32.47-56.24c4.28-7.42 13.78-9.97 21.21-5.68l.81.47c.7.41 1.36.86 1.98 1.37 5.87 4.7 7.59 13.12 3.71 19.84z" fill="#f5fcff"/><path d="m165.647 341.964c-1.33 1.14-2.72 2.66-3.64 4.25l-31.99 55.42c-1.46 2.53-2.16 5.28-2.16 8 0 4.56 2.15 9.31 5.74 12.39-4.86 4.21-12.05 5.11-17.93 1.71l-.81-.47c-7.43-4.29-9.97-13.79-5.68-21.22l32.47-56.24c4.28-7.42 13.78-9.97 21.21-5.68l.81.47c.7.41 1.36.86 1.98 1.37z" fill="#d8ecfe"/><path d="m197.067 377.804-16.47 28.53c-.93 1.61-2.11 2.99-3.46 4.12-4.85 4.09-11.94 4.92-17.75 1.56l-.82-.47c-7.42-4.28-9.97-13.78-5.68-21.21l16.47-28.53c4.29-7.42 13.79-9.97 21.21-5.68l.82.47c.64.37 1.25.78 1.81 1.23 6 4.69 7.79 13.2 3.87 19.98z" fill="#f5fcff"/><path d="m177.137 410.454c-4.85 4.09-11.94 4.92-17.75 1.56l-.82-.47c-7.42-4.28-9.97-13.78-5.68-21.21l16.47-28.53c4.29-7.42 13.79-9.97 21.21-5.68l.82.47c.64.37 1.25.78 1.81 1.23-4.94 7.61-19.47 32.1-19.47 32.1-3.76 6.49-1.8 15.46 3.41 20.53z" fill="#d8ecfe"/><path d="m240.777 366.094-32.47 56.24c-.87 1.51-1.95 2.81-3.19 3.9-4.86 4.28-12.1 5.2-18.02 1.78l-.81-.47c-7.43-4.28-9.98-13.78-5.69-21.21l32.47-56.24c4.29-7.43 13.79-9.97 21.22-5.68l.81.47c.69.4 1.34.84 1.94 1.33 5.9 4.7 7.63 13.14 3.74 19.88z" fill="#f5fcff"/><path d="m237.037 346.214c-1.31 1.14-2.7 2.73-3.6 4.28l-32 55.43c-3.93 6.8-2.1 15.41 3.68 20.31-4.86 4.28-12.1 5.2-18.02 1.78l-.81-.47c-7.43-4.28-9.98-13.78-5.69-21.21l32.47-56.24c4.29-7.43 13.79-9.97 21.22-5.68l.81.47c.69.4 1.34.84 1.94 1.33z" fill="#d8ecfe"/><path d="m133.407 360.074-10.85 18.79-5.15 8.92-69.28-40.01c-.04-.02-.08-.04-.12-.06l-.29-.17c-7.43-4.28-9.97-13.78-5.68-21.21l.47-.81c4.29-7.43 13.78-9.98 21.21-5.69l2.94 1.7z" fill="#f5fcff"/><path d="m122.557 378.864-5.15 8.92-69.28-40.01c-.04-.02-.08-.04-.12-.06l-.29-.17c-7.43-4.28-9.97-13.78-5.68-21.21l.47-.81c4.29-7.43 13.78-9.98 21.21-5.69l2.94 1.7c-1.35 1.19-2.9 2.87-3.78 4.39-4.42 7.66-1.8 17.45 5.85 21.85z" fill="#d8ecfe"/><path d="m307.917 441.804-.47.82c-.92 1.59-2.08 2.96-3.41 4.08-4.85 4.12-11.96 4.97-17.8 1.6l-69.64-40.2-.05-.03v-.01l16-27.71 15.45 8.92 54.24 31.32c7.43 4.29 9.97 13.79 5.68 21.21z" fill="#f5fcff"/><path d="m304.037 446.704c-4.85 4.12-11.96 4.97-17.8 1.6l-69.64-40.2-.05-.04 16-27.71 15.45 8.92-3.12 5.41c-4.27 7.39-1.73 16.84 5.66 21.11z" fill="#d8ecfe"/></g></g></g></svg>