<svg id="Capa_1" enable-background="new 0 0 512 512" height="512" viewBox="0 0 512 512" width="512" xmlns="http://www.w3.org/2000/svg"><g><path d="m416 15v482c0 8.28-6.72 15-15 15h-290c-8.28 0-15-6.72-15-15v-482c0-8.28 6.72-15 15-15h129l16 10 16-10h129c8.28 0 15 6.72 15 15z" fill="#548eb5"/><path d="m162.96 512h-51.96c-8.28 0-15-6.72-15-15v-482c0-8.28 6.72-15 15-15h51.96c-8.54 0-15.45 6.92-15.45 15.45v481.1c0 8.53 6.91 15.45 15.45 15.45z" fill="#497090"/><path d="m376.999 447.982h-241.998c-3.866 0-7-3.134-7-7v-369.98c0-3.866 3.134-7 7-7h241.998c3.866 0 7 3.134 7 7v369.981c0 3.865-3.134 6.999-7 6.999z" fill="#f5fcff"/><path d="m147.512 64.005v383.979h-12.512c-3.866 0-7-3.134-7-7v-369.979c0-3.866 3.134-7 7-7z" fill="#d8ecfe"/><path d="m217.355 254.197-25.711-.004c-7.619 0-13.795 6.176-13.795 13.795v5.905c0 7.619 6.176 13.795 13.795 13.795h25.707z" fill="#ffcebf"/><path d="m320.356 254.194c7.619 0 13.795 6.176 13.795 13.795v5.905c0 7.619-6.176 13.795-13.795 13.795h-25.75v-33.491z" fill="#ffcebf"/><path d="m304.604 244.197v46.427c0 21.644-17.544 39.188-39.198 39.188h-18.863c-21.644 0-39.188-17.544-39.188-39.188v-46.427h13.413c11.837 0 22.695-6.542 28.227-16.998l6.985-13.197 7.016 13.228c5.542 10.436 16.39 16.967 28.217 16.967z" fill="#ffeee6"/><path d="m266.137 329.802c-.237.01-.484.01-.732.01h-18.863c-21.644 0-39.188-17.544-39.188-39.188v-36.427h20.604v36.427c0 21.304 16.998 38.642 38.179 39.178z" fill="#ffdfcf"/><path d="m256 32.002c8.837 0 16-7.163 16-16v-16h-32v16c0 8.836 7.164 16 16 16z" fill="#98bce5"/><path d="m304.604 254.197v20.604h-13.392c-13.258 0-25.734-4.955-35.222-13.537-9.498 8.581-21.964 13.537-35.222 13.537h-13.413v-20.604h13.413c11.837 0 22.695-6.542 28.227-16.998l6.985-13.197 7.016 13.228c5.542 10.436 16.39 16.967 28.217 16.967z" fill="#ffdfcf"/><path d="m200.19 254.194h20.579c11.831 0 22.693-6.541 28.227-16.998l6.983-13.196 7.018 13.227c5.54 10.44 16.392 16.967 28.21 16.967h18.938v-34.311c0-20.82-16.878-37.699-37.699-37.699h-34.558c-20.82 0-37.699 16.878-37.699 37.699v34.311z" fill="#548eb5"/><path d="m237.889 182.188h20.604c-20.82 0-37.694 16.874-37.694 37.694v34.315h-20.604v-34.315c0-20.82 16.874-37.694 37.694-37.694z" fill="#497090"/><g><path d="m258.751 306.457h-5.151c-11.144 0-20.209-9.066-20.209-20.21 0-4.267 3.459-7.726 7.726-7.726s7.726 3.459 7.726 7.726c0 2.623 2.134 4.757 4.757 4.757h5.151c2.624 0 4.758-2.134 4.758-4.757 0-4.267 3.459-7.726 7.726-7.726s7.726 3.459 7.726 7.726c.001 11.144-9.066 20.21-20.21 20.21z" fill="#f07281"/></g><g><path d="m288 487.724h-64c-4.268 0-7.726-3.459-7.726-7.726s3.459-7.726 7.726-7.726h64c4.268 0 7.726 3.459 7.726 7.726s-3.458 7.726-7.726 7.726z" fill="#98bce5"/></g><g><g><g><path d="m160.001 167.727c-4.268 0-7.726-3.459-7.726-7.726v-32c0-4.267 3.459-7.726 7.726-7.726h32.6c4.268 0 7.726 3.459 7.726 7.726s-3.459 7.726-7.726 7.726h-24.873v24.274c-.001 4.267-3.459 7.726-7.727 7.726z" fill="#548eb5"/></g><g><path d="m351.999 167.727c-4.268 0-7.726-3.459-7.726-7.726v-24.274h-24.274c-4.268 0-7.726-3.459-7.726-7.726s3.459-7.726 7.726-7.726h32c4.268 0 7.726 3.459 7.726 7.726v32c0 4.267-3.458 7.726-7.726 7.726z" fill="#548eb5"/></g><g><path d="m192.001 391.725h-32c-4.268 0-7.726-3.459-7.726-7.726v-32c0-4.267 3.459-7.726 7.726-7.726s7.726 3.459 7.726 7.726v24.274h24.274c4.268 0 7.726 3.459 7.726 7.726s-3.458 7.726-7.726 7.726z" fill="#548eb5"/></g><g><path d="m351.999 391.725h-32c-4.268 0-7.726-3.459-7.726-7.726s3.459-7.726 7.726-7.726h24.274v-24.274c0-4.267 3.459-7.726 7.726-7.726s7.726 3.459 7.726 7.726v32c0 4.267-3.458 7.726-7.726 7.726z" fill="#548eb5"/></g></g></g></g></svg>