<svg id="Capa_1" enable-background="new 0 0 511.996 511.996" height="512" viewBox="0 0 511.996 511.996" width="512" xmlns="http://www.w3.org/2000/svg"><g><path d="m510.328 259.228c-51.65 98.76-138.69 152.12-228.69 160.63-107.56 10.19-219.36-43.69-280-160.66-1.04-2-1.04-4.4 0-6.4 60.65-116.97 172.44-170.85 280.01-160.65h.03c89.99 8.52 177.01 61.87 228.65 160.62 1.06 2.02 1.06 4.44 0 6.46z" fill="#f5fcff"/><path d="m281.638 419.858c-107.56 10.19-219.36-43.69-280-160.66-1.04-2-1.04-4.4 0-6.4 60.65-116.97 172.44-170.85 280.01-160.65-86.46 8.2-169.97 57.74-221.67 148.12-5.57 9.73-5.57 21.73 0 31.46 51.7 90.38 135.2 139.92 221.66 148.13z" fill="#d8ecfe"/><g><g fill="#548eb5"><path d="m88.788 0h-81.577c-3.982 0-7.211 3.229-7.211 7.211v81.577c0 3.983 3.229 7.211 7.211 7.211h17.577c3.983 0 7.211-3.229 7.211-7.211v-49.577c.001-3.983 3.229-7.211 7.212-7.211h49.577c3.983 0 7.211-3.229 7.211-7.211v-17.578c0-3.982-3.228-7.211-7.211-7.211z"/><path d="m423.208 0h81.577c3.983 0 7.211 3.229 7.211 7.211v81.577c0 3.983-3.229 7.211-7.211 7.211h-17.577c-3.983 0-7.211-3.229-7.211-7.211v-49.577c0-3.983-3.229-7.211-7.211-7.211h-49.577c-3.983 0-7.211-3.229-7.211-7.211v-17.578c-.001-3.982 3.227-7.211 7.21-7.211z"/><path d="m88.788 511.996h-81.577c-3.983 0-7.211-3.229-7.211-7.211v-81.577c0-3.983 3.229-7.211 7.211-7.211h17.577c3.983 0 7.211 3.229 7.211 7.211v49.577c0 3.983 3.229 7.211 7.211 7.211h49.577c3.983 0 7.211 3.229 7.211 7.211v17.577c.001 3.983-3.227 7.212-7.21 7.212z"/><path d="m423.208 511.996h81.577c3.983 0 7.211-3.229 7.211-7.211v-81.577c0-3.983-3.229-7.211-7.211-7.211h-17.577c-3.983 0-7.211 3.229-7.211 7.211v49.577c0 3.983-3.229 7.211-7.211 7.211h-49.577c-3.983 0-7.211 3.229-7.211 7.211v17.577c-.001 3.983 3.227 7.212 7.21 7.212z"/></g></g><circle cx="255.998" cy="255.998" fill="#548eb5" r="127.999"/><path d="m281.753 381.412c-8.324 1.69-16.936 2.586-25.755 2.586-70.691 0-128-57.309-128-128s57.309-128 128-128c8.818 0 17.431.896 25.755 2.586-27.372 5.594-51.561 19.924-69.517 39.94-20.356 22.664-32.729 52.622-32.729 85.474s12.372 62.81 32.729 85.474c17.956 20.016 42.145 34.346 69.517 39.94z" fill="#497090"/><path d="m351.998 255.998c0 53.02-42.98 96-96 96-15.76 0-30.64-3.8-43.76-10.53-31.02-15.92-52.24-48.21-52.24-85.47s21.22-69.55 52.24-85.47c13.12-6.73 28-10.53 43.76-10.53 53.02 0 96 42.98 96 96z" fill="#98bce5"/><path d="m179.508 255.998c0 32.85 12.37 62.81 32.73 85.47-31.02-15.92-52.24-48.21-52.24-85.47s21.22-69.55 52.24-85.47c-20.36 22.66-32.73 52.62-32.73 85.47z" fill="#7bacdf"/><path d="m303.998 255.998c0 21.11-13.62 39.03-32.55 45.46-4.85 1.65-10.04 2.54-15.45 2.54-26.51 0-48-21.49-48-48s21.49-48 48-48c5.41 0 10.6.89 15.45 2.54 18.93 6.43 32.55 24.35 32.55 45.46z" fill="#f5fcff"/><path d="m238.908 255.998c0 21.1 13.62 39.02 32.54 45.45v.01c-4.85 1.65-10.04 2.54-15.45 2.54-26.51 0-48-21.49-48-48s21.49-48 48-48c5.41 0 10.6.89 15.45 2.54v.01c-18.92 6.43-32.54 24.35-32.54 45.45z" fill="#d8ecfe"/></g></svg>