<svg id="Capa_1" enable-background="new 0 0 512 512" height="512" viewBox="0 0 512 512" width="512" xmlns="http://www.w3.org/2000/svg"><g><path d="m448 192v320h-384v-320c17.67 0 32-14.33 32-32v-88.27l10-3.48v-8.25l-10-3.72v-49.28c0-3.86 3.14-7 7-7h50c3.87 0 7 3.14 7 7v49.28l-7.5 7.72c0 2.96 7.7 4.86 8.08 7.71 4.26 31.79 31.49 56.29 64.43 56.29h61.98c32.94 0 60.17-24.5 64.43-56.29.38-2.85 10.58-5.76 10.58-8.72l-10-6.71v-49.28c0-3.86 3.13-7 7-7h50c3.86 0 7 3.14 7 7v49.28l-10 3.97v8l10 3.48v88.27c0 8.84 3.58 16.84 9.37 22.63s13.79 9.37 22.63 9.37z" fill="#548eb5"/><path d="m128 0v160c0 15.71-11.31 28.78-26.24 31.49-3.31.6-5.76 3.38-5.76 6.74v313.77h-31.99l-.01-.09v-319.91c17.67 0 32-14.33 32-32v-88.27l10-3.48v-8.25l-10-3.72v-49.28c0-3.86 3.14-7 7-7z" fill="#497090"/><path d="m384 0v63c0 2.96-.2 5.87-.58 8.73-4.27 31.77-31.48 56.27-64.42 56.27h-32.01c32.94 0 60.17-24.5 64.43-56.29.38-2.85 10.58-5.76 10.58-8.72l-10-6.71v-49.28c0-3.86 3.13-7 7-7z" fill="#497090"/><g fill="#ffb952"><path d="m169.001 351.999h-65.999c-3.866 0-7-3.134-7-7v-49.999c0-3.866 3.134-7 7-7h65.999c3.866 0 7 3.134 7 7v49.999c0 3.866-3.134 7-7 7z"/><path d="m169.001 447.998h-65.999c-3.866 0-7-3.134-7-7v-49.999c0-3.866 3.134-7 7-7h65.999c3.866 0 7 3.134 7 7v49.999c0 3.866-3.134 7-7 7z"/><path d="m408.999 351.999h-65.999c-3.866 0-7-3.134-7-7v-49.999c0-3.866 3.134-7 7-7h65.999c3.866 0 7 3.134 7 7v49.999c0 3.866-3.134 7-7 7z"/><path d="m408.999 447.998h-65.999c-3.866 0-7-3.134-7-7v-49.999c0-3.866 3.134-7 7-7h65.999c3.866 0 7 3.134 7 7v49.999c0 3.866-3.134 7-7 7z"/></g><path d="m176.001 399.999h159.999v32h-159.999z" fill="#98bce5"/><path d="m64.002 399.999h32v32h-32z" fill="#7bacdf"/><path d="m415.999 399.999h32v32h-32z" fill="#98bce5"/><path d="m176.001 304h159.999v32h-159.999z" fill="#98bce5"/><path d="m64.002 304h32v32h-32z" fill="#7bacdf"/><path d="m415.999 304h32v32h-32z" fill="#98bce5"/><path d="m288 511.998h-64v-41c0-3.866 3.134-7 7-7h50c3.866 0 7 3.134 7 7z" fill="#98bce5"/><path d="m344.999 256h-177.998c-3.866 0-7-3.134-7-7v-18c0-3.866 3.134-7 7-7h177.998c3.866 0 7 3.134 7 7v18c0 3.866-3.134 7-7 7z" fill="#98bce5"/><path d="m344.999 191.98h-177.998c-3.866 0-7-3.134-7-7v-18c0-3.866 3.134-7 7-7h177.998c3.866 0 7 3.134 7 7v18c0 3.866-3.134 7-7 7z" fill="#98bce5"/><g><path d="m160.58 71.71c-.19.01-.38.02-.58.02h-64v-15.45h64v6.71c0 2.96.2 5.87.58 8.72z" fill="#ffb952"/></g><g><path d="m96 56.28h32v15.45h-32z" fill="#f4a94a"/></g><g><path d="m416 56.28v15.45h-64c-.2 0-.39-.01-.58-.02.38-2.85.58-5.76.58-8.72v-6.71z" fill="#ffb952"/></g><g><path d="m384 56.28v6.72c0 2.96-.2 5.87-.58 8.73h-31.42c-.2 0-.39-.01-.58-.02v-.04c.09-.67.17-1.34.24-2.02.01-.1.02-.21.03-.32.07-.64.12-1.29.16-1.94.05-.73.09-1.46.11-2.19.03-.73.04-1.46.04-2.2v-6.72z" fill="#f4a94a"/></g></g></svg>