<svg id="Capa_1" enable-background="new 0 0 511.998 511.998" height="512" viewBox="0 0 511.998 511.998" width="512" xmlns="http://www.w3.org/2000/svg"><g><path d="m279.295 59.891h-46.593v33.297c0 12.866 10.43 23.297 23.297 23.297 12.866 0 23.297-10.43 23.297-23.297v-33.297z" fill="#f07281"/><path d="m265.998 114.239c-3.03 1.44-6.42 2.25-10 2.25-12.87 0-23.3-10.43-23.3-23.3v-33.3h20v33.3c0 9.29 5.44 17.31 13.3 21.05z" fill="#eb5569"/><path d="m380.247 69.891h-248.498l-10-10.892v-39l10-12.232h248.498l10 10.232v41.5z" fill="#548eb5"/><path d="m161.748 7.769v62.12h-30l-10-10.89v-39l10-12.23z" fill="#497090"/><path d="m411.309 483.435h-31.062v-475.934h24.062c3.866 0 7 3.134 7 7z" fill="#98bce5"/><path d="m380.248 7.499h20v475.94h-20z" fill="#7bacdf"/><path d="m131.749 483.435h-31.062v-468.934c0-3.866 3.134-7 7-7h24.062z" fill="#98bce5"/><path d="m120.688 7.499v475.94h-20v-468.94c0-3.866 3.134-7 7-7z" fill="#7bacdf"/><g><g><g><path d="m477.208 391.519c-1.919 0-3.838-.731-5.302-2.195-2.93-2.928-2.932-7.677-.003-10.606 16.183-16.192 25.095-37.713 25.095-60.598 0-22.879-8.912-44.396-25.095-60.588-2.929-2.93-2.927-7.679.003-10.606 2.929-2.927 7.678-2.928 10.606.003 19.014 19.025 29.485 44.308 29.485 71.192 0 26.89-10.472 52.177-29.485 71.202-1.464 1.463-3.384 2.196-5.304 2.196z" fill="#548eb5"/></g><g><path d="m455.238 369.549c-1.92 0-3.839-.732-5.304-2.197-2.929-2.929-2.929-7.678.001-10.606 10.319-10.32 16.003-24.038 16.003-38.626 0-14.58-5.685-28.299-16.006-38.629-2.928-2.93-2.926-7.679.005-10.606 2.93-2.928 7.679-2.925 10.606.005 13.151 13.163 20.395 30.647 20.395 49.231 0 18.596-7.244 36.081-20.397 49.233-1.464 1.462-3.384 2.195-5.303 2.195z" fill="#548eb5"/></g><g><g><path d="m34.79 391.519c-1.92 0-3.84-.733-5.305-2.198-19.014-19.026-29.485-44.312-29.485-71.202 0-26.883 10.471-52.167 29.485-71.192 2.927-2.931 7.676-2.932 10.606-.003 2.93 2.928 2.931 7.677.003 10.606-16.182 16.193-25.094 37.711-25.094 60.589 0 22.885 8.912 44.406 25.095 60.598 2.928 2.93 2.927 7.679-.003 10.606-1.465 1.464-3.384 2.196-5.302 2.196z" fill="#548eb5"/></g><g><path d="m56.76 369.549c-1.919 0-3.839-.732-5.303-2.197-13.153-13.153-20.396-30.637-20.396-49.233 0-18.584 7.243-36.068 20.394-49.231 2.927-2.93 7.676-2.933 10.606-.005s2.933 7.676.005 10.606c-10.322 10.331-16.006 24.051-16.006 38.63 0 14.589 5.683 28.307 16.003 38.626 2.929 2.929 2.929 7.678 0 10.606-1.464 1.465-3.384 2.198-5.303 2.198z" fill="#548eb5"/></g></g></g></g><g><g><g><path d="m256 178.078c-4.142 0-7.5-3.358-7.5-7.5v-15.531c0-4.142 3.358-7.5 7.5-7.5 4.143 0 7.5 3.358 7.5 7.5v15.531c0 4.142-3.357 7.5-7.5 7.5z" fill="#548eb5"/></g><g><path d="m292.552 160.272c-1.919 0-3.839-.732-5.303-2.197l-10.982-10.982c-2.93-2.929-2.93-7.677-.001-10.606 2.93-2.929 7.679-2.93 10.606 0l10.982 10.982c2.93 2.929 2.93 7.677.001 10.606-1.464 1.465-3.384 2.197-5.303 2.197z" fill="#548eb5"/></g><g><path d="m219.445 160.272c-1.919 0-3.839-.732-5.303-2.197-2.929-2.929-2.929-7.678 0-10.606l10.982-10.982c2.929-2.929 7.678-2.929 10.606 0 2.929 2.929 2.929 7.678 0 10.606l-10.982 10.982c-1.464 1.465-3.384 2.197-5.303 2.197z" fill="#548eb5"/></g></g></g><path d="m364.716 504.497h62.125v-24.062c0-3.866-3.134-7-7-7h-48.125c-3.866 0-7 3.134-7 7z" fill="#548eb5"/><path d="m85.156 504.497h62.125v-24.062c0-3.866-3.134-7-7-7h-48.125c-3.866 0-7 3.134-7 7z" fill="#548eb5"/><g fill="#497090"><path d="m115.158 473.439v31.06h-30v-24.06c0-3.866 3.134-7 7-7z"/><path d="m394.718 473.439v31.06h-30v-24.06c0-3.866 3.134-7 7-7z"/></g></g></svg>