<svg id="Capa_1" enable-background="new 0 0 512 512" height="512" viewBox="0 0 512 512" width="512" xmlns="http://www.w3.org/2000/svg"><g><path d="m470 385 10 7v42h-448v-42l10-7v-19.33l-10-5.67c0-61.03 24.4-116.35 64-156.76 9.44-9.63 20.96.24 32-7.57 10.45-7.39 20.33-32.56 32-38.1.75-.36 1.5-.72 2.25-1.05 28.53-13.17 60.28-20.52 93.75-20.52 8.71 0 17.3.5 25.74 1.47h.02c24.02 2.75 46.89 9.31 67.99 19.05.75.33 1.5.69 2.25 1.05 11.65 5.53 11.9 29.06 22.33 36.43 10.44 7.37 41.14 8.7 41.67 9.24 39.6 40.41 64 95.73 64 156.76l-10 7.67z" fill="#ffb952"/><path d="m349.748 156.515c-10.796 27.63-33.491 49.366-61.749 58.865-10.055 3.389-20.81 5.223-31.998 5.223s-21.943-1.834-31.998-5.223c-28.258-9.498-50.953-31.235-61.749-58.865 19.264-8.891 40.002-15.123 61.749-18.234 10.446-1.504 21.139-2.277 31.998-2.277s21.551.773 31.998 2.277c21.747 3.111 42.484 9.344 61.749 18.234z" fill="#f4a94a"/><path d="m480 403.4v30.6h-448v-42l10-7v-19.33l-10-5.67c0-61.03 24.4-116.35 64-156.76 9.44-9.63 20.96.24 32-7.57 10.45-7.39 20.33-32.56 32-38.1.75-.36 1.5-.72 2.25-1.05 28.53-13.17 60.28-20.52 93.75-20.52 8.71 0 17.3.5 25.74 1.47-24.87 2.85-48.52 9.77-70.23 20.1-18.75 8.9-36.07 20.33-51.51 33.86-4.31 3.78-8.48 7.72-12.49 11.81-22.79 23.26-40.54 51.44-51.51 82.81-8.09 23.16-12.49 48.04-12.49 73.95v11.46c0 7.82 2.81 14.98 7.48 20.53 5.85 6.98 14.63 11.41 24.45 11.41z" fill="#f4a94a"/><path d="m480 391.999h-447.998v-6.999-25.001h447.998z" fill="#f5fcff"/><path d="m90.986 391.995h-58.988v-31.998h51.509v11.466c0 7.819 2.812 14.979 7.479 20.532z" fill="#d8ecfe"/><path d="m281.001 328h-50c-3.866 0-7-3.134-7-7v-216.999h64v216.999c0 3.866-3.134 7-7 7z" fill="#fee97e"/><path d="m287.999 103.996v111.384c-10.055 3.389-20.81 5.223-31.998 5.223s-21.943-1.834-31.998-5.223v-111.384z" fill="#f9da58"/><path d="m415.999 203.244v85.758c0 3.866-3.134 7-7 7h-49.995c-3.866 0-7-3.134-7-7v-131.436c23.293 11.064 44.37 26.022 62.388 44.04.546.546 1.082 1.092 1.607 1.638z" fill="#fee97e"/><path d="m159.998 157.566v131.436c0 3.866-3.134 7-7 7h-49.995c-3.866 0-7-3.134-7-7v-85.758c18.358-18.749 40.002-34.284 63.995-45.678z" fill="#fee97e"/><path d="m159.998 157.566v33.862c-4.306 3.781-8.478 7.726-12.486 11.816-22.788 23.251-40.538 51.437-51.509 82.806v-82.806c18.358-18.749 40.002-34.284 63.995-45.678z" fill="#f9da58"/><circle cx="256.001" cy="120.001" fill="#548eb5" r="80"/><path d="m281.756 195.765c-8.087 2.74-16.751 4.234-25.755 4.234-44.185 0-80.004-35.82-80.004-79.994 0-44.185 35.819-80.004 80.004-80.004 9.004 0 17.668 1.494 25.755 4.234-16.215 5.511-30.092 16.081-39.745 29.834-9.138 13.001-14.505 28.845-14.505 45.936s5.357 32.914 14.495 45.915c9.653 13.754 23.54 24.334 39.755 29.845z" fill="#497090"/><circle cx="256.001" cy="120.001" fill="#f5fcff" r="48"/><path d="m227.506 120.005c0 17.091 5.357 32.914 14.495 45.915-19.676-5.985-33.996-24.281-33.996-45.915 0-21.644 14.32-39.94 34.006-45.936-9.138 13.001-14.505 28.845-14.505 45.936z" fill="#d8ecfe"/><path d="m488 471.999h-463.998c-13.255 0-24-10.745-24-24 0-13.255 10.745-24 24-24h463.998c13.255 0 24 10.745 24 24 0 13.255-10.745 24-24 24z" fill="#fee97e"/><path d="m85.814 471.999h-61.811c-13.258 0-24.003-10.745-24.003-24.003 0-6.624 2.689-12.62 7.026-16.967 4.347-4.337 10.343-7.026 16.977-7.026h61.811c-6.634 0-12.63 2.689-16.977 7.026-4.337 4.347-7.026 10.343-7.026 16.967 0 13.258 10.745 24.003 24.003 24.003z" fill="#f9da58"/></g></svg>