<svg id="Capa_1" enable-background="new 0 0 512 512" height="512" viewBox="0 0 512 512" width="512" xmlns="http://www.w3.org/2000/svg"><g><path d="m253.718.372-184.929 61.643c-2.947.982-4.935 3.74-4.935 6.846v176.551c0 120.955 77.398 228.339 192.146 266.588 114.747-38.249 192.145-145.633 192.145-266.587v-176.551c0-3.106-1.988-5.864-4.935-6.846l-184.928-61.644c-1.481-.493-3.083-.493-4.564 0z" fill="#f5fcff"/><path d="m205.07 451.216c22.279 20.733 48.095 37.991 76.704 50.765-7.619 3.401-15.435 6.485-23.432 9.229-1.515.52-3.169.52-4.684 0-113.457-38.922-189.8-145.668-189.8-265.796v-176.549c0-3.106 1.988-5.864 4.934-6.846l184.926-61.649c1.481-.494 3.082-.494 4.564 0l23.492 7.828-161.433 53.821c-2.947.982-4.934 3.74-4.934 6.846v176.548c0 79.839 33.723 153.78 89.663 205.803z" fill="#d8ecfe"/><path d="m258.636 476.715c-1.69.668-3.582.668-5.273 0-94.6-37.356-157.24-128.646-157.24-231.303v-153.292c0-3.106 1.988-5.864 4.935-6.846l152.66-50.886c1.481-.494 3.083-.494 4.564 0l152.66 50.886c2.947.982 4.935 3.74 4.935 6.846v153.293c-.001 102.656-62.64 193.946-157.241 231.302z" fill="#ade194"/><path d="m205.07 451.216c-67.034-45.466-108.943-121.83-108.943-205.802v-153.289c0-3.107 1.988-5.865 4.936-6.847l14.343-4.779v164.914c.001 79.839 33.724 153.78 89.664 205.803z" fill="#7dce6f"/><circle cx="256" cy="255.806" fill="#f5fcff" r="128.097"/><path d="m281.774 381.316c-8.33 1.691-16.949 2.588-25.774 2.588-70.745 0-128.098-57.353-128.098-128.098s57.353-128.098 128.098-128.098c8.825 0 17.444.897 25.774 2.588-27.671 5.66-52.095 20.238-70.127 40.6-20.042 22.609-32.197 52.332-32.197 84.911s12.155 62.302 32.197 84.911c18.032 20.36 42.456 34.938 70.127 40.598z" fill="#d8ecfe"/><circle cx="256" cy="255.806" fill="#f07281" r="95.828"/><path d="m179.45 255.806c0 32.579 12.155 62.302 32.197 84.911-30.568-16.011-51.476-48.064-51.476-84.911s20.908-68.9 51.476-84.911c-20.041 22.609-32.197 52.332-32.197 84.911z" fill="#eb5569"/><path d="m296.82 239.794h-17.591c-3.986 0-7.217-3.231-7.217-7.217v-17.676c0-3.986-3.231-7.217-7.217-7.217h-17.591c-3.986 0-7.217 3.231-7.217 7.217v17.676c0 3.986-3.231 7.217-7.217 7.217h-17.59c-3.986 0-7.217 3.231-7.217 7.217v17.591c0 3.986 3.231 7.217 7.217 7.217h17.591c3.986 0 7.217 3.231 7.217 7.217v17.506c0 3.986 3.231 7.217 7.217 7.217h17.591c3.986 0 7.217-3.231 7.217-7.217v-17.506c0-3.986 3.231-7.217 7.217-7.217h17.591c3.986 0 7.217-3.231 7.217-7.217v-17.591c-.002-3.986-3.233-7.217-7.218-7.217z" fill="#f5fcff"/></g></svg>