<svg id="Capa_1" enable-background="new 0 0 512.002 512.002" height="512" viewBox="0 0 512.002 512.002" width="512" xmlns="http://www.w3.org/2000/svg"><g><path d="m192.001 352.001 32 32 15 10h36.5l12.5-10 32-32-14-10h-98z" fill="#fee97e"/><path d="m254.909 384.002-15.908 9.999-14.998-9.999-31.997-31.998 15.495-10 15.41 10z" fill="#f9da58"/><path d="m278.001 421.502v21.17l10 5.33v49c0 8.28-6.72 15-15 15h-34c-8.28 0-15-6.72-15-15v-113h64v32z" fill="#548eb5"/><path d="m270.361 512.002h-31.36c-8.28 0-15-6.72-15-15v-113h30.91v112.55c0 8.53 6.91 15.45 15.45 15.45z" fill="#497090"/><path d="m288.001 448h-25c-3.866 0-7-3.134-7-7v-18c0-3.866 3.134-7 7-7h25z" fill="#fee97e"/><path d="m320.001 34.938v317.064h-128v-317.065c0-1.877.743-3.688 2.093-4.993 25.302-24.475 50.605-33.949 75.907-28.412.49.11.97.22 1.45.34 15.456 3.726 30.913 13.054 46.378 27.995 1.378 1.331 2.172 3.155 2.172 5.071z" fill="#548eb5"/><path d="m271.451 1.872c-15.456 3.735-30.921 13.064-46.369 27.995-1.377 1.331-2.171 3.155-2.171 5.07v317.066h-30.91v-317.066c0-1.877.743-3.688 2.093-4.993 25.302-24.475 50.605-33.949 75.907-28.412.49.11.97.22 1.45.34z" fill="#497090"/><path d="m281.001 320.001h-50c-3.866 0-7-3.134-7-7v-262.019c0-1.951.818-3.82 2.247-5.148 19.835-18.443 39.671-18.443 59.506 0 1.429 1.329 2.247 3.197 2.247 5.148v262.018c0 3.867-3.134 7.001-7 7.001z" fill="#fee97e"/><g><path d="m256.001 295.728c-4.267 0-7.726-3.459-7.726-7.726v-224c0-4.268 3.459-7.726 7.726-7.726s7.726 3.459 7.726 7.726v223.999c0 4.268-3.459 7.727-7.726 7.727z" fill="#f5fcff"/></g><g><g><g><g><path d="m124.115 267.612c-1.978 0-3.956-.755-5.465-2.265-19.588-19.6-30.375-45.649-30.375-73.351 0-27.695 10.787-53.741 30.375-73.34 3.016-3.02 7.908-3.02 10.927-.003 3.018 3.016 3.02 7.908.003 10.927-16.671 16.681-25.852 38.847-25.852 62.417 0 23.577 9.181 45.747 25.852 62.428 3.017 3.018 3.015 7.91-.003 10.927-1.509 1.506-3.485 2.26-5.462 2.26z" fill="#548eb5"/></g><g><path d="m146.749 244.979c-1.977 0-3.955-.755-5.463-2.263-13.55-13.55-21.013-31.564-21.013-50.721 0-19.145 7.462-37.156 21.01-50.717 3.017-3.019 7.908-3.02 10.927-.005 3.019 3.016 3.021 7.908.005 10.927-10.633 10.643-16.489 24.775-16.489 39.795 0 15.029 5.855 29.162 16.486 39.793 3.018 3.018 3.018 7.909 0 10.928-1.509 1.508-3.486 2.263-5.463 2.263z" fill="#548eb5"/></g></g><g><g><path d="m387.887 267.612c-1.977 0-3.953-.754-5.462-2.262-3.018-3.016-3.02-7.908-.003-10.927 16.671-16.681 25.852-38.851 25.852-62.428 0-23.57-9.181-45.736-25.852-62.417-3.017-3.018-3.015-7.91.003-10.927 3.019-3.018 7.911-3.015 10.927.003 19.588 19.6 30.375 45.645 30.375 73.34 0 27.702-10.787 53.752-30.375 73.351-1.509 1.512-3.487 2.267-5.465 2.267z" fill="#548eb5"/></g><g><path d="m365.253 244.979c-1.977 0-3.955-.755-5.463-2.263-3.018-3.018-3.018-7.909 0-10.928 10.631-10.631 16.486-24.764 16.486-39.793 0-15.02-5.856-29.152-16.489-39.795-3.016-3.018-3.014-7.91.005-10.927 3.018-3.015 7.91-3.014 10.927.005 13.548 13.56 21.01 31.572 21.01 50.717 0 19.157-7.462 37.17-21.013 50.721-1.508 1.508-3.485 2.263-5.463 2.263z" fill="#548eb5"/></g></g></g></g></g></svg>