<svg id="Capa_1" enable-background="new 0 0 512 512" height="512" viewBox="0 0 512 512" width="512" xmlns="http://www.w3.org/2000/svg"><g><path d="m303.997 224.064 10 13.602v165.667l-10 12.727h-56.995c-3.866 0-7-3.134-7-7v-20.393l10-7.667v-122l-10-7.553v-20.382c0-3.866 3.134-7 7-7h56.995z" fill="#98bce5"/><path d="m390 240.061h122v159.999h-122z" fill="#fee97e"/><path d="m390 240.063h30.604v159.998h-30.604z" fill="#f9da58"/><path d="m400 272.054h112v96.005h-112z" fill="#98bce5"/><path d="m390 272.05h30.604v96.013h-30.604z" fill="#7bacdf"/><path d="m292.604 258.658v122.798c0 3.983-3.229 7.211-7.211 7.211h-45.39v-137.22h45.39c3.982 0 7.211 3.228 7.211 7.211z" fill="#7bacdf"/><g fill="#c9ebfa"><path d="m236.492 154.293c5.184-6.31 4.712-15.866-1.061-21.636l-31.996-31.996c-6.296-6.296-16.504-6.296-22.8 0-6.296 6.297-6.296 16.505.001 22.801l4.476 4.476h-89.077c-8.904 0-16.122 7.218-16.122 16.123s7.218 16.123 16.122 16.123h89.076l-4.477 4.477c-6.296 6.297-6.296 16.505.001 22.801 7.6 6.296 15.2 6.296 22.8 0 0-.001 32.704-32.779 33.057-33.169z"/><path d="m275.51 154.293c-5.184-6.31-4.712-15.866 1.061-21.636l31.996-31.996c6.296-6.296 16.504-6.296 22.8 0 6.296 6.297 6.296 16.505-.001 22.801l-4.476 4.476h89.075c8.904 0 16.122 7.218 16.122 16.123s-7.218 16.123-16.122 16.123h-89.076l4.477 4.477c6.296 6.297 6.296 16.505-.001 22.801-7.6 6.296-15.2 6.296-22.8 0 .002-.001-32.702-32.779-33.055-33.169z"/></g><path d="m.002 240.061h122v159.999h-122z" fill="#fee97e"/><path d="m0 240.063h20.604v159.998h-20.604z" fill="#f9da58"/><path d="m304.001 416.059h89c3.866 0 7-3.134 7-7v-177.999c0-3.866-3.134-7-7-7h-89z" fill="#548eb5"/><path d="m303.997 224.064h20.604v191.996h-20.604z" fill="#497090"/><path d="m.002 272.054h122v96.005h-122z" fill="#98bce5"/><path d="m0 272.05h20.604v96.013h-20.604z" fill="#7bacdf"/><path d="m208.001 256.602v-9.542c0-3.866-3.134-7-7-7h-35v159.999h35c3.866 0 7-3.134 7-7v-9.547c0-8.534 6.918-15.453 15.453-15.453h41.547c3.866 0 7-3.134 7-7v-82.005c0-3.866-3.134-7-7-7h-41.547c-8.534 0-15.453-6.918-15.453-15.452z" fill="#c9ebfa"/><path d="m165.997 240.063h30.604v159.998h-30.604z" fill="#a0ddf3"/><path d="m272.001 336.059h-25c-3.866 0-7-3.134-7-7v-18c0-3.866 3.134-7 7-7h25z" fill="#98bce5"/><g><path d="m352 375.785c-4.267 0-7.726-3.459-7.726-7.726v-95.999c0-4.268 3.459-7.726 7.726-7.726s7.726 3.459 7.726 7.726v95.999c.001 4.267-3.458 7.726-7.726 7.726z" fill="#f5fcff"/></g><path d="m119.002 416.061h50c3.866 0 7-3.134 7-7v-178.001c0-3.866-3.134-7-7-7h-50c-3.866 0-7 3.134-7 7v178.001c0 3.866 3.134 7 7 7z" fill="#548eb5"/><path d="m132.605 224.064v191.996h-13.604c-3.866 0-7-3.134-7-7v-177.996c0-3.866 3.134-7 7-7z" fill="#497090"/><g><path d="m144.002 375.785c-4.267 0-7.726-3.459-7.726-7.726v-95.999c0-4.268 3.459-7.726 7.726-7.726s7.726 3.459 7.726 7.726v95.999c0 4.267-3.459 7.726-7.726 7.726z" fill="#f5fcff"/></g></g></svg>