<svg id="Capa_1" enable-background="new 0 0 512 512" height="512" viewBox="0 0 512 512" width="512" xmlns="http://www.w3.org/2000/svg"><g><path d="m300.138 138.001h-127.999v-130.999c0-3.866 3.134-7 7-7h113.999c3.866 0 7 3.134 7 7v24.998l-10 10.5v43l10 10.5z" fill="#ade194"/><path d="m223.653 0v138h-51.509v-131c0-3.866 3.134-7 7-7z" fill="#7dce6f"/><path d="m316.138 170.001h-159.999v-34.993c0-3.866 3.134-7 7-7h145.999c3.866 0 7 3.134 7 7z" fill="#f5fcff"/><path d="m207.644 128.01v41.987h-51.509v-34.987c0-3.866 3.134-7 7-7z" fill="#d8ecfe"/><g fill="#548eb5"><path d="m332.138 71.728c-4.267 0-7.726-3.459-7.726-7.726 0-4.267 3.459-7.726 7.726-7.726 4.267 0 7.726 3.459 7.726 7.726 0 4.267-3.459 7.726-7.726 7.726z"/><path d="m364.138 39.728c-4.267 0-7.726-3.459-7.726-7.726 0-4.267 3.459-7.726 7.726-7.726 4.267 0 7.726 3.459 7.726 7.726 0 4.267-3.459 7.726-7.726 7.726z"/><path d="m364.138 103.728c-4.267 0-7.726-3.459-7.726-7.726 0-4.267 3.459-7.726 7.726-7.726 4.267 0 7.726 3.459 7.726 7.726 0 4.266-3.459 7.726-7.726 7.726z"/><path d="m364.138 71.728c-4.267 0-7.726-3.459-7.726-7.726 0-4.267 3.459-7.726 7.726-7.726 4.267 0 7.726 3.459 7.726 7.726 0 4.267-3.459 7.726-7.726 7.726z"/></g><path d="m300.14 32v24.28l-10 7.725 10 7.725v24.27h-57c-3.866 0-7-3.134-7-7v-50c0-3.866 3.134-7 7-7z" fill="#d8ecfe"/><g><path d="m300.14 56.28v15.45h-32c-4.27 0-7.73-3.46-7.73-7.73s3.46-7.72 7.73-7.72z" fill="#f5fcff"/></g><path d="m332.138 511.998h-191.999v-344.994c0-3.866 3.134-7 7-7h177.998c3.866 0 7 3.134 7 7v24.991l-10 12.005v264.5l10 11.498v32z" fill="#f07281"/><path d="m191.645 160.008v351.992h-51.509v-344.992c0-3.866 3.134-7 7-7z" fill="#eb5569"/><path d="m332.138 479.998h-152.999c-3.866 0-7-3.134-7-7v-274.003c0-3.866 3.134-7 7-7h152.999v32.005l-10 28.5v169.5l10 26z" fill="#f5fcff"/><path d="m191.645 191.995v288.008h-12.501c-3.866 0-7-3.134-7-7v-274.008c0-3.866 3.134-7 7-7z" fill="#d8ecfe"/><path d="m332.14 224v56.27l-10 7.73 10 7.73v16.54l-10 7.73 10 7.73v16.54l-10 7.73 10 7.73v88.27c-41.54-15.86-80-71.65-80-116.44v-70.82c0-2.86 1.74-5.44 4.4-6.5z" fill="#ade194"/><g><path d="m332.14 312.27v15.46h-32c-4.27 0-7.73-3.46-7.73-7.73s3.46-7.73 7.73-7.73z" fill="#f5fcff"/></g><g><path d="m332.14 280.27v15.46h-32c-4.27 0-7.73-3.46-7.73-7.73s3.46-7.73 7.73-7.73z" fill="#f5fcff"/></g><g><path d="m332.14 344.27v15.46h-32c-4.27 0-7.73-3.46-7.73-7.73s3.46-7.73 7.73-7.73z" fill="#f5fcff"/></g></g></svg>