<svg id="Capa_1" enable-background="new 0 0 512 512" height="512" viewBox="0 0 512 512" width="512" xmlns="http://www.w3.org/2000/svg"><path d="m243.44 512h-19.44v-6.61c5.38 4.15 12.12 6.61 19.44 6.61z" fill="#7bacdf"/><g><path d="m352 224v257c0 17.12-13.88 31-31 31h-130c-17.12 0-31-13.88-31-31v-257c0-17.68 14.33-32 32-32l10.88 10h101.81l15.31-10c8.84 0 16.84 3.58 22.63 9.37s9.37 13.79 9.37 22.63z" fill="#548eb5"/><path d="m243.44 512h-52.44c-17.12 0-31-13.88-31-31v-257c0-17.68 14.33-32 32-32l10.88 10h17.34c-5.4 5.72-8.71 13.44-8.71 21.93v256.13c0 10.32 4.9 19.5 12.49 25.33 5.38 4.15 12.12 6.61 19.44 6.61z" fill="#497090"/><path d="m240 15.53v154.47h-32v-154.47c0-8.57 6.95-15.53 15.53-15.53h.94c3.83 0 7.33 1.38 10.03 3.68 3.37 2.85 5.5 7.1 5.5 11.85z" fill="#548eb5"/><path d="m234.5 3.68c-3.23 2.97-5.89 7.68-5.89 12.32v154h-20.61v-154.47c0-8.57 6.95-15.53 15.53-15.53h.94c3.83 0 7.33 1.38 10.03 3.68z" fill="#497090"/><path d="m319.999 191.995-6.499 10h-17.667l-7.834-10v-16.463c0-8.578 6.954-15.531 15.531-15.531h.938c8.578 0 15.531 6.954 15.531 15.531z" fill="#548eb5"/><path d="m256 175v17l-11.13 10h-41.99l-10.88-10v-17c0-8.28 6.72-15 15-15h34c8.28 0 15 6.72 15 15z" fill="#fee97e"/><path d="m228.06 160c-8.54 0-15.45 6.92-15.45 15.45v16.54l-9.73 10-10.87-10-.01-.01v-16.98c0-8.28 6.72-15 15-15z" fill="#f9da58"/><path d="m312.999 351.999h-113.998c-3.866 0-7-3.134-7-7v-49.999c0-3.866 3.134-7 7-7h113.999c3.866 0 7 3.134 7 7v49.999c-.001 3.866-3.135 7-7.001 7z" fill="#f5fcff"/><path d="m211.507 287.997v64.005h-12.501c-3.866 0-7-3.134-7-7v-50.005c0-3.866 3.134-7 7-7z" fill="#d8ecfe"/><g><path d="m208 391.725h-15.999c-4.268 0-7.726-3.459-7.726-7.726s3.459-7.726 7.726-7.726h15.999c4.268 0 7.726 3.459 7.726 7.726s-3.458 7.726-7.726 7.726z" fill="#98bce5"/></g><g><path d="m208 423.725h-15.999c-4.268 0-7.726-3.459-7.726-7.726s3.459-7.726 7.726-7.726h15.999c4.268 0 7.726 3.459 7.726 7.726s-3.458 7.726-7.726 7.726z" fill="#98bce5"/></g><g><path d="m208 455.724h-15.999c-4.268 0-7.726-3.459-7.726-7.726s3.459-7.726 7.726-7.726h15.999c4.268 0 7.726 3.459 7.726 7.726s-3.458 7.726-7.726 7.726z" fill="#98bce5"/></g><g><path d="m211.51 377.11v13.78c-1.05.54-2.24.84-3.51.84h-16c-4.27 0-7.73-3.46-7.73-7.73s3.46-7.73 7.73-7.73h16c1.27 0 2.46.3 3.51.84z" fill="#7bacdf"/></g><g><path d="m211.51 409.11v13.78c-1.05.54-2.24.84-3.51.84h-16c-4.27 0-7.73-3.46-7.73-7.73s3.46-7.73 7.73-7.73h16c1.27 0 2.46.3 3.51.84z" fill="#7bacdf"/></g><g><path d="m211.51 441.11v13.77c-1.05.54-2.24.84-3.51.84h-16c-4.27 0-7.73-3.45-7.73-7.72s3.46-7.73 7.73-7.73h16c1.27 0 2.46.3 3.51.84z" fill="#7bacdf"/></g><g><path d="m264 391.725h-16c-4.268 0-7.726-3.459-7.726-7.726s3.459-7.726 7.726-7.726h16c4.268 0 7.726 3.459 7.726 7.726s-3.458 7.726-7.726 7.726z" fill="#98bce5"/></g><g><path d="m264 423.725h-16c-4.268 0-7.726-3.459-7.726-7.726s3.459-7.726 7.726-7.726h16c4.268 0 7.726 3.459 7.726 7.726s-3.458 7.726-7.726 7.726z" fill="#98bce5"/></g><g><path d="m264 455.724h-16c-4.268 0-7.726-3.459-7.726-7.726s3.459-7.726 7.726-7.726h16c4.268 0 7.726 3.459 7.726 7.726s-3.458 7.726-7.726 7.726z" fill="#98bce5"/></g><g><path d="m319.999 391.725h-15.999c-4.268 0-7.726-3.459-7.726-7.726s3.459-7.726 7.726-7.726h15.999c4.268 0 7.726 3.459 7.726 7.726s-3.458 7.726-7.726 7.726z" fill="#98bce5"/></g><g><path d="m319.999 423.725h-15.999c-4.268 0-7.726-3.459-7.726-7.726s3.459-7.726 7.726-7.726h15.999c4.268 0 7.726 3.459 7.726 7.726s-3.458 7.726-7.726 7.726z" fill="#98bce5"/></g><g><path d="m319.999 455.724h-15.999c-4.268 0-7.726-3.459-7.726-7.726s3.459-7.726 7.726-7.726h15.999c4.268 0 7.726 3.459 7.726 7.726s-3.458 7.726-7.726 7.726z" fill="#98bce5"/></g><path d="m320 192v17c0 8.28-6.72 15-15 15h-98c-8.28 0-15-6.72-15-15v-16.99l.01-.01z" fill="#98bce5"/><path d="m243.44 191.99c-.28 0-.55 0-.82.01-17.25.44-31.11 14.57-31.11 31.93v.07h-4.51c-8.28 0-15-6.72-15-15v-16.99l.01-.01v-.01z" fill="#7bacdf"/><g><path d="m319.999 263.726h-127.998c-4.268 0-7.726-3.459-7.726-7.726s3.459-7.726 7.726-7.726h127.998c4.268 0 7.726 3.459 7.726 7.726s-3.458 7.726-7.726 7.726z" fill="#fee97e"/></g><g><path d="m211.507 248.274v15.453h-19.501c-4.275 0-7.726-3.461-7.726-7.726s3.451-7.726 7.726-7.726h19.501z" fill="#f9da58"/></g><path d="m288 511.998h-64v-25c0-3.866 3.134-7 7-7h50c3.866 0 7 3.134 7 7z" fill="#98bce5"/><g><g><g><g><path d="m124.115 167.554c-1.978 0-3.956-.755-5.465-2.265-19.588-19.601-30.375-45.65-30.375-73.35 0-27.694 10.788-53.74 30.375-73.341 3.015-3.018 7.907-3.02 10.927-.003 3.018 3.016 3.02 7.908.003 10.927-16.671 16.682-25.852 38.849-25.852 62.418 0 23.574 9.181 45.744 25.852 62.427 3.017 3.018 3.015 7.91-.003 10.927-1.51 1.507-3.485 2.26-5.462 2.26z" fill="#548eb5"/></g><g><path d="m146.747 144.922c-1.978 0-3.955-.755-5.464-2.264-13.549-13.55-21.011-31.562-21.011-50.718 0-19.145 7.461-37.157 21.009-50.717 3.016-3.018 7.908-3.021 10.927-.005s3.021 7.907.005 10.927c-10.633 10.642-16.488 24.775-16.488 39.795 0 15.028 5.855 29.161 16.486 39.793 3.017 3.017 3.017 7.909-.001 10.927-1.508 1.507-3.486 2.262-5.463 2.262z" fill="#548eb5"/></g></g><g><g><path d="m387.885 167.554c-1.977 0-3.953-.754-5.462-2.262-3.018-3.016-3.02-7.908-.003-10.927 16.671-16.682 25.852-38.852 25.852-62.427 0-23.568-9.181-45.735-25.852-62.418-3.017-3.018-3.015-7.91.003-10.927 3.019-3.017 7.909-3.016 10.927.003 19.588 19.601 30.375 45.647 30.375 73.341 0 27.7-10.788 53.749-30.375 73.35-1.508 1.512-3.487 2.267-5.465 2.267z" fill="#548eb5"/></g><g><path d="m365.253 144.922c-1.977 0-3.955-.755-5.463-2.263-3.018-3.017-3.018-7.909-.001-10.927 10.631-10.632 16.486-24.765 16.486-39.793 0-15.02-5.855-29.153-16.488-39.796-3.016-3.019-3.014-7.91.005-10.927 3.018-3.016 7.91-3.013 10.927.005 13.548 13.56 21.009 31.572 21.009 50.717 0 19.156-7.462 37.168-21.011 50.718-1.51 1.511-3.488 2.266-5.464 2.266z" fill="#548eb5"/></g></g></g></g></g></svg>