<svg id="Capa_1" enable-background="new 0 0 512 512" height="512" viewBox="0 0 512 512" width="512" xmlns="http://www.w3.org/2000/svg"><g><g><path d="m388.161 393.542h-75.335c-4.203 0-7.61-3.407-7.61-7.61s3.407-7.61 7.61-7.61h75.335c29.372 0 53.268-23.896 53.268-53.268v-232.917c0-4.203 3.407-7.61 7.61-7.61s7.61 3.407 7.61 7.61v232.917c-.001 37.765-30.724 68.488-68.488 68.488z" fill="#fee97e"/></g><path d="m86.599 307.138h236.377v167.727h-236.377z" fill="#98bce5"/><path d="m322.976 307.138v27.09c-9.811 7.579-20.353 14.245-31.514 19.846-26.086 13.119-55.54 20.506-86.679 20.506s-60.583-7.386-86.669-20.506c-11.161-5.601-21.713-12.267-31.514-19.846v-27.09z" fill="#7bacdf"/><path d="m86.599 307.138h50.731v167.727h-50.731z" fill="#7bacdf"/><path d="m291.457 322.775h-173.341v103.432c0 3.866 3.134 7 7 7h159.341c3.866 0 7-3.134 7-7z" fill="#548eb5"/><path d="m291.462 322.773v31.301c-26.086 13.119-55.54 20.506-86.679 20.506s-60.583-7.386-86.669-20.506v-31.301z" fill="#497090"/><path d="m137.331 322.773v110.432h-12.217c-3.866 0-7-3.134-7-7v-103.432z" fill="#497090"/><circle cx="449.039" cy="70.767" fill="#548eb5" r="31.516"/><path d="m459.189 100.621c-3.186 1.076-6.595 1.664-10.146 1.664-17.411 0-31.524-14.113-31.524-31.514 0-17.411 14.114-31.524 31.524-31.524 3.551 0 6.96.588 10.146 1.664-12.429 4.221-21.378 16.001-21.378 29.86 0 13.86 8.949 25.629 21.378 29.85z" fill="#497090"/><g><g><g><path d="m366.587 39.812c-1.947 0-3.895-.743-5.381-2.228-2.972-2.973-2.972-7.79 0-10.763l11.143-11.143c2.973-2.971 7.79-2.971 10.763 0 2.972 2.973 2.972 7.79 0 10.763l-11.143 11.143c-1.487 1.485-3.435 2.228-5.382 2.228z" fill="#548eb5"/></g><g><path d="m338.731 30.978c-4.203 0-7.61-3.407-7.61-7.61v-15.758c0-4.203 3.406-7.61 7.61-7.61s7.61 3.407 7.61 7.61v15.758c0 4.203-3.407 7.61-7.61 7.61z" fill="#548eb5"/></g><g><path d="m391.181 67.67h-15.758c-4.203 0-7.61-3.407-7.61-7.61s3.407-7.61 7.61-7.61h15.758c4.203 0 7.61 3.407 7.61 7.61s-3.406 7.61-7.61 7.61z" fill="#548eb5"/></g></g></g><circle cx="204.786" cy="180.951" fill="#f5fcff" r="173.341"/><path d="m132.298 302.876c25.802 26.076 59.822 43.994 97.85 49.564-8.279 1.218-16.751 1.847-25.366 1.847-95.73 0-173.338-77.598-173.338-173.338 0-95.73 77.608-173.338 173.338-173.338 8.614 0 17.086.629 25.366 1.847-38.018 5.57-72.028 23.488-97.82 49.554-31.007 31.311-50.153 74.392-50.153 121.937s19.136 90.616 50.123 121.927z" fill="#d8ecfe"/><circle cx="204.786" cy="180.951" fill="#ffde5c" r="141.824"/><path d="m82.176 180.949c0 47.545 19.136 90.616 50.123 121.927-41.519-24.737-69.339-70.08-69.339-121.927 0-51.857 27.831-97.211 69.37-121.937-31.008 31.311-50.154 74.392-50.154 121.937z" fill="#ffc736"/><circle cx="204.786" cy="180.951" fill="#f5fcff" r="47.275"/><path d="m220.002 225.724c-4.779 1.623-9.893 2.506-15.219 2.506-26.106 0-47.271-21.175-47.271-47.281s21.165-47.271 47.271-47.271c5.327 0 10.441.883 15.219 2.506-18.639 6.331-32.052 23.986-32.052 44.765s13.413 38.434 32.052 44.775z" fill="#d8ecfe"/><g><path d="m259.94 393.542h-110.307c-4.203 0-7.61-3.407-7.61-7.61s3.407-7.61 7.61-7.61h110.307c4.203 0 7.61 3.407 7.61 7.61s-3.407 7.61-7.61 7.61z" fill="#f5fcff"/></g><path d="m338.731 511.998h-267.889v-40.275c0-3.866 3.134-7 7-7h253.89c3.866 0 7 3.134 7 7v40.275z" fill="#548eb5"/><path d="m121.573 464.719v47.281h-50.731v-40.281c0-3.866 3.134-7 7-7z" fill="#497090"/></g></svg>