<svg id="Capa_1" enable-background="new 0 0 512 512" height="512" viewBox="0 0 512 512" width="512" xmlns="http://www.w3.org/2000/svg"><g><path d="m160.001 64.002-119.301 29.825c-4.418 1.105-8.698-2.237-8.698-6.791v-17.569c0-3.212 2.186-6.012 5.302-6.791l122.697-30.674z" fill="#eb5569"/><path d="m39.002.002h120.999l10 9.665v43.335l-10 11-122.697-30.675c-3.116-.779-5.302-3.579-5.302-6.791v-19.534c0-3.866 3.134-7 7-7z" fill="#f07281"/><path d="m309.999 64.002h79.698c5.69 0 10.302 4.612 10.302 10.302v255.696h32v-266.063c0-17.638-14.298-31.936-31.936-31.936h-90.064z" fill="#98bce5"/><path d="m312.999 72.001h-66.999v-48h66.999c3.866 0 7 3.134 7 7v34c0 3.866-3.134 7-7 7z" fill="#548eb5"/><path d="m246 24.003h30.604v47.996h-30.604z" fill="#497090"/><path d="m256 106.001h-95.999v-105.999h88.999c3.866 0 7 3.134 7 7z" fill="#f5fcff"/><path d="m159.997 0h20.604v106.003h-20.604z" fill="#d8ecfe"/><circle cx="208" cy="48.002" fill="#548eb5" r="16"/><path d="m143.999 148.089v-45.086c0-3.866 3.134-7 7-7h114c3.866 0 7 3.134 7 7v45.086z" fill="#fee97e"/><path d="m174.904 96.003v52.086h-30.905v-45.086c0-3.866 3.134-7 7-7z" fill="#f9da58"/><path d="m320 236.72v275.28h-224v-275.28c0-60.04 48.67-108.72 108.72-108.72h6.56c6.99 0 13.82.66 20.44 1.93 50.27 9.56 88.28 53.74 88.28 106.79z" fill="#f07281"/><path d="m233.76 130.98c-23.86 5.6-44.77 18.84-60.02 37-16.37 19.47-26.23 44.6-26.23 72.02v272h-51.51v-275.28c0-60.04 48.67-108.72 108.72-108.72h6.56c6.99 0 13.82.66 20.44 1.93.63.52 1.31.88 2.04 1.05z" fill="#eb5569"/><path d="m287.76 240v239.75h-159.52v-239.75c0-31.72 18.61-59.17 45.49-72.01l.01-.01c10.38-4.95 22-7.73 34.26-7.73 43.98 0 79.76 35.77 79.76 79.75z" fill="#f5fcff"/><path d="m173.73 167.99c-16.36 19.47-26.22 44.59-26.22 72.01v239.76h-19.26v-.01l-.01-.25v-239.5c0-31.72 18.61-59.17 45.49-72.01z" fill="#d8ecfe"/><path d="m138.001 256h159.999v32h-159.999z" fill="#f07281"/><path d="m128 256h19.512v31.997h-19.512z" fill="#eb5569"/><path d="m138.001 351.999h159.999v63.999h-159.999z" fill="#f07281"/><path d="m128 352.003h19.512v63.995h-19.512z" fill="#eb5569"/><path d="m442.069 319.999h-52.14c-3.422 0-6.342 2.474-6.905 5.849l-31.025 186.149h127.999l-31.025-186.149c-.562-3.375-3.483-5.849-6.904-5.849z" fill="#548eb5"/><path d="m414.905 319.995-31.997 192.005h-30.905l31.023-186.156c.563-3.375 3.483-5.849 6.905-5.849z" fill="#497090"/></g></svg>