<svg id="Capa_1" enable-background="new 0 0 512 512" height="512" viewBox="0 0 512 512" width="512" xmlns="http://www.w3.org/2000/svg"><g><path d="m440.795 363.631-.699 12.847-31.813 31.813-12.796.648-36.984-36.984c.533-31.665 16.356-46.899 47.77-42.845z" fill="#fee97e"/><path d="m402.36 384.906 8.581 8.581-2.657 14.804-12.796.648-36.984-36.984c.07-31.178 15.638-46.318 47.77-42.845l16.318 16.318c-5.847 5.841-12.069 11.304-18.628 16.353-7.392 5.691-8.201 16.528-1.604 23.125z" fill="#f9da58"/><g><path d="m153.59 371.86-21.62 21.63-15.45 15.45h-.01l-13.04 3.73-33.47-33.47 1.2-15.57h.01l34.65-34.65c5 .26 9.7 1.04 14.06 2.39 16.48 5.06 28.22 18.08 33.67 40.49z" fill="#fee97e"/><path d="m131.97 393.49-15.45 15.45h-.01l-13.04 3.73-33.47-33.47 1.2-15.57h.01l34.65-34.65c5 .26 9.7 1.04 14.06 2.39 2.6 2.93 4.08 6.58.52 13.94l-7.39 7.4c-6.04 6.03-6.04 15.81-.01 21.85z" fill="#f9da58"/><path d="m19.694 379.89 80.61 80.61c2.734 2.734 7.166 2.734 9.899 0l23.988-23.988c2.734-2.734 2.734-7.166 0-9.899l-80.61-80.61c-2.734-2.734-7.166-2.734-9.899 0l-23.988 23.987c-2.733 2.734-2.733 7.166 0 9.9z" fill="#548eb5"/><path d="m120.705 449.992-10.503 10.503c-2.734 2.734-7.165 2.734-9.899 0l-80.613-80.602c-2.734-2.734-2.734-7.166 0-9.9l23.993-23.994c2.734-2.734 7.166-2.734 9.9 0l10.503 10.503-7.513 7.513c-6.035 6.035-6.035 15.82.001 21.854z" fill="#497090"/></g><path d="m447.996 145.396v64.253c0 16.689-2.133 32.873-6.13 48.316-20.181 77.759-87.896 136.376-170.29 142.939-.01 0-.01 0-.021 0-1.216.103-2.442.185-3.667.258-.103.01-.196.021-.299.021-1.205.072-2.421.134-3.626.185-.103 0-.196 0-.288.01-1.216.041-2.442.082-3.657.103-1.298.031-2.596.041-3.894.041-44.628 0-85.691-15.236-118.286-40.785s-56.712-61.42-67.436-102.689c-4.018-15.463-6.161-31.678-6.161-48.398v-64.253h383.755z" fill="#548eb5"/><path d="m447.996 145.396v64.253c0 16.689-2.133 32.873-6.13 48.316-8.19 2.658-16.926 4.09-25.992 4.09h-56.32c-32.255 0-61.245-17.925-75.678-46.77-5.306-10.632-15.989-17.235-27.877-17.235s-22.571 6.604-27.877 17.235c-14.433 28.845-43.423 46.77-75.678 46.77h-28.303c-11.069 0-18.498 11.275-14.232 21.489 27.047 64.756 88.572 111.537 161.645 117.36-1.216.103-2.442.185-3.667.258-.103.01-.196.021-.299.021-1.205.072-2.421.134-3.626.185-.103 0-.196 0-.288.01-1.216.041-2.442.082-3.657.103-1.298.031-2.596.041-3.894.041-44.628 0-85.691-15.236-118.286-40.785s-56.712-61.42-67.436-102.689c-4.018-15.463-6.161-31.678-6.161-48.398v-64.253h383.756z" fill="#497090"/><path d="m492.306 379.89-80.61 80.61c-2.734 2.734-7.166 2.734-9.899 0l-23.988-23.988c-2.734-2.734-2.734-7.166 0-9.899l80.61-80.61c2.734-2.734 7.166-2.734 9.9 0l23.988 23.988c2.732 2.733 2.732 7.165-.001 9.899z" fill="#548eb5"/><path d="m414.693 442.489 7.507 7.503-10.504 10.504c-2.733 2.733-7.165 2.734-9.899.001l-23.992-23.985c-2.734-2.734-2.735-7.166-.001-9.9l80.612-80.612c2.734-2.734 7.166-2.734 9.9 0l10.503 10.503-64.13 64.13c-6.035 6.035-6.034 15.822.004 21.856z" fill="#497090"/><path d="m505 177.45h-35v-63.872h35c3.866 0 7 3.134 7 7v49.872c0 3.866-3.134 7-7 7z" fill="#548eb5"/><path d="m42 177.45h-35c-3.866 0-7-3.134-7-7v-49.872c0-3.866 3.134-7 7-7h35z" fill="#548eb5"/><path d="m32 113.578v63.743c0 35.417 28.711 64.128 64.128 64.128h56.318c24.241 0 46.402-13.696 57.243-35.378 8.771-17.541 26.699-28.621 46.311-28.621 19.612 0 37.54 11.08 46.311 28.622 10.841 21.682 33.002 35.378 57.243 35.378h56.318c35.417 0 64.128-28.711 64.128-64.128v-63.743c0-35.417-28.711-64.128-64.128-64.128h-319.744c-35.417-.001-64.128 28.71-64.128 64.127z" fill="#98bce5"/><path d="m147.634 241.451h-51.509c-35.418 0-64.129-28.711-64.129-64.129v-63.748c0-35.408 28.711-64.119 64.129-64.119h51.509c-23.931 0-44.793 13.104-55.816 32.523-5.295 9.334-8.314 20.109-8.314 31.596v63.748c0 11.487 3.018 22.273 8.314 31.596 11.013 19.429 31.885 32.533 55.816 32.533z" fill="#7bacdf"/><path d="m447.76 113.58v63.74c0 17.58-14.31 31.89-31.89 31.89h-56.32c-12.1 0-22.98-6.73-28.4-17.56-14.32-28.65-43.12-46.44-75.15-46.44s-60.83 17.79-75.15 46.44c-5.42 10.83-16.3 17.56-28.4 17.56h-56.32c-1.46 0-2.9-.1-4.31-.29v-.01c-15.55-2.1-27.58-15.47-27.58-31.59v-63.74c0-16.12 12.03-29.49 27.58-31.59v-.01c1.41-.19 2.85-.29 4.31-.29h319.74c17.58 0 31.89 14.31 31.89 31.89z" fill="#f5fcff"/><path d="m83.51 177.32c0 11.49 3.01 22.26 8.31 31.59-15.55-2.1-27.58-15.47-27.58-31.59v-63.74c0-16.12 12.03-29.49 27.58-31.59-5.3 9.33-8.31 20.1-8.31 31.58z" fill="#d8ecfe"/><circle cx="256" cy="353.461" fill="#fee97e" r="80"/><path d="m266.302 432.798c-3.369.433-6.81.659-10.302.659-44.185 0-80.004-35.809-80.004-79.994s35.82-80.004 80.004-80.004c3.492 0 6.933.227 10.302.659-39.322 5.058-69.703 38.653-69.703 79.345s30.381 74.287 69.703 79.335z" fill="#f9da58"/><g><g fill="#548eb5"><g><path d="m256 313.176c-4.267 0-7.726-3.459-7.726-7.726 0-4.267 3.459-7.726 7.726-7.726 4.267 0 7.726 3.459 7.726 7.726 0 4.267-3.459 7.726-7.726 7.726z"/><path d="m256 409.252c-4.267 0-7.726-3.459-7.726-7.726 0-4.267 3.459-7.726 7.726-7.726 4.267 0 7.726 3.459 7.726 7.726 0 4.266-3.459 7.726-7.726 7.726z"/></g><g><path d="m290.911 333.332c-2.134-3.695-.867-8.421 2.828-10.555 3.695-2.134 8.421-.867 10.554 2.828 2.134 3.696.867 8.421-2.828 10.554-3.695 2.134-8.421.868-10.554-2.827z"/><path d="m207.707 381.37c-2.134-3.695-.867-8.421 2.828-10.554 3.695-2.134 8.421-.867 10.554 2.828 2.134 3.696.867 8.421-2.828 10.554-3.695 2.133-8.421.867-10.554-2.828z"/></g><g><path d="m221.089 333.332c-2.134 3.695-6.859 4.962-10.554 2.828-3.695-2.134-4.962-6.859-2.828-10.554 2.134-3.696 6.859-4.962 10.554-2.828 3.696 2.133 4.962 6.858 2.828 10.554z"/><path d="m304.293 381.37c-2.134 3.695-6.859 4.962-10.555 2.828-3.695-2.134-4.962-6.859-2.828-10.554 2.134-3.696 6.859-4.962 10.554-2.828 3.697 2.133 4.963 6.858 2.829 10.554z"/></g></g></g><path d="m256 368.972c-8.552 0-15.511-6.958-15.511-15.51s6.958-15.511 15.511-15.511c8.552 0 15.511 6.959 15.511 15.511s-6.959 15.51-15.511 15.51z" fill="#f5fcff"/></g></svg>