<svg id="Capa_1" enable-background="new 0 0 512 512" height="512" viewBox="0 0 512 512" width="512" xmlns="http://www.w3.org/2000/svg"><g><g><g><path d="m368.001 123.892c-4.268 0-7.726-3.459-7.726-7.726v-.539c0-39.59-32.208-71.798-71.798-71.798h-64.945c-39.59 0-71.798 32.208-71.798 71.798 0 4.268-3.459 7.726-7.726 7.726s-7.726-3.459-7.726-7.726c0-48.11 39.141-87.251 87.251-87.251h64.945c48.11 0 87.251 39.141 87.251 87.251v.539c-.002 4.267-3.461 7.726-7.728 7.726z" fill="#548eb5"/></g></g><g><path d="m383.997 166.255h-32c-4.268 0-7.726-3.459-7.726-7.726v-26.301c0-13.083 10.644-23.726 23.726-23.726s23.726 10.644 23.726 23.726v26.301c0 4.267-3.459 7.726-7.726 7.726zm-24.274-15.453h16.547v-18.575c0-4.562-3.711-8.274-8.274-8.274-4.562 0-8.274 3.711-8.274 8.274v18.575z" fill="#98bce5"/></g><g><path d="m160.006 165.654h-32c-4.267 0-7.726-3.459-7.726-7.726v-26.301c0-13.083 10.643-23.726 23.726-23.726s23.726 10.644 23.726 23.726v26.301c0 4.267-3.459 7.726-7.726 7.726zm-24.274-15.453h16.547v-18.575c0-4.562-3.711-8.274-8.273-8.274s-8.274 3.711-8.274 8.274z" fill="#98bce5"/></g><path d="m459.988 434.42c-24.951 20.738-57.011 33.213-91.985 33.213-37.787 0-72.164-14.556-97.857-38.364-20.119-18.646-34.903-42.979-41.805-70.434-2.833-11.27-4.337-23.056-4.337-35.201 0-12.146 1.504-23.941 4.337-35.201 6.902-27.485 21.716-51.829 41.867-70.485 10.034-9.303 21.407-17.184 33.79-23.334l10.302 20.257-10.302 16.85c-5.553 3.874-10.745 8.231-15.504 13.022-20.089 20.243-32.492 48.11-32.492 78.892 0 30.751 12.393 58.607 32.461 78.84 20.295 20.47 48.429 33.151 79.541 33.151 26.136 0 50.17-8.952 69.228-23.962l22.757-.319v23.075z" fill="#c9ebfa"/><circle cx="367.996" cy="451.625" fill="#98bce5" r="32"/><path d="m378.294 481.932c-3.235 1.092-6.696 1.689-10.302 1.689-17.668 0-31.997-14.319-31.997-31.998 0-17.668 14.33-31.997 31.997-31.997 3.606 0 7.067.597 10.302 1.69-12.62 4.296-21.696 16.246-21.696 30.308.001 14.073 9.077 26.012 21.696 30.308z" fill="#7bacdf"/><path d="m367.996 459.351c4.267 0 7.726-3.459 7.726-7.726 0-4.267-3.459-7.726-7.726-7.726-4.267 0-7.726 3.459-7.726 7.726 0 4.267 3.459 7.726 7.726 7.726z" fill="#f5fcff"/><path d="m256.001 323.634c0 30.751 12.393 58.607 32.461 78.84-5.223 9.54-11.373 18.512-18.317 26.795-20.119-18.646-34.903-42.979-41.805-70.434 4.543-10.837 7.057-22.736 7.057-35.201 0-12.249-2.462-24.189-7.057-35.201 6.902-27.485 21.716-51.829 41.867-70.485 4.708 5.614 9.045 11.559 12.991 17.791 1.865 2.946 3.637 5.954 5.295 9.004-20.088 20.243-32.492 48.109-32.492 78.891z" fill="#a0ddf3"/><path d="m52.016 434.416c24.951 20.738 57.01 33.213 91.985 33.213 79.53 0 143.999-64.479 143.999-143.999 0-56.537-32.585-105.46-79.994-129.02l-10.302 19.918 10.302 17.189c29.02 20.223 47.996 53.848 47.996 91.913 0 61.852-50.139 111.991-112.002 111.991-26.136 0-50.17-8.952-69.228-23.962l-22.757 3.239v19.518z" fill="#f5fcff"/><circle cx="144.006" cy="451.625" fill="#98bce5" r="32"/><path d="m154.311 481.932c-3.235 1.092-6.696 1.689-10.302 1.689-17.678 0-32.008-14.319-32.008-31.998 0-17.668 14.33-31.997 32.008-31.997 3.606 0 7.067.597 10.302 1.69-12.62 4.286-21.706 16.236-21.706 30.308 0 14.073 9.087 26.023 21.706 30.308z" fill="#7bacdf"/><path d="m144.006 459.351c-4.267 0-7.726-3.459-7.726-7.726 0-4.267 3.459-7.726 7.726-7.726 4.267 0 7.726 3.459 7.726 7.726 0 4.267-3.459 7.726-7.726 7.726z" fill="#f5fcff"/><path d="m208.007 194.609s-.001 0-.001-.001v-39.983c0-3.866-3.134-7-7-7h-114c-3.866 0-7 3.134-7 7v21.432c0 10.741-5.305 20.872-14.314 26.721-39.534 25.669-65.69 70.202-65.69 120.851 0 44.545 20.233 84.372 52.014 110.786l22.757-22.757c-26.043-20.489-42.763-52.312-42.763-88.028 0-33.508 14.713-63.571 38.028-84.094 5.78-5.088 13.26-7.823 20.96-7.819l117.008.062v-.063s.001.001.001.001z" fill="#c9ebfa"/><path d="m87.004 147.627h13.604v28.433c0 10.735-5.305 20.872-14.309 26.723-39.539 25.662-65.695 70.197-65.695 120.851 0 39.302 15.752 74.926 41.29 100.907l-9.88 9.879c-31.781-26.414-52.014-66.241-52.014-110.786 0-50.654 26.156-95.189 65.695-120.851 9.004-5.852 14.309-15.988 14.309-26.723v-21.433c0-3.866 3.134-7 7-7z" fill="#a0ddf3"/><path d="m160.006 171.899h-32c-4.267 0-7.726 3.459-7.726 7.726s3.459 7.726 7.726 7.726h8.274v10.431c0 4.268 3.459 7.726 7.726 7.726s7.726-3.459 7.726-7.726v-10.431h8.273c4.267 0 7.726-3.459 7.726-7.726s-3.458-7.726-7.725-7.726z" fill="#548eb5"/><path d="m303.995 194.609s.001 0 .001-.001v-39.983c0-3.866 3.134-7 7-7h114c3.866 0 7 3.134 7 7v21.432c0 10.741 5.305 20.872 14.314 26.721 39.534 25.669 65.69 70.203 65.69 120.852 0 44.545-20.233 84.372-52.014 110.786l-22.757-22.757c26.043-20.49 42.763-52.313 42.763-88.029 0-33.508-14.713-63.571-38.028-84.094-5.78-5.088-13.26-7.823-20.96-7.819l-117.008.062v-.063s-.001.001-.001.001z" fill="#f5fcff"/><path d="m310.997 147.627h13.604v84.145l-20.604.01v-77.156c0-3.865 3.134-6.999 7-6.999z" fill="#d8ecfe"/><path d="m383.997 171.899h-32c-4.268 0-7.726 3.459-7.726 7.726s3.459 7.726 7.726 7.726h8.274v10.431c0 4.268 3.459 7.726 7.726 7.726 4.268 0 7.726-3.459 7.726-7.726v-10.431h8.274c4.268 0 7.726-3.459 7.726-7.726s-3.459-7.726-7.726-7.726z" fill="#548eb5"/></g></svg>