<svg id="Capa_1" enable-background="new 0 0 512 512" height="512" viewBox="0 0 512 512" width="512" xmlns="http://www.w3.org/2000/svg"><g><path d="m329.997 31.997c4.425 48.118-15.236 87.215-54.682 118.903-5.965 5.985-19.313 14.093-19.313 22.54 0-8.448-13.348-16.555-19.313-22.54-33.751-23.477-52.547-62.518-54.682-118.903z" fill="#f4a94a"/><path d="m480 256v40l-10 11v26l10 11v48l-10 12.333v25.333l10 10.334v40.06c0 17.64-14.3 31.94-31.94 31.94h-160.12c-17.64 0-31.94-14.3-31.94-31.94v-306.631c0-8.446 3.348-16.547 9.31-22.529l12.21-12.25c27.21-27.31 42.48-64.29 42.48-102.84v-28.81c0-3.866 3.134-7 7-7h82c3.866 0 7 3.134 7 7v90.721c0 40.762 12.09 80.609 34.74 114.499z" fill="#fee97e"/><path d="m256 173.429v306.631c0 17.64-14.3 31.94-31.93 31.94h-160.13c-17.64 0-31.94-14.3-31.94-31.94v-40.06l10-8.25v-31l-10-8.75v-48l10-6.75v-36l-10-5.25v-40l29.26-43.78c22.65-33.89 34.74-73.737 34.74-114.499v-90.721c0-3.866 3.134-7 7-7h82c3.866 0 7 3.134 7 7v28.81c0 38.55 15.28 75.53 42.48 102.84l12.21 12.25c5.962 5.982 9.31 14.083 9.31 22.529z" fill="#fee97e"/><g fill="#f9da58"><path d="m480 372v88h-147.84c-4.89 4.94-11.67 8-19.16 8h-114c-7.48 0-14.26-3.06-19.16-8h-147.84v-88h147.84c4.9-4.94 11.68-8 19.16-8h114c7.49 0 14.27 3.06 19.16 8z"/><path d="m480 276v88h-147.84c-4.89 4.94-11.67 8-19.16 8h-57v-104h57c7.49 0 14.27 3.06 19.16 8z"/><path d="m256 268v104h-57c-7.48 0-14.26-3.06-19.16-8h-147.84v-88h147.84c4.9-4.94 11.68-8 19.16-8z"/></g><path d="m64.249 472.754v-204.846c0-1.385.411-2.738 1.18-3.89l22.644-33.88c26.283-39.324 40.175-85.11 40.175-132.407v-61.923c0-1.967 1.594-3.561 3.561-3.561h24.387c1.967 0 3.561 1.594 3.561 3.561 0 47.406 18.426 92.009 51.882 125.595l10.077 10.115c1.307 1.312 2.041 3.088 2.041 4.94v296.295c0 3.866-3.134 7-7 7h-145.508c-3.866.001-7-3.133-7-6.999z" fill="#ffb952"/><path d="m223.76 364v104h-24.76c-7.48 0-14.26-3.06-19.16-8h-115.59v-88h115.59c4.9-4.94 11.68-8 19.16-8z" fill="#f4a94a"/><path d="m223.76 268v104h-24.76c-7.48 0-14.26-3.06-19.16-8h-115.59v-88h115.59c4.9-4.94 11.68-8 19.16-8z" fill="#f4a94a"/><path d="m447.756 472.754v-204.846c0-1.385-.411-2.738-1.18-3.89l-22.644-33.88c-26.283-39.324-40.175-85.11-40.175-132.407v-61.923c0-1.967-1.594-3.561-3.561-3.561h-24.387c-1.967 0-3.561 1.594-3.561 3.561 0 47.406-18.426 92.009-51.882 125.595l-10.077 10.115c-1.307 1.312-2.041 3.088-2.041 4.94v296.295c0 3.866 3.134 7 7 7h145.509c3.865.001 6.999-3.133 6.999-6.999z" fill="#ffb952"/><path d="m447.76 372v88h-115.6c-4.89 4.94-11.67 8-19.16 8h-24.75v-104h24.75c7.49 0 14.27 3.06 19.16 8z" fill="#f4a94a"/><path d="m447.76 276v88h-115.6c-4.89 4.94-11.67 8-19.16 8h-24.75v-104h24.75c7.49 0 14.27 3.06 19.16 8z" fill="#f4a94a"/><path d="m32 392h170v48h-170z" fill="#f5fcff"/><path d="m32 391.994h32.25v48.006h-32.25z" fill="#d8ecfe"/><path d="m310 392h170v48h-170z" fill="#f5fcff"/><path d="m32 296h170v48h-170z" fill="#f5fcff"/><path d="m32 296.002h32.25v47.996h-32.25z" fill="#d8ecfe"/><path d="m480 296v7.25 40.75h-170v-48z" fill="#f5fcff"/><path d="m172 392h30v48h-30z" fill="#d8ecfe"/><path d="m310 392h30v48h-30z" fill="#d8ecfe"/><path d="m313.002 447.998h-113.999c-3.866 0-7-3.134-7-7v-49.999c0-3.866 3.134-7 7-7h113.999c3.866 0 7 3.134 7 7v49.999c0 3.866-3.134 7-7 7z" fill="#98bce5"/><g><g><path d="m320.001 423.725h-63.999c-4.268 0-7.726-3.459-7.726-7.726s3.459-7.726 7.726-7.726h63.999c4.268 0 7.726 3.459 7.726 7.726s-3.458 7.726-7.726 7.726z" fill="#548eb5"/></g></g><path d="m172 296h30v48h-30z" fill="#d8ecfe"/><path d="m310 296h30v48h-30z" fill="#d8ecfe"/><path d="m313.002 351.999h-113.999c-3.866 0-7-3.134-7-7v-49.999c0-3.866 3.134-7 7-7h113.999c3.866 0 7 3.134 7 7v49.999c0 3.866-3.134 7-7 7z" fill="#98bce5"/><g><g><path d="m320.001 327.725h-63.999c-4.268 0-7.726-3.459-7.726-7.726s3.459-7.726 7.726-7.726h63.999c4.268 0 7.726 3.459 7.726 7.726s-3.458 7.726-7.726 7.726z" fill="#548eb5"/></g></g></g></svg>