<svg id="Capa_1" enable-background="new 0 0 512 512" height="512" viewBox="0 0 512 512" width="512" xmlns="http://www.w3.org/2000/svg"><g><path d="m472 42.302h-32v-26.302c0-8.837 7.163-16 16-16 8.837 0 16 7.163 16 16z" fill="#f07281"/><path d="m461 .8c-6.39 2.1-11 8.11-11 15.2v26.3h-10v-26.3c0-8.84 7.16-16 16-16 1.75 0 3.43.28 5 .8z" fill="#eb5569"/><path d="m72.002 42.302h-32v-26.302c0-8.837 7.163-16 16-16 8.837 0 16 7.163 16 16z" fill="#f07281"/><path d="m61 .8c-6.38 2.1-11 8.11-11 15.2v26.3h-10v-26.3c0-8.84 7.17-16 16-16 1.75 0 3.43.28 5 .8z" fill="#eb5569"/><path d="m80.002 511.998h-48v-472.998c0-3.866 3.134-7 7-7h34c3.866 0 7 3.134 7 7z" fill="#98bce5"/><path d="m52.601 31.996v480.004h-20.603v-473.004c0-3.866 3.134-7 7-7z" fill="#7bacdf"/><path d="m480 511.998h-48v-472.998c0-3.866 3.134-7 7-7h34c3.866 0 7 3.134 7 7z" fill="#98bce5"/><path d="m452.602 32v480h-20.604v-473c0-3.866 3.134-7 7-7z" fill="#7bacdf"/><path d="m505 351.999h-68.446l-13.721-10-18.279 10h-58.851l-16.37-10-15.63 10h-58.851l-15.186-10-16.814 10h-58.851l-15.168-10-16.832 10h-58.851l-13.984-10-18.016 10h-34.148c-3.866 0-7-3.134-7-7v-114c0-3.866 3.134-7 7-7h68.446l16.219 10 15.781-10h58.851l16.034 10 15.965-10h58.851l15.85 10 16.15-10h58.851l15.999 10 16.001-10h58.851l15.648 10 16.351-10h34.15c3.866 0 7 3.134 7 7v113.999c0 3.867-3.134 7.001-7 7.001z" fill="#fee97e"/><path d="m505 191.999h-68.446l-13.554-10-18.446 10h-58.851l-16.203-10-15.797 10h-58.851l-14.852-10-17.148 10h-58.851l-15.001-10-16.998 10h-58.852l-12.15-10-19.849 10h-34.149c-3.866 0-7-3.134-7-7v-113.999c0-3.866 3.134-7 7-7h68.446l13.592 10 18.408-10h58.851l16.201 10 15.799-10h58.851l15.35 10 16.65-10h58.851l15.499 10 16.501-10h58.851l13.75 10 18.25-10h34.148c3.866 0 7 3.134 7 7v113.999c0 3.866-3.134 7-7 7z" fill="#fee97e"/><path d="m31.998 224.001v128.001h-24.998c-3.866 0-7-3.134-7-7v-114.001c0-3.866 3.134-7 7-7z" fill="#f9da58"/><g><g fill="#548eb5"><path d="m73.15 351.999h-31.999l34.297-128h32z"/><path d="m164.001 351.999h-32l34.298-128h32z"/><path d="m254.852 351.999h-32l34.298-128h32z"/><path d="m345.703 351.999h-32l34.298-128h32z"/><path d="m436.554 351.999h-32l34.298-128h31.999z"/></g></g><path d="m32.002 64.003v128.001h-25.002c-3.866 0-7-3.134-7-7v-114.001c0-3.866 3.134-7 7-7z" fill="#f9da58"/><g><g fill="#548eb5"><path d="m73.15 191.999h-31.999l34.297-127.999h32z"/><path d="m164.001 191.999h-32l34.298-127.999h32z"/><path d="m254.852 191.999h-32l34.298-127.999h32z"/><path d="m345.703 191.999h-32l34.298-127.999h32z"/><path d="m436.554 191.999h-32l34.298-127.999h31.999z"/></g></g></g></svg>