<svg id="Capa_1" enable-background="new 0 0 512 512" height="512" viewBox="0 0 512 512" width="512" xmlns="http://www.w3.org/2000/svg"><g><path d="m197.003 18.044-39.97 26.714c-15.513 10.368-18.872 31.771-7.281 46.394l28.723 36.234h155.05l28.953-36.348c11.607-14.572 8.33-35.944-7.11-46.369l-39.02-26.345c-17.687-11.942-38.54-18.322-59.881-18.322-21.17 0-41.864 6.279-59.464 18.042z" fill="#98bce5"/><path d="m271.918 1.123c-5.296.773-10.509 1.937-15.609 3.493-10.024 3.039-19.596 7.542-28.394 13.424l-39.974 26.715c-15.516 10.375-18.874 31.773-7.284 46.393l28.724 36.234h-30.908l-28.724-36.234c-11.59-14.619-8.232-36.018 7.284-46.393l39.974-26.715c8.798-5.883 18.37-10.385 28.394-13.424 10.014-3.05 20.482-4.616 31.063-4.616 5.192 0 10.354.381 15.454 1.123z" fill="#7bacdf"/><path d="m252.843 33.866-24.931 13.247c-2.479 1.317-3.953 3.991-3.696 6.786 1.595 17.336 11.852 34.36 27.341 42.11l4.582 2 4.375-2c15.493-7.751 25.75-24.782 27.342-42.123.256-2.789-1.21-5.457-3.68-6.778l-24.747-13.234c-2.057-1.099-4.527-1.103-6.586-.008z" fill="#ffde5c"/><path d="m323.525 158.805h25.517c11.891 0 21.53 9.639 21.53 21.53v16.133c0 11.891-9.639 21.53-21.53 21.53h-25.517z" fill="#ffcebf"/><path d="m301.208 271.979v71.961l-45.208 34.05-45.208-34.05v-71.961z" fill="#ffcebf"/><path d="m301.208 271.979v45.115c-11.93 5.656-25.252 8.809-39.294 8.809h-11.827c-14.042 0-27.364-3.153-39.294-8.809v-45.115z" fill="#ffb09e"/><path d="m432.01 406.882v105.118h-352.02v-105.118c0-18.885 12.25-35.596 30.269-41.272l100.564-31.67 45.177 34.05 45.177-34.05 100.564 31.67c18.019 5.677 30.269 22.387 30.269 41.272z" fill="#98bce5"/><path d="m356.152 351.248-41.488 71.409c-2.089 3.595-6.777 4.684-10.237 2.377l-27.039-18.029-21.388-14.258-21.388 14.259-27.039 18.029c-3.46 2.307-8.148 1.218-10.237-2.377l-41.488-71.409 54.975-17.308 45.177 34.049 45.177-34.05z" fill="#7bacdf"/><path d="m210.823 333.94 9.108 6.862-78.764 24.809c-18.019 5.677-30.269 22.388-30.269 41.272v105.117h-30.908v-105.118c0-18.885 12.25-35.596 30.269-41.272z" fill="#7bacdf"/><path d="m210.82 333.939 45.18 34.047-41.808 27.872c-3.358 2.239-7.908 1.182-9.935-2.308l-28.262-48.642z" fill="#5f99d7"/><path d="m301.18 333.939-45.18 34.047 41.808 27.872c3.358 2.239 7.908 1.182 9.935-2.308l28.262-48.642z" fill="#5f99d7"/><g><path d="m151.717 447.99v64.01h-15.454v-64.01c0-4.265 3.462-7.727 7.727-7.727s7.727 3.461 7.727 7.727z" fill="#7bacdf"/></g><g><path d="m378.303 447.99v64.01h-15.454v-64.01c0-4.265 3.451-7.727 7.727-7.727 4.265 0 7.727 3.461 7.727 7.727z" fill="#7bacdf"/></g><path d="m256 367.986-32.002 21.335 16.001 26.668h32.002l16.001-26.668z" fill="#548eb5"/><path d="m288 389.316-10.612 17.69-21.388-14.259-21.388 14.259-10.612-17.69 32-21.326z" fill="#497090"/><path d="m239.999 415.989-16.001 96.008h64.004l-16.001-96.008z" fill="#548eb5"/><g><g><path d="m207.997 455.761h-32.003c-4.267 0-7.727-3.459-7.727-7.727s3.46-7.727 7.727-7.727h32.003c4.267 0 7.727 3.459 7.727 7.727s-3.46 7.727-7.727 7.727z" fill="#ffde5c"/></g></g><g><g><path d="m336.006 455.761h-32.003c-4.267 0-7.727-3.459-7.727-7.727s3.46-7.727 7.727-7.727h32.003c4.267 0 7.727 3.459 7.727 7.727s-3.46 7.727-7.727 7.727z" fill="#ffde5c"/></g></g><path d="m333.527 139.611v94.073c0 39.552-32.062 71.614-71.614 71.614h-11.827c-39.552 0-71.614-32.062-71.614-71.614v-94.073c0-12.106 9.818-21.924 21.934-21.924h111.186c12.117 0 21.935 9.818 21.935 21.924z" fill="#ffeee6"/><path d="m188.475 158.805h-25.517c-11.891 0-21.53 9.639-21.53 21.53v16.133c0 11.891 9.639 21.53 21.53 21.53h25.517z" fill="#ffcebf"/><path d="m311.593 97.687h-111.186c-12.116 0-21.934 9.818-21.934 21.924v114.073c0 39.551 32.062 71.614 71.614 71.614h11.828c3.235 0 6.419-.216 9.54-.639-35.039-4.657-62.073-34.658-62.073-70.975v-38.829c0-8.536 6.912-15.455 15.448-15.454 26.376.003 77.276.008 77.276.008 11.797 0 22.686-3.946 31.423-10.591v-49.208c-.002-12.105-9.82-21.923-21.936-21.923z" fill="#ffdfcf"/><g><g><path d="m222.638 206.014c-4.267 0-7.727-3.459-7.727-7.727v-10.143c0-4.268 3.46-7.727 7.727-7.727s7.727 3.459 7.727 7.727v10.143c0 4.268-3.46 7.727-7.727 7.727z" fill="#548eb5"/></g></g><g><g><path d="m289.21 206.014c-4.267 0-7.727-3.459-7.727-7.727v-10.143c0-4.268 3.46-7.727 7.727-7.727s7.727 3.459 7.727 7.727v10.143c0 4.268-3.459 7.727-7.727 7.727z" fill="#548eb5"/></g></g><g><path d="m256 267.408c-14.946 0-27.105-12.159-27.105-27.105 0-4.268 3.46-7.727 7.727-7.727s7.727 3.459 7.727 7.727c0 6.424 5.227 11.651 11.651 11.651s11.651-5.227 11.651-11.651c0-4.268 3.46-7.727 7.727-7.727s7.727 3.459 7.727 7.727c0 14.946-12.159 27.105-27.105 27.105z" fill="#f07281"/></g><path d="m333.53 117.39v10.92c0 16.84-13.66 30.5-30.5 30.5h-94.06c-16.84 0-30.5-13.66-30.5-30.5v-10.92z" fill="#548eb5"/><path d="m240.8 158.8-.05.01h-31.78c-16.84 0-30.5-13.66-30.5-30.5v-3.46l5.52-7.46.01-.01h20.12l.01.01 5.25 9.99c0 17.36 14.07 31.42 31.42 31.42z" fill="#497090"/><path d="m345.007 127.386h-178.056c-3.866 0-7-3.134-7-7v-17.419c0-3.866 3.134-7 7-7h178.055c3.866 0 7 3.134 7 7v17.419c.001 3.866-3.133 7-6.999 7z" fill="#5f99d7"/><path d="m190.856 95.969v31.413h-23.908c-3.866 0-7-3.134-7-7v-17.413c0-3.866 3.134-7 7-7z" fill="#3c87d0"/></g></svg>