<svg id="Capa_1" enable-background="new 0 0 512 512" height="512" viewBox="0 0 512 512" width="512" xmlns="http://www.w3.org/2000/svg"><g><path d="m369.01 352.027h-27.002v-64.005h27.002c8.284 0 15 6.716 15 15v34.005c0 8.284-6.716 15-15 15z" fill="#f07281"/><path d="m352.01 245.98v244.01h-192.02v-73.96l10-6.28v-19.75l-10-5.97v-32l10-6.78v-18.25l-10-6.98v-74.04z" fill="#ade194"/><g><g><path d="m325.591 42.484c-1.162 0-2.34-.263-3.449-.818l-31.012-15.465c-1.969-.982-4.286-.981-6.254.003l-25.42 12.71c-2.175 1.089-4.736 1.089-6.911 0l-25.42-12.71c-1.968-.984-4.285-.985-6.254-.003l-31.011 15.466c-3.818 1.909-8.458.361-10.367-3.455-1.909-3.817-.362-8.458 3.456-10.367l37.593-18.755c2.176-1.089 4.736-1.089 6.911 0l28.547 14.273 28.547-14.273c2.175-1.089 4.736-1.089 6.911 0l37.595 18.754c3.817 1.909 5.364 6.55 3.456 10.367-1.355 2.708-4.084 4.273-6.918 4.273z" fill="#548eb5"/></g></g><path d="m191.995 245.98v244.01h-32.005v-73.96l10-6.28v-19.75l-10-5.97v-32l10-6.78v-18.25l-10-6.98v-74.04z" fill="#7dce6f"/><path d="m191.995 64.005-6.162 10h-18.833l-7.007-10v-44.005c0-11.046 8.954-20 20-20h5.002c3.866 0 7 3.134 7 7z" fill="#fee97e"/><path d="m320.005 64.005 7.729 10h16.766l7.507-10v-44.005c0-11.046-8.954-20-20-20h-5.002c-3.866 0-7 3.134-7 7z" fill="#fee97e"/><path d="m363.184 256.146h-214.367c-2.936 0-5.569-1.824-6.577-4.582-19.003-52.018-18.997-130.95 0-182.936 1.008-2.757 3.64-4.581 6.576-4.581h43.179v.042c0 35.349 28.656 64.005 64.005 64.005 35.349 0 64.005-28.656 64.005-64.005v-.042h43.179c2.936 0 5.569 1.824 6.576 4.581 19 52.002 19 130.934 0 182.936-1.008 2.758-3.641 4.582-6.576 4.582z" fill="#548eb5"/><path d="m174.897 64.05c-21.327 53.327-21.337 138.726 0 192.094h-26.083c-2.936 0-5.569-1.824-6.577-4.582-19.001-52.016-18.992-130.95 0-182.931 1.008-2.758 3.64-4.581 6.576-4.581z" fill="#497090"/><path d="m166.203 218.436c-8.058-36.543-7.915-82.405.433-118.604 14.224 35.437 48.921 60.509 89.365 60.509 40.447 0 75.145-25.074 89.367-60.497 8.345 36.202 8.489 82.056.431 118.592-.705 3.199-3.559 5.463-6.834 5.463h-165.928c-3.275 0-6.129-2.264-6.834-5.463z" fill="#c9ebfa"/><path d="m313.005 447.991h-114.01c-3.866 0-7-3.134-7-7v-145.969c0-3.866 3.134-7 7-7h114.01c3.866 0 7 3.134 7 7v145.969c0 3.866-3.134 7-7 7z" fill="#548eb5"/><path d="m240.469 352.027h-80.476v-32.002h80.476c8.578 0 15.531 6.954 15.531 15.531v.94c0 8.577-6.954 15.531-15.531 15.531z" fill="#fee97e"/><path d="m159.989 320.02h32.006v32.01h-32.006z" fill="#f9da58"/><path d="m240.469 416.032h-80.476v-32.002h80.476c8.578 0 15.531 6.954 15.531 15.531v.94c0 8.577-6.954 15.531-15.531 15.531z" fill="#fee97e"/><path d="m159.989 384.03h32.006v32h-32.006z" fill="#f9da58"/><g><path d="m320.005 199.742h-128.01c-4.267 0-7.727-3.459-7.727-7.727s3.46-7.727 7.727-7.727h128.01c4.267 0 7.727 3.459 7.727 7.727s-3.46 7.727-7.727 7.727z" fill="#f5fcff"/></g><path d="m361.009 511.997h-210.018c-3.866 0-7-3.134-7-7v-17.961c0-3.866 3.134-7 7-7h210.017c3.866 0 7 3.134 7 7v17.961c.001 3.866-3.133 7-6.999 7z" fill="#548eb5"/><path d="m174.897 480.041v31.959h-23.908c-3.866 0-7-3.134-7-7v-17.959c0-3.866 3.134-7 7-7z" fill="#497090"/></g></svg>