<svg id="Capa_1" enable-background="new 0 0 512 512" height="512" viewBox="0 0 512 512" width="512" xmlns="http://www.w3.org/2000/svg"><g><path d="m480.072 406.596c0 3.203-.361 6.324-1.061 9.311v.01c-1.761 7.663-28.838 21.98-40.24 21.98h-300.896c-23.174 0-41.97-8.786-41.97-31.97 0-12.555 1.184-25.059 3.533-37.335 2.338-12.277 5.84-24.348 10.464-36.017l.752-1.926c15.779-39.848 20.97-83.106 15.089-125.57l-20.526-141.093 16.113-10.237h178l12.899 10.24-7.76 64.077-10.935 7.719-5.715 47.194 8.934 8.8-1.37 11.312c-8.971 86.999 58.562 162.967 146.015 164.255 21.197.304 38.674 18.056 38.674 39.25z" fill="#fee97e"/><path d="m240.528 191.778h56.228l7.889-63.691h-56.435z" fill="#ffb952"/><path d="m432.201 447.897h-294.326c-23.174 0-41.97-18.786-41.97-41.97 0-12.555 1.184-25.059 3.533-37.335 2.338-12.277 5.84-24.348 10.464-36.017l.752-1.926c15.779-39.848 20.97-83.106 15.089-125.57l-20.528-141.093-2.976-20.475h177.005l-2.482 20.475-7.766 64.103-7.714 63.691-9.414 77.699c-3.687 36.182 7.591 71.086 31.774 98.287 24.214 27.242 57.625 42.547 94.075 43.082 8.147.113 16.026 1.854 23.277 5.057 6.828 3.007 13.09 7.313 18.477 12.792 5.531 5.604 9.815 12.113 12.73 19.2z" fill="#f9da58"/><path d="m479.012 415.903v.01c-1.761 7.663-5.665 14.512-11.031 19.878-7.477 7.477-17.808 12.102-29.209 12.102h-126.58v-31.99z" fill="#548eb5"/><path d="m432.201 447.897h-120.009v-31.99h88.801c6.828 3.007 13.09 7.313 18.477 12.792 5.532 5.602 9.816 12.111 12.731 19.198z" fill="#497090"/><path d="m416.088 470.7c0 3.2-.36 6.32-1.06 9.31-1.76 7.67-28.83 11.99-40.24 11.99h-300.89c-1.27.05-2.85.2-4.65.38-11.39 1.14-31.37 3.44-35.86-11.37-.1-.33-.19-.66-.27-1-.78-3.2-1.19-6.54-1.19-9.98 0-23.3 4.27-46.18 12.04-68.05.86-2.42 5.43-3.92 6.37-6.31.99-2.49-1.73-5.91-.83-8.42 13.55-37.75 17.77-78.27 12.24-118.07l-1.91-13.13 8.5-10.35-6.66-45.75-11.19-8.19-9.26-63.67 8.79-8.33 189.98.24 8.25 8.09-7.72 63.75-10.96 7.89-5.57 45.97 8.75 10.35-1.35 11.14c-8.97 86.99 58.57 162.97 146.02 164.25 10.72.16 20.39 4.61 27.38 11.7 6.99 7.1 11.29 16.82 11.29 27.56z" fill="#fee97e"/><path d="m104.798 512h-30.9c-19.39 0-35.69-13.14-40.51-30.99-.1-.33-.19-.66-.27-1-.78-3.2-1.19-6.54-1.19-9.98 0-23.3 4.27-46.18 12.04-68.05.86-2.42 5.43-3.92 6.37-6.31.99-2.49-1.73-5.91-.83-8.42 13.55-37.75 17.77-78.27 12.24-118.07l-1.91-13.13 8.5-10.35-6.66-45.75-11.19-8.19-9.26-63.67 8.79-8.33-7.09-48.76-1-6.89h20.9l29.82 205.07c5.89 42.46.7 85.72-15.08 125.57 0 0-.08.21-.21.59-.83 2.33-3.89 10.93-5.32 14.76-.1.27-.2.54-.3.82-9.02 24.81-10.46 57.71-7.72 69.09 1.07 4.44 2.85 8.61 5.23 12.37 7.4 11.79 20.57 19.62 35.55 19.62z" fill="#f9da58"/><path d="m105.214 63.985h206.98l6.834-56.139c.508-4.171-2.747-7.846-6.949-7.846h-208.08c-4.267 0-7.541 3.785-6.927 8.008z" fill="#ffb952"/><path d="m279.244 43.511-2.482 20.475h-171.547l-2.976-20.475z" fill="#f4a94a"/><path d="m41.23 128.087h206.98l7.789-63.981-215.984-.003c-4.267 0-7.541 3.785-6.927 8.008z" fill="#ffb952"/><path d="m72.134 128.09h-30.909l-8.136-55.973c-.614-4.222 2.66-8.007 6.927-8.007h22.807z" fill="#f4a94a"/><path d="m232.771 256.056h-172.958l-9.475-64.278h190.323z" fill="#ffb952"/><path d="m90.745 256.06h-30.929l-9.476-64.279h31.053z" fill="#f4a94a"/><path d="m104.793 512h-30.898c-19.744 0-36.295-13.626-40.775-31.99h30.898c4.48 18.364 21.031 31.99 40.775 31.99z" fill="#497090"/><g><path d="m49.496 387.254c44.092 4.594 70.582 39.993 69.274 92.942-.103 4.192-3.533 7.529-7.714 7.529-.062 0-.134 0-.196 0-4.264-.103-7.632-3.646-7.529-7.91 1.112-45.492-21.208-73.314-59.428-77.843z" fill="#ffb952"/></g><g><path d="m77.358 395.34c-.83 2.33-3.89 10.93-5.32 14.76-.1.27-.2.54-.3.82-7.95-4.67-17.26-7.69-27.77-8.94-.02-.01-.04-.01-.06-.01l1.89-4.96 3.7-9.76h.01c10.28 1.07 19.61 3.82 27.85 8.09z" fill="#f4a94a"/></g><path d="m415.032 480.006c-1.761 7.673-5.665 14.522-11.041 19.888-7.477 7.477-17.797 12.102-29.199 12.102h-300.897c-19.744 0-36.295-13.626-40.775-31.99z" fill="#548eb5"/><path d="m104.793 512h-30.898c-19.744 0-36.295-13.626-40.775-31.99h30.898c4.48 18.364 21.031 31.99 40.775 31.99z" fill="#497090"/><path d="m268.996 128.09-7.714 63.691h-20.754l7.684-63.691z" fill="#f4a94a"/></g></svg>