<svg id="Capa_1" enable-background="new 0 0 512 512" height="512" viewBox="0 0 512 512" width="512" xmlns="http://www.w3.org/2000/svg"><g><path d="m429.34 172.5c-18.85-39.09-50.55-70.82-89.61-89.72-25.28-12.23-53.64-8.78-83.6-8.78-10.2 0-20.22-.41-30-.45-18.85-.1-36.81 1.13-53.43 9.15-39.13 18.89-70.88 50.66-89.76 89.81-12.16 25.21-8.67 53.49-8.67 83.36 0 29.98-3.44 58.36 8.81 83.65 18.89 39.01 50.59 70.67 89.64 89.52 16.62 8.02 34.58 9.24 53.44 9.14 9.76-.05 19.78-.45 29.97-.45 29.92 0 58.24 3.47 83.48-8.72 39.02-18.85 70.7-50.5 89.59-89.49 12.25-25.29 8.81-53.66 8.81-83.65 0-29.87 3.48-58.15-8.67-83.37zm-54.29 130.92c-12.96 32.49-38.83 58.43-71.28 71.46-14.75 5.93-30.85 19.5-47.72 19.5-16.71 0-32.67-13.51-47.3-19.33-32.63-12.97-58.66-38.96-71.68-71.56-5.87-14.69-19.4-30.71-19.4-47.49 0-16.75 13.52-32.74 19.36-47.4 13.01-32.64 39.06-58.66 71.71-71.65 14.64-5.82 30.6-19.32 47.31-19.32 16.8 0 32.84 13.53 47.54 19.41 32.55 13.03 58.52 39.03 71.49 71.62 5.83 14.64 19.34 30.61 19.34 47.34 0 16.75-13.52 32.76-19.37 47.42z" fill="#f07281"/><g><path d="m256.14 487.936c-61.923 0-120.14-24.114-163.926-67.9s-67.9-102.003-67.9-163.926 24.114-120.14 67.9-163.926 102.003-67.9 163.926-67.9c61.922 0 120.139 24.114 163.925 67.9s67.9 102.003 67.9 163.926-24.114 120.14-67.9 163.926-102.003 67.9-163.925 67.9zm0-448.197c-119.307 0-216.371 97.063-216.371 216.371s97.064 216.37 216.371 216.37 216.37-97.063 216.37-216.371-97.064-216.37-216.37-216.37z" fill="#98bce5"/></g><path d="m181.23 416.3c-33.56-22.17-59.74-54.59-74.11-92.8-7.91-21.03-12.24-43.83-12.24-67.63 0-23.69 4.29-46.38 12.13-67.33 14.32-38.29 40.51-70.79 74.09-93.03 13.86-9.17 28.98-16.6 45.03-21.96-18.85-.1-36.81 1.13-53.43 9.15-39.13 18.89-70.88 50.66-89.76 89.81-12.16 25.21-8.67 53.49-8.67 83.36 0 29.98-3.44 58.36 8.81 83.65 18.89 39.01 50.59 70.67 89.64 89.52.01 0 .01.01.02.01 16.61 8.01 34.57 9.23 53.42 9.13-16.02-5.35-31.1-12.75-44.93-21.88zm224.76-207.64c-2.14-5.39-4.64-10.61-7.48-15.61-18.62-32.92-51.38-56.78-90.04-63.32-6.99-1.18-14.18-1.8-21.51-1.8-5.23 0-10.39.31-15.45.93 11.2 1.35 21.95 4.14 32.07 8.19 32.56 13.01 58.53 39.03 71.5 71.61 5.83 14.64 9.04 30.61 9.04 47.34 0 16.75-3.22 32.76-9.07 47.42-12.98 32.55-38.94 58.53-71.47 71.54-10.12 4.05-20.88 6.84-32.08 8.18 5.07.62 10.23.93 15.46.93 7.32 0 14.5-.61 21.49-1.8 38.63-6.52 71.39-30.35 90.01-63.24 2.84-4.99 5.35-10.21 7.5-15.61 5.85-14.66 9.07-30.67 9.07-47.42 0-16.73-3.21-32.7-9.04-47.34z" fill="#eb5569"/><path d="m272.003 96.018h-32.006v-80.487c0-8.577 6.954-15.531 15.531-15.531h.944c8.578 0 15.531 6.954 15.531 15.531z" fill="#548eb5"/><path d="m272.003 415.982h-32.006v80.487c0 8.578 6.954 15.531 15.531 15.531h.944c8.578 0 15.531-6.954 15.531-15.531z" fill="#fff"/><g fill="#548eb5"><path d="m96.018 239.997v32.006h-80.487c-8.577 0-15.531-6.954-15.531-15.531v-.944c0-8.578 6.954-15.531 15.531-15.531z"/><path d="m415.982 239.997v32.006h80.487c8.578 0 15.531-6.954 15.531-15.531v-.944c0-8.578-6.954-15.531-15.531-15.531z"/><path d="m272.003 415.982h-32.006v80.487c0 8.578 6.954 15.531 15.531 15.531h.944c8.578 0 15.531-6.954 15.531-15.531z"/></g><path d="m448.31 255.872c0 29.984-6.862 58.361-19.113 83.646l-54.147-36.094c5.852-14.662 9.067-30.674 9.067-47.428 0-16.723-3.205-32.694-9.036-47.336l54.26-36.156c12.148 25.214 18.969 53.497 18.969 83.368z" fill="#f5fcff"/><path d="m415.029 255.996c0 16.754-3.215 32.766-9.067 47.428-2.154 5.399-4.657 10.613-7.501 15.61l-23.41-15.61c5.852-14.662 9.067-30.674 9.067-47.428 0-16.723-3.205-32.694-9.036-47.336l23.431-15.61c2.834 4.997 5.337 10.221 7.481 15.61 5.83 14.642 9.035 30.613 9.035 47.336z" fill="#d8ecfe"/><path d="m63.964 255.872c0 29.984 6.862 58.361 19.113 83.646l54.147-36.094c-5.852-14.662-9.067-30.674-9.067-47.428 0-16.723 3.205-32.694 9.036-47.336l-54.26-36.156c-12.147 25.214-18.969 53.497-18.969 83.368z" fill="#f5fcff"/><path d="m107.12 323.496-24.039 16.022c-12.251-25.286-19.113-53.662-19.113-83.646 0-29.871 6.811-58.155 18.969-83.368l24.07 16.033c-7.841 20.958-12.128 43.647-12.128 67.335 0 23.802 4.328 46.594 12.241 67.624z" fill="#d8ecfe"/><path d="m255.998 63.838c29.984 0 58.361 6.862 83.646 19.113l-36.094 54.147c-14.662-5.852-30.674-9.067-47.428-9.067-16.723 0-32.694 3.205-47.336 9.036l-36.156-54.26c25.214-12.147 53.497-18.969 83.368-18.969z" fill="#f5fcff"/><path d="m271.538 64.314c-33.25 2.648-64.11 13.776-90.436 31.2l-8.47-12.705c.02-.031.041-.072.072-.103 25.234-12.179 53.528-19.01 83.43-19.01 5.183 0 10.324.206 15.404.618z" fill="#d8ecfe"/><path d="m308.467 129.733-4.884 7.316c-10.118-4.049-20.876-6.842-32.076-8.191 5.059-.618 10.221-.927 15.456-.927 7.326-.001 14.518.617 21.504 1.802z" fill="#d8ecfe"/><path d="m339.64 429.07c-25.28 12.25-53.66 19.11-83.64 19.11-5.4 0-10.75-.22-16.04-.66-23.89-1.97-46.55-8.32-67.15-18.22-.06-.03-.12-.06-.18-.09l.11-.16 8.49-12.75 27.56-41.34c14.64 5.83 30.61 9.03 47.33 9.03 16.76 0 32.77-3.21 47.43-9.07z" fill="#f5fcff"/><path d="m239.96 447.52c-23.89-1.97-46.55-8.32-67.15-18.22-.02-.08-.05-.17-.07-.25l8.49-12.75c13.82 9.12 42.7 25.85 58.73 31.22z" fill="#d8ecfe"/><path d="m308.45 382.27c-6.99 1.19-14.17 1.8-21.49 1.8-5.23 0-10.39-.31-15.46-.93 11.2-1.34 21.96-4.13 32.08-8.18z" fill="#d8ecfe"/></g></svg>