<svg id="Capa_1" enable-background="new 0 0 512 512" height="512" viewBox="0 0 512 512" width="512" xmlns="http://www.w3.org/2000/svg"><g><g><path d="m434.96 337.725c-4.268 0-7.726-3.459-7.726-7.726v-121.885c0-13.145 10.694-23.839 23.839-23.839h25.886c4.268 0 7.726 3.459 7.726 7.726s-3.459 7.726-7.726 7.726h-25.886c-4.624 0-8.386 3.763-8.386 8.386v121.885c-.001 4.269-3.46 7.727-7.727 7.727z" fill="#98bce5"/></g><path d="m505.686 186.03c4.468 2.719 4.468 9.221 0 11.94-7.471 4.547-17.554 10.03-22.727 10.03-8.836 0-16-7.163-16-16s7.163-16 16-16c5.173.001 15.256 5.484 22.727 10.03z" fill="#fee97e"/><path d="m450.959 511.998h-32v-176.467c0-8.578 6.954-15.531 15.531-15.531h.938c8.578 0 15.531 6.954 15.531 15.531z" fill="#548eb5"/><path d="m9.963 160.001h35.302v-64h-35.302c-3.866 0-7 3.134-7 7v50c0 3.866 3.134 7 7 7z" fill="#98bce5"/><path d="m376.658 160.001h35.302c3.866 0 7-3.134 7-7v-50c0-3.866-3.134-7-7-7h-35.302z" fill="#98bce5"/><path d="m386.961 31v310.16c0 87.38-65.6 159.44-150.24 169.61-6.75.81-13.63 1.23-20.6 1.23h-10.32c-94.35 0-170.84-76.49-170.84-170.84v-310.16c0-17.12 13.88-31 31-31h290c17.12 0 31 13.88 31 31z" fill="#548eb5"/><path d="m236.721 510.77c-6.75.81-13.63 1.23-20.6 1.23h-10.32c-94.35 0-170.84-76.49-170.84-170.84v-310.16c0-17.12 13.88-31 31-31h52.44c-17.63 0-31.93 14.3-31.93 31.94v304.06c0 47.61 18.9 90.79 49.61 122.47l.01.01c26.34 27.19 61.39 46.54 100.63 52.29z" fill="#497090"/><path d="m210.553 479.753c-79.461-.222-143.345-65.684-143.345-145.146v-286.908c0-8.534 6.918-15.453 15.453-15.453h256.603c8.534 0 15.453 6.918 15.453 15.453v288.301c-.002 79.402-64.712 143.975-144.164 143.753z" fill="#98bce5"/><path d="m136.081 458.472c-41.362-25.61-68.878-71.721-68.878-123.869v-286.906c0-8.53 6.923-15.453 15.453-15.453h3.812v303.759c-.001 47.606 18.903 90.791 49.613 122.469z" fill="#7bacdf"/><path d="m315.96 224h-209.998c-3.866 0-7-3.134-7-7v-113.999c0-3.866 3.134-7 7-7h209.998c3.866 0 7 3.134 7 7v113.999c0 3.866-3.134 7-7 7z" fill="#f5fcff"/><path d="m119.567 96.003v128h-13.604c-3.866 0-7-3.134-7-7v-114c0-3.866 3.134-7 7-7z" fill="#d8ecfe"/><g><path d="m258.961 71.728h-95.999c-4.268 0-7.726-3.459-7.726-7.726 0-4.268 3.459-7.726 7.726-7.726h95.999c4.268 0 7.726 3.459 7.726 7.726 0 4.268-3.459 7.726-7.726 7.726z" fill="#f5fcff"/></g><g fill="#f5fcff"><path d="m98.962 71.728c-4.267 0-7.726-3.459-7.726-7.726 0-4.267 3.459-7.726 7.726-7.726 4.267 0 7.726 3.459 7.726 7.726 0 4.267-3.459 7.726-7.726 7.726z"/><path d="m322.96 71.728c-4.267 0-7.726-3.459-7.726-7.726 0-4.267 3.459-7.726 7.726-7.726 4.267 0 7.726 3.459 7.726 7.726.001 4.267-3.458 7.726-7.726 7.726z"/></g></g></svg>