<svg id="Capa_1" enable-background="new 0 0 512 512" height="512" viewBox="0 0 512 512" width="512" xmlns="http://www.w3.org/2000/svg"><g><path d="m413.619 84.427v136.215c0 51.565-24.763 97.356-63.043 126.117-26.346 19.8-59.116 11.235-94.606 11.235-35.612 0-68.463 8.484-94.86-11.427-38.139-28.771-62.79-74.471-62.79-125.925v-136.215z" fill="#c9ebfa"/><path d="m445.141 0v63.114c-10.403 10.586-20.765 20.775-31.461 31.461h-315.36c-10.788-10.148-19.993-19.414-31.461-31.461v-63.114z" fill="#c9ebfa"/><path d="m98.32 84.427v136.215c0 51.454 24.651 97.153 62.79 125.925v-30.253c-20.287-26.529-32.344-59.695-32.344-95.671v-62.025c0-21.88 17.737-39.617 39.617-39.617h245.236v-34.574z" fill="#a0ddf3"/><circle cx="145.507" cy="141.701" fill="#f07281" r="15.603"/><path d="m350.58 252.36v94.4c-22.53 16.93-49.76 27.96-79.37 30.8-5.01.48-10.1.73-15.24.73-35.61 0-68.46-11.81-94.86-31.72v-94.21c0-52.33 42.41-94.74 94.73-94.74 26.16 0 49.85 10.6 66.99 27.75 17.14 17.14 27.75 40.82 27.75 66.99z" fill="#f5fcff"/><path d="m271.21 377.56c-5.01.48-10.1.73-15.24.73-35.61 0-68.46-11.81-94.86-31.72v-30.26c8.72 11.42 18.98 21.61 30.45 30.26 22.6 17.05 49.92 28.16 79.65 30.99z" fill="#d8ecfe"/><circle cx="256" cy="252.194" fill="#c9ebfa" r="63.048"/><path d="m266.149 314.416c-3.298.548-6.688.822-10.149.822-34.82 0-63.043-28.223-63.043-63.044s28.223-63.043 63.043-63.043c3.461 0 6.85.274 10.149.822-29.999 4.841-52.895 30.852-52.895 62.221 0 31.37 22.895 57.381 52.895 62.222z" fill="#a0ddf3"/><path d="m128.766 94.575h-30.446c-10.788-10.148-19.993-19.414-31.461-31.461v-63.114h30.446v63.114c0 17.375 14.087 31.461 31.461 31.461z" fill="#a0ddf3"/><path d="m445.141 63.054v.061c0 17.375-14.086 31.461-31.461 31.461h-315.36c-17.375 0-31.461-14.086-31.461-31.461v-.061z" fill="#f5fcff"/><path d="m128.766 94.575h-30.446c-17.375 0-31.461-14.086-31.461-31.461v-.061h30.446v.061c0 17.375 14.087 31.461 31.461 31.461z" fill="#d8ecfe"/><g><g><g><path d="m256.003 512c-40.141 0-77.918-15.671-106.374-44.126-2.973-2.973-2.973-7.792 0-10.765 2.972-2.971 7.792-2.971 10.764 0 25.58 25.581 59.535 39.668 95.61 39.668s70.029-14.087 95.609-39.668c2.972-2.971 7.792-2.971 10.764 0 2.973 2.973 2.973 7.792 0 10.765-28.454 28.455-66.231 44.126-106.373 44.126z" fill="#548eb5"/></g><g><path d="m256.003 471.174c-29.244 0-56.774-11.418-77.519-32.153-2.973-2.971-2.975-7.791-.003-10.764 2.971-2.973 7.79-2.975 10.764-.003 17.87 17.86 41.578 27.697 66.758 27.697s48.888-9.836 66.758-27.697c2.973-2.972 7.793-2.971 10.764.003 2.972 2.973 2.97 7.793-.003 10.764-20.745 20.735-48.275 32.153-77.519 32.153z" fill="#548eb5"/></g><g><path d="m256.003 430.35c-18.367 0-35.648-7.172-48.66-20.195-2.971-2.973-2.969-7.793.005-10.764 2.973-2.97 7.792-2.969 10.764.005 10.136 10.145 23.592 15.731 37.891 15.731s27.755-5.587 37.89-15.731c2.971-2.974 7.79-2.975 10.764-.005 2.974 2.971 2.976 7.79.005 10.764-13.01 13.022-30.291 20.195-48.659 20.195z" fill="#548eb5"/></g></g></g><circle cx="256" cy="252.194" fill="#f07281" r="31.524"/><path d="m266.149 282.052c-3.187 1.076-6.597 1.665-10.149 1.665-17.415 0-31.522-14.107-31.522-31.522s14.107-31.522 31.522-31.522c3.552 0 6.962.589 10.149 1.665-12.432 4.232-21.373 15.994-21.373 29.857 0 13.862 8.941 25.625 21.373 29.857z" fill="#eb5569"/></g></svg>