<svg id="Capa_1" enable-background="new 0 0 512 512" height="512" viewBox="0 0 512 512" width="512" xmlns="http://www.w3.org/2000/svg"><g><path d="m128.001 234.301v-106.302c0-70.692 57.307-127.999 127.999-127.999 70.692 0 127.999 57.307 127.999 127.999v106.302h-32.272v-106.437c0-52.944-42.92-95.864-95.864-95.864-52.943 0-95.863 42.92-95.863 95.864v106.437z" fill="#d8ecfe"/><path d="m384.064 511.998h-256.128c-17.638 0-31.936-14.298-31.936-31.936v-240.61c0-8.534 6.918-15.453 15.453-15.453h70.996c5.853 0 11.204 3.307 13.821 8.542l11.73 23.458h96l11.729-23.458c2.618-5.235 7.968-8.542 13.821-8.542h70.997c8.534 0 15.453 6.918 15.453 15.453v240.61c-.001 17.638-14.299 31.936-31.936 31.936z" fill="#ffb952"/><path d="m179.447 512h-51.509c-17.637 0-31.936-14.299-31.936-31.936v-240.61c0-8.54 6.913-15.453 15.453-15.453h51.509c-8.54 0-15.453 6.913-15.453 15.453v240.61c0 17.637 14.299 31.936 31.936 31.936z" fill="#f4a94a"/><path d="m128.246 472.753v-209.51c0-3.866 3.134-7 7-7h32.5c2.651 0 5.075 1.498 6.261 3.87l12.13 24.261c1.186 2.372 3.61 3.87 6.261 3.87h127.204c2.651 0 5.075-1.498 6.261-3.87l12.13-24.261c1.186-2.372 3.61-3.87 6.261-3.87h32.5c3.866 0 7 3.134 7 7v209.51c0 3.866-3.134 7-7 7h-241.508c-3.866 0-7-3.134-7-7z" fill="#fee97e"/><path d="m147.511 256.246v223.509h-12.264c-3.866 0-7-3.134-7-7v-209.509c0-3.866 3.134-7 7-7z" fill="#f9da58"/><g fill="#548eb5"><path d="m288 351.999c0-17.673-14.327-32-32-32s-32 14.327-32 32c0 11.842 6.438 22.175 16 27.708v52.291c0 8.836 7.163 16 16 16s16-7.164 16-16v-52.291c9.562-5.534 16-15.866 16-27.708z"/><path d="m160 327.725c-4.267 0-7.726-3.459-7.726-7.726 0-4.267 3.459-7.726 7.726-7.726 4.267 0 7.726 3.459 7.726 7.726.001 4.267-3.458 7.726-7.726 7.726z"/><path d="m160 455.725c-4.267 0-7.726-3.459-7.726-7.726 0-4.267 3.459-7.726 7.726-7.726 4.267 0 7.726 3.459 7.726 7.726.001 4.266-3.458 7.726-7.726 7.726z"/><path d="m351.728 327.725c-4.267 0-7.726-3.459-7.726-7.726 0-4.267 3.459-7.726 7.726-7.726 4.267 0 7.726 3.459 7.726 7.726 0 4.267-3.459 7.726-7.726 7.726z"/><path d="m351.728 455.725c-4.267 0-7.726-3.459-7.726-7.726 0-4.267 3.459-7.726 7.726-7.726 4.267 0 7.726 3.459 7.726 7.726 0 4.266-3.459 7.726-7.726 7.726z"/></g></g></svg>