<svg id="Capa_1" enable-background="new 0 0 511.998 511.998" height="512" viewBox="0 0 511.998 511.998" width="512" xmlns="http://www.w3.org/2000/svg"><g><g><path d="m397.843 329.369c-3.159 0-6.098-2.013-7.13-5.18-1.282-3.938.871-8.171 4.81-9.454l85.253-27.836c9.703-3.16 16.223-12.14 16.223-22.345v-39.68c0-12.958-10.542-23.5-23.5-23.5h-46.302c-4.143 0-7.5-3.357-7.5-7.5s3.357-7.5 7.5-7.5h46.302c21.229 0 38.5 17.271 38.5 38.5v39.68c0 16.718-10.681 31.43-26.577 36.607l-85.254 27.837c-.773.252-1.555.371-2.325.371z" fill="#98bce5"/></g><g><path d="m112.704 328.703c3.159 0 6.098-2.013 7.13-5.18 1.282-3.938-.871-8.171-4.81-9.454l-83.802-27.169c-9.702-3.161-16.222-12.14-16.222-22.345v-39.68c0-12.958 10.542-23.5 23.5-23.5h46.302c4.143 0 7.5-3.357 7.5-7.5s-3.357-7.5-7.5-7.5h-46.302c-21.229 0-38.5 17.271-38.5 38.5v39.68c0 16.718 10.681 31.43 26.577 36.607l83.803 27.17c.772.251 1.554.371 2.324.371z" fill="#98bce5"/></g><path d="m256 411.31c-74.201 0-140.076-47.48-163.54-117.873l-2.125-6.376-19.558-117.344c-.636-3.813 1.941-7.42 5.754-8.056l53.946-8.991c21.246-3.541 41.33-12.135 58.561-25.058l11.049-8.287c16.13-12.098 35.749-18.637 55.912-18.637 20.163 0 39.782 6.54 55.912 18.637l11.049 8.287c17.231 12.923 37.315 21.517 58.561 25.058l53.946 8.991c3.813.636 6.39 4.242 5.754 8.056l-19.557 117.344-2.125 6.376c-23.463 70.393-89.339 117.873-163.539 117.873z" fill="#548eb5"/><path d="m182.98 359.689c26.05 26.52 60.35 44.3 98.02 49.8-8.19 1.2-16.54 1.82-25 1.82-74.2 0-140.08-47.48-163.54-117.87l-2.13-6.38-19.55-117.345c-.635-3.813 1.941-7.42 5.754-8.055l41.746-6.955 5.139 30.876 16.91 101.48 2.13 6.38c8.501 25.469 22.541 47.939 40.521 66.249z" fill="#497090"/><path d="m256 380.011c-60.823 0-114.612-38.769-133.846-96.472l-1.349-4.046-14.007-84.047c-.636-3.813 1.941-7.42 5.754-8.056l23.072-3.845c26.191-4.365 50.951-14.959 72.193-30.891l11.052-8.289c10.642-7.981 23.83-12.378 37.132-12.378 13.303 0 26.489 4.396 37.132 12.378l11.048 8.286c21.154 15.865 46.119 26.547 72.197 30.894l23.072 3.845c3.813.636 6.39 4.242 5.754 8.056l-14.008 84.048-1.349 4.047c-19.235 57.701-73.024 96.47-133.847 96.47z" fill="#98bce5"/><path d="m182.98 359.689c-28.01-16.93-49.95-43.51-60.83-76.15l-1.35-4.05-14-84.045c-.635-3.813 1.941-7.42 5.755-8.055l10.865-1.81 16.91 101.48 2.13 6.38c8.5 25.47 22.54 47.94 40.52 66.25z" fill="#7bacdf"/><g><path d="m349.187 263.499h-186.373c-4.142 0-7.5-3.357-7.5-7.5s3.358-7.5 7.5-7.5h186.373c4.143 0 7.5 3.357 7.5 7.5s-3.358 7.5-7.5 7.5z" fill="#c9ebfa"/></g><g><path d="m349.187 232.439c-.836 0-1.685-.141-2.517-.437-56.285-20.053-117.389-20.022-181.615.092-3.952 1.238-8.16-.963-9.398-4.916-1.238-3.952.963-8.16 4.916-9.398 67.403-21.109 131.709-21.079 191.131.092 3.902 1.391 5.938 5.681 4.549 9.582-1.095 3.069-3.984 4.985-7.066 4.985z" fill="#c9ebfa"/></g><g><path d="m258.992 310.027c-31.89 0-64.763-5.269-98.42-15.809-3.953-1.238-6.154-5.446-4.916-9.398 1.238-3.953 5.445-6.153 9.398-4.916 64.226 20.112 125.329 20.146 181.615.092 3.894-1.389 8.191.646 9.582 4.549 1.39 3.901-.646 8.191-4.549 9.582-29.749 10.599-60.735 15.9-92.71 15.9z" fill="#c9ebfa"/></g></g></svg>