<svg id="Capa_1" enable-background="new 0 0 512 512" height="512" viewBox="0 0 512 512" width="512" xmlns="http://www.w3.org/2000/svg"><g><path d="m496.008 442.209h-148.941v-77.606c-.823-13.857-27.896-37.235-38.803-64.778-12.863-32.482-21.257-59.849-37.788-94.424-4.789-10.017 6.225-21.921 24.178-13.631 21.51 9.932 26.4 30.248 36.987 49.527 4.035 7.349 15.223 4.503 15.279-3.88h.147v-133.461c0-10.282 8.335-18.618 18.618-18.618 10.282 0 18.618 8.335 18.618 18.618v-37.235c0-10.282 8.335-18.618 18.618-18.618 10.282 0 18.618 8.335 18.618 18.618v18.618c0-10.282 8.335-18.618 18.618-18.618 10.282 0 18.618 8.335 18.618 18.618v55.853c0-10.282 8.335-18.618 18.618-18.618 10.282 0 18.618 8.335 18.618 18.618v301.017z" fill="#ade194"/><path d="m15.992 442.209h148.941v-77.606c.823-13.857 27.896-37.235 38.803-64.778 12.863-32.482 21.257-59.849 37.788-94.424 4.789-10.017-6.225-21.921-24.178-13.631-21.51 9.932-26.4 30.248-36.987 49.527-4.035 7.349-15.223 4.503-15.279-3.88h-.147v-133.461c0-10.282-8.335-18.618-18.618-18.618-10.282 0-18.618 8.335-18.618 18.618v-37.235c0-10.282-8.335-18.618-18.618-18.618-10.282 0-18.618 8.335-18.618 18.618v18.618c0-10.282-8.335-18.618-18.618-18.618-10.282 0-18.618 8.335-18.618 18.618v55.853c0-10.282-8.335-18.618-18.618-18.618-10.282 0-18.618 8.335-18.618 18.618v301.017z" fill="#ade194"/><g fill="#7dce6f"><path d="m440.107 66.725c3.81 0 7.342 1.143 10.297 3.099-1.03.69-1.987 1.473-2.863 2.348-3.367 3.367-5.457 8.021-5.457 13.17v148.938c0 13.225-20.594 12.559-20.594 0v-148.939c0-5.148 2.09-9.803 5.457-13.17s8.022-5.446 13.16-5.446z"/><path d="m477.389 122.327c3.81 0 7.342 1.143 10.297 3.099-1.03.69-1.987 1.473-2.863 2.348-3.367 3.367-5.457 8.021-5.457 13.17v93.336c0 13.225-20.594 12.559-20.594 0v-93.336c0-5.148 2.09-9.803 5.457-13.17s8.022-5.447 13.16-5.447z"/><path d="m402.826 48.108c3.81 0 7.342 1.143 10.297 3.099-1.03.69-1.987 1.473-2.863 2.348-3.367 3.367-5.457 8.021-5.457 13.17v167.555c0 13.225-20.594 12.559-20.594 0v-167.555c0-5.148 2.09-9.803 5.457-13.17s8.021-5.447 13.16-5.447z"/><path d="m328.86 299.823c10.904 27.544 37.975 50.928 38.798 64.777v77.607h-20.594v-77.607c-.824-13.849-27.894-37.233-38.798-64.777-12.871-32.476-21.263-59.845-37.789-94.422-4.788-10.008 6.199-21.901 24.125-13.653-4.376 3.182-5.921 8.66-3.532 13.653 16.527 34.577 24.919 61.946 37.79 94.422z"/><path d="m365.681 85.341c3.81 0 7.352 1.143 10.307 3.099-5.015 3.336-8.33 9.041-8.33 15.517v133.457h-.144c-.062 8.392-11.244 11.234-15.281 3.882-1.853-3.388-3.542-6.796-5.169-10.183v-127.155c.001-10.286 8.341-18.617 18.617-18.617z"/></g><g fill="#7dce6f"><path d="m71.842 66.725c3.81 0 7.342 1.143 10.297 3.099-1.03.69-1.987 1.473-2.863 2.348-3.367 3.367-5.457 8.021-5.457 13.17v148.938c0 13.225-20.594 12.559-20.594 0v-148.939c0-5.148 2.09-9.803 5.457-13.17s8.022-5.446 13.16-5.446z"/><path d="m146.367 85.341c3.81 0 7.342 1.143 10.297 3.099-1.03.69-1.987 1.473-2.863 2.348-3.367 3.367-5.457 8.021-5.457 13.17v130.322c0 13.225-20.594 12.559-20.594 0v-130.322c0-5.148 2.09-9.803 5.457-13.17 3.368-3.367 8.022-5.447 13.16-5.447z"/><path d="m109.075 48.108c3.81 0 7.342 1.143 10.297 3.099-1.03.69-1.987 1.473-2.863 2.348-3.367 3.367-5.457 8.021-5.457 13.17v167.555c0 13.225-20.594 12.559-20.594 0v-167.555c0-5.148 2.09-9.803 5.457-13.17 3.368-3.367 8.022-5.447 13.16-5.447z"/><path d="m34.609 122.574c3.81 0 7.342 1.143 10.297 3.099-1.03.69-1.998 1.472-2.873 2.348-3.367 3.367-5.447 8.021-5.447 13.17v301.016h-20.594v-301.016c0-5.148 2.08-9.803 5.447-13.17 3.378-3.367 8.032-5.447 13.17-5.447z"/><path d="m237.991 191.748c-.021 0-.031.01-.052.021-21.51 9.936-26.401 30.252-36.986 49.527-4.036 7.352-15.219 4.51-15.281-3.882h-.144v-6.301c7.64-15.909 14.086-31.148 31.817-39.344 9-4.15 16.249-3.233 20.646-.021z"/></g><path d="m15.992 463.897h148.941c8.832 0 15.992-7.16 15.992-15.992 0-8.832-7.16-15.992-15.992-15.992h-148.941c-8.832 0-15.992 7.159-15.992 15.992 0 8.832 7.16 15.992 15.992 15.992z" fill="#fee97e"/><path d="m35.577 459.207c2.893 2.893 6.889 4.685 11.306 4.685h-30.89c-4.417 0-8.412-1.792-11.306-4.685-2.893-2.893-4.685-6.889-4.685-11.306 0-8.824 7.156-15.991 15.991-15.991h30.89c-8.834 0-15.991 7.167-15.991 15.991 0 4.417 1.792 8.412 4.685 11.306z" fill="#f9da58"/><path d="m496.008 463.897h-148.941c-8.832 0-15.992-7.16-15.992-15.992 0-8.832 7.16-15.992 15.992-15.992h148.941c8.832 0 15.992 7.16 15.992 15.992 0 8.832-7.16 15.992-15.992 15.992z" fill="#fee97e"/><path d="m377.955 463.892h-30.89c-8.835 0-15.991-7.156-15.991-15.991 0-4.417 1.792-8.413 4.685-11.306s6.889-4.685 11.306-4.685h30.89c-4.417 0-8.412 1.792-11.306 4.685-2.893 2.893-4.685 6.888-4.685 11.306 0 8.835 7.156 15.991 15.991 15.991z" fill="#f9da58"/></g></svg>