<svg id="Capa_1" enable-background="new 0 0 497 497" height="512" viewBox="0 0 497 497" width="512" xmlns="http://www.w3.org/2000/svg"><g><path d="m419.226 496.998h-341.447c-8.578 0-15.531-6.954-15.531-15.531 0-8.578 6.954-15.531 15.531-15.531h341.447c8.578 0 15.531 6.954 15.531 15.531 0 8.578-6.954 15.531-15.531 15.531z" fill="#ffb952"/><path d="m127.783 497h-50c-8.58 0-15.54-6.96-15.54-15.53 0-4.29 1.74-8.17 4.55-10.98s6.7-4.55 10.99-4.55h50c-4.29 0-8.18 1.74-10.99 4.55s-4.55 6.69-4.55 10.98c0 8.57 6.96 15.53 15.54 15.53z" fill="#f4a94a"/><path d="m208.5 31.453-99.897 434.483 279.56-.406-103.5-436.494c-4.57-17.122-20.078-29.035-37.8-29.035-18.649.001-34.706 13.164-38.363 31.452z" fill="#fee97e"/><path d="m271.873 9.04c-6.71 5.56-11.57 13.36-13.37 22.41l-2.39 11.97-91.24 391.13-6.26 31.32-50.01.07 99.9-434.49c1.82-9.14 6.75-17 13.56-22.58 6.8-5.58 15.48-8.87 24.8-8.87 9.39 0 18.16 3.35 25.01 9.04z" fill="#f9da58"/><path d="m239.192 37.592c.729-3.645 3.955-6.29 7.672-6.29 3.538 0 6.646 2.387 7.559 5.805l93.008 397.183-200.636.291z" fill="#ffb952"/><path d="m256.113 43.42-91.24 391.13-18.08.03 92.4-396.99c.73-3.64 3.95-6.29 7.67-6.29 3.54 0 6.65 2.39 7.56 5.81z" fill="#f4a94a"/><path d="m296.65 217.438h-99.317l14.461-62.128 70.309.003z" fill="#f5fcff"/><path d="m230.012 155.31-14.493 62.13-18.186-.002 14.461-62.128z" fill="#dff1f7"/><path d="m325.715 341.687h-157.3l14.459-62.125h128.26z" fill="#f5fcff"/><path d="m201.028 279.56-14.575 62.13-18.038-.003 14.459-62.127z" fill="#dff1f7"/></g></svg>