<svg id="Capa_1" enable-background="new 0 0 512 512" height="512" viewBox="0 0 512 512" width="512" xmlns="http://www.w3.org/2000/svg"><g><path d="m443.233 0h-96.256c-35.275 0-63.872 28.596-63.872 63.872v160.128l3.091 5.215v21.977l-3.091 4.808v64.128c0 35.275 28.596 63.872 63.872 63.872h46.259c29.309 0 54.856-19.947 61.965-48.381l49.998-199.991c1.267-5.066 1.907-10.269 1.907-15.491v-56.265c-.001-35.276-28.598-63.872-63.873-63.872zm31.627 120.137c0 2.584-.318 5.164-.945 7.671l-49.997 199.991c-3.526 14.105-16.143 23.956-30.683 23.956h-46.259c-17.439 0-31.627-14.188-31.627-31.627v-64.128l-3.091-5.666v-21.634l3.091-4.7v-160.128c0-17.439 14.188-31.627 31.627-31.627h96.257c17.439 0 31.627 14.188 31.627 31.627z" fill="#f07281"/><path d="m165.024 128h-96.257c-35.275 0-63.872 28.596-63.872 63.872v56.265c0 5.222.64 10.425 1.907 15.491l49.998 199.991c7.109 28.434 32.656 48.381 61.965 48.381h46.259c35.275 0 63.872-28.596 63.872-63.872v-64.128l-3.091-3.433v-25.24l3.091-3.324v-160.131c-.001-35.276-28.597-63.872-63.872-63.872zm31.627 320.128c0 17.439-14.188 31.627-31.627 31.627h-46.259c-14.539 0-27.157-9.851-30.683-23.956l-49.997-199.991c-.627-2.507-.945-5.088-.945-7.671v-56.265c0-17.439 14.188-31.627 31.627-31.627h96.257c17.439 0 31.627 14.188 31.627 31.627v160.131l3.091 4.955v23.437l-3.091 3.605z" fill="#f07281"/><path d="m196.651 352.003h32.244v31.997h-32.244z" fill="#c9ebfa" transform="matrix(-1 0 0 -1 425.546 736.003)"/><path d="m196.649 352.003h20.604v31.998h-20.604z" fill="#a0ddf3"/><path d="m283.105 224h32.244v32h-32.244z" fill="#c9ebfa"/><path d="m283.103 224.002h20.604v31.998h-20.604z" fill="#a0ddf3"/><path d="m446.937 176.364-29.32 116.732c-3.431 13.66 6.898 26.904 20.983 26.904h19.388c9.918 0 18.566-6.744 20.982-16.364l29.32-116.732c3.431-13.66-6.898-26.904-20.982-26.904h-19.388c-9.919 0-18.566 6.744-20.983 16.364z" fill="#c9ebfa"/><path d="m487.853 160.007c-9.643.299-17.946 6.954-20.315 16.359l-29.319 116.731c-3.389 13.485 6.634 26.558 20.439 26.888-.227.011-.443.011-.67.011h-19.388c-14.083 0-24.415-13.238-20.985-26.898l29.319-116.731c2.421-9.622 11.064-16.37 20.985-16.37h19.388c.185 0 .36 0 .546.01z" fill="#a0ddf3"/><g fill="#548eb5"><path d="m474.86 199.726c-4.267 0-7.726-3.459-7.726-7.726 0-4.267 3.459-7.726 7.726-7.726 4.267 0 7.726 3.459 7.726 7.726 0 4.267-3.459 7.726-7.726 7.726z"/><path d="m451.048 295.726c-4.267 0-7.726-3.459-7.726-7.726 0-4.267 3.459-7.726 7.726-7.726 4.267 0 7.726 3.459 7.726 7.726 0 4.267-3.459 7.726-7.726 7.726z"/></g><path d="m65.063 304.364 29.32 116.732c3.43 13.66-6.898 26.904-20.983 26.904h-19.388c-9.918 0-18.566-6.744-20.982-16.364l-29.32-116.732c-3.431-13.66 6.898-26.904 20.982-26.904h19.388c9.919 0 18.566 6.744 20.983 16.364z" fill="#c9ebfa"/><path d="m73.943 447.986c-.185.011-.361.011-.546.011h-19.388c-9.91 0-18.564-6.737-20.975-16.36l-29.319-116.731c-3.441-13.66 6.892-26.908 20.975-26.908h19.388c.227 0 .443 0 .67.01-13.805.33-23.828 13.413-20.429 26.898l29.319 116.731c2.359 9.406 10.673 16.05 20.305 16.349z" fill="#a0ddf3"/><g fill="#548eb5"><path d="m37.14 327.726c4.267 0 7.726-3.459 7.726-7.726 0-4.267-3.459-7.726-7.726-7.726-4.267 0-7.726 3.459-7.726 7.726 0 4.267 3.459 7.726 7.726 7.726z"/><path d="m60.952 423.726c4.267 0 7.726-3.459 7.726-7.726 0-4.267-3.459-7.726-7.726-7.726-4.267 0-7.726 3.459-7.726 7.726 0 4.267 3.459 7.726 7.726 7.726z"/></g><path d="m328.02 124.14v7.72l3.09 3.87v16.54l-3.09 3.29v8.24l3.09 3.92v16.43l-3.09 4.37v7.21l3.09 3.88v8.94c0 8.53-6.92 15.45-15.45 15.45h-33.1c-8.53 0-15.46-6.92-15.46-15.45v-8.94l3.09-3.62v-8.24l-3.09-3.6v-16.43l3.09-3.92v-7.21l-3.09-4.32v-16.54l3.09-3.87v-7.21l-3.09-4.38v-8.82c0-8.54 6.93-15.45 15.46-15.45h33.1c8.53 0 15.45 6.91 15.45 15.45v8.82z" fill="#c9ebfa"/><path d="m303.16 224h-20.6c-8.53 0-15.46-6.92-15.46-15.45v-8.94l3.09-3.62v-8.24l-3.09-3.6v-16.43l3.09-3.92v-7.21l-3.09-4.32v-16.54l3.09-3.87v-7.21l-3.09-4.38v-8.82c0-8.54 6.93-15.45 15.46-15.45h20.6c-8.53 0-15.45 6.91-15.45 15.45v97.1c0 8.53 6.92 15.45 15.45 15.45z" fill="#a0ddf3"/><g><g><path d="m267.104 120.273h64.006v15.453h-64.006z" fill="#548eb5"/></g><g><path d="m267.104 152.27h64.006v15.453h-64.006z" fill="#548eb5"/></g><g><path d="m267.104 184.155h64.006v15.453h-64.006z" fill="#548eb5"/></g></g><g><g><path d="m267.104 120.273h20.604v15.453h-20.604z" fill="#497090"/></g><g><path d="m267.104 152.27h20.604v15.453h-20.604z" fill="#497090"/></g><g><path d="m267.104 184.155h20.604v15.453h-20.604z" fill="#497090"/></g></g><path d="m241.8 252.57v7.21l3.09 3.95v16.54l-3.09 4.58v6.69l3.09 4.18v16.44l-3.09 4.11v7.38l3.09 3.96v8.94c0 8.53-6.91 15.45-15.45 15.45h-33.09c-8.54 0-15.45-6.92-15.45-15.45v-8.94l3.09-4.48v-6.86l-3.09-4.11v-16.44l3.09-4.01v-7.55l-3.09-3.89v-16.54l3.09-3.95v-7.9l-3.09-3.61v-8.81c0-8.55 6.91-15.46 15.45-15.46h33.09c8.54 0 15.45 6.91 15.45 15.46v8.81z" fill="#c9ebfa"/><path d="m216.95 352h-20.6c-8.54 0-15.45-6.92-15.45-15.45v-8.94l3.09-4.48v-6.86l-3.09-4.11v-16.44l3.09-4.01v-7.55l-3.09-3.89v-16.54l3.09-3.95v-7.9l-3.09-3.61v-8.81c0-8.55 6.91-15.46 15.45-15.46h20.6c-8.54 0-15.45 6.91-15.45 15.46v97.09c0 8.53 6.91 15.45 15.45 15.45z" fill="#a0ddf3"/><g><g><path d="m180.897 248.274h63.995v15.453h-63.995z" fill="#548eb5"/></g><g><path d="m180.897 280.271h63.995v15.453h-63.995z" fill="#548eb5"/></g><g><path d="m180.897 312.156h63.995v15.453h-63.995z" fill="#548eb5"/></g></g><g><g><path d="m180.897 248.274h20.604v15.453h-20.604z" fill="#497090"/></g><g><path d="m180.897 280.271h20.604v15.453h-20.604z" fill="#497090"/></g><g><path d="m180.897 312.156h20.604v15.453h-20.604z" fill="#497090"/></g></g></g></svg>