<svg id="Capa_1" enable-background="new 0 0 512 512" height="512" viewBox="0 0 512 512" width="512" xmlns="http://www.w3.org/2000/svg"><g><g><path d="m320 464.119c-44.112 0-79.999-35.887-79.999-79.999v-256.198c0-26.332-21.422-47.754-47.754-47.754h-.247c-26.332 0-47.754 21.422-47.754 47.754v138.423h-32.244v-138.423c0-44.112 35.887-80 79.999-80h.245c44.112 0 79.999 35.888 79.999 80v256.198c0 26.332 21.422 47.753 47.754 47.753s47.755-21.421 47.755-47.753v-138.421h32.244v138.421c0 44.112-35.887 79.999-79.998 79.999z" fill="#d8ecfe"/></g><path d="m160.123 330.302h-63.999v-67.301c0-3.866 3.134-7 7-7h49.999c3.866 0 7 3.134 7 7z" fill="#548eb5"/><path d="m116.729 256.001v74.297h-20.604v-67.297c0-3.866 3.134-7 7-7z" fill="#497090"/><path d="m192.123 352.061-9.83 10.302h-107.863l-10.305-10.302v-25.061c0-3.866 3.134-7 7-7h113.999c3.866 0 7 3.134 7 7v25.061z" fill="#fee97e"/><path d="m84.732 319.995v42.371h-10.302l-10.302-10.302v-25.069c0-3.866 3.134-7 7-7z" fill="#f9da58"/><path d="m160.12 437.7v54.3c0 11.04-8.95 20-20 20h-24c-11.04 0-20-8.96-20-20v-54.28l.01-.02z" fill="#ffb952"/><path d="m137.33 512h-21.21c-11.04 0-20-8.96-20-20v-54.28l.01-.02v-.01h20.6v53.71c0 11.37 9.22 20.6 20.6 20.6z" fill="#f4a94a"/><path d="m176.12 373.7v59.3c0 8.28-6.71 15-15 15h-66c-8.28 0-15-6.72-15-15v-59.3z" fill="#fee97e"/><path d="m116.18 448h-21.06c-8.28 0-15-6.72-15-15v-59.27l.01-.03h20.6v58.84c0 8.54 6.91 15.46 15.45 15.46z" fill="#f9da58"/><path d="m185.123 383.999h-113.998c-3.866 0-7-3.134-7-7v-25.061h127.999v25.061c-.001 3.866-3.135 7-7.001 7z" fill="#548eb5"/><path d="m84.732 351.941v32.059h-13.604c-3.866 0-7-3.134-7-7v-25.059z" fill="#497090"/><path d="m415.876 181.698h-63.999v67.301c0 3.866 3.134 7 7 7h49.999c3.866 0 7-3.134 7-7z" fill="#548eb5"/><path d="m372.481 255.999v-74.297h-20.604v67.297c0 3.866 3.134 7 7 7z" fill="#497090"/><path d="m447.875 159.939-9.83-10.302h-107.863l-10.305 10.302v25.061c0 3.866 3.134 7 7 7h113.999c3.866 0 7-3.134 7-7v-25.061z" fill="#fee97e"/><path d="m340.484 192.005v-42.371h-10.302l-10.302 10.302v25.069c0 3.866 3.134 7 7 7z" fill="#f9da58"/><path d="m415.88 20v54.3h-64v-54.3c0-11.04 8.95-20 20-20h24c11.04 0 20 8.96 20 20z" fill="#ffb952"/><path d="m393.08 0c-11.38 0-20.6 9.23-20.6 20.6v53.71h-20.6v-.01l-3.4-10.04-.02-.06c.79-.13 1.6-.2 2.42-.2h1v-44c0-11.04 8.95-20 20-20z" fill="#f4a94a"/><path d="m431.88 79v59.3h-96v-59.3c0-7.46 5.44-13.65 12.58-14.8.79-.13 1.6-.2 2.42-.2h66c8.28 0 15 6.72 15 15z" fill="#fee97e"/><path d="m371.94 64c-6.73 0-12.46 4.3-14.57 10.3l-.01.01c-.57 1.61-.88 3.34-.88 5.15v58.84h-20.6v-59.3c0-7.46 5.44-13.65 12.58-14.8.79-.13 1.6-.2 2.42-.2z" fill="#f9da58"/><path d="m440.875 128.001h-113.998c-3.866 0-7 3.134-7 7v25.061h127.999v-25.061c-.001-3.866-3.135-7-7.001-7z" fill="#548eb5"/><path d="m340.484 160.059v-32.059h-13.604c-3.866 0-7 3.134-7 7v25.059z" fill="#497090"/></g></svg>