<svg id="Capa_1" enable-background="new 0 0 512.13 512.13" height="512" viewBox="0 0 512.13 512.13" width="512" xmlns="http://www.w3.org/2000/svg"><g><path d="m413.354 335.102h-259.624v-237.619l129.812-78.381 129.812 78.381z" fill="#fee97e"/><path d="m293.988 25.416-119.366 72.068v237.613h-20.895v-237.613l129.813-78.379z" fill="#f9da58"/><path d="m285.731 275.263c-1.416.473-2.96.473-4.377 0-47.531-15.869-78.944-54.028-78.944-96.907v-52.979c0-2.604 1.446-4.993 3.753-6.201l74.133-38.822c2.034-1.065 4.461-1.065 6.495 0l74.133 38.822c2.307 1.208 3.753 3.597 3.753 6.201v52.979c-.002 42.879-31.415 81.038-78.946 96.907z" fill="#f5fcff"/><path d="m293.988 272.223c-2.693 1.089-5.451 2.105-8.266 3.043-1.413.471-2.952.471-4.365-.001-47.53-15.863-78.944-54.032-78.944-96.904v-52.986c0-2.604 1.446-4.993 3.753-6.201l74.126-38.815c2.034-1.065 4.462-1.065 6.496.001l7.2 3.773-66.926 35.041c-2.307 1.208-3.753 3.597-3.753 6.201v52.986c0 40.338 27.801 76.508 70.679 93.862z" fill="#d8ecfe"/><circle cx="283.542" cy="178.613" fill="#ade194" r="48.68"/><path d="m293.988 226.169c-3.364.742-6.864 1.128-10.448 1.128-26.882 0-48.676-21.804-48.676-48.687 0-26.882 21.794-48.676 48.676-48.676 3.584 0 7.084.387 10.448 1.128-21.867 4.774-38.228 24.249-38.228 47.547 0 23.301 16.361 42.775 38.228 47.56z" fill="#7dce6f"/><g><path d="m88.84 146.289c-5.625 0-11.1-2.905-14.139-8.114-4.55-7.8-1.916-17.812 5.884-22.363l194.719-113.585c5.091-2.969 11.386-2.969 16.478 0l194.718 113.585c7.8 4.55 10.434 14.563 5.885 22.363-4.552 7.801-14.564 10.434-22.363 5.885l-186.479-108.78-186.48 108.78c-2.59 1.511-5.426 2.229-8.223 2.229z" fill="#f07281"/></g><g><path d="m275.591 202.739c-2.076 0-4.067-.823-5.537-2.291l-10.559-10.544c-3.062-3.059-3.066-8.019-.008-11.082 3.058-3.062 8.018-3.066 11.082-.008l4.992 4.986 18.642-18.816c3.047-3.075 8.008-3.097 11.081-.052 3.074 3.047 3.098 8.007.052 11.081l-24.179 24.404c-1.467 1.48-3.462 2.316-5.545 2.321-.007.001-.014.001-.021.001z" fill="#f5fcff"/></g><path d="m477.354 303.025-132.08 103.23c-9.14 7.16-20.41 11.04-32.01 11.04h-131.19l-13.26-.005-45.875-45.875-2.415-15.67s32.02-67.41 94.9-67.41c6 0 11.98.55 17.85 1.65s11.65 2.73 17.24 4.89l24.89 9.62h49.28c10.96 0 19.94 8.45 20.78 19.19.06.55.08 1.11.08 1.67 0 0-.32 4.18-.91 6.12h.01l111.85-64.59c8.42-4.86 18.82-3.18 25.32 3.47v.01c1.21 1.22 2.27 2.62 3.17 4.17 5.5 9.48 1.87 23.01-7.63 28.49z" fill="#ffcebf"/><path d="m160.318 364.193 53.097 53.097h-31.343-13.258l-45.875-45.875-2.415-15.673s32.022-67.409 94.897-67.409c5.422 0 10.824.449 16.142 1.348-38.053 6.848-62.633 38.1-73.408 55.05-3.934 6.189-3.022 14.276 2.163 19.462z" fill="#ffb09e"/><path d="m205.584 451.155-17.08 17.08-22 3.62-91.96-91.96.99-24.63.03-.04 17.05-17.05c2.86-2.85 7.49-2.85 10.34 0l5.28 5.28 97.35 97.35c2.86 2.86 2.86 7.49 0 10.35z" fill="#f5fcff"/><path d="m198.954 457.785-10.45 10.45-22 3.62-91.96-91.96.99-24.63.03-.04 17.05-17.05c2.86-2.85 7.49-2.85 10.34 0l5.28 5.28-6.63 6.63c-2.86 2.86-2.86 7.49 0 10.35z" fill="#d8ecfe"/><path d="m481.814 270.355v.01l-140.87 81.667c-2.286 1.325-4.881 2.023-7.523 2.023h-103.357c-4.49 0-8.105-3.792-7.814-8.355.266-4.164 3.908-7.314 8.08-7.314h94.353c5.77 0 10.77-3.7 12.46-9.21 1.11-3.64 4.66-5.89 8.32-5.49.06.55.08 1.11.08 1.67 0 0-.32 4.18-.91 6.12h.01l39.59-22.86 72.26-41.73c8.421-4.861 18.821-3.181 25.321 3.469z" fill="#ffb09e"/><path d="m188.504 468.235-31.12 31.12-10.73 10.72c-2.73 2.74-7.16 2.74-9.9 0l-117.19-117.19c-2.73-2.73-2.73-7.17 0-9.9l36.9-36.9c2.73-2.73 7.16-2.73 9.9 0l10.72 10.72z" fill="#548eb5"/><path d="m157.384 499.355-10.73 10.72c-2.73 2.74-7.16 2.74-9.9 0l-117.19-117.19c-2.73-2.73-2.73-7.17 0-9.9l36.9-36.9c2.73-2.73 7.16-2.73 9.9 0l10.72 10.72-20.04 20.04c-6.12 6.12-6.12 16.05 0 22.17z" fill="#497090"/></g></svg>