<svg id="Capa_1" enable-background="new 0 0 512 512" height="512" viewBox="0 0 512 512" width="512" xmlns="http://www.w3.org/2000/svg"><g><path d="m320 31.94v448.12c0 17.64-14.29 31.94-31.94 31.94h-224.12c-17.64 0-31.94-14.3-31.94-31.94v-448.12c0-17.64 14.3-31.94 31.94-31.94h224.12c17.65 0 31.94 14.3 31.94 31.94z" fill="#548eb5"/><path d="m319.997 331.399v137.2h-159.998c-37.828 0-68.6-30.772-68.6-68.6s30.772-68.6 68.6-68.6z" fill="#497090"/><path d="m115.44 512h-51.5c-17.64 0-31.94-14.3-31.94-31.94v-448.12c0-17.64 14.3-31.94 31.94-31.94h51.5c-17.63 0-31.93 14.3-31.93 31.94v448.12c0 17.64 14.3 31.94 31.93 31.94z" fill="#497090"/><path d="m288 47v418c0 8.28-6.71 15-15 15h-194c-8.28 0-15-6.72-15-15v-418c0-8.28 6.72-15 15-15h194c8.29 0 15 6.72 15 15z" fill="#c9ebfa"/><path d="m287.999 331.399v133.151c0 1.401-.185 2.761-.536 4.049h-127.464c-37.828 0-68.6-30.772-68.6-68.6s30.772-68.6 68.6-68.6z" fill="#a0ddf3"/><path d="m83.51 32v448h-4.51c-8.28 0-15-6.72-15-15v-418c0-8.28 6.72-15 15-15z" fill="#a0ddf3"/><path d="m465 447.998h-306.404c-25.733 0-46.593-20.861-46.593-46.593v-2.813c0-25.733 20.861-46.593 46.593-46.593h306.404c8.284 0 15 6.716 15 15v65.999c0 8.285-6.716 15-15 15z" fill="#98bce5"/><circle cx="160.003" cy="399.999" fill="#c9ebfa" r="16"/><g fill="#98bce5"><path d="m121.003 96.001h-18c-3.866 0-7-3.134-7-7v-18c0-3.866 3.134-7 7-7h18c3.866 0 7 3.134 7 7v18c0 3.866-3.134 7-7 7z"/><path d="m185.002 96.001h-18c-3.866 0-7-3.134-7-7v-18c0-3.866 3.134-7 7-7h18c3.866 0 7 3.134 7 7v18c0 3.866-3.134 7-7 7z"/><path d="m249.002 96.001h-18c-3.866 0-7-3.134-7-7v-18c0-3.866 3.134-7 7-7h18c3.866 0 7 3.134 7 7v18c0 3.866-3.134 7-7 7z"/><path d="m121.003 160.001h-18c-3.866 0-7-3.134-7-7v-18c0-3.866 3.134-7 7-7h18c3.866 0 7 3.134 7 7v18c0 3.866-3.134 7-7 7z"/><path d="m185.002 160.001h-18c-3.866 0-7-3.134-7-7v-18c0-3.866 3.134-7 7-7h18c3.866 0 7 3.134 7 7v18c0 3.866-3.134 7-7 7z"/><path d="m249.002 160.001h-18c-3.866 0-7-3.134-7-7v-18c0-3.866 3.134-7 7-7h18c3.866 0 7 3.134 7 7v18c0 3.866-3.134 7-7 7z"/><path d="m121.003 224h-18c-3.866 0-7-3.134-7-7v-18c0-3.866 3.134-7 7-7h18c3.866 0 7 3.134 7 7v18c0 3.866-3.134 7-7 7z"/><path d="m185.002 224h-18c-3.866 0-7-3.134-7-7v-18c0-3.866 3.134-7 7-7h18c3.866 0 7 3.134 7 7v18c0 3.866-3.134 7-7 7z"/><path d="m249.002 224h-18c-3.866 0-7-3.134-7-7v-18c0-3.866 3.134-7 7-7h18c3.866 0 7 3.134 7 7v18c0 3.866-3.134 7-7 7z"/><path d="m121.003 288h-18c-3.866 0-7-3.134-7-7v-18c0-3.866 3.134-7 7-7h18c3.866 0 7 3.134 7 7v18c0 3.866-3.134 7-7 7z"/><path d="m185.002 288h-18c-3.866 0-7-3.134-7-7v-18c0-3.866 3.134-7 7-7h18c3.866 0 7 3.134 7 7v18c0 3.866-3.134 7-7 7z"/><path d="m249.002 288h-18c-3.866 0-7-3.134-7-7v-18c0-3.866 3.134-7 7-7h18c3.866 0 7 3.134 7 7v18c0 3.866-3.134 7-7 7z"/></g><path d="m441 415.999h-209.998c-3.866 0-7-3.134-7-7v-18c0-3.866 3.134-7 7-7h209.998c3.866 0 7 3.134 7 7v18c0 3.866-3.134 7-7 7z" fill="#c9ebfa"/></g></svg>