<svg id="Capa_1" enable-background="new 0 0 504.615 504.615" height="512" viewBox="0 0 504.615 504.615" width="512" xmlns="http://www.w3.org/2000/svg"><g><circle cx="345.494" cy="426.84" fill="#fee97e" r="77.656"/><path d="m360.498 503.048c-4.85.95-9.87 1.45-15 1.45-42.89 0-77.66-34.77-77.66-77.66s34.77-77.65 77.66-77.65c5.13 0 10.15.5 15 1.45-35.71 6.98-62.66 38.44-62.66 76.2s26.95 69.22 62.66 76.21z" fill="#f9da58"/><path d="m65.934 271.529c0-25.733 20.861-46.593 46.593-46.593 25.733 0 46.593 20.861 46.593 46.593 0-25.733 20.861-46.593 46.593-46.593 25.733 0 46.593 20.861 46.593 46.593 0-25.733 20.861-46.593 46.593-46.593 25.733 0 46.593 20.861 46.593 46.593 0-25.733 20.861-46.593 46.593-46.593 25.733 0 46.593 20.861 46.593 46.593v-46.629c0-102.911-83.426-186.338-186.338-186.338-102.8 0-186.18 83.252-186.337 186.052z" fill="#548eb5"/><path d="m252.348 38.558c5.05 0 10.06.2 15.01.6-45.43 3.61-86.26 23.52-116.67 53.88-33.72 33.66-54.6 80.18-54.68 131.58v3.34c-17.58 6.66-30.07 23.66-30.07 43.57l.07-46.91c.08-51.4 20.96-97.92 54.68-131.58s80.26-54.48 131.66-54.48z" fill="#497090"/><g><path d="m252.308 397.628c-4.143 0-7.5-3.357-7.5-7.5v-382.628c0-4.143 3.357-7.5 7.5-7.5s7.5 3.357 7.5 7.5v382.628c0 4.143-3.358 7.5-7.5 7.5z" fill="#98bce5"/></g><path d="m372.791 442.312c0-12.699-10.332-23.031-23.031-23.031h-8.531c-4.429 0-8.031-3.603-8.031-8.031s3.603-8.031 8.031-8.031h7.622c2.907 0 5.422 1.87 6.257 4.654 1.19 3.968 5.376 6.22 9.338 5.029 3.968-1.189 6.22-5.371 5.029-9.338-2.346-7.823-8.718-13.442-16.48-14.937v-9.287c0-4.143-3.357-7.5-7.5-7.5s-7.5 3.357-7.5 7.5v9.11c-11.173 1.578-19.797 11.198-19.797 22.8 0 12.699 10.332 23.031 23.031 23.031h8.531c4.429 0 8.031 3.603 8.031 8.031s-3.603 8.031-8.031 8.031h-9.622c-2.906 0-5.421-1.871-6.257-4.656-1.191-3.967-5.372-6.218-9.34-5.027-3.967 1.191-6.218 5.372-5.027 9.34 2.547 8.485 9.826 14.384 18.48 15.228v8.992c0 4.143 3.357 7.5 7.5 7.5s7.5-3.357 7.5-7.5v-9.109c11.173-1.578 19.797-11.198 19.797-22.799z" fill="#ffb952"/><path d="m252.343 31.063c-.004 0-.008 0-.011 0-.002 0-.004 0-.006 0-.006 0-.013 0-.019 0-51.706.01-100.331 20.133-136.922 56.668-36.599 36.543-56.799 85.151-56.878 136.871l-.071 46.775v.136.004.012c0 4.14 3.354 7.497 7.494 7.5h.006c4.137 0 7.494-3.351 7.5-7.488v-.143c.07-21.496 17.58-38.963 39.093-38.963 21.557 0 39.094 17.537 39.094 39.094 0 10.135 15 9.969 15 0 0-21.556 17.537-39.094 39.093-39.094 21.557 0 39.094 17.537 39.094 39.094 0 4.143 3.357 7.5 7.5 7.5s7.5-3.357 7.5-7.5c0-21.557 17.537-39.094 39.094-39.094 21.556 0 39.093 17.537 39.093 39.094 0 4.143 3.357 7.5 7.5 7.5s7.5-3.357 7.5-7.5c0-21.557 17.537-39.094 39.094-39.094 21.556 0 39.093 17.537 39.093 39.094 0 4.143 3.357 7.5 7.5 7.5s7.5-3.357 7.5-7.5v-46.63c-.003-106.881-86.958-193.836-193.841-193.836zm-139.816 186.373c-15.327 0-29.184 6.406-39.036 16.684l.015-9.493c.126-82.457 56.417-152.027 132.541-172.468-9.674 9.508-18.535 22.1-26.257 37.522-18.104 36.149-28.094 84.068-28.133 134.928l-.007 9.606c-9.858-10.33-23.751-16.779-39.123-16.779zm186.374 0c-19.813 0-37.171 10.705-46.594 26.637-9.423-15.932-26.781-26.637-46.594-26.637-15.342 0-29.21 6.425-39.064 16.72l.007-9.535c.037-48.577 9.464-94.114 26.545-128.224 16.249-32.449 37.239-50.323 59.105-50.333h.024c21.895.003 42.907 17.913 59.166 50.43 17.087 34.173 26.497 79.775 26.497 128.406v9.286c-9.855-10.314-23.735-16.75-39.092-16.75zm132.28 16.742c-9.855-10.311-23.737-16.742-39.093-16.742-15.357 0-29.238 6.437-39.094 16.75v-9.286c0-50.914-9.973-98.898-28.08-135.114-7.742-15.483-16.629-28.118-26.335-37.65 76.271 20.431 132.601 90.138 132.601 172.765v9.277z" fill="#98bce5"/><g><g><path d="m220.343 504.607c-25.574-.485-45.81-21.908-45.81-47.487v-14.749c0-8.643 7.007-15.65 15.65-15.65 8.643 0 15.65 7.007 15.65 15.65v15.085c0 8.288 6.356 15.431 14.635 15.839 8.849.437 16.189-6.637 16.189-15.393v-70.774c0-3.866 3.134-7 7-7h17.301c3.866 0 7 3.134 7 7v70.774c0 26.058-21.446 47.201-47.615 46.705z" fill="#548eb5"/></g></g></g></svg>